<svg width="101" height="54" viewBox="0 0 101 54" fill="none" xmlns="http://www.w3.org/2000/svg">
<path fill-rule="evenodd" clip-rule="evenodd" d="M100.51 0.558595C101.384 1.24407 100.652 3.33194 96.8278 11.0442C87.6596 29.5236 84.183 31.1053 77.5135 39.8732C65.2019 56.012 55.4436 57.1436 39.6814 44.2968C39.3551 44.0223 21.4876 26.1199 19.1972 23.5055C17.5609 21.6132 17.6186 21.6129 15.7194 23.7348C14.8157 24.7606 13.8082 25.8221 13.4987 26.1025C11.9284 27.5507 8.6473 25.3155 8.18161 22.499C7.46956 18.0663 5.63674 13.6901 1.86559 7.27436C-0.249301 3.65247 0.47832 3.57628 6.77315 6.65035C12.4873 9.44083 16.2215 10.6894 20.1216 11.1268C26.5444 11.8181 24.7759 13.0833 21.5176 16.9867C20.5458 18.1519 19.6773 19.2234 19.5979 19.386C18.9627 20.6868 37.1369 38.0201 37.5226 38.4674C51.9647 54.7833 60.6812 54.7246 73.4168 38.1887C78.9449 30.9923 83.1572 27.7273 90.4753 14.1556C97.5666 1.04853 98.8911 -0.721064 100.51 0.558595Z" fill="black"/>
</svg>
