<svg width="256" height="256" viewBox="0 0 256 256" fill="none" xmlns="http://www.w3.org/2000/svg">
<g clip-path="url(#clip0_2729_2351)">
<path d="M205.075 27.5034L203.988 29.6932C200.691 33.5901 198.904 36.133 197.869 37.2945L190.599 34.6295L192.071 36.9082C192.084 36.9291 193.468 39.1251 193.822 44.2626C194.031 47.2943 192.163 50.1568 190.783 51.7233C189.224 53.4921 186.036 53.6168 184.416 53.7082C183.004 53.7883 181.274 52.9614 179.943 51.5912C178.175 49.7717 177.246 47.2178 177.326 44.3984C177.498 38.3697 179.795 35.1578 179.952 35.0603L182.285 33.6395L179.575 33.3013C178.335 33.1457 175.142 33.3976 173.464 33.2049C171.286 26.9306 167.51 22.9274 167.346 22.7559L166.657 22.035L165.968 22.7546C162.51 26.3701 160.941 29.7042 159.993 31.046L150.91 29.3067L153.264 31.4373C153.297 31.4682 155.806 34.601 155.806 39.4201C155.806 43.7417 152.067 48.757 146.713 48.9446C144.749 49.0175 142.853 48.1163 141.36 46.4314C139.525 44.3613 137.776 41.1964 138.092 38.5832C138.663 33.8629 140.566 31.32 140.689 31.2398L143.31 29.5647L135.367 30.1005C134.105 26.6936 128.752 20.9697 128.1 20.2822L127.398 19.5391L126.706 20.2933C123.211 24.1063 120.908 28.2501 120.152 29.7055C118.963 29.7182 118.079 29.0056 114.388 29.2253L111.435 29.4005L113.937 30.9817C116.318 32.4852 116.345 36.339 116.577 39.4842C116.795 42.4307 115.393 44.9451 113.555 46.9251C112.117 48.473 110.237 49.3247 108.26 49.3247C106.283 49.3247 104.402 48.473 102.965 46.9251C101.127 44.9451 98.9672 42.1085 99.1857 39.162C99.382 36.5192 99.3067 33.711 101.125 32.1124L103.437 30.0794L100.381 30.451C98.3142 30.7028 98.6191 31.1188 96.791 31.4409C92.736 25.6467 89.513 22.8348 89.3661 22.7027L88.6453 22.0584L88.012 22.7891C85.8062 25.3332 82.398 31.7545 81.4574 33.5616C80.2564 33.6714 78.6998 33.2172 74.8374 33.7517L71.8329 34.1665L74.535 35.544C77.1149 36.8587 77.3988 40.6013 77.8197 44.086C78.4369 49.1964 75.757 53.7389 71.8453 54.2117C71.6268 54.2377 71.4046 54.2511 71.1836 54.2511C67.5225 54.2511 62.9774 51.0516 62.4047 46.3128C62.0146 43.0775 61 40.284 63.0379 37.1709L65.2388 34.9749L62.1862 35.5613C59.6829 36.0414 59.0595 36.8166 57.0586 37.3585C53.4825 31.4162 51.6989 29.7621 51.5581 29.693L50.1016 28.9721L50.1843 30.5953C50.2201 30.8953 50.4817 35.6995 50.9088 43.4231L50.8961 43.4285L50.9125 43.4656C51.2964 50.4078 51.8148 59.7014 52.4234 70.2048L52.4179 70.2061C52.4179 70.2061 57.2221 149.248 58.8886 161.68C60.5562 174.113 61.0315 191.003 70.8337 206.833C82.5172 225.699 110.948 237.535 129.946 236.803C152.725 235.925 175.649 224.148 186.667 204.427C197.872 184.376 198.005 149.652 198.378 144.731C198.743 139.901 202.688 72.5243 202.835 70.0012V69.9999C202.837 69.953 202.84 69.9258 202.84 69.9258H202.839C203.534 56.5278 204.089 45.0356 204.463 37.7947L204.512 37.6675L204.472 37.6529C204.705 33.1413 204.87 30.3096 204.952 29.743L205.076 27.5038" fill="#FFCC00"/>
<path d="M201.899 64.2792C159.238 53.0796 120.88 53.7561 96.0993 56.3359C73.7692 58.659 58.1777 62.8942 53.2265 64.3644C52.8488 58.2714 52.5007 52.6451 52.1921 47.715L57.8481 60.7229L58.6196 60.5612C58.7294 60.5377 69.755 58.2269 82.716 56.3198L83.3629 56.2247L88.6942 34.0391L95.2376 54.7052L96.0561 54.5805C96.1313 54.5678 103.772 53.4128 121.287 52.2697L121.981 52.2254L127.558 31.1026L132.825 53.024L133.564 53.0449C133.696 53.0486 147.004 53.4436 158.813 54.5867L159.584 54.6607L166.426 33.7909L171.047 56.0383L171.726 56.1284C171.842 56.1448 183.436 57.6998 195.82 60.176L196.625 60.3377L203.145 42.9527C202.776 48.8123 202.356 56.1125 201.899 64.2792ZM127.806 59.2762C89.7434 59.0763 61.3068 66.4653 53.4981 68.7304C53.4487 67.9268 53.3994 67.1331 53.35 66.3431C57.658 65.0408 73.3754 60.6427 96.2992 58.2579C120.993 55.6879 159.257 55.0164 201.789 66.248C201.748 66.9788 201.706 67.7145 201.665 68.4588C193.761 66.3122 165.671 59.475 127.806 59.2762ZM197.178 145.082C196.81 149.947 197.051 184.392 185.748 204.075C173.714 225.03 149.711 235.697 129.399 235.697C110.642 235.697 83.3777 225.104 71.851 206.452C62.1795 190.804 61.7117 174.107 60.0663 161.817C58.4208 149.526 53.6808 71.3905 53.6808 71.3905C53.6808 71.3905 84.3454 61.3105 128.055 61.5413C171.766 61.7709 201.581 71.1338 201.581 71.1338C201.581 71.1338 197.546 140.217 197.178 145.082ZM56.2298 37.6708L56.6063 38.3225L57.3309 38.1176C58.8159 37.6979 60.4724 37.2906 62.2771 36.9018C60.997 39.1471 60.4551 41.964 60.8057 44.8598C61.513 50.7158 65.6297 55.1324 70.3821 55.1324C70.6832 55.1324 70.9869 55.1139 71.2856 55.078C76.3096 54.4707 79.7844 48.8987 79.0314 42.6577C78.6487 39.4964 77.2378 36.6635 75.1888 34.7724C78.8857 34.3107 81.4644 34.0959 81.4952 34.0935L82.0309 34.0489L82.2766 33.57C82.3148 33.4948 85.8341 26.6352 88.2745 23.353C89.541 24.6182 92.285 27.545 95.3068 31.9381L95.6611 32.4541L96.277 32.3405C97.5151 32.1146 98.8235 31.9023 100.189 31.7073C99.005 33.4391 98.2681 35.545 98.1039 37.7644C97.8434 41.2873 98.9717 44.6844 101.201 47.084C103.028 49.0516 105.439 50.1354 107.986 50.1354C110.535 50.1354 112.946 49.0516 114.773 47.084C117.002 44.6844 118.131 41.2873 117.87 37.7644C117.659 34.9142 116.526 32.3035 114.735 30.3964C118.269 30.2346 120.617 30.231 120.644 30.231H121.251L121.515 29.6841C121.537 29.636 123.733 25.1169 127.422 20.8472C129.56 23.1999 133.417 27.7807 133.801 29.8298L133.945 30.5976L139.915 30.7506C138.797 32.0838 137.519 34.2303 137.143 37.3336C136.759 40.5171 137.897 44.0487 140.112 46.5495C141.943 48.6159 144.308 49.754 146.771 49.754C146.866 49.754 146.96 49.7522 147.056 49.7486C152.782 49.5486 156.78 45.0184 156.78 38.7341C156.78 35.5099 155.587 32.9967 154.504 31.3797L160.135 32.2462L160.479 31.7413C160.508 31.697 163.392 27.4753 167.186 23.3648C168.396 24.8424 170.957 28.3357 172.481 33.0411L172.672 33.6336L173.29 33.704C173.34 33.7094 176.916 34.1187 179.441 34.4138C178.016 35.9654 176.231 38.7699 176.106 43.152C176.008 46.5379 177.145 49.6264 179.305 51.8495C181.06 53.6541 183.352 54.6935 185.339 54.5787C187.35 54.464 190.171 53.8455 192.192 51.552C193.947 49.5609 194.709 46.7218 194.461 43.1125C194.265 40.2697 193.774 38.2206 193.317 36.8591L197.657 38.3058L198.08 37.8355C198.11 37.8022 200.648 34.9791 203.999 31.0711C203.876 32.3931 203.739 34.1471 203.588 36.2678L195.392 58.1226C184.965 56.0636 175.264 54.67 172.661 54.3071L166.846 26.3088L158.23 52.5901C148.161 51.6482 137.256 51.2359 134.359 51.1384L127.645 23.1993L120.467 50.3879C106.517 51.3125 98.9506 52.2383 96.5843 52.5555L88.4386 26.8321L81.7889 54.5046C71.0103 56.1081 61.6758 57.9646 58.9935 58.5114L51.8353 42.0496C51.5415 37.3935 51.2971 33.6546 51.1181 31.1303C52.3649 32.2178 54.2474 34.2256 56.2298 37.6708ZM206.182 25.5145L204.354 27.6747C201.01 31.6272 198.116 34.8922 197.065 36.071L189.265 33.4751L190.757 35.7859C190.77 35.808 192.174 38.0337 192.533 43.2453C192.746 46.3201 192.143 48.6852 190.742 50.2726C189.161 52.0674 186.871 52.555 185.229 52.6488C183.796 52.7302 182.041 51.8909 180.692 50.5022C178.898 48.6568 177.955 46.0658 178.038 43.2058C178.212 37.0918 182.052 34.6342 182.211 34.5354L184.578 33.0949L181.83 32.7517C180.571 32.5938 175.822 32.0481 174.12 31.8531C171.912 25.4898 168.081 21.43 167.915 21.2547L167.217 20.5239L166.517 21.2547C163.01 24.9208 160.191 28.7894 159.231 30.1509L149.109 28.5956L151.497 30.757C151.531 30.7866 154.849 33.8466 154.849 38.7336C154.849 43.1181 152.418 47.6273 146.988 47.8174C144.996 47.8914 143.074 46.9768 141.559 45.2684C139.698 43.1687 138.741 40.2173 139.062 37.5659C139.641 32.7789 142.683 30.7409 142.808 30.6595L145.466 28.9597L135.48 28.7042C134.2 25.2491 128.77 19.4438 128.109 18.7464L127.397 17.9922L126.696 18.7575C123.151 22.6248 120.817 26.8279 120.048 28.3042C118.843 28.317 115.91 28.3733 112.167 28.5956L109.17 28.7746L111.708 30.3768C114.124 31.9025 115.706 34.7182 115.943 37.9078C116.164 40.8963 115.221 43.7613 113.357 45.7696C111.899 47.3385 109.992 48.2026 107.986 48.2026C105.982 48.2026 104.075 47.3385 102.617 45.7696C100.753 43.7613 99.8098 40.8963 100.031 37.9078C100.23 35.2267 101.401 32.7604 103.245 31.1397L105.59 29.0783L102.491 29.4547C100.395 29.709 98.3977 30.0028 96.5424 30.3299C92.4294 24.4543 88.9731 21.335 88.8238 21.2016L88.0918 20.5474L87.4499 21.2893C85.2132 23.8691 81.7569 30.3818 80.8015 32.2148C79.5832 32.3259 76.4022 32.6382 72.4842 33.1789L69.4377 33.6011L72.1781 34.9971C74.795 36.3315 76.6861 39.3558 77.1119 42.8898C77.739 48.073 75.0209 52.6797 71.0536 53.1587C70.8314 53.1858 70.6055 53.1994 70.3821 53.1994C66.6678 53.1994 63.3041 49.4345 62.7239 44.6278C62.3277 41.3468 63.3016 38.0905 65.2655 36.1315L67.4973 33.9047L64.4002 34.4997C61.8623 34.986 59.5528 35.5106 57.5234 36.0599C53.8981 30.0312 50.6195 28.3611 50.4763 28.2907L49 27.5612L49.084 29.2066C49.1198 29.5115 49.3839 34.3836 49.8184 42.2171L49.8057 42.2225L49.8221 42.2583C50.2109 49.3004 50.7368 58.7262 51.3539 69.379C51.3539 69.3802 51.3485 69.3808 51.3485 69.3808C51.3485 69.3808 56.2206 149.547 57.9117 162.157C59.6028 174.769 60.0855 191.9 70.0272 207.954C81.8773 227.09 110.713 238.702 129.983 237.959C153.085 237.07 176.336 225.516 187.512 205.515C198.876 185.177 199.011 149.958 199.388 144.966C199.76 140.068 203.761 71.7311 203.91 69.1722V69.171C203.914 69.1228 203.915 69.0957 203.915 69.0957C204.62 55.5063 205.182 43.8513 205.563 36.5067L205.611 36.3783L205.571 36.362C205.808 31.7861 205.973 28.9137 206.058 28.3397L206.183 25.513" fill="#231F20"/>
<path d="M96.0621 178.064C95.8214 177.927 95.6906 177.116 95.756 176.536C95.756 176.536 96.9361 175.883 98.2322 176.026C97.6187 177.553 96.3991 178.259 96.0621 178.064ZM168.433 204.031C168.197 201.187 166.61 192.043 162.32 189.515C162.441 189.457 162.607 189.426 162.783 189.426C169.151 189.393 174.158 179.902 166.61 175.715C157.921 170.896 141.035 180.313 132.944 182.862C130.969 183.49 127.262 185.49 124.655 181.261C122.064 177.037 127.233 173.408 126.58 172.37C126.203 171.791 119.78 174.34 119.593 179.08C119.418 183.527 121.115 187.407 124.953 187.386C128.352 187.361 136.639 184.837 143.445 181.482C152.06 177.237 160.482 175.926 163.687 178.101C166.423 179.965 165.445 182.084 165.003 183.511C163.074 189.758 153.199 182.493 142.903 187.172C127.362 194.219 118.819 191.395 114.993 189.499C114.682 185.49 112.492 178.928 110.387 177.679C110.387 177.679 110.904 177.258 111.094 175.083C109.679 174.857 106.952 175.504 106.952 175.504C106.952 175.504 103.726 174.13 102.25 174.13C96.3139 174.13 89.8137 175.941 89.6939 176.521C89.568 177.111 90.6777 182.358 90.6777 182.358L92.6972 181.819C94.0081 180.966 93.6168 182.453 93.8069 183.406C87.0622 184.779 83.8676 183.379 82.8776 179.591C80.2163 189.942 91.3011 185.202 93.8328 184.912C93.4613 186.803 92.1701 187.386 91.2456 185.632C91.3012 187.823 91.7331 189.068 92.4713 189.719C93.2144 190.368 95.44 188.625 96.0621 188.044C96.1003 187.964 99.2172 186.434 96.8361 193.376C96.53 194.271 84.2392 192.857 83.6467 191.411C79.2103 180.587 68.2181 194.26 73.9283 193.27C78.0018 192.564 79.7263 192.914 80.0509 194.545C81.663 196.841 98.1063 205.732 99.1567 208.281C99.0653 208.439 98.8852 208.56 98.6136 208.644C97.2373 209.071 94.0328 210.999 92.3009 212.895C81.9136 212.089 83.5862 216.74 83.5862 217.761L102.954 217.498C104.44 217.498 118.695 214.322 122.527 212.568C122.527 212.568 122.164 210.219 122.727 210.135C136.689 207.907 137.143 199.923 142.768 199.633C142.581 201.745 140.342 207.581 140.472 211.436C130.146 211.952 131.884 216.834 131.884 216.834H146.67C146.67 216.834 151.14 203.399 154.856 201.961C155.108 201.866 155.35 201.818 155.59 201.818C156.866 203.715 162.783 209.956 165.706 210.767C158.538 211.568 158.062 215.887 158.062 215.887H171.612L173.722 206.048C171.884 204.5 170.125 203.825 168.433 204.031Z" fill="#231F20"/>
<path d="M93.7641 183.712C93.7641 183.712 84.9715 186.472 82.9175 180.734C82.9175 180.734 80.9548 188.059 91.1398 185.178C91.7458 184.994 93.7641 184.534 93.7641 184.534C93.7641 184.534 93.7641 184.329 93.7641 183.712Z" fill="#FF0000"/>
<path d="M91.3255 128.551C91.0083 128.382 90.8478 127.496 90.928 126.834C90.928 126.834 92.4426 126.103 94.1177 126.262C93.3129 127.98 91.7477 128.772 91.3255 128.551ZM179.147 156.893C178.825 153.552 176.18 144.35 173.479 140.843C178.182 140.355 182.818 130.123 173.076 125.451C161.858 120.068 145.437 130.663 134.985 133.517C132.45 134.211 127.656 136.447 124.317 131.723C120.967 127.008 127.631 122.946 126.786 121.79C126.313 121.143 118.019 123.991 117.783 129.286C117.561 134.257 122.48 138.108 127.425 138.076C131.806 138.057 139.778 135.717 148.529 131.969C159.646 127.214 167.106 126.186 171.25 128.627C174.771 130.71 174.771 132.802 174.197 134.411C171.703 141.383 161.431 134.072 148.128 139.301C128.109 147.176 118.497 141.82 113.558 139.706C113.161 135.229 110.133 127.496 107.421 126.103C107.421 126.103 108.618 125.533 108.86 123.086C107.029 122.844 102.96 124.233 102.96 124.233C102.96 124.233 99.9316 123.416 98.0146 123.416C90.3652 123.416 82.8749 126.834 82.7194 127.496C82.5589 128.14 83.992 134 83.992 134C85.4202 130.745 87.7445 133.434 87.9853 134.488C79.2989 136.041 78.0916 131.969 76.8239 127.733C73.3886 139.301 84.7869 137.181 88.0507 136.853C87.5828 138.971 85.9028 139.623 84.7166 137.665C84.7869 140.113 85.3498 141.491 86.3052 142.231C87.2619 142.966 90.1331 141.008 90.928 140.355C90.6923 141.008 90.4454 143.044 90.2084 144.591C89.0925 144.262 81.1245 142.966 79.2088 143.208C75.2291 136.535 65.1898 139.137 65.749 145.896C71.8049 143.285 74.1934 145.325 74.1132 148.498C76.3474 151.268 87.4224 157.788 92.0402 159.895C90.2948 160.714 84.5549 164.384 82.3169 166.497C68.9276 165.597 70.2101 170.327 70.2101 171.474H92.3611C94.2732 171.474 109.333 167.644 114.276 165.685C114.276 165.685 114.664 164.544 114.826 163.896C133.084 163.737 140.407 152.579 147.651 152.246C147.423 154.611 146.856 161.12 147.021 165.438C133.717 166.003 135.94 171.474 135.94 171.474H153.877C153.877 171.474 157.066 161.525 162.076 155.907C165.516 159.258 175.314 164.79 179.379 165.767C170.134 166.661 172.045 171.474 172.045 171.474H187.184L187.588 159.413C187.588 159.413 179.213 156.893 179.147 156.893Z" fill="#231F20"/>
<path d="M84.4671 135.327C85.5361 135.319 86.7853 135.188 88.0456 134.916C88.0456 134.916 88.0583 135.764 88.0444 136.489C88.0258 136.495 86.0508 136.876 83.8141 136.876C80.8664 136.876 78.8272 136.217 77.699 134.817C76.788 133.686 76.5275 131.283 76.9176 129.316C76.9176 129.316 77.7187 135.369 84.4671 135.327Z" fill="#FF0000"/>
<path d="M89.7806 74.7241C89.451 74.5427 89.2831 73.6008 89.3671 72.8935C89.3671 72.8935 90.9434 72.1158 92.6876 72.2861C91.8494 74.1167 90.22 74.9598 89.7806 74.7241ZM181.201 104.934C180.866 101.372 178.112 91.5636 175.3 87.8271C180.196 87.3062 185.023 76.4016 174.88 71.4196C163.204 65.6822 146.109 76.9768 135.229 80.0183C132.59 80.7577 127.6 83.1413 124.124 78.105C120.637 73.0811 127.574 68.7509 126.694 67.519C126.202 66.8277 117.568 69.863 117.322 75.5079C117.091 80.8071 122.213 84.9115 127.359 84.8781C131.919 84.8572 140.219 82.3637 149.33 78.368C160.901 73.2996 168.667 72.2034 172.981 74.8068C176.646 77.0262 176.646 79.2567 176.048 80.9713C173.452 88.4023 162.76 80.6096 148.91 86.1829C128.071 94.5779 118.065 88.8677 112.924 86.6149C112.511 81.8428 109.358 73.6008 106.536 72.1158C106.536 72.1158 107.782 71.5072 108.033 68.899C106.128 68.641 101.891 70.121 101.891 70.121C101.891 70.121 98.7398 69.2496 96.745 69.2496C88.7807 69.2496 80.9844 72.8935 80.8227 73.6008C80.6547 74.2859 82.1472 80.5331 82.1472 80.5331C83.6334 77.0645 86.0528 79.9307 86.3046 81.054C77.2615 82.7081 76.0048 78.368 74.6853 73.8526C71.1093 86.1829 82.9742 83.9252 86.3725 83.5746C85.8849 85.8311 84.137 86.5273 82.9014 84.4399C82.9743 87.0482 83.5605 88.5171 84.5554 89.3059C85.5504 90.0897 88.5401 88.0024 89.3671 87.3062C89.1214 88.0024 88.8647 90.1724 88.619 91.8215C87.4563 91.471 79.1624 90.0897 77.1676 90.3477C73.0263 83.2339 62.5747 86.0076 63.1561 93.2127C69.4601 90.4292 71.9474 92.6054 71.8635 95.9864C74.1878 98.9403 85.717 105.887 90.5249 108.134C88.7067 109.005 82.7335 112.918 80.403 115.17C66.4655 114.211 67.7999 119.252 67.7999 120.474H90.8595C92.8493 120.474 108.526 116.392 113.673 114.305C113.673 114.305 114.076 113.088 114.244 112.398C133.25 112.228 140.873 100.336 148.414 99.9808C148.177 102.501 147.586 109.439 147.759 114.042C133.909 114.644 136.224 120.474 136.224 120.474H154.896C154.896 120.474 158.215 109.872 163.43 103.883C167.011 107.455 177.211 113.352 181.441 114.392C171.818 115.345 173.808 120.474 173.808 120.474H189.568L189.987 107.619C189.987 107.619 181.268 104.934 181.201 104.934Z" fill="#231F20"/>
<path d="M82.6131 81.8818C83.7253 81.8781 85.0461 81.7349 86.3582 81.4448C86.3582 81.4448 86.3373 83.0532 86.3373 83.1223C86.3175 83.1278 84.2919 83.5877 81.9627 83.5877C78.894 83.5877 76.7178 82.8508 75.5685 81.3387C74.4625 79.8846 74.3589 77.5725 74.765 75.4766C74.765 75.4766 75.3537 81.9077 82.6131 81.8818Z" fill="#FF0000"/>
</g>
<defs>
<clipPath id="clip0_2729_2351">
<rect width="157.183" height="220" fill="white" transform="translate(49 18)"/>
</clipPath>
</defs>
</svg>
