<svg width="256" height="256" viewBox="0 0 256 256" fill="none" xmlns="http://www.w3.org/2000/svg">
<path d="M69.8436 70.7289H91.25L90.5893 22.1803L88.7129 21.8945L87.0216 23.5665L86.2287 25.3002L83.9824 25.838L82.9253 27.4475V30.1326L85.1716 29.8432L86.6252 30.8752L86.8894 32.6102L84.9074 34.5091L82.7931 33.4916L81.736 31.2888H80.2825L79.0933 32.3209L78.5647 34.5752L76.3184 35.0112L75.1291 37.6541L76.0541 40.0062L77.6397 40.7462L78.9611 40.8254L80.1504 43.019L82.9253 43.7193V41.4465L83.8502 39.9137L85.7002 39.8344L87.2858 41.4465L87.1537 45.1597L86.493 47.4325L83.9824 50.115L79.8861 50.9474H75.9219L73.5434 50.6171C72.6185 49.7317 71.2971 47.4986 71.2971 47.4986" fill="#FFDD00"/>
<path d="M90.418 22.1549C87.5241 22.1549 87.022 25.169 86.7577 25.5536C86.4934 25.9368 85.5685 25.9302 85.1721 26.0266C84.5114 26.2315 84.115 26.6821 83.7185 27.1578C83.4543 27.5661 83.3221 28.17 83.4543 29.5337C83.5864 29.4821 84.2471 29.1914 84.6435 29.2377C85.1721 29.2985 85.5685 29.3394 86.097 29.6843C86.8899 30.1772 87.022 30.4428 87.2863 31.0176C87.5506 31.6413 87.6827 32.6126 87.1541 33.2085C86.7577 33.9194 86.7577 33.8137 86.097 34.2736C85.5685 34.67 84.7757 34.8946 83.9828 34.7361C83.3221 34.6039 82.9257 34.3 82.3972 33.8005C81.8686 33.0447 81.4722 32.01 81.4722 31.8316C80.6794 31.6241 80.0187 32.1672 79.7544 32.5676C79.0937 33.5415 79.0937 34.1599 79.0937 35.1193C77.508 34.7096 75.7902 35.6478 75.7902 37.5242C75.7902 39.3874 77.3759 40.4313 79.2258 39.8103C79.2258 41.4092 80.0187 42.202 80.6794 42.7174C81.2079 43.1138 81.8686 43.0609 82.5293 43.0609C82.3972 42.4531 82.3972 42.3738 82.3972 41.7263C82.5293 40.9731 82.7936 40.1803 83.19 39.8103C83.5864 39.4403 84.3792 38.991 85.1721 39.2156C85.8328 39.4006 86.8899 39.7838 87.2863 40.471C87.947 41.277 87.947 41.832 87.947 42.8363C87.947 44.0916 87.6827 45.4263 87.2863 46.6816C86.8899 47.9369 86.2292 48.8091 85.7006 49.4698C85.1721 50.1701 84.115 50.6591 83.0579 50.9762C82.1329 51.2537 81.0758 51.4123 79.4901 51.4915C77.9044 51.5708 76.8473 51.5312 75.7902 51.4915C75.2617 51.4651 74.9974 51.4545 74.2046 51.2405C73.676 51.0978 72.9625 50.7251 72.3546 50.1569C71.8922 49.7261 71.4957 48.8434 71.4297 48.5316C71.3636 48.2211 71.2711 47.411 71.2711 47.411C71.2711 47.411 72.0904 48.4391 72.4868 48.8223C72.8832 49.1791 73.2796 49.6416 73.676 49.8662C74.601 50.3816 75.3938 50.3551 76.1866 50.3816C77.3759 50.408 79.0937 50.3816 80.6794 50.2362C82.3972 50.0908 83.5864 49.7737 84.5114 48.9809C85.4363 48.1484 85.9649 47.3423 86.2292 46.3116C86.8899 44.1181 86.8899 43.3517 86.7577 42.1756C86.6256 40.7881 85.3042 40.2199 84.7756 40.2463C84.2471 40.2728 83.9828 40.537 83.7185 40.9467C83.19 41.951 83.5864 42.8627 83.5864 43.867C81.7365 44.3295 80.9436 43.9991 80.1508 43.497C79.358 43.0213 78.5651 41.9113 78.5651 41.211C77.7723 41.4356 76.8473 41.1317 75.9224 40.5503C75.3938 40.1274 74.7331 38.8853 74.7331 37.7224C74.7331 36.8107 74.9974 35.9253 75.2617 35.3836C76.0545 34.2736 77.2438 34.045 78.1687 34.045C78.1687 31.7523 80.6794 30.2208 82.265 30.682C82.1329 31.8395 82.5293 32.4421 82.7936 32.8121C83.0578 33.2852 83.4543 33.593 83.9828 33.7503C84.7757 33.9538 85.3042 33.6287 85.7006 33.3089C86.3613 32.8544 86.6256 31.7285 85.9649 31.0176C85.5685 30.5274 84.7757 30.2737 84.3792 30.3529C83.8507 30.4573 83.3221 30.7758 83.0579 30.6622C82.6614 30.5498 82.5293 29.7107 82.5293 29.4227C82.1329 26.139 83.8507 25.1572 85.9649 24.7369C86.6256 22.1866 88.753 21 90.418 21" fill="black"/>
<path d="M80.7319 60.5089C79.7705 60.5089 78.9912 59.7295 78.9912 58.7681C78.9912 57.8067 79.7705 57.0273 80.7319 57.0273C81.6933 57.0273 82.4727 57.8067 82.4727 58.7681C82.4727 59.7295 81.6933 60.5089 80.7319 60.5089Z" fill="black"/>
<path d="M82.6562 35.8867V38.7806H79.7492V35.8867H82.6562Z" fill="#0098D4"/>
<path d="M110.981 70.7289H89.5742L90.2349 22.1803L92.1113 21.8945L93.8026 23.5665L94.5955 25.3002L96.8418 25.838L97.8989 27.4475V30.1326L95.6526 29.8432L94.1991 30.8752L93.9348 32.6102L95.9169 34.5091L98.0311 33.4916L99.0882 31.2888H100.542L101.731 32.3209L102.26 34.5752L104.506 35.0112L105.695 37.6541L104.77 40.0062L103.184 40.7462L101.863 40.8254L100.674 43.019L97.8989 43.7193V41.4465L96.974 39.9137L95.124 39.8344L93.5384 41.4465L93.6705 45.1597L94.3312 47.4325L96.8418 50.115L100.938 50.9474H104.902L107.281 50.6171C108.206 49.7317 109.527 47.4986 109.527 47.4986" fill="#FFDD00"/>
<path d="M90.4062 22.1549C93.3001 22.1549 93.8022 25.169 94.0665 25.5536C94.3308 25.9368 95.2557 25.9302 95.6521 26.0266C96.3128 26.2315 96.7093 26.6821 97.1057 27.1578C97.3699 27.5661 97.5021 28.17 97.37 29.5337C97.2378 29.4821 96.5771 29.1914 96.1807 29.2377C95.6522 29.2985 95.2557 29.3394 94.7272 29.6843C93.9344 30.1772 93.8022 30.4428 93.5379 31.0176C93.2737 31.6413 93.1415 32.6126 93.6701 33.2085C94.0665 33.9194 94.0665 33.8137 94.7272 34.2736C95.2557 34.67 96.0486 34.8946 96.8414 34.7361C97.5021 34.6039 97.8985 34.3 98.4271 33.8005C98.9556 33.0447 99.352 32.01 99.352 31.8316C100.145 31.6241 100.806 32.1672 101.07 32.5676C101.731 33.5415 101.731 34.1599 101.731 35.1193C103.316 34.7096 105.034 35.6478 105.034 37.5242C105.034 39.3874 103.448 40.4313 101.598 39.8103C101.598 41.4092 100.806 42.202 100.145 42.7174C99.6163 43.1138 98.9556 43.0609 98.2949 43.0609C98.4271 42.4531 98.4271 42.3738 98.4271 41.7263C98.2949 40.9731 98.0306 40.1803 97.6342 39.8103C97.2378 39.4403 96.445 38.991 95.6521 39.2156C94.9915 39.4006 93.9344 39.7838 93.5379 40.471C92.8772 41.277 92.8772 41.832 92.8772 42.8363C92.8772 44.0916 93.1415 45.4263 93.5379 46.6816C93.9344 47.9369 94.595 48.8091 95.1236 49.4698C95.6521 50.1701 96.7093 50.6591 97.7664 50.9762C98.6913 51.2537 99.7484 51.4123 101.334 51.4915C102.92 51.5708 103.977 51.5312 105.034 51.4915C105.563 51.4651 105.827 51.4545 106.62 51.2405C107.148 51.0978 107.862 50.7251 108.47 50.1569C108.932 49.7261 109.328 48.8434 109.395 48.5316C109.461 48.2211 109.553 47.411 109.553 47.411C109.553 47.411 108.734 48.4391 108.337 48.8223C107.941 49.1791 107.545 49.6416 107.148 49.8662C106.223 50.3816 105.43 50.3551 104.638 50.3816C103.448 50.408 101.731 50.3816 100.145 50.2362C98.427 50.0908 97.2378 49.7737 96.3128 48.9809C95.3879 48.1484 94.8593 47.3423 94.595 46.3116C93.9343 44.1181 93.9344 43.3517 94.0665 42.1756C94.1986 40.7881 95.52 40.2199 96.0486 40.2463C96.5771 40.2728 96.8414 40.537 97.1057 40.9467C97.6342 41.951 97.2378 42.8627 97.2378 43.867C99.0877 44.3295 99.8806 43.9991 100.673 43.497C101.466 43.0213 102.259 41.9113 102.259 41.211C103.052 41.4356 103.977 41.1317 104.902 40.5503C105.43 40.1274 106.091 38.8853 106.091 37.7224C106.091 36.8107 105.827 35.9253 105.563 35.3836C104.77 34.2736 103.58 34.045 102.655 34.045C102.655 31.7523 100.145 30.2208 98.5592 30.682C98.6913 31.8395 98.2949 32.4421 98.0306 32.8121C97.7664 33.2852 97.37 33.593 96.8414 33.7503C96.0486 33.9538 95.52 33.6287 95.1236 33.3089C94.4629 32.8544 94.1986 31.7285 94.8593 31.0176C95.2557 30.5274 96.0486 30.2737 96.445 30.3529C96.9735 30.4573 97.5021 30.7758 97.7664 30.6622C98.1628 30.5498 98.2949 29.7107 98.2949 29.4227C98.6913 26.139 96.9735 25.1572 94.8593 24.7369C94.1986 22.1866 92.0712 21 90.4062 21" fill="black"/>
<path d="M100.092 60.5089C101.054 60.5089 101.833 59.7295 101.833 58.7681C101.833 57.8067 101.054 57.0273 100.092 57.0273C99.1309 57.0273 98.3516 57.8067 98.3516 58.7681C98.3516 59.7295 99.1309 60.5089 100.092 60.5089Z" fill="black"/>
<path d="M98.168 35.8867V38.7806H101.075V35.8867H98.168Z" fill="#0098D4"/>
<path d="M108.074 70.7289H129.48L128.82 22.1803L126.943 21.8945L125.252 23.5665L124.459 25.3002L122.213 25.838L121.156 27.4475V30.1326L123.402 29.8432L124.856 30.8752L125.12 32.6102L123.138 34.5091L121.024 33.4916L119.967 31.2888H118.513L117.324 32.3209L116.795 34.5752L114.549 35.0112L113.36 37.6541L114.285 40.0062L115.87 40.7462L117.192 40.8254L118.381 43.019L121.156 43.7193V41.4465L122.081 39.9137L123.931 39.8344L125.516 41.4465L125.384 45.1597L124.723 47.4325L122.213 50.115L118.117 50.9474H114.152L111.774 50.6171C110.849 49.7317 109.528 47.4986 109.528 47.4986" fill="#FFDD00"/>
<path d="M128.648 22.1549C125.755 22.1549 125.252 25.169 124.988 25.5536C124.724 25.9368 123.799 25.9302 123.403 26.0266C122.742 26.2315 122.345 26.6821 121.949 27.1578C121.685 27.5661 121.553 28.17 121.685 29.5337C121.817 29.4821 122.478 29.1914 122.874 29.2377C123.403 29.2985 123.799 29.3394 124.328 29.6843C125.12 30.1772 125.252 30.4428 125.517 31.0176C125.781 31.6413 125.913 32.6126 125.385 33.2085C124.988 33.9194 124.988 33.8137 124.328 34.2736C123.799 34.67 123.006 34.8946 122.213 34.7361C121.553 34.6039 121.156 34.3 120.628 33.8005C120.099 33.0447 119.703 32.01 119.703 31.8316C118.91 31.6241 118.249 32.1672 117.985 32.5676C117.324 33.5415 117.324 34.1599 117.324 35.1193C115.738 34.7096 114.021 35.6478 114.021 37.5242C114.021 39.3874 115.606 40.4313 117.456 39.8103C117.456 41.4092 118.249 42.202 118.91 42.7174C119.438 43.1138 120.099 43.0609 120.76 43.0609C120.628 42.4531 120.628 42.3738 120.628 41.7263C120.76 40.9731 121.024 40.1803 121.42 39.8103C121.817 39.4403 122.61 38.991 123.403 39.2156C124.063 39.4006 125.12 39.7838 125.517 40.471C126.177 41.277 126.177 41.832 126.177 42.8363C126.177 44.0916 125.913 45.4263 125.517 46.6816C125.12 47.9369 124.46 48.8091 123.931 49.4698C123.403 50.1701 122.345 50.6591 121.288 50.9762C120.363 51.2537 119.306 51.4123 117.721 51.4915C116.135 51.5708 115.078 51.5312 114.021 51.4915C113.492 51.4651 113.228 51.4545 112.435 51.2405C111.906 51.0978 111.193 50.7251 110.585 50.1569C110.123 49.7261 109.726 48.8434 109.66 48.5316C109.594 48.2211 109.502 47.411 109.502 47.411C109.502 47.411 110.321 48.4391 110.717 48.8223C111.114 49.1791 111.51 49.6416 111.906 49.8662C112.831 50.3816 113.624 50.3551 114.417 50.3816C115.606 50.408 117.324 50.3816 118.91 50.2362C120.628 50.0908 121.817 49.7737 122.742 48.9809C123.667 48.1484 124.195 47.3423 124.46 46.3116C125.12 44.1181 125.12 43.3517 124.988 42.1756C124.856 40.7881 123.535 40.2199 123.006 40.2463C122.478 40.2728 122.213 40.537 121.949 40.9467C121.42 41.951 121.817 42.8627 121.817 43.867C119.967 44.3295 119.174 43.9991 118.381 43.497C117.588 43.0213 116.796 41.9113 116.796 41.211C116.003 41.4356 115.078 41.1317 114.153 40.5503C113.624 40.1274 112.964 38.8853 112.964 37.7224C112.964 36.8107 113.228 35.9253 113.492 35.3836C114.285 34.2736 115.474 34.045 116.399 34.045C116.399 31.7523 118.91 30.2208 120.495 30.682C120.363 31.8395 120.76 32.4421 121.024 32.8121C121.288 33.2852 121.685 33.593 122.213 33.7503C123.006 33.9538 123.535 33.6287 123.931 33.3089C124.592 32.8544 124.856 31.7285 124.195 31.0176C123.799 30.5274 123.006 30.2737 122.61 30.3529C122.081 30.4573 121.553 30.7758 121.288 30.6622C120.892 30.5498 120.76 29.7107 120.76 29.4227C120.363 26.139 122.081 25.1572 124.195 24.7369C124.856 22.1866 126.983 21 128.648 21" fill="black"/>
<path d="M118.962 60.5089C118.001 60.5089 117.222 59.7295 117.222 58.7681C117.222 57.8067 118.001 57.0273 118.962 57.0273C119.924 57.0273 120.703 57.8067 120.703 58.7681C120.703 59.7295 119.924 60.5089 118.962 60.5089Z" fill="black"/>
<path d="M120.887 35.8867V38.7806H117.98V35.8867H120.887Z" fill="#0098D4"/>
<path d="M110.977 70.7289H89.5703L90.231 22.1803L92.1074 21.8945L93.7987 23.5665L94.5916 25.3002L96.8379 25.838L97.895 27.4475V30.1326L95.6487 29.8432L94.1952 30.8752L93.9309 32.6102L95.913 34.5091L98.0272 33.4916L99.0843 31.2888H100.538L101.727 32.3209L102.256 34.5752L104.502 35.0112L105.691 37.6541L104.766 40.0062L103.181 40.7462L101.859 40.8254L100.67 43.019L97.895 43.7193V41.4465L96.9701 39.9137L95.1201 39.8344L93.5345 41.4465L93.6666 45.1597L94.3273 47.4325L96.8379 50.115L100.934 50.9474H104.898L107.277 50.6171C108.202 49.7317 109.523 47.4986 109.523 47.4986" fill="#FFDD00"/>
<path d="M90.4023 22.1549C93.2962 22.1549 93.7983 25.169 94.0626 25.5536C94.3269 25.9368 95.2518 25.9302 95.6482 26.0266C96.3089 26.2315 96.7053 26.6821 97.1018 27.1578C97.366 27.5661 97.4982 28.17 97.366 29.5337C97.2339 29.4821 96.5732 29.1914 96.1768 29.2377C95.6482 29.2985 95.2518 29.3394 94.7233 29.6843C93.9304 30.1772 93.7983 30.4428 93.534 31.0176C93.2698 31.6413 93.1376 32.6126 93.6662 33.2085C94.0626 33.9194 94.0626 33.8137 94.7233 34.2736C95.2518 34.67 96.0447 34.8946 96.8375 34.7361C97.4982 34.6039 97.8946 34.3 98.4231 33.8005C98.9517 33.0447 99.3481 32.01 99.3481 31.8316C100.141 31.6241 100.802 32.1672 101.066 32.5676C101.727 33.5415 101.727 34.1599 101.727 35.1193C103.312 34.7096 105.03 35.6478 105.03 37.5242C105.03 39.3874 103.444 40.4313 101.594 39.8103C101.594 41.4092 100.802 42.202 100.141 42.7174C99.6124 43.1138 98.9517 43.0609 98.291 43.0609C98.4232 42.4531 98.4231 42.3738 98.4231 41.7263C98.291 40.9731 98.0267 40.1803 97.6303 39.8103C97.2339 39.4403 96.4411 38.991 95.6482 39.2156C94.9876 39.4006 93.9304 39.7838 93.534 40.471C92.8733 41.277 92.8733 41.832 92.8733 42.8363C92.8733 44.0916 93.1376 45.4263 93.534 46.6816C93.9304 47.9369 94.5911 48.8091 95.1197 49.4698C95.6482 50.1701 96.7053 50.6591 97.7625 50.9762C98.6874 51.2537 99.7445 51.4123 101.33 51.4915C102.916 51.5708 103.973 51.5312 105.03 51.4915C105.559 51.4651 105.823 51.4545 106.616 51.2405C107.144 51.0978 107.858 50.7251 108.466 50.1569C108.928 49.7261 109.325 48.8434 109.391 48.5316C109.457 48.2211 109.549 47.411 109.549 47.411C109.549 47.411 108.73 48.4391 108.334 48.8223C107.937 49.1791 107.541 49.6416 107.144 49.8662C106.219 50.3816 105.426 50.3551 104.634 50.3816C103.444 50.408 101.727 50.3816 100.141 50.2362C98.4231 50.0908 97.2339 49.7737 96.3089 48.9809C95.384 48.1484 94.8554 47.3423 94.5911 46.3116C93.9304 44.1181 93.9304 43.3517 94.0626 42.1756C94.1947 40.7881 95.5161 40.2199 96.0447 40.2463C96.5732 40.2728 96.8375 40.537 97.1018 40.9467C97.6303 41.951 97.2339 42.8627 97.2339 43.867C99.0838 44.3295 99.8767 43.9991 100.67 43.497C101.462 43.0213 102.255 41.9113 102.255 41.211C103.048 41.4356 103.973 41.1317 104.898 40.5503C105.426 40.1274 106.087 38.8853 106.087 37.7224C106.087 36.8107 105.823 35.9253 105.559 35.3836C104.766 34.2736 103.577 34.045 102.652 34.045C102.652 31.7523 100.141 30.2208 98.5553 30.682C98.6874 31.8395 98.291 32.4421 98.0267 32.8121C97.7625 33.2852 97.366 33.593 96.8375 33.7503C96.0447 33.9538 95.5161 33.6287 95.1197 33.3089C94.459 32.8544 94.1947 31.7285 94.8554 31.0176C95.2518 30.5274 96.0447 30.2737 96.4411 30.3529C96.9696 30.4573 97.4982 30.7758 97.7625 30.6622C98.1589 30.5498 98.291 29.7107 98.291 29.4227C98.6874 26.139 96.9696 25.1572 94.8554 24.7369C94.1947 22.1866 92.0673 21 90.4023 21" fill="black"/>
<path d="M100.088 60.5089C101.05 60.5089 101.829 59.7295 101.829 58.7681C101.829 57.8067 101.05 57.0273 100.088 57.0273C99.127 57.0273 98.3477 57.8067 98.3477 58.7681C98.3477 59.7295 99.127 60.5089 100.088 60.5089Z" fill="black"/>
<path d="M98.1641 35.8867V38.7806H101.071V35.8867H98.1641Z" fill="#0098D4"/>
<path d="M109.523 38.8047C106.748 38.8047 105.823 41.8836 107.673 43.9846C104.898 43.1521 102.519 45.3325 103.708 47.341C105.162 49.9706 108.069 48.6888 109.523 46.8653C111.108 48.9267 114.015 49.6799 115.337 47.4599C116.79 45.121 114.147 42.8218 111.505 43.9582C113.09 41.8968 112.297 38.8047 109.523 38.8047Z" fill="#0098D4" stroke="black" stroke-width="0.175781" stroke-linejoin="round"/>
<path d="M104.898 61.6526V55.8516H114.412V61.6526H104.898Z" fill="#ED1C24" stroke="black" stroke-width="0.175651"/>
<path d="M90.4922 52.0451V36.3203Z" fill="black"/>
<path d="M90.4922 52.0451V36.3203" stroke="black" stroke-width="0.155534"/>
<path d="M89.0469 25.4102V28.308H91.9539V25.4102H89.0469Z" fill="#ED1C24"/>
<path d="M90.4992 55.6914L85.7422 58.7571L90.4992 61.8227L95.124 58.7571L90.4992 55.6914Z" fill="#0098D4" stroke="black" stroke-width="0.175651"/>
<path d="M52.0898 70.8789V174.107C52.0898 174.107 52.2631 186.029 52.76 190.597C53.2614 195.109 53.7126 201.516 55.5342 206.53C57.484 211.878 59.2611 215.443 61.0604 218.061C62.8598 220.68 65.1995 223.409 68.1465 225.638C71.656 228.312 73.0543 229.147 75.5667 230.429C78.4691 231.988 80.118 232.378 82.8923 233.214C85.6665 234.05 88.9143 234.718 91.5158 234.997C94.1173 235.331 97.3651 235.498 99.9667 235.665C102.568 235.832 108.958 235.999 110.908 235.999H145.725C147.675 235.999 154.025 235.832 156.644 235.665C159.262 235.498 162.493 235.331 165.111 234.997C167.729 234.718 170.96 234.05 173.746 233.214C176.475 232.378 178.147 231.933 181.044 230.429C183.606 229.147 184.943 228.312 188.453 225.638C191.405 223.409 193.745 220.68 195.583 218.061C197.366 215.443 199.148 211.878 201.098 206.53C202.881 201.516 203.382 195.109 203.828 190.597C204.385 185.973 204.552 174.107 204.552 174.107V70.8789" fill="#FFDD00"/>
<path d="M52.0898 70.8789V174.107C52.0898 174.107 52.2631 186.029 52.76 190.597C53.2614 195.109 53.7126 201.516 55.5342 206.53C57.484 211.878 59.2611 215.443 61.0604 218.061C62.8598 220.68 65.1995 223.409 68.1465 225.638C71.656 228.312 73.0543 229.147 75.5667 230.429C78.4691 231.988 80.118 232.378 82.8923 233.214C85.6665 234.05 88.9143 234.718 91.5158 234.997C94.1173 235.331 97.3651 235.498 99.9667 235.665C102.568 235.832 108.958 235.999 110.908 235.999H145.725C147.675 235.999 154.025 235.832 156.644 235.665C159.262 235.498 162.493 235.331 165.111 234.997C167.729 234.718 170.96 234.05 173.746 233.214C176.475 232.378 178.147 231.933 181.044 230.429C183.606 229.147 184.943 228.312 188.453 225.638C191.405 223.409 193.745 220.68 195.583 218.061C197.366 215.443 199.148 211.878 201.098 206.53C202.881 201.516 203.382 195.109 203.828 190.597C204.385 185.973 204.552 174.107 204.552 174.107V70.8789" stroke="black" stroke-width="0.317469"/>
<path d="M56.0664 75.168V173.104C56.0664 173.104 56.2391 184.357 56.6959 188.702C57.1694 192.992 57.6485 199.398 59.2974 204.134C60.1386 206.64 61.6372 210.651 64.2554 214.83C65.8375 217.392 68.0046 220.066 70.8011 222.183C74.1268 224.746 75.8148 225.749 78.2436 226.863C81.7532 228.478 83.0568 228.868 85.6973 229.592C88.5607 230.317 91.1566 230.762 93.6301 230.985C96.3152 231.264 99.0894 231.375 101.301 231.487C103.786 231.598 109.969 231.765 111.807 231.765H144.898C146.736 231.765 152.864 231.598 155.371 231.487C157.543 231.375 160.329 231.264 163.003 230.985C165.51 230.762 168.072 230.317 170.969 229.592C173.587 228.868 174.924 228.534 178.434 226.863C180.829 225.749 182.556 224.746 185.843 222.183C188.628 220.066 190.801 217.392 192.416 214.83C195.035 210.651 196.483 206.64 197.374 204.134C199.046 199.398 199.491 192.992 199.937 188.702C200.438 184.357 200.605 173.104 200.605 173.104V75.168H56.0664Z" fill="white"/>
<path d="M149.035 70.7289H127.629L128.29 22.1803L130.166 21.8945L131.857 23.5665L132.65 25.3002L134.897 25.838L135.954 27.4475V30.1326L133.707 29.8432L132.254 30.8752L131.989 32.6102L133.972 34.5091L136.086 33.4916L137.143 31.2888H138.596L139.786 32.3209L140.314 34.5752L142.561 35.0112L143.75 37.6541L142.825 40.0062L141.239 40.7462L139.918 40.8254L138.729 43.019L135.954 43.7193V41.4465L135.029 39.9137L133.179 39.8344L131.593 41.4465L131.725 45.1597L132.386 47.4325L134.897 50.115L138.993 50.9474H142.957L145.335 50.6171C146.26 49.7317 147.582 47.4986 147.582 47.4986" fill="#FFDD00"/>
<path d="M128.461 22.1549C131.355 22.1549 131.857 25.169 132.121 25.5536C132.385 25.9368 133.31 25.9302 133.707 26.0266C134.368 26.2315 134.764 26.6821 135.16 27.1578C135.425 27.5661 135.557 28.17 135.425 29.5337C135.293 29.4821 134.632 29.1914 134.235 29.2377C133.707 29.2985 133.31 29.3394 132.782 29.6843C131.989 30.1772 131.857 30.4428 131.593 31.0176C131.328 31.6413 131.196 32.6126 131.725 33.2085C132.121 33.9194 132.121 33.8137 132.782 34.2736C133.31 34.67 134.103 34.8946 134.896 34.7361C135.557 34.6039 135.953 34.3 136.482 33.8005C137.01 33.0447 137.407 32.01 137.407 31.8316C138.2 31.6241 138.86 32.1672 139.125 32.5676C139.785 33.5415 139.785 34.1599 139.785 35.1193C141.371 34.7096 143.089 35.6478 143.089 37.5242C143.089 39.3874 141.503 40.4313 139.653 39.8103C139.653 41.4092 138.86 42.202 138.2 42.7174C137.671 43.1138 137.01 43.0609 136.35 43.0609C136.482 42.4531 136.482 42.3738 136.482 41.7263C136.35 40.9731 136.085 40.1803 135.689 39.8103C135.292 39.4403 134.5 38.991 133.707 39.2156C133.046 39.4006 131.989 39.7838 131.593 40.471C130.932 41.277 130.932 41.832 130.932 42.8363C130.932 44.0916 131.196 45.4263 131.593 46.6816C131.989 47.9369 132.65 48.8091 133.178 49.4698C133.707 50.1701 134.764 50.6591 135.821 50.9762C136.746 51.2537 137.803 51.4123 139.389 51.4915C140.974 51.5708 142.032 51.5312 143.089 51.4915C143.617 51.4651 143.882 51.4545 144.674 51.2405C145.203 51.0978 145.916 50.7251 146.524 50.1569C146.987 49.7261 147.383 48.8434 147.449 48.5316C147.515 48.2211 147.608 47.411 147.608 47.411C147.608 47.411 146.789 48.4391 146.392 48.8223C145.996 49.1791 145.599 49.6416 145.203 49.8662C144.278 50.3816 143.485 50.3551 142.692 50.3816C141.503 50.408 139.785 50.3816 138.2 50.2362C136.482 50.0908 135.292 49.7737 134.368 48.9809C133.443 48.1484 132.914 47.3423 132.65 46.3116C131.989 44.1181 131.989 43.3517 132.121 42.1756C132.253 40.7881 133.575 40.2199 134.103 40.2463C134.632 40.2728 134.896 40.537 135.16 40.9467C135.689 41.951 135.292 42.8627 135.292 43.867C137.142 44.3295 137.935 43.9991 138.728 43.497C139.521 43.0213 140.314 41.9113 140.314 41.211C141.107 41.4356 142.032 41.1317 142.957 40.5503C143.485 40.1274 144.146 38.8853 144.146 37.7224C144.146 36.8107 143.882 35.9253 143.617 35.3836C142.824 34.2736 141.635 34.045 140.71 34.045C140.71 31.7523 138.2 30.2208 136.614 30.682C136.746 31.8395 136.35 32.4421 136.085 32.8121C135.821 33.2852 135.425 33.593 134.896 33.7503C134.103 33.9538 133.575 33.6287 133.178 33.3089C132.518 32.8544 132.253 31.7285 132.914 31.0176C133.31 30.5274 134.103 30.2737 134.5 30.3529C135.028 30.4573 135.557 30.7758 135.821 30.6622C136.217 30.5498 136.35 29.7107 136.35 29.4227C136.746 26.139 135.028 25.1572 132.914 24.7369C132.253 22.1866 130.126 21 128.461 21" fill="black"/>
<path d="M138.147 60.5089C139.108 60.5089 139.888 59.7295 139.888 58.7681C139.888 57.8067 139.108 57.0273 138.147 57.0273C137.186 57.0273 136.406 57.8067 136.406 58.7681C136.406 59.7295 137.186 60.5089 138.147 60.5089Z" fill="black"/>
<path d="M136.223 35.8867V38.7806H139.13V35.8867H136.223Z" fill="#0098D4"/>
<path d="M146.133 70.7289H167.539L166.878 22.1803L165.002 21.8945L163.311 23.5665L162.518 25.3002L160.271 25.838L159.214 27.4475V30.1326L161.461 29.8432L162.914 30.8752L163.178 32.6102L161.196 34.5091L159.082 33.4916L158.025 31.2888H156.572L155.382 32.3209L154.854 34.5752L152.607 35.0112L151.418 37.6541L152.343 40.0062L153.929 40.7462L155.25 40.8254L156.439 43.019L159.214 43.7193V41.4465L160.139 39.9137L161.989 39.8344L163.575 41.4465L163.443 45.1597L162.782 47.4325L160.271 50.115L156.175 50.9474H152.211L149.833 50.6171C148.908 49.7317 147.586 47.4986 147.586 47.4986" fill="#FFDD00"/>
<path d="M166.707 22.1549C163.813 22.1549 163.311 25.169 163.047 25.5536C162.783 25.9368 161.858 25.9302 161.461 26.0266C160.8 26.2315 160.404 26.6821 160.008 27.1578C159.743 27.5661 159.611 28.17 159.743 29.5337C159.875 29.4821 160.536 29.1914 160.933 29.2377C161.461 29.2985 161.858 29.3394 162.386 29.6843C163.179 30.1772 163.311 30.4428 163.575 31.0176C163.84 31.6413 163.972 32.6126 163.443 33.2085C163.047 33.9194 163.047 33.8137 162.386 34.2736C161.858 34.67 161.065 34.8946 160.272 34.7361C159.611 34.6039 159.215 34.3 158.686 33.8005C158.158 33.0447 157.761 32.01 157.761 31.8316C156.968 31.6241 156.308 32.1672 156.043 32.5676C155.383 33.5415 155.383 34.1599 155.383 35.1193C153.797 34.7096 152.079 35.6478 152.079 37.5242C152.079 39.3874 153.665 40.4313 155.515 39.8103C155.515 41.4092 156.308 42.202 156.968 42.7174C157.497 43.1138 158.158 43.0609 158.818 43.0609C158.686 42.4531 158.686 42.3738 158.686 41.7263C158.818 40.9731 159.083 40.1803 159.479 39.8103C159.875 39.4403 160.668 38.991 161.461 39.2156C162.122 39.4006 163.179 39.7838 163.575 40.471C164.236 41.277 164.236 41.832 164.236 42.8363C164.236 44.0916 163.972 45.4263 163.575 46.6816C163.179 47.9369 162.518 48.8091 161.99 49.4698C161.461 50.1701 160.404 50.6591 159.347 50.9762C158.422 51.2537 157.365 51.4123 155.779 51.4915C154.194 51.5708 153.136 51.5312 152.079 51.4915C151.551 51.4651 151.286 51.4545 150.494 51.2405C149.965 51.0978 149.252 50.7251 148.644 50.1569C148.181 49.7261 147.785 48.8434 147.719 48.5316C147.653 48.2211 147.56 47.411 147.56 47.411C147.56 47.411 148.379 48.4391 148.776 48.8223C149.172 49.1791 149.569 49.6416 149.965 49.8662C150.89 50.3816 151.683 50.3551 152.476 50.3816C153.665 50.408 155.383 50.3816 156.968 50.2362C158.686 50.0908 159.875 49.7737 160.8 48.9809C161.725 48.1484 162.254 47.3423 162.518 46.3116C163.179 44.1181 163.179 43.3517 163.047 42.1756C162.915 40.7881 161.593 40.2199 161.065 40.2463C160.536 40.2728 160.272 40.537 160.008 40.9467C159.479 41.951 159.875 42.8627 159.875 43.867C158.026 44.3295 157.233 43.9991 156.44 43.497C155.647 43.0213 154.854 41.9113 154.854 41.211C154.061 41.4356 153.136 41.1317 152.211 40.5503C151.683 40.1274 151.022 38.8853 151.022 37.7224C151.022 36.8107 151.286 35.9253 151.551 35.3836C152.344 34.2736 153.533 34.045 154.458 34.045C154.458 31.7523 156.968 30.2208 158.554 30.682C158.422 31.8395 158.818 32.4421 159.083 32.8121C159.347 33.2852 159.743 33.593 160.272 33.7503C161.065 33.9538 161.593 33.6287 161.99 33.3089C162.65 32.8544 162.915 31.7285 162.254 31.0176C161.858 30.5274 161.065 30.2737 160.668 30.3529C160.14 30.4573 159.611 30.7758 159.347 30.6622C158.951 30.5498 158.818 29.7107 158.818 29.4227C158.422 26.139 160.14 25.1572 162.254 24.7369C162.915 22.1866 165.042 21 166.707 21" fill="black"/>
<path d="M157.021 60.5089C156.06 60.5089 155.28 59.7295 155.28 58.7681C155.28 57.8067 156.06 57.0273 157.021 57.0273C157.982 57.0273 158.762 57.8067 158.762 58.7681C158.762 59.7295 157.982 60.5089 157.021 60.5089Z" fill="black"/>
<path d="M158.945 35.8867V38.7806H156.038V35.8867H158.945Z" fill="#0098D4"/>
<path d="M149.035 70.7289H127.629L128.29 22.1803L130.166 21.8945L131.857 23.5665L132.65 25.3002L134.897 25.838L135.954 27.4475V30.1326L133.707 29.8432L132.254 30.8752L131.989 32.6102L133.972 34.5091L136.086 33.4916L137.143 31.2888H138.596L139.786 32.3209L140.314 34.5752L142.561 35.0112L143.75 37.6541L142.825 40.0062L141.239 40.7462L139.918 40.8254L138.729 43.019L135.954 43.7193V41.4465L135.029 39.9137L133.179 39.8344L131.593 41.4465L131.725 45.1597L132.386 47.4325L134.897 50.115L138.993 50.9474H142.957L145.335 50.6171C146.26 49.7317 147.582 47.4986 147.582 47.4986" fill="#FFDD00"/>
<path d="M128.461 22.1549C131.355 22.1549 131.857 25.169 132.121 25.5536C132.385 25.9368 133.31 25.9302 133.707 26.0266C134.368 26.2315 134.764 26.6821 135.16 27.1578C135.425 27.5661 135.557 28.17 135.425 29.5337C135.293 29.4821 134.632 29.1914 134.235 29.2377C133.707 29.2985 133.31 29.3394 132.782 29.6843C131.989 30.1772 131.857 30.4428 131.593 31.0176C131.328 31.6413 131.196 32.6126 131.725 33.2085C132.121 33.9194 132.121 33.8137 132.782 34.2736C133.31 34.67 134.103 34.8946 134.896 34.7361C135.557 34.6039 135.953 34.3 136.482 33.8005C137.01 33.0447 137.407 32.01 137.407 31.8316C138.2 31.6241 138.86 32.1672 139.125 32.5676C139.785 33.5415 139.785 34.1599 139.785 35.1193C141.371 34.7096 143.089 35.6478 143.089 37.5242C143.089 39.3874 141.503 40.4313 139.653 39.8103C139.653 41.4092 138.86 42.202 138.2 42.7174C137.671 43.1138 137.01 43.0609 136.35 43.0609C136.482 42.4531 136.482 42.3738 136.482 41.7263C136.35 40.9731 136.085 40.1803 135.689 39.8103C135.292 39.4403 134.5 38.991 133.707 39.2156C133.046 39.4006 131.989 39.7838 131.593 40.471C130.932 41.277 130.932 41.832 130.932 42.8363C130.932 44.0916 131.196 45.4263 131.593 46.6816C131.989 47.9369 132.65 48.8091 133.178 49.4698C133.707 50.1701 134.764 50.6591 135.821 50.9762C136.746 51.2537 137.803 51.4123 139.389 51.4915C140.974 51.5708 142.032 51.5312 143.089 51.4915C143.617 51.4651 143.882 51.4545 144.674 51.2405C145.203 51.0978 145.916 50.7251 146.524 50.1569C146.987 49.7261 147.383 48.8434 147.449 48.5316C147.515 48.2211 147.608 47.411 147.608 47.411C147.608 47.411 146.789 48.4391 146.392 48.8223C145.996 49.1791 145.599 49.6416 145.203 49.8662C144.278 50.3816 143.485 50.3551 142.692 50.3816C141.503 50.408 139.785 50.3816 138.2 50.2362C136.482 50.0908 135.292 49.7737 134.368 48.9809C133.443 48.1484 132.914 47.3423 132.65 46.3116C131.989 44.1181 131.989 43.3517 132.121 42.1756C132.253 40.7881 133.575 40.2199 134.103 40.2463C134.632 40.2728 134.896 40.537 135.16 40.9467C135.689 41.951 135.292 42.8627 135.292 43.867C137.142 44.3295 137.935 43.9991 138.728 43.497C139.521 43.0213 140.314 41.9113 140.314 41.211C141.107 41.4356 142.032 41.1317 142.957 40.5503C143.485 40.1274 144.146 38.8853 144.146 37.7224C144.146 36.8107 143.882 35.9253 143.617 35.3836C142.824 34.2736 141.635 34.045 140.71 34.045C140.71 31.7523 138.2 30.2208 136.614 30.682C136.746 31.8395 136.35 32.4421 136.085 32.8121C135.821 33.2852 135.425 33.593 134.896 33.7503C134.103 33.9538 133.575 33.6287 133.178 33.3089C132.518 32.8544 132.253 31.7285 132.914 31.0176C133.31 30.5274 134.103 30.2737 134.5 30.3529C135.028 30.4573 135.557 30.7758 135.821 30.6622C136.217 30.5498 136.35 29.7107 136.35 29.4227C136.746 26.139 135.028 25.1572 132.914 24.7369C132.253 22.1866 130.126 21 128.461 21" fill="black"/>
<path d="M138.147 60.5089C139.108 60.5089 139.888 59.7295 139.888 58.7681C139.888 57.8067 139.108 57.0273 138.147 57.0273C137.186 57.0273 136.406 57.8067 136.406 58.7681C136.406 59.7295 137.186 60.5089 138.147 60.5089Z" fill="black"/>
<path d="M136.223 35.8867V38.7806H139.13V35.8867H136.223Z" fill="#0098D4"/>
<path d="M147.577 38.8047C144.802 38.8047 143.877 41.8836 145.727 43.9846C142.952 43.1521 140.574 45.3325 141.763 47.341C143.217 49.9706 146.124 48.6888 147.577 46.8653C149.163 48.9267 152.07 49.6799 153.391 47.4599C154.845 45.121 152.202 42.8218 149.559 43.9582C151.145 41.8968 150.352 38.8047 147.577 38.8047Z" fill="#0098D4" stroke="black" stroke-width="0.175781" stroke-linejoin="round"/>
<path d="M142.957 61.6526V55.8516H152.471V61.6526H142.957Z" fill="#ED1C24" stroke="black" stroke-width="0.175651"/>
<path d="M128.547 52.0451V36.3203Z" fill="black"/>
<path d="M128.547 52.0451V36.3203" stroke="black" stroke-width="0.155534"/>
<path d="M127.102 25.4102V28.308H130.009V25.4102H127.102Z" fill="#ED1C24"/>
<path d="M128.554 55.6914L123.797 58.7571L128.554 61.8227L133.179 58.7571L128.554 55.6914Z" fill="#0098D4" stroke="black" stroke-width="0.175651"/>
<path d="M72.7111 70.7289H51.3047L51.9654 22.1803L53.8417 21.8945L55.5331 23.5665L56.3259 25.3002L58.5723 25.838L59.6294 27.4475V30.1326L57.3831 29.8432L55.9295 30.8752L55.6653 32.6102L57.6473 34.5091L59.7616 33.4916L60.8187 31.2888H62.2722L63.4614 32.3209L63.99 34.5752L66.2363 35.0112L67.4256 37.6541L66.5006 40.0062L64.9149 40.7462L63.5936 40.8254L62.4043 43.019L59.6294 43.7193V41.4465L58.7044 39.9137L56.8545 39.8344L55.2688 41.4465L55.401 45.1597L56.0617 47.4325L58.5723 50.115L62.6686 50.9474H66.6328L69.0112 50.6171C69.9362 49.7317 71.2576 47.4986 71.2576 47.4986" fill="#FFDD00"/>
<path d="M52.1367 22.1549C55.0306 22.1549 55.5327 25.169 55.797 25.5536C56.0612 25.9368 56.9862 25.9302 57.3826 26.0266C58.0433 26.2315 58.4397 26.6821 58.8361 27.1578C59.1004 27.5661 59.2326 28.17 59.1004 29.5337C58.9683 29.4821 58.3076 29.1914 57.9112 29.2377C57.3826 29.2985 56.9862 29.3394 56.4577 29.6843C55.6648 30.1772 55.5327 30.4428 55.2684 31.0176C55.0041 31.6413 54.872 32.6126 55.4005 33.2085C55.797 33.9194 55.797 33.8137 56.4577 34.2736C56.9862 34.67 57.779 34.8946 58.5719 34.7361C59.2326 34.6039 59.629 34.3 60.1575 33.8005C60.6861 33.0447 61.0825 32.01 61.0825 31.8316C61.8753 31.6241 62.536 32.1672 62.8003 32.5676C63.461 33.5415 63.461 34.1599 63.461 35.1193C65.0467 34.7096 66.7645 35.6478 66.7645 37.5242C66.7645 39.3874 65.1788 40.4313 63.3289 39.8103C63.3289 41.4092 62.536 42.202 61.8753 42.7174C61.3468 43.1138 60.6861 43.0609 60.0254 43.0609C60.1575 42.4531 60.1575 42.3738 60.1575 41.7263C60.0254 40.9731 59.7611 40.1803 59.3647 39.8103C58.9683 39.4403 58.1754 38.991 57.3826 39.2156C56.7219 39.4006 55.6648 39.7838 55.2684 40.471C54.6077 41.277 54.6077 41.832 54.6077 42.8363C54.6077 44.0916 54.872 45.4263 55.2684 46.6816C55.6648 47.9369 56.3255 48.8091 56.8541 49.4698C57.3826 50.1701 58.4397 50.6591 59.4968 50.9762C60.4218 51.2537 61.4789 51.4123 63.0646 51.4915C64.6502 51.5708 65.7074 51.5312 66.7645 51.4915C67.293 51.4651 67.5573 51.4545 68.3501 51.2405C68.8787 51.0978 69.5922 50.7251 70.2 50.1569C70.6625 49.7261 71.0589 48.8434 71.125 48.5316C71.1911 48.2211 71.2836 47.411 71.2836 47.411C71.2836 47.411 70.4643 48.4391 70.0679 48.8223C69.6715 49.1791 69.2751 49.6416 68.8787 49.8662C67.9537 50.3816 67.1609 50.3551 66.368 50.3816C65.1788 50.408 63.461 50.3816 61.8753 50.2362C60.1575 50.0908 58.9683 49.7737 58.0433 48.9809C57.1183 48.1484 56.5898 47.3423 56.3255 46.3116C55.6648 44.1181 55.6648 43.3517 55.797 42.1756C55.9291 40.7881 57.2505 40.2199 57.779 40.2463C58.3076 40.2728 58.5719 40.537 58.8361 40.9467C59.3647 41.951 58.9683 42.8627 58.9683 43.867C60.8182 44.3295 61.6111 43.9991 62.4039 43.497C63.1967 43.0213 63.9895 41.9113 63.9895 41.211C64.7824 41.4356 65.7073 41.1317 66.6323 40.5503C67.1609 40.1274 67.8216 38.8853 67.8216 37.7224C67.8216 36.8107 67.5573 35.9253 67.293 35.3836C66.5002 34.2736 65.3109 34.045 64.386 34.045C64.386 31.7523 61.8753 30.2208 60.2897 30.682C60.4218 31.8395 60.0254 32.4421 59.7611 32.8121C59.4968 33.2852 59.1004 33.593 58.5719 33.7503C57.779 33.9538 57.2505 33.6287 56.8541 33.3089C56.1934 32.8544 55.9291 31.7285 56.5898 31.0176C56.9862 30.5274 57.779 30.2737 58.1754 30.3529C58.704 30.4573 59.2326 30.7758 59.4968 30.6622C59.8932 30.5498 60.0254 29.7107 60.0254 29.4227C60.4218 26.139 58.704 25.1572 56.5898 24.7369C55.9291 22.1866 53.8017 21 52.1367 21" fill="black"/>
<path d="M61.8228 60.5089C62.7841 60.5089 63.5635 59.7295 63.5635 58.7681C63.5635 57.8067 62.7841 57.0273 61.8228 57.0273C60.8614 57.0273 60.082 57.8067 60.082 58.7681C60.082 59.7295 60.8614 60.5089 61.8228 60.5089Z" fill="black"/>
<path d="M59.8984 35.8867V38.7806H62.8055V35.8867H59.8984Z" fill="#0098D4"/>
<path d="M71.2569 38.8047C68.482 38.8047 67.557 41.8836 69.407 43.9846C66.6321 43.1521 64.2536 45.3325 65.4428 47.341C66.8963 49.9706 69.8034 48.6888 71.2569 46.8653C72.8426 48.9267 75.7496 49.6799 77.071 47.4599C78.5245 45.121 75.8818 42.8218 73.239 43.9582C74.8246 41.8968 74.0318 38.8047 71.2569 38.8047Z" fill="#0098D4" stroke="black" stroke-width="0.175781" stroke-linejoin="round"/>
<path d="M66.6328 61.6526V55.8516H76.1468V61.6526H66.6328Z" fill="#ED1C24" stroke="black" stroke-width="0.175651"/>
<path d="M52.1956 29.9559C50.2974 29.9559 48.7585 28.195 48.7585 26.0229C48.7585 23.8507 50.2974 22.0898 52.1956 22.0898C54.0939 22.0898 55.6328 23.8507 55.6328 26.0229C55.6328 28.195 54.0939 29.9559 52.1956 29.9559Z" fill="#FFDD00"/>
<path d="M52.3088 21.0921V22.067C51.1668 22.0169 50.4371 22.535 49.9635 22.9751C48.8605 23.9889 48.4929 25.248 48.7937 26.7521C49.256 28.9582 50.9551 29.8606 52.7656 29.8606V40.1779L51.5289 39.8826V30.9692C50.3256 30.6239 49.4789 29.9943 48.9329 29.4373C47.2171 27.6824 47.1949 25.2758 48.1308 23.3984C49.1335 21.7885 50.5819 20.9584 52.3088 21.0921Z" fill="black" stroke="black" stroke-width="0.0274469"/>
<path d="M60.4407 61.603C58.8655 61.603 57.5885 60.326 57.5885 58.7507C57.5885 57.1754 58.8655 55.8984 60.4407 55.8984C62.016 55.8984 63.293 57.1754 63.293 58.7507C63.293 60.326 62.016 61.603 60.4407 61.603Z" fill="black" stroke="#FFDD00" stroke-width="0.365959"/>
<path d="M54.1484 25.375V28.2719H51.2516V25.375H54.1484Z" fill="#ED1C24"/>
<path d="M126.121 231.852L60.9991 75.1432L101.66 75.2825L166.17 230.821L175.807 228.203L185.556 222.632L193.021 214.053L196.642 205.919L56.4255 159.737L56.0522 160.35L84.6581 229.373L74.9093 225.195L68.1909 219.791L63.6173 213.83L59.2164 204.304L57.8739 199.736L154.582 231.601L126.121 231.852ZM196.647 205.947L141.942 75.5332L158.097 75.043L200.714 89.0704L200.547 75.1544L182.33 75.3494L200.491 119.097V128.568L56.0968 80.8812L55.9297 120.156L200.547 167.954L199.488 192.856L198.151 201.268L196.647 205.947Z" fill="#0090CF" stroke="black" stroke-width="0.182979"/>
<path d="M187.082 70.7289H165.676L166.336 22.1803L168.213 21.8945L169.904 23.5665L170.697 25.3002L172.943 25.838L174.001 27.4475V30.1326L171.754 29.8432L170.301 30.8752L170.036 32.6102L172.018 34.5091L174.133 33.4916L175.19 31.2888H176.643L177.833 32.3209L178.361 34.5752L180.607 35.0112L181.797 37.6541L180.872 40.0062L179.286 40.7462L177.965 40.8254L176.775 43.019L174.001 43.7193V41.4465L173.076 39.9137L171.226 39.8344L169.64 41.4465L169.772 45.1597L170.433 47.4325L172.943 50.115L177.04 50.9474H181.004L183.382 50.6171C184.307 49.7317 185.629 47.4986 185.629 47.4986" fill="#FFDD00"/>
<path d="M166.508 22.1549C169.402 22.1549 169.904 25.169 170.168 25.5536C170.432 25.9368 171.357 25.9302 171.754 26.0266C172.414 26.2315 172.811 26.6821 173.207 27.1578C173.472 27.5661 173.604 28.17 173.472 29.5337C173.339 29.4821 172.679 29.1914 172.282 29.2377C171.754 29.2985 171.357 29.3394 170.829 29.6843C170.036 30.1772 169.904 30.4428 169.639 31.0176C169.375 31.6413 169.243 32.6126 169.772 33.2085C170.168 33.9194 170.168 33.8137 170.829 34.2736C171.357 34.67 172.15 34.8946 172.943 34.7361C173.604 34.6039 174 34.3 174.529 33.8005C175.057 33.0447 175.454 32.01 175.454 31.8316C176.246 31.6241 176.907 32.1672 177.171 32.5676C177.832 33.5415 177.832 34.1599 177.832 35.1193C179.418 34.7096 181.136 35.6478 181.136 37.5242C181.136 39.3874 179.55 40.4313 177.7 39.8103C177.7 41.4092 176.907 42.202 176.246 42.7174C175.718 43.1138 175.057 43.0609 174.396 43.0609C174.529 42.4531 174.529 42.3738 174.529 41.7263C174.396 40.9731 174.132 40.1803 173.736 39.8103C173.339 39.4403 172.547 38.991 171.754 39.2156C171.093 39.4006 170.036 39.7838 169.639 40.471C168.979 41.277 168.979 41.832 168.979 42.8363C168.979 44.0916 169.243 45.4263 169.639 46.6816C170.036 47.9369 170.697 48.8091 171.225 49.4698C171.754 50.1701 172.811 50.6591 173.868 50.9762C174.793 51.2537 175.85 51.4123 177.436 51.4915C179.021 51.5708 180.078 51.5312 181.136 51.4915C181.664 51.4651 181.928 51.4545 182.721 51.2405C183.25 51.0978 183.963 50.7251 184.571 50.1569C185.034 49.7261 185.43 48.8434 185.496 48.5316C185.562 48.2211 185.655 47.411 185.655 47.411C185.655 47.411 184.835 48.4391 184.439 48.8223C184.043 49.1791 183.646 49.6416 183.25 49.8662C182.325 50.3816 181.532 50.3551 180.739 50.3816C179.55 50.408 177.832 50.3816 176.246 50.2362C174.529 50.0908 173.339 49.7737 172.414 48.9809C171.489 48.1484 170.961 47.3423 170.697 46.3116C170.036 44.1181 170.036 43.3517 170.168 42.1756C170.3 40.7881 171.622 40.2199 172.15 40.2463C172.679 40.2728 172.943 40.537 173.207 40.9467C173.736 41.951 173.339 42.8627 173.339 43.867C175.189 44.3295 175.982 43.9991 176.775 43.497C177.568 43.0213 178.361 41.9113 178.361 41.211C179.153 41.4356 180.078 41.1317 181.003 40.5503C181.532 40.1274 182.193 38.8853 182.193 37.7224C182.193 36.8107 181.928 35.9253 181.664 35.3836C180.871 34.2736 179.682 34.045 178.757 34.045C178.757 31.7523 176.246 30.2208 174.661 30.682C174.793 31.8395 174.396 32.4421 174.132 32.8121C173.868 33.2852 173.472 33.593 172.943 33.7503C172.15 33.9538 171.622 33.6287 171.225 33.3089C170.564 32.8544 170.3 31.7285 170.961 31.0176C171.357 30.5274 172.15 30.2737 172.547 30.3529C173.075 30.4573 173.604 30.7758 173.868 30.6622C174.264 30.5498 174.396 29.7107 174.396 29.4227C174.793 26.139 173.075 25.1572 170.961 24.7369C170.3 22.1866 168.173 21 166.508 21" fill="black"/>
<path d="M176.194 60.5089C177.155 60.5089 177.935 59.7295 177.935 58.7681C177.935 57.8067 177.155 57.0273 176.194 57.0273C175.232 57.0273 174.453 57.8067 174.453 58.7681C174.453 59.7295 175.232 60.5089 176.194 60.5089Z" fill="black"/>
<path d="M174.27 35.8867V38.7806H177.177V35.8867H174.27Z" fill="#0098D4"/>
<path d="M184.183 70.7289H205.59L204.929 22.1803L203.053 21.8945L201.361 23.5665L200.569 25.3002L198.322 25.838L197.265 27.4475V30.1326L199.511 29.8432L200.965 30.8752L201.229 32.6102L199.247 34.5091L197.133 33.4916L196.076 31.2888H194.622L193.433 32.3209L192.905 34.5752L190.658 35.0112L189.469 37.6541L190.394 40.0062L191.98 40.7462L193.301 40.8254L194.49 43.019L197.265 43.7193V41.4465L198.19 39.9137L200.04 39.8344L201.626 41.4465L201.494 45.1597L200.833 47.4325L198.322 50.115L194.226 50.9474H190.262L187.883 50.6171C186.958 49.7317 185.637 47.4986 185.637 47.4986" fill="#FFDD00"/>
<path d="M204.758 22.1549C201.864 22.1549 201.362 25.169 201.098 25.5536C200.833 25.9368 199.908 25.9302 199.512 26.0266C198.851 26.2315 198.455 26.6821 198.058 27.1578C197.794 27.5661 197.662 28.17 197.794 29.5337C197.926 29.4821 198.587 29.1914 198.983 29.2377C199.512 29.2985 199.908 29.3394 200.437 29.6843C201.23 30.1772 201.362 30.4428 201.626 31.0176C201.89 31.6413 202.023 32.6126 201.494 33.2085C201.098 33.9194 201.098 33.8137 200.437 34.2736C199.908 34.67 199.115 34.8946 198.323 34.7361C197.662 34.6039 197.266 34.3 196.737 33.8005C196.208 33.0447 195.812 32.01 195.812 31.8316C195.019 31.6241 194.359 32.1672 194.094 32.5676C193.434 33.5415 193.434 34.1599 193.434 35.1193C191.848 34.7096 190.13 35.6478 190.13 37.5242C190.13 39.3874 191.716 40.4313 193.566 39.8103C193.566 41.4092 194.359 42.202 195.019 42.7174C195.548 43.1138 196.208 43.0609 196.869 43.0609C196.737 42.4531 196.737 42.3738 196.737 41.7263C196.869 40.9731 197.133 40.1803 197.53 39.8103C197.926 39.4403 198.719 38.991 199.512 39.2156C200.173 39.4006 201.23 39.7838 201.626 40.471C202.287 41.277 202.287 41.832 202.287 42.8363C202.287 44.0916 202.023 45.4263 201.626 46.6816C201.23 47.9369 200.569 48.8091 200.04 49.4698C199.512 50.1701 198.455 50.6591 197.398 50.9762C196.473 51.2537 195.416 51.4123 193.83 51.4915C192.244 51.5708 191.187 51.5312 190.13 51.4915C189.602 51.4651 189.337 51.4545 188.544 51.2405C188.016 51.0978 187.302 50.7251 186.694 50.1569C186.232 49.7261 185.836 48.8434 185.77 48.5316C185.703 48.2211 185.611 47.411 185.611 47.411C185.611 47.411 186.43 48.4391 186.827 48.8223C187.223 49.1791 187.619 49.6416 188.016 49.8662C188.941 50.3816 189.734 50.3551 190.526 50.3816C191.716 50.408 193.434 50.3816 195.019 50.2362C196.737 50.0908 197.926 49.7737 198.851 48.9809C199.776 48.1484 200.305 47.3423 200.569 46.3116C201.23 44.1181 201.23 43.3517 201.098 42.1756C200.965 40.7881 199.644 40.2199 199.115 40.2463C198.587 40.2728 198.323 40.537 198.058 40.9467C197.53 41.951 197.926 42.8627 197.926 43.867C196.076 44.3295 195.283 43.9991 194.491 43.497C193.698 43.0213 192.905 41.9113 192.905 41.211C192.112 41.4356 191.187 41.1317 190.262 40.5503C189.734 40.1274 189.073 38.8853 189.073 37.7224C189.073 36.8107 189.337 35.9253 189.602 35.3836C190.394 34.2736 191.584 34.045 192.509 34.045C192.509 31.7523 195.019 30.2208 196.605 30.682C196.473 31.8395 196.869 32.4421 197.133 32.8121C197.398 33.2852 197.794 33.593 198.323 33.7503C199.115 33.9538 199.644 33.6287 200.04 33.3089C200.701 32.8544 200.965 31.7285 200.305 31.0176C199.908 30.5274 199.115 30.2737 198.719 30.3529C198.191 30.4573 197.662 30.7758 197.398 30.6622C197.001 30.5498 196.869 29.7107 196.869 29.4227C196.473 26.139 198.191 25.1572 200.305 24.7369C200.965 22.1866 203.093 21 204.758 21" fill="black"/>
<path d="M195.072 60.5089C194.11 60.5089 193.331 59.7295 193.331 58.7681C193.331 57.8067 194.11 57.0273 195.072 57.0273C196.033 57.0273 196.812 57.8067 196.812 58.7681C196.812 59.7295 196.033 60.5089 195.072 60.5089Z" fill="black"/>
<path d="M197 35.8867V38.7806H194.093V35.8867H197Z" fill="#0098D4"/>
<path d="M187.082 70.7289H165.676L166.336 22.1803L168.213 21.8945L169.904 23.5665L170.697 25.3002L172.943 25.838L174.001 27.4475V30.1326L171.754 29.8432L170.301 30.8752L170.036 32.6102L172.018 34.5091L174.133 33.4916L175.19 31.2888H176.643L177.833 32.3209L178.361 34.5752L180.607 35.0112L181.797 37.6541L180.872 40.0062L179.286 40.7462L177.965 40.8254L176.775 43.019L174.001 43.7193V41.4465L173.076 39.9137L171.226 39.8344L169.64 41.4465L169.772 45.1597L170.433 47.4325L172.943 50.115L177.04 50.9474H181.004L183.382 50.6171C184.307 49.7317 185.629 47.4986 185.629 47.4986" fill="#FFDD00"/>
<path d="M166.508 22.1549C169.402 22.1549 169.904 25.169 170.168 25.5536C170.432 25.9368 171.357 25.9302 171.754 26.0266C172.414 26.2315 172.811 26.6821 173.207 27.1578C173.472 27.5661 173.604 28.17 173.472 29.5337C173.339 29.4821 172.679 29.1914 172.282 29.2377C171.754 29.2985 171.357 29.3394 170.829 29.6843C170.036 30.1772 169.904 30.4428 169.639 31.0176C169.375 31.6413 169.243 32.6126 169.772 33.2085C170.168 33.9194 170.168 33.8137 170.829 34.2736C171.357 34.67 172.15 34.8946 172.943 34.7361C173.604 34.6039 174 34.3 174.529 33.8005C175.057 33.0447 175.454 32.01 175.454 31.8316C176.246 31.6241 176.907 32.1672 177.171 32.5676C177.832 33.5415 177.832 34.1599 177.832 35.1193C179.418 34.7096 181.136 35.6478 181.136 37.5242C181.136 39.3874 179.55 40.4313 177.7 39.8103C177.7 41.4092 176.907 42.202 176.246 42.7174C175.718 43.1138 175.057 43.0609 174.396 43.0609C174.529 42.4531 174.529 42.3738 174.529 41.7263C174.396 40.9731 174.132 40.1803 173.736 39.8103C173.339 39.4403 172.547 38.991 171.754 39.2156C171.093 39.4006 170.036 39.7838 169.639 40.471C168.979 41.277 168.979 41.832 168.979 42.8363C168.979 44.0916 169.243 45.4263 169.639 46.6816C170.036 47.9369 170.697 48.8091 171.225 49.4698C171.754 50.1701 172.811 50.6591 173.868 50.9762C174.793 51.2537 175.85 51.4123 177.436 51.4915C179.021 51.5708 180.078 51.5312 181.136 51.4915C181.664 51.4651 181.928 51.4545 182.721 51.2405C183.25 51.0978 183.963 50.7251 184.571 50.1569C185.034 49.7261 185.43 48.8434 185.496 48.5316C185.562 48.2211 185.655 47.411 185.655 47.411C185.655 47.411 184.835 48.4391 184.439 48.8223C184.043 49.1791 183.646 49.6416 183.25 49.8662C182.325 50.3816 181.532 50.3551 180.739 50.3816C179.55 50.408 177.832 50.3816 176.246 50.2362C174.529 50.0908 173.339 49.7737 172.414 48.9809C171.489 48.1484 170.961 47.3423 170.697 46.3116C170.036 44.1181 170.036 43.3517 170.168 42.1756C170.3 40.7881 171.622 40.2199 172.15 40.2463C172.679 40.2728 172.943 40.537 173.207 40.9467C173.736 41.951 173.339 42.8627 173.339 43.867C175.189 44.3295 175.982 43.9991 176.775 43.497C177.568 43.0213 178.361 41.9113 178.361 41.211C179.153 41.4356 180.078 41.1317 181.003 40.5503C181.532 40.1274 182.193 38.8853 182.193 37.7224C182.193 36.8107 181.928 35.9253 181.664 35.3836C180.871 34.2736 179.682 34.045 178.757 34.045C178.757 31.7523 176.246 30.2208 174.661 30.682C174.793 31.8395 174.396 32.4421 174.132 32.8121C173.868 33.2852 173.472 33.593 172.943 33.7503C172.15 33.9538 171.622 33.6287 171.225 33.3089C170.564 32.8544 170.3 31.7285 170.961 31.0176C171.357 30.5274 172.15 30.2737 172.547 30.3529C173.075 30.4573 173.604 30.7758 173.868 30.6622C174.264 30.5498 174.396 29.7107 174.396 29.4227C174.793 26.139 173.075 25.1572 170.961 24.7369C170.3 22.1866 168.173 21 166.508 21" fill="black"/>
<path d="M176.194 60.5089C177.155 60.5089 177.935 59.7295 177.935 58.7681C177.935 57.8067 177.155 57.0273 176.194 57.0273C175.232 57.0273 174.453 57.8067 174.453 58.7681C174.453 59.7295 175.232 60.5089 176.194 60.5089Z" fill="black"/>
<path d="M174.27 35.8867V38.7806H177.177V35.8867H174.27Z" fill="#0098D4"/>
<path d="M185.624 38.8047C182.849 38.8047 181.924 41.8836 183.774 43.9846C180.999 43.1521 178.621 45.3325 179.81 47.341C181.264 49.9706 184.171 48.6888 185.624 46.8653C187.21 48.9267 190.117 49.6799 191.438 47.4599C192.892 45.121 190.249 42.8218 187.606 43.9582C189.192 41.8968 188.399 38.8047 185.624 38.8047Z" fill="#0098D4" stroke="black" stroke-width="0.175781" stroke-linejoin="round"/>
<path d="M181.004 61.6526V55.8516H190.518V61.6526H181.004Z" fill="#ED1C24" stroke="black" stroke-width="0.175651"/>
<path d="M166.598 52.0451V36.3203Z" fill="black"/>
<path d="M166.598 52.0451V36.3203" stroke="black" stroke-width="0.155534"/>
<path d="M165.152 25.4102V28.308H168.059V25.4102H165.152Z" fill="#ED1C24"/>
<path d="M166.605 55.6914L161.848 58.7571L166.605 61.8227L171.229 58.7571L166.605 55.6914Z" fill="#0098D4" stroke="black" stroke-width="0.175651"/>
<path d="M204.449 29.9559C206.347 29.9559 207.886 28.195 207.886 26.0229C207.886 23.8507 206.347 22.0898 204.449 22.0898C202.551 22.0898 201.012 23.8507 201.012 26.0229C201.012 28.195 202.551 29.9559 204.449 29.9559Z" fill="#FFDD00"/>
<path d="M204.336 21.0921V22.067C205.478 22.0169 206.207 22.535 206.681 22.9751C207.784 23.9889 208.152 25.248 207.851 26.7521C207.388 28.9582 205.689 29.8606 203.879 29.8606V40.1779L205.116 39.8826V30.9692C206.319 30.6239 207.166 29.9943 207.712 29.4373C209.427 27.6824 209.45 25.2758 208.514 23.3984C207.511 21.7885 206.063 20.9584 204.336 21.0921Z" fill="black" stroke="black" stroke-width="0.0274469"/>
<path d="M196.204 61.603C197.779 61.603 199.056 60.326 199.056 58.7507C199.056 57.1754 197.779 55.8984 196.204 55.8984C194.629 55.8984 193.352 57.1754 193.352 58.7507C193.352 60.326 194.629 61.603 196.204 61.603Z" fill="black" stroke="#FFDD00" stroke-width="0.365959"/>
<path d="M202.496 25.375V28.2719H205.393V25.375H202.496Z" fill="#ED1C24"/>
<path d="M52.1016 29.8672V71.9161ZM204.573 71.9161V29.8672Z" fill="#FFDD00"/>
<path d="M52.1016 29.8672V71.9161M204.573 71.9161V29.8672" stroke="black" stroke-width="0.31875"/>
<path d="M204.562 66.4492H52.0898ZM204.562 70.8112H52.0898Z" fill="#FFDD00"/>
<path d="M204.562 66.4492H52.0898M204.562 70.8112H52.0898" stroke="black" stroke-width="0.256171"/>
<path d="M56.0664 75.1641V173.1C56.0664 173.1 56.2391 184.353 56.6959 188.698C57.1694 192.988 57.6485 199.394 59.2974 204.13C60.1386 206.637 61.6372 210.648 64.2554 214.826C65.8375 217.388 68.0046 220.062 70.8011 222.179C74.1268 224.742 75.8148 225.745 78.2436 226.859C81.7532 228.474 83.0568 228.864 85.6973 229.589C88.5607 230.313 91.1566 230.758 93.6301 230.981C96.3152 231.26 99.0894 231.371 101.301 231.483C103.786 231.594 109.969 231.761 111.807 231.761H144.898C146.736 231.761 152.864 231.594 155.371 231.483C157.543 231.371 160.329 231.26 163.003 230.981C165.51 230.758 168.072 230.313 170.969 229.589C173.587 228.864 174.924 228.53 178.434 226.859C180.829 225.745 182.556 224.742 185.843 222.179C188.628 220.062 190.801 217.388 192.416 214.826C195.035 210.648 196.483 206.637 197.374 204.13C199.046 199.394 199.491 192.988 199.937 188.698C200.438 184.353 200.605 173.1 200.605 173.1V75.1641H56.0664Z" stroke="black" stroke-width="0.276207"/>
</svg>
