<svg width="256" height="256" viewBox="0 0 256 256" fill="none" xmlns="http://www.w3.org/2000/svg">
<path d="M71.7544 85.5935L61.8909 40.0566L54 17.5348C58.3729 18.8499 61.8909 15.5621 63.9951 20.1651C64.2252 19.1458 64.9814 19.4089 65.1458 18.4225C66.1322 24.2091 72.0175 23.7817 64.554 34.7632L65.0143 34.9604C69.2557 27.5956 69.6502 30.8835 72.4449 28.0559C72.8066 29.7656 73.6943 30.3903 72.8066 31.837C77.3767 32.0342 78.7905 43.3116 73.3984 45.4487C73.8587 47.257 73.0038 47.7173 73.0367 49.1311C70.4393 46.3693 67.1843 48.5393 64.6198 45.3501C65.3106 48.8683 67.5094 51.9601 70.7325 53.9453C73.9556 55.9306 77.9389 56.6466 81.8062 55.9359C85.6735 55.2252 89.108 53.1461 91.3541 50.1558C93.6002 47.1655 94.4739 43.5091 93.7831 39.9909C92.5337 43.8705 88.7198 43.0157 87.306 46.5008C86.8128 45.1857 85.8594 45.0542 85.6292 43.213C79.8426 43.1472 77.1136 32.1329 81.2892 30.2917C79.9412 29.2724 80.5659 28.3518 80.3029 26.6422C83.9195 28.2861 83.1304 25.064 89.7061 30.4232L90.0678 30.0615C79.1521 22.4995 84.8072 20.4281 83.6565 15.036C84.1825 15.8909 84.7744 15.3977 85.3333 16.2525C85.0703 12.34 89.9034 12.4715 91.6131 10.2029C93.8488 11.9783 98.5176 10.696 99.1752 14.5428C99.5368 13.5565 100.227 13.9181 100.523 12.9647C100.786 18.8171 106.704 19.113 97.9587 29.1081L98.3861 29.3382C103.482 22.5652 103.482 25.886 106.606 23.4201C106.737 25.1297 107.559 25.8531 106.507 27.2011C111.011 27.9573 111.044 39.3333 105.422 40.78C105.652 42.6212 104.765 42.9828 104.6 44.3966C102.364 41.3389 98.8793 43.1143 96.7422 39.6292C97.2739 43.5915 99.1058 47.1624 101.89 49.6645C104.675 52.1665 108.218 53.4254 111.847 53.2024C115.477 52.9793 118.94 51.2898 121.58 48.4545C124.22 45.6191 125.853 41.8352 126.169 37.8209C124.459 41.5362 120.776 40.221 118.935 43.5089C118.606 42.128 117.686 41.8978 117.686 40.0237C111.932 39.2675 110.584 27.9902 114.957 26.675C113.74 25.4914 114.464 24.6694 114.398 22.9269C117.784 24.9982 117.39 21.7104 123.275 27.8258L123.67 27.5299C113.773 18.6855 119.593 17.6663 119.165 11.8139C119.56 12.7345 120.217 12.3071 120.678 13.2277C120.875 9.31514 125.675 10.0385 127.648 8C129.621 10.0385 134.421 9.31514 134.618 13.2277C135.079 12.3071 135.736 12.7345 136.131 11.8139C135.703 17.6663 141.523 18.6855 131.626 27.5299L132.021 27.8258C137.906 21.7104 137.512 24.9982 140.898 22.9269C140.832 24.6694 141.556 25.4914 140.339 26.675C144.712 27.9902 143.364 39.2675 137.61 40.0237C137.61 41.8978 136.69 42.128 136.361 43.5089C134.52 40.221 130.837 41.5362 129.128 37.8209C129.443 41.8352 131.076 45.6191 133.716 48.4545C136.356 51.2898 139.819 52.9793 143.449 53.2024C147.078 53.4254 150.621 52.1665 153.406 49.6645C156.19 47.1624 158.022 43.5915 158.554 39.6292C156.417 43.1143 152.932 41.3389 150.696 44.3966C150.532 42.9828 149.644 42.6212 149.874 40.78C144.252 39.3333 144.285 27.9573 148.789 27.2011C147.737 25.8531 148.559 25.1297 148.69 23.4201C151.814 25.886 151.814 22.5652 156.91 29.3382L157.337 29.1081C148.592 19.113 154.51 18.8171 154.773 12.9647C155.069 13.9181 155.759 13.5565 156.121 14.5428C156.778 10.696 161.447 11.9783 163.683 10.2029C165.393 12.4715 170.226 12.34 169.963 16.2525C170.522 15.3977 171.114 15.8909 171.64 15.036C170.489 20.7898 176.144 22.4995 165.228 30.0615L165.59 30.4232C172.166 25.064 171.377 28.2861 174.993 26.6422C174.73 28.3518 175.355 29.2724 174.007 30.2917C178.182 32.1329 175.454 43.1472 169.667 43.213C169.437 45.0542 168.483 45.1857 167.99 46.5008C166.576 43.0157 162.762 43.8705 161.513 39.9909C160.822 43.5091 161.696 47.1655 163.942 50.1558C166.188 53.1461 169.623 55.2252 173.49 55.9359C177.357 56.6466 181.341 55.9306 184.564 53.9453C187.787 51.9601 189.985 48.8683 190.676 45.3501C188.112 48.5393 184.857 46.3693 182.259 49.1311C182.292 47.7173 181.437 47.257 181.898 45.4487C176.506 43.3116 177.919 32.0342 182.49 31.837C181.602 30.3903 182.49 29.7656 182.851 28.0559C185.646 30.8835 186.04 27.5956 190.282 34.9604L190.742 34.7632C183.279 23.7817 189.164 24.2091 190.15 18.4225C189.328 19.4089 191.071 19.1458 191.301 20.1651C193.405 15.5621 196.923 18.8499 201.296 17.5348L193.405 40.0566L183.542 85.5935M69.2228 74.086C107.786 66.319 147.51 66.319 186.073 74.086ZM79.7439 72.179L81.2235 79.5109ZM88.2924 63.2689L89.5089 70.6995ZM98.9122 69.6802L99.8328 77.1766ZM107.724 61.3291L108.315 68.8583ZM146.981 68.8583L147.572 61.3291ZM155.463 77.1766L156.384 69.6802ZM165.787 70.6995L167.004 63.2689ZM174.073 79.5109L175.552 72.179Z" fill="#FFC900"/>
<path d="M71.7544 85.5935L61.8909 40.0566M61.8909 40.0566L69.1242 38.2483M61.8909 40.0566L54 17.5348C58.3729 18.8499 61.8909 15.5621 63.9951 20.1651C64.2252 19.1458 64.9814 19.4089 65.1458 18.4225C66.1322 24.2091 72.0175 23.7817 64.554 34.7632L65.0143 34.9604C69.2557 27.5956 69.6502 30.8835 72.4449 28.0559C72.8066 29.7656 73.6943 30.3903 72.8066 31.837C77.3767 32.0342 78.7905 43.3116 73.3984 45.4487C73.8587 47.257 73.0038 47.7173 73.0367 49.1311C70.4393 46.3693 67.1843 48.5393 64.6198 45.3501C65.3106 48.8683 67.5094 51.9601 70.7325 53.9453C73.9556 55.9306 77.9389 56.6466 81.8062 55.9359C85.6735 55.2252 89.108 53.1461 91.3541 50.1558C93.6002 47.1655 94.4739 43.5091 93.7831 39.9909C92.5337 43.8705 88.7198 43.0157 87.306 46.5008C86.8128 45.1857 85.8594 45.0542 85.6292 43.213C79.8426 43.1472 77.1136 32.1329 81.2892 30.2917C79.9412 29.2724 80.5659 28.3518 80.3029 26.6422C83.9195 28.2861 83.1304 25.064 89.7061 30.4232L90.0678 30.0615C79.1521 22.4995 84.8072 20.4281 83.6565 15.036C84.1825 15.8909 84.7744 15.3977 85.3333 16.2525C85.0703 12.34 89.9034 12.4715 91.6131 10.2029C93.8488 11.9783 98.5176 10.696 99.1752 14.5428C99.5368 13.5565 100.227 13.9181 100.523 12.9647C100.786 18.8171 106.704 19.113 97.9587 29.1081L98.3861 29.3382C103.482 22.5652 103.482 25.886 106.606 23.4201C106.737 25.1297 107.559 25.8531 106.507 27.2011C111.011 27.9573 111.044 39.3333 105.422 40.78C105.652 42.6212 104.765 42.9828 104.6 44.3966C102.364 41.3389 98.8793 43.1143 96.7422 39.6292C97.2739 43.5915 99.1058 47.1624 101.89 49.6645C104.675 52.1665 108.218 53.4254 111.847 53.2024C115.477 52.9793 118.94 51.2898 121.58 48.4545C124.22 45.6191 125.853 41.8352 126.169 37.8209C124.459 41.5362 120.776 40.221 118.935 43.5089C118.606 42.128 117.686 41.8978 117.686 40.0237C111.932 39.2675 110.584 27.9902 114.957 26.675C113.74 25.4914 114.464 24.6694 114.398 22.9269C117.784 24.9982 117.39 21.7104 123.275 27.8258L123.67 27.5299C113.773 18.6855 119.593 17.6663 119.165 11.8139C119.56 12.7345 120.217 12.3071 120.678 13.2277C120.875 9.31514 125.675 10.0385 127.648 8C129.621 10.0385 134.421 9.31514 134.618 13.2277C135.079 12.3071 135.736 12.7345 136.131 11.8139C135.703 17.6663 141.523 18.6855 131.626 27.5299L132.021 27.8258C137.906 21.7104 137.512 24.9982 140.898 22.9269C140.832 24.6694 141.556 25.4914 140.339 26.675C144.712 27.9902 143.364 39.2675 137.61 40.0237C137.61 41.8978 136.69 42.128 136.361 43.5089C134.52 40.221 130.837 41.5362 129.128 37.8209C129.443 41.8352 131.076 45.6191 133.716 48.4545C136.356 51.2898 139.819 52.9793 143.449 53.2024C147.078 53.4254 150.621 52.1665 153.406 49.6645C156.19 47.1624 158.022 43.5915 158.554 39.6292C156.417 43.1143 152.932 41.3389 150.696 44.3966C150.532 42.9828 149.644 42.6212 149.874 40.78C144.252 39.3333 144.285 27.9573 148.789 27.2011C147.737 25.8531 148.559 25.1297 148.69 23.4201C151.814 25.886 151.814 22.5652 156.91 29.3382L157.337 29.1081C148.592 19.113 154.51 18.8171 154.773 12.9647C155.069 13.9181 155.759 13.5565 156.121 14.5428C156.778 10.696 161.447 11.9783 163.683 10.2029C165.393 12.4715 170.226 12.34 169.963 16.2525C170.522 15.3977 171.114 15.8909 171.64 15.036C170.489 20.7898 176.144 22.4995 165.228 30.0615L165.59 30.4232C172.166 25.064 171.377 28.2861 174.993 26.6422C174.73 28.3518 175.355 29.2724 174.007 30.2917C178.182 32.1329 175.454 43.1472 169.667 43.213C169.437 45.0542 168.483 45.1857 167.99 46.5008C166.576 43.0157 162.762 43.8705 161.513 39.9909C160.822 43.5091 161.696 47.1655 163.942 50.1558C166.188 53.1461 169.623 55.2252 173.49 55.9359C177.357 56.6466 181.341 55.9306 184.564 53.9453C187.787 51.9601 189.985 48.8683 190.676 45.3501C188.112 48.5393 184.857 46.3693 182.259 49.1311C182.292 47.7173 181.437 47.257 181.898 45.4487C176.506 43.3116 177.919 32.0342 182.49 31.837C181.602 30.3903 182.49 29.7656 182.851 28.0559C185.646 30.8835 186.04 27.5956 190.282 34.9604L190.742 34.7632C183.279 23.7817 189.164 24.2091 190.15 18.4225C189.328 19.4089 191.071 19.1458 191.301 20.1651C193.405 15.5621 196.923 18.8499 201.296 17.5348L193.405 40.0566M193.405 40.0566L186.172 38.2483M193.405 40.0566L183.542 85.5935M69.2228 74.086C107.786 66.319 147.51 66.319 186.073 74.086M79.7439 72.179L81.2235 79.5109M88.2924 63.2689L89.5089 70.6995M98.9122 69.6802L99.8328 77.1766M107.724 61.3291L108.315 68.8583M146.981 68.8583L147.572 61.3291M155.463 77.1766L156.384 69.6802M165.787 70.6995L167.004 63.2689M174.073 79.5109L175.552 72.179" stroke="black" stroke-width="0.597544" stroke-linecap="round" stroke-linejoin="round"/>
<path d="M120.086 32.0002H135.21ZM127.648 24.1094V30.6851Z" fill="#FFC900"/>
<path d="M120.086 32.0002H135.21M127.648 24.1094V30.6851" stroke="black" stroke-width="0.597544" stroke-linecap="round" stroke-linejoin="round"/>
<path d="M127.654 34.1362C129.198 34.1362 130.449 32.885 130.449 31.3416C130.449 29.7981 129.198 28.5469 127.654 28.5469C126.111 28.5469 124.859 29.7981 124.859 31.3416C124.859 32.885 126.111 34.1362 127.654 34.1362Z" fill="#FFC900" stroke="black" stroke-width="0.597544" stroke-linecap="round" stroke-linejoin="round"/>
<path d="M153.241 33.1016L168.253 34.9447ZM161.709 26.1911L160.907 32.7178Z" fill="#FFC900"/>
<path d="M153.241 33.1016L168.253 34.9447M161.709 26.1911L160.907 32.7178" stroke="black" stroke-width="0.597544" stroke-linecap="round" stroke-linejoin="round"/>
<path d="M160.491 36.1461C162.023 36.3342 163.417 35.2448 163.606 33.7128C163.794 32.1809 162.704 30.7865 161.172 30.5984C159.64 30.4103 158.246 31.4997 158.058 33.0317C157.87 34.5636 158.959 35.958 160.491 36.1461Z" fill="#FFC900" stroke="black" stroke-width="0.597544" stroke-linecap="round" stroke-linejoin="round"/>
<path d="M87.0554 34.9453L102.067 33.1022ZM93.5995 26.1917L94.4008 32.7184Z" fill="#FFC900"/>
<path d="M87.0554 34.9453L102.067 33.1022M93.5995 26.1917L94.4008 32.7184" stroke="black" stroke-width="0.597544" stroke-linecap="round" stroke-linejoin="round"/>
<path d="M94.8222 36.1446C96.3542 35.9565 97.4436 34.5621 97.2555 33.0302C97.0674 31.4982 95.673 30.4088 94.141 30.5969C92.6091 30.785 91.5197 32.1794 91.7078 33.7113C91.8959 35.2433 93.2903 36.3327 94.8222 36.1446Z" fill="#FFC900" stroke="black" stroke-width="0.597544" stroke-linecap="round" stroke-linejoin="round"/>
<path d="M192.828 42.1424C194.326 42.5158 195.843 41.6044 196.216 40.1068C196.589 38.6092 195.678 37.0925 194.18 36.7191C192.683 36.3457 191.166 37.257 190.793 38.7546C190.419 40.2522 191.331 41.769 192.828 42.1424Z" fill="#FFC900" stroke="black" stroke-width="0.597544" stroke-linecap="round" stroke-linejoin="round"/>
<path d="M62.4623 42.1418C63.9599 41.7684 64.8713 40.2516 64.4979 38.754C64.1245 37.2564 62.6077 36.345 61.1101 36.7184C59.6125 37.0918 58.7011 38.6086 59.0745 40.1062C59.4479 41.6038 60.9647 42.5152 62.4623 42.1418Z" fill="#FFC900" stroke="black" stroke-width="0.597544" stroke-linecap="round" stroke-linejoin="round"/>
<path d="M64 49.758C68.4715 65.7699 94.1497 64.5534 95.9909 45.4838C100.364 62.1532 121.735 61.5614 127.653 43.8398C133.571 61.5614 154.942 62.1532 159.315 45.4838C161.156 64.5534 186.834 65.7699 191.306 49.758" stroke="black" stroke-width="0.597544" stroke-linecap="round" stroke-linejoin="round"/>
<path d="M66.9512 63.4008C106.979 55.0122 148.311 55.0122 188.339 63.4008C189.654 63.7295 188.997 67.116 187.681 66.7872C148.078 58.5814 107.212 58.5814 67.6088 66.7872C66.2937 67.116 65.6361 63.7295 66.9512 63.4008ZM71.5871 84.9362C70.272 85.265 69.5158 81.7141 70.8309 81.3853C108.351 74.0448 146.939 74.0448 184.459 81.3853C185.774 81.7141 185.018 85.265 183.703 84.9362" fill="#FFC900"/>
<path d="M71.5871 84.9362C70.272 85.265 69.5158 81.7141 70.8309 81.3853C108.351 74.0448 146.939 74.0448 184.459 81.3853C185.774 81.7141 185.018 85.265 183.703 84.9362M66.9512 63.4008C106.979 55.0122 148.311 55.0122 188.339 63.4008C189.654 63.7295 188.997 67.116 187.681 66.7872C148.078 58.5814 107.212 58.5814 67.6088 66.7872C66.2937 67.116 65.6361 63.7295 66.9512 63.4008Z" stroke="black" stroke-width="0.597544" stroke-linecap="round" stroke-linejoin="round"/>
<path d="M116.469 79.8074V65.5381C116.469 62.5733 117.647 59.73 119.743 57.6335C121.839 55.5371 124.683 54.3594 127.647 54.3594C130.612 54.3594 133.456 55.5371 135.552 57.6335C137.648 59.73 138.826 62.5733 138.826 65.5381V79.8074M120.085 79.6759V65.5381C120.085 63.5325 120.882 61.6091 122.3 60.1909C123.718 58.7727 125.642 57.976 127.647 57.976C129.653 57.976 131.576 58.7727 132.995 60.1909C134.413 61.6091 135.21 63.5325 135.21 65.5381V79.6759" fill="#FFC900"/>
<path d="M116.469 79.8074V65.5381C116.469 62.5733 117.647 59.73 119.743 57.6335C121.839 55.5371 124.683 54.3594 127.647 54.3594C130.612 54.3594 133.456 55.5371 135.552 57.6335C137.648 59.73 138.826 62.5733 138.826 65.5381V79.8074M120.085 79.6759V65.5381C120.085 63.5325 120.882 61.6091 122.3 60.1909C123.718 58.7727 125.642 57.976 127.647 57.976C129.653 57.976 131.576 58.7727 132.995 60.1909C134.413 61.6091 135.21 63.5325 135.21 65.5381V79.6759" stroke="black" stroke-width="0.597544" stroke-linecap="round" stroke-linejoin="round"/>
<path d="M124.359 52.7148H130.935L129.949 58.633H125.346L124.359 52.7148Z" fill="#FFC900" stroke="black" stroke-width="0.597544" stroke-linecap="round" stroke-linejoin="round"/>
<path d="M127.656 58.7344V80.1712Z" fill="#FFC900"/>
<path d="M127.656 58.7344V80.1712" stroke="black" stroke-width="0.74693" stroke-linecap="round" stroke-linejoin="round"/>
<path d="M71.9141 85.0999C108.731 78.0396 146.555 78.0396 183.372 85.0999Z" fill="#FFC900"/>
<path d="M71.9141 85.0999C108.731 78.0396 146.555 78.0396 183.372 85.0999" stroke="black" stroke-width="1.0457" stroke-linecap="round" stroke-linejoin="round"/>
<path d="M188.338 86.25H66.6875V188.174C66.6875 201.654 66.6875 214.476 84.7707 224.998L127.513 248.999L170.255 224.998C188.667 214.476 188.338 201.654 188.338 188.174V86.25Z" fill="white" stroke="black" stroke-width="1.79263"/>
<path d="M134.973 110.089C133.131 109.201 129.811 109.727 126.753 109.234C120.605 108.248 119.849 106.505 119.849 105.223C119.816 103.875 118.599 103.809 118.599 105.256C118.632 113.804 131.488 109.431 135.137 111.634M93.1511 107.163C93.184 104.861 91.6058 103.382 90.2249 103.25C91.0469 104.203 91.2113 105.584 91.3428 106.932C91.0798 105.025 89.666 103.776 88.4495 103.71C89.107 104.401 89.4687 105.815 89.5345 107.195C89.3372 106.143 88.3508 104.565 86.7069 104.401C87.4631 105.19 87.6933 106.669 87.8577 108.017C87.6275 106.867 86.4439 105.552 85.1287 105.453C85.6877 105.913 86.148 107.59 86.2466 108.872C86.0822 108.346 85.1616 107.064 83.715 106.9C84.4712 107.59 84.7999 109.267 84.9315 110.582M90.6852 141.948C90.2907 140.14 88.7125 138.233 86.9371 138.463C87.759 139.022 88.3837 141.126 88.6139 142.474C88.0549 140.962 86.674 139.351 85.0301 139.548C85.9178 140.337 86.4439 142.277 86.7727 143.724C85.8849 142.047 84.7999 140.797 83.1889 140.995C84.2739 142.047 84.6684 143.888 84.9315 145.302C84.4054 144.118 83.1889 142.671 81.545 142.836C82.5642 143.756 82.9916 145.762 83.3533 147.242C82.6957 146.354 81.7094 145.104 80.1641 145.236C81.1833 146.222 81.6436 148.162 82.071 149.642M95.9458 206.291C94.2032 205.239 91.8031 205.601 90.6852 207.048C91.9346 206.818 93.7758 207.508 94.4991 208.1C93.3155 207.344 90.8496 207.804 89.8961 209.119C91.014 208.823 92.8223 209.579 93.7758 210.138C92.5264 209.711 90.5866 209.81 89.3701 211.289C90.3893 211.059 92.0661 211.618 93.1511 212.243C91.6058 211.881 90.0934 212.473 89.2057 213.525C90.5537 213.229 92.0661 214.018 92.9867 214.445C91.2441 214.413 90.192 215.103 89.5673 215.826C90.6852 215.596 92.3949 216.188 93.6443 216.846M141.68 217.109C139.411 216.813 137.537 218.194 136.978 219.805C137.603 219.311 139.576 219.016 140.858 219.41C139.082 219.311 137.307 220.758 136.945 222.073C137.669 221.481 139.97 221.317 140.825 221.679C139.214 221.744 137.669 222.961 137.208 224.309C137.965 223.816 140.069 223.619 141.252 223.914C139.51 224.177 138.261 225.427 137.866 226.578C138.918 225.887 140.299 225.953 142.009 226.052C140.233 226.709 139.641 227.465 139.05 228.649C140.036 228.024 141.779 227.991 143.488 228.123" fill="#F33B1D"/>
<path d="M129.911 96.4135L121.889 96.7094C121.494 96.7423 121.198 96.9396 121.198 97.3999C121.231 100.293 121.79 102.167 123.861 103.68C123.598 105.291 123.763 106.113 125.44 107.461C125.604 106.146 126.13 105.554 126.952 104.995C127.018 105.028 127.083 105.028 127.116 105.061C127.018 105.652 127.018 106.277 127.149 106.639C127.478 107.559 129.089 107.592 129.516 106.935C129.911 107.888 130.733 107.921 131.391 107.921C132.081 107.921 132.41 107.428 132.64 106.968C133.035 107.296 133.429 107.658 133.791 108.118C134.941 109.696 135.139 111.735 135.139 113.675C134.777 113.708 134.415 113.741 134.054 113.773V112.984C134.021 111.866 131.423 111.669 130.832 112.623C130.174 111.899 128.136 112.031 128.136 113.182V113.543C127.675 112.951 127.314 112.327 127.018 111.702C126.196 112.228 125.703 112.623 125.834 114.497C125.472 114.53 125.111 114.563 124.782 114.595C124.815 116.765 125.768 117.357 133.528 117.193C133.725 119.363 131.555 120.579 129.944 121.599C125.735 123.999 121.297 126.629 118.897 131.035C116.891 134.52 116.398 138.663 116.628 142.674L118.93 141.654L119.193 142.904C115.05 144.877 107.488 148.888 102.523 151.189C101.307 151.748 98.1503 152.537 97.4927 151.419C95.2241 147.507 93.4158 144.548 90.7855 141.556C89.4375 140.011 80.4945 147.408 82.1384 149.907C85.8866 155.595 92.002 163.749 102.194 163.815C112.748 163.88 121.922 160.001 123.927 159.409L124.355 160.757C123.007 161.349 121.823 161.776 120.409 162.236C122.25 169.47 124.387 172.297 129.352 176.703L128.333 177.459C127.445 176.933 125.933 175.256 125.111 174.467C114.557 179.465 110.611 184.462 108.08 189.624C105.285 195.838 105.811 202.907 106.995 209.45C107.225 210.535 106.041 211.061 105.153 210.732C102.72 210.173 101.372 207.74 99.038 206.853C97.9859 206.392 96.605 205.866 95.4543 206.064C93.5802 206.392 91.5746 215.861 93.4816 216.782C97.0324 218.525 100.912 218.886 104.858 220.925C107.455 221.977 109.954 223.687 112.913 223.226C114.59 223.062 116.266 221.911 116.431 220.136C117.91 213.757 119.982 206.984 124.848 202.381C127.182 200.08 130.207 198.239 133.199 196.825C132.015 192.287 131.128 187.75 131.226 183.016L132.673 182.95C133.725 200.967 138.525 204.748 146.975 213.133C147.83 213.987 147.764 215.598 146.515 216.092C144.871 216.914 142.931 216.946 141.057 217.045C139.051 217.144 140.564 228.257 143.523 228.158C148.718 227.994 154.11 223.95 157.233 219.971C158.548 218.327 160.126 216.683 161.376 215.072C162.921 213.067 161.244 210.732 160.784 208.891C159.502 203.631 158.91 188.506 158.844 186.402L160.685 186.435L160.948 182.621C155.458 175.815 156.345 165.163 154.077 158.291C153.189 155.496 152.203 152.603 152.203 149.644C152.203 145.633 156.74 138.104 156.641 131.396C156.608 128.569 155.03 124.886 155.063 123.21C155.096 118.344 157.891 119.396 157.825 109.269C157.792 106.474 157.463 104.403 156.74 101.543C161.639 96.3806 154.899 91.2187 151.019 94.4408C147.896 93.6188 147.501 92.7969 141.386 92.7969C136.158 92.7969 133.166 94.2107 129.911 96.3806M120.442 126.563C116.99 130.805 115.05 132.942 115.181 143.233C82.5987 124.623 92.1335 121.96 84.9989 110.847C83.881 109.105 91.1472 105.061 93.4487 106.77C98.0846 110.19 96.3749 116.634 100.222 119.56C104.036 122.453 110.841 123.736 120.442 126.563ZM140.334 102.66C139.84 102.66 138.953 102.397 138.69 102.036C135.829 97.6629 135.106 99.2411 134.678 100.753C134.317 102.102 132.739 102.134 133.199 100.326C134.35 95.8875 137.473 96.5122 141.353 102.66M149.737 98.2547C150.526 97.2026 151.742 96.1834 153.058 95.7559C154.997 95.0984 155.786 96.6765 154.241 97.2026C152.959 97.7615 151.874 98.5506 150.953 99.4712M124.223 103.91C124.716 104.206 125.407 104.567 126.426 104.863C125.867 105.324 125.341 105.981 125.177 106.705C124.289 106.08 123.927 104.929 124.223 103.91ZM129.484 105.652C129.484 106.08 129.385 106.507 129.253 106.705C128.925 107.231 127.708 107.198 127.445 106.474C127.347 106.178 127.347 105.652 127.478 105.159C128.136 105.324 128.826 105.455 129.484 105.652ZM129.878 105.751C130.766 106.014 131.621 106.31 132.377 106.803C132.213 107.198 131.917 107.592 131.325 107.592C130.799 107.592 130.207 107.559 129.878 106.935C129.714 106.606 129.78 106.146 129.878 105.751ZM126.163 114.464C126.064 113.543 126.163 112.754 126.886 112.228C127.248 112.886 127.642 113.51 128.103 114.069V114.299M128.432 114.283V113.247C128.432 112.162 130.733 112.228 130.766 113.247V114.069M131.062 114.036V113.116C131.062 112.031 133.725 112.097 133.725 113.083V113.806" fill="black"/>
</svg>
