<svg width="256" height="256" viewBox="0 0 256 256" fill="none" xmlns="http://www.w3.org/2000/svg">
<path d="M37.841 21.7109C37.841 21.7109 37.841 72.2623 37.841 97.6916C37.841 123.018 35.999 149.727 41.4738 170.193C46.6415 189.585 57.8981 204.934 71.6617 216.14C78.5691 221.768 86.244 226.526 95.7098 230.057C105.022 233.536 115.613 236.299 127.74 236.196C151.89 235.992 170.207 227.089 183.818 216.14C197.632 205.037 208.684 189.278 213.699 169.835C218.969 149.266 217.331 122.763 217.331 97.3334C217.331 71.853 217.331 21.1992 217.331 21.1992H37.9945L37.841 21.7109Z" fill="white" stroke="black" stroke-width="2.74003" stroke-miterlimit="10"/>
<path d="M212.779 111.404C203.774 98.2031 195.587 84.1838 188.424 69.7551L187.656 68.169L189.191 69.09C190.522 69.9086 191.801 70.9319 193.131 72.0576C196.303 74.667 199.936 77.6346 204.797 77.6346H204.899C207.407 77.6346 209.504 76.8671 211.142 75.3321C202.239 69.1411 195.178 62.8989 190.215 56.8103L189.191 55.5311L190.778 55.9916C193.336 56.7079 195.996 57.1172 198.452 57.1172C198.862 57.1172 199.322 57.1172 199.732 57.0661C202.699 56.9126 205.309 56.1451 207.253 54.9171C209.453 53.5357 210.783 51.5914 211.346 49.1866C205.272 48.2885 194.637 46.2846 191.786 45.4676C190.176 45.0062 188.064 44.7287 186.94 43.8654L186.07 43.1491L187.196 42.9444C191.187 42.2793 195.229 41.3583 198.145 39.4652C201.113 37.4697 202.648 34.5533 202.75 30.5624C197.122 32.0973 190.829 32.5578 184.177 32.8648H183.819L180.902 33.0183H180.647L179.521 33.0695C178.344 33.1206 177.167 33.1206 175.991 33.1718C173.33 33.223 170.567 33.2741 168.162 33.6835C165.553 34.0928 163.711 34.9114 162.483 36.1394C160.897 37.6744 159.873 40.335 159.617 43.3537C159.31 47.4981 161.101 49.8006 162.994 51.8472C163.25 52.103 163.762 52.5124 164.274 53.024C165.757 54.3031 166.558 55.0017 166.763 55.5645C167.377 57.56 166.781 60.9035 166.423 62.1826C166.116 63.2571 165.655 64.0757 165.195 64.8944C164.836 65.5595 164.478 66.1735 164.274 66.8387L164.222 66.941L164.12 67.0433C162.585 68.7318 160.078 69.4481 157.724 70.1133C157.008 70.3179 156.343 70.5226 155.678 70.7273C155.422 71.6482 155.524 72.3645 155.985 72.7739C156.343 73.132 157.008 73.3367 157.827 73.3367C158.543 73.3367 159.413 73.1832 160.129 72.8762C161.715 72.2622 164.632 70.0621 165.757 68.3736C167.651 65.6107 168.555 62.0131 168.299 56.9477L168.111 55.9404L168.827 56.1963L169.288 56.3498C169.953 56.5544 170.669 56.7591 171.027 57.4242L171.079 57.5266V57.6289C171.386 65.9177 168.981 72.825 164.171 77.6858C159.566 82.393 152.966 84.8489 145.086 84.8489H144.319H144.114L143.961 84.6954C143.5 84.2861 143.193 83.8256 142.886 83.4163C142.477 82.8535 142.067 82.2906 141.351 81.7278C140.942 81.4208 140.43 81.2162 139.919 81.0115C138.588 80.4487 137.053 79.8347 137.616 77.2253V77.1229L137.667 77.0718C138.281 76.0996 139.253 75.5368 140.584 75.4856C138.742 72.3646 140.533 67.4527 142.016 65.406L142.272 65.0991L142.63 65.2526L142.886 65.3549C143.654 65.6619 144.626 66.0712 145.444 66.0712C145.803 66.0712 146.161 65.9689 146.417 65.8154C146.314 65.4572 146.11 65.1502 145.854 64.7409C145.496 64.1781 145.086 63.5641 144.984 62.6943C144.677 60.5453 145.444 58.294 146.161 56.0939C146.724 54.3031 147.338 52.4612 147.338 50.7727V50.4146L147.696 50.3122C148.207 50.1587 148.821 50.1076 149.384 50.1076C149.589 50.1076 149.794 50.1076 149.998 50.0564C147.849 48.2656 147.133 44.9399 146.365 41.5118C145.496 37.4697 144.575 33.3253 141.198 32.0462L140.481 31.7903L140.993 31.2275C141.147 31.074 141.3 30.9205 141.505 30.767C140.891 30.8694 140.277 30.9205 139.612 30.9205C137.718 30.9205 135.672 30.5624 133.727 30.2042C131.732 29.8461 129.839 29.5391 128.15 29.5391C126.36 29.5391 125.029 29.8972 123.955 30.6647C123.699 30.8694 123.365 31.0423 123.161 31.3493C122.905 31.7586 122.778 32.302 122.062 32.7113L121.959 32.7625V32.8648C122.317 35.1161 124.108 35.7301 126.36 36.4976C127.127 36.7534 127.946 37.0092 128.764 37.4185C129.634 37.8279 130.453 38.3907 131.169 39.0558L132.602 40.4373L130.657 39.9257C130.197 39.8233 129.788 39.721 129.327 39.6698C129.685 39.7722 129.992 39.8745 130.35 40.028C132.397 41.0001 133.523 42.8421 133.318 45.0422L133.267 45.5539C133.369 45.605 133.523 45.605 133.625 45.6562L134.034 45.7585V46.1678V46.219V46.3213V46.8842L133.472 46.833L131.016 46.6795C131.681 46.7818 132.295 46.9353 132.858 47.14L133.216 47.2935L133.165 47.7028C132.96 49.3401 131.732 49.8517 130.606 50.0564C130.964 50.0564 131.374 50.1076 131.732 50.1076H132.244L133.318 50.0564L132.704 50.9262C131.732 52.2565 130.453 52.9217 128.918 52.9217H128.867C128.56 52.9217 128.201 52.9217 127.895 52.8705C128.56 53.1263 129.174 53.3822 129.736 53.7403L129.839 53.7915L129.89 53.8938C130.402 54.8148 130.555 55.6846 130.248 56.4521C129.583 58.3452 124.638 59.9091 122.642 60.6766C119.782 61.8449 118.776 62.5296 117.201 64.6386C117.866 64.2292 118.633 63.8711 119.503 63.6153C120.373 63.3594 121.192 63.2059 122.01 63.2059C123.136 63.2059 124.159 63.4618 125.029 64.0246L125.49 64.3316L125.183 64.7921C124.518 65.7642 123.75 66.5317 122.983 67.2992C122.369 67.9132 121.703 68.5783 121.192 69.2946C120.629 70.0109 120.168 70.7273 119.759 71.3924C118.582 73.1832 117.559 74.8205 115.461 75.6391C116.177 75.7926 116.843 75.9973 117.303 76.509L117.61 76.8159L117.354 77.1741C116.996 77.6346 116.945 78.5044 116.894 79.3231C116.791 80.2952 116.74 81.2673 116.229 81.9837L116.024 82.2906L115.666 82.1883C115.205 82.0348 114.745 81.9837 114.336 81.9837C112.852 81.9837 111.726 82.8535 110.703 83.7233C109.731 84.4908 109.032 85.0696 107.804 85.1208C100.746 85.2413 92.7298 81.7127 88.0362 77.9928C82.0142 70.4516 79.6496 60.8852 80.9753 58.1917C82.1718 57.3821 82.7689 57.138 84.0964 57.2707C83.8499 61.3704 84.5164 66.2565 86.5524 69.1411C88.6502 71.9552 92.1477 73.5578 96.1898 74.0695C96.9061 73.5067 97.4516 72.1074 96.8888 70.9306C94.7428 70.0642 92.2139 70.3059 90.408 69.1741C86.3197 66.1919 84.6934 61.1863 84.915 56.6568C87.8698 52.6022 91.3582 50.6794 91.7201 46.2702C91.9248 42.9956 91.0162 39.6913 89.2254 37.6447C87.4346 35.5469 84.7615 34.7068 81.2823 34.3998C79.2356 34.2463 76.9843 34.144 74.119 34.144C72.2259 34.144 70.3327 34.1951 68.4907 34.1951C66.6488 34.2463 64.7556 34.2463 62.9136 34.2463C58.3599 34.2463 53.1409 34.0928 48.5872 32.8648C48.6383 34.5533 48.9453 36.0371 49.5593 37.3162C50.1733 38.6465 51.0431 39.7722 52.2199 40.7443C54.2666 42.3816 57.1319 43.5072 61.0717 44.0701C61.3275 44.1212 61.5322 44.1212 61.8392 44.1212C62.7601 44.1724 63.7323 44.2747 64.4998 44.991L65.0626 45.5539L64.3463 45.8608C58.0017 48.4191 50.7873 50.2611 42.1914 51.489C42.4984 54.1496 43.7264 56.0939 45.7219 57.4242C47.5127 58.601 49.9686 59.1639 52.8339 59.1639H52.9874C55.6481 59.1639 58.5134 58.601 61.2763 57.6289L62.8113 57.1172L61.8903 58.4475C58.6669 63.0013 54.5736 66.7875 50.5826 70.4714C47.9732 72.8762 45.2614 75.3833 42.8566 78.0951C44.238 79.1696 45.773 79.7324 47.3592 79.8347H47.922C49.3035 79.8347 50.7873 79.4765 52.3223 78.8114C55.5969 77.3788 58.7692 74.7182 61.2763 72.5692C61.9415 72.0064 62.5555 71.4436 63.1695 70.9831L64.8068 69.6528L63.9881 71.5971C60.0483 80.7045 55.3922 89.3515 50.9408 97.7426C48.0243 103.115 45.0567 108.692 42.2937 114.371C42.6007 114.423 42.9077 114.423 43.2147 114.423C44.5962 114.423 46.0289 114.013 47.5127 113.195C49.3035 112.222 50.8896 110.79 52.2711 109.562C56.6202 105.469 60.253 100.301 63.7835 95.2355C65.9836 92.1144 68.8524 88.0506 71.0014 85.4412L71.3404 86.5005C68.2193 91.5147 65.7278 97.3333 64.244 103.371C63.0671 108.18 62.402 113.195 61.6345 118.567C61.3787 120.307 61.174 122.097 60.867 123.888C59.5879 132.586 56.5179 140.159 53.5503 147.527C51.913 151.518 50.4291 155.355 49.15 159.243C51.1671 159.203 53.3601 158.877 55.0852 157.913C57.1831 156.736 59.1785 154.69 61.0717 151.825C61.8786 149.688 65.1995 144.054 65.9324 142.666C65.9836 142.461 66.0348 142.257 66.1371 142.103C69.3094 134.991 71.7654 127.214 74.0678 119.641V119.59C74.6818 117.595 75.2958 115.599 75.961 113.604C76.1145 113.041 76.3191 112.478 76.4726 111.915C77.3936 108.999 78.3146 105.98 79.5938 103.32L80.5148 101.324L80.5659 103.524C80.9241 125.167 78.2123 144.917 75.5005 161.495C84.2499 160.523 87.5245 153.666 90.134 146.657C92.1295 141.336 93.5109 136.27 94.3808 131.102C95.8258 123.239 94.9366 117.719 96.022 110.518L96.2739 113.399C97.3484 116.265 97.6554 120.102 98.0135 124.502C98.517 129.511 99.4234 137.843 102.67 138.573C107.681 138.123 107.824 124.318 107.958 121.177C108.111 117.339 108.299 113.417 108.656 109.818L109.117 107.311L109.628 109.766C110.191 112.376 110.396 114.627 110.652 116.827C110.856 118.772 111.061 120.716 111.47 122.865C111.573 123.325 111.675 123.786 111.726 124.246C112.289 126.907 112.801 129.67 112.647 132.535C111.664 138.583 110.857 141.49 106.336 147.713C104.801 149.555 103.437 151.569 104.665 154.332C106.621 155.412 108.572 156.567 110.191 157.555C113.366 159.02 114.654 157.184 115.512 154.843C115.922 153.718 116.075 152.438 116.229 151.159C116.514 149.233 117.129 145.107 119.384 144.984C121.637 145.958 121.383 150.192 121.448 151.978V152.49C121.601 156.122 121.038 161.137 119.708 163.286C118.122 165.742 114.95 165.997 111.828 166.253C109.935 166.407 108.144 166.509 106.814 167.174C104.446 169.269 104.343 172.552 102.567 175.086C104.351 175.482 105.964 174.163 107.361 173.927L109.278 173.722C113.594 174.935 116.225 173.589 120.168 172.495L119.861 173.467C118.685 177.1 117.764 179.966 115.41 182.268C111.726 185.952 105.688 186.668 99.8044 187.384C94.6878 187.998 89.3665 188.664 85.9895 191.324C84.0452 192.859 82.4079 195.52 81.5892 198.436C80.6683 201.762 80.9241 205.19 82.2544 208.107C83.4824 210.255 85.8876 211.909 88.4971 212.881C90.8455 213.693 93.1057 214.04 95.3529 213.428C91.5207 211.924 87.0315 209.42 86.0082 204.968C85.343 202.001 85.6825 198.897 87.6268 196.338C90.1234 193.387 94.1402 190.717 96.7869 191.648C96.0061 193.754 93.9887 195.545 92.6411 196.799C90.2875 198.948 88.0362 200.943 88.7013 204.576C90.4497 207.757 94.017 201.094 97.2109 199.63C99.8716 197.736 102.873 196.304 105.841 194.922C109.422 193.234 113.159 191.785 115.768 189.482C118.326 187.282 120.424 184.315 121.959 182.012L123.238 180.068L122.88 182.37C122.062 187.487 121.038 191.068 119.657 193.576C118.019 196.645 114.334 197.087 110.804 197.957C108.757 198.469 106.882 199.117 105.177 200.381C104.265 201.804 105.366 203.443 105.995 204.678C104.106 206.935 101.42 208.499 99.1904 209.641C101.288 209.386 103.335 208.976 105.228 208.362C107.633 207.595 109.935 206.572 112.033 205.19C115.717 202.888 118.992 199.715 122.01 195.469C122.846 194.274 123.609 192.791 124.62 192.041L125.49 191.427L125.439 192.501C125.336 194.241 125.285 195.98 125.234 197.618C125.132 201.711 125.029 205.548 123.904 209.59C123.392 211.535 122.266 213.018 121.243 214.451C118.097 217.827 119.122 222.945 123.411 222.569C124.42 223.831 124.695 225.334 125.439 226.526C126.053 227.549 126.667 228.624 127.383 229.545C128.754 227.032 129.774 224.498 131.202 222.449C134.54 223.313 136.331 220.073 135.569 217.419C135.365 216.702 134.905 215.866 134.24 215.099C129.9 209.496 128.965 199.346 129.685 193.729L129.839 192.45C134.067 196.995 136.949 202.191 141.198 205.446C145.444 208.669 150.203 210.358 155.729 210.562C153.015 209.128 150.777 207.453 148.873 205.548C149.489 204.964 150.104 204.133 149.998 203.399C149.896 202.478 148.854 200.787 147.626 200.02C144.474 198.399 141.286 198.463 138.453 196.559C133.541 193.336 132.244 188.101 131.22 182.319V182.268L130.862 180.119C131.913 181.575 133.088 183.207 133.881 184.57C135.109 186.566 136.559 188.441 138.35 189.925C145.793 194.681 154.851 197.947 161.153 203.501C163.01 204.829 164.387 207.383 165.655 206.623C166.32 205.958 166.576 204.474 166.423 203.502C166.116 201.455 164.427 199.971 162.79 198.487C161.306 197.157 159.873 195.878 159.413 194.241L159.311 193.165C168.495 194.937 170.12 200.332 170.209 204.985C169.953 209.481 165.675 213.972 160.353 214.689C161.53 215.047 162.108 215.32 163.284 215.32C165.292 215.273 167.406 214.82 168.827 213.939C170.465 212.865 171.846 211.33 172.767 209.488C173.739 207.595 174.2 205.395 174.149 203.195C173.995 198.539 172.649 194.802 169.272 192.449C166.049 190.197 161.802 189.226 157.607 188.407C153.186 186.866 147.601 187.052 143.688 185.439C141.437 184.467 139.253 182.933 137.514 180.221C136.286 178.328 134.751 175.412 134.444 172.188L134.341 171.063L135.262 171.677C135.672 171.933 135.979 172.24 136.286 172.547C136.746 173.007 137.156 173.365 137.821 173.621C138.691 173.928 139.714 174.081 141.147 174.081H141.249V173.928L141.3 173.416V173.928V174.081C142.323 174.081 143.398 173.979 144.472 173.928C145.547 173.826 146.672 173.774 147.696 173.774C148.514 173.774 149.231 173.826 149.845 173.928C150.408 174.03 150.868 174.286 151.277 174.491C151.738 174.747 152.045 174.9 152.505 174.9H152.71C153.682 174.798 153.887 174.542 153.938 174.491C154.092 174.184 153.529 173.416 153.119 172.854C152.915 172.547 152.71 172.24 152.505 171.984C152.198 171.421 151.943 170.705 151.738 169.988C151.482 169.272 151.277 168.556 151.022 168.197C149.947 166.56 147.798 166.56 145.342 166.509C143.398 166.458 141.591 166.252 139.697 165.485C137.651 164.666 135.979 163.03 135.007 160.164C134.034 157.402 133.881 154.485 133.881 153.052C133.881 152.234 134.239 147.373 135.723 146.094C135.979 145.838 136.286 145.736 136.644 145.736H136.797C137.821 145.889 138.332 147.373 138.691 148.806L138.742 148.908C138.998 149.931 139.1 151.159 139.202 152.438C139.509 156.122 139.867 158.578 142.067 158.885C142.17 158.834 142.221 158.732 142.323 158.425C142.426 158.118 142.836 157.503 143.092 157.247C146.064 156.906 148.075 151.569 150.049 148.908C149.794 147.527 149.589 146.094 149.026 144.815C148.719 144.099 148.156 143.433 147.645 142.768C147.389 142.461 147.133 142.154 146.928 141.898C144.575 138.726 143.193 134.07 142.886 128.34C142.63 123.428 143.193 117.748 144.472 112.376L144.984 110.176L145.444 112.427C146.058 115.292 146.314 118.516 146.57 121.637C146.877 124.911 147.133 128.34 147.798 131.307C148.718 133.85 149.105 136.769 151.361 138.043L154.347 137.754C156.038 134.137 155.986 129.806 156.19 125.559C156.446 121.005 156.907 116.384 157.878 112.836L159.055 109.869L158.85 113.092C158.287 123.121 159.72 132.228 163.506 142.615C164.939 146.554 166.781 151.057 169.595 154.536C172.46 158.016 175.888 159.96 180.135 160.42C177.577 148.448 175.428 135.298 173.944 122.456C173.637 119.897 173.586 117.185 173.535 114.576V114.525C173.535 113.092 173.483 111.66 173.432 110.227C173.381 109.46 173.33 108.692 173.279 108.027C173.125 106.185 172.972 104.343 173.279 102.552L173.586 100.71L174.251 102.45C176.093 107.055 177.73 111.915 179.47 117.083V117.134C183.41 128.698 187.452 140.619 193.541 149.42C193.694 149.676 193.848 149.88 194.052 150.136C195.229 151.824 196.508 153.718 197.634 154.639C199.629 156.327 203.057 156.788 206.281 157.095C204.899 153.257 203.313 149.522 201.676 145.531C198.504 138.01 195.178 130.284 193.489 121.483C193.131 119.59 192.773 117.748 192.466 115.906C191.545 110.687 190.624 105.776 189.345 101.171C187.81 95.5937 185.047 91.0399 182.386 86.6397L182.284 86.4351C182.028 86.0257 181.772 85.5652 181.516 85.1047L181.821 83.7029C183.868 85.9542 186.377 89.4026 188.475 92.1656C190.061 94.2634 191.647 96.4123 193.387 98.5101C194.973 100.454 196.764 102.399 198.504 104.241L199.322 105.11L199.527 105.366C201.215 107.208 203.16 109.255 205.411 110.636C207.048 111.608 208.634 112.069 210.272 112.069C211.142 111.762 211.96 111.66 212.779 111.404ZM132.602 35.6278C132.192 36.0371 131.527 36.2417 130.76 36.2417C130.453 36.2417 129.941 36.1906 129.532 35.9859C128.918 35.6789 128.611 35.0649 128.764 34.3486L128.867 33.7346L129.429 33.9393C129.788 34.0416 129.941 34.2974 130.095 34.5021L130.35 34.7579C130.555 34.7068 130.709 34.6044 130.913 34.4509C131.271 34.2463 131.681 33.9393 132.346 33.9393H132.653L132.806 34.2463C133.113 34.7068 133.011 35.2184 132.602 35.6278Z" fill="#DA121A"/>
<path d="M141.451 31.5321C148.358 34.0392 145.595 47.0864 151.326 50.2075C150.507 50.668 148.921 50.361 148 50.7191C148.051 54.5565 145.135 58.7521 145.646 62.5895C145.851 64.0222 146.977 64.7385 147.13 65.9153C145.902 67.0921 143.958 66.1199 142.627 65.5571C140.939 67.8596 139.251 73.2831 141.809 75.8925C140.018 75.6879 138.892 76.2507 138.278 77.2228C137.613 80.3439 140.172 80.0369 141.809 81.2137C143.19 82.2371 143.497 83.3115 144.469 84.2325C160.791 84.5395 171.229 74.2041 170.666 57.5241C170.308 56.859 169.387 56.8078 168.671 56.5008C168.876 61.0034 168.364 65.3013 166.164 68.5247C164.885 70.4178 161.866 72.5668 160.331 73.1808C157.926 74.1529 154.089 73.8971 155.317 70.162C158.335 69.1387 161.866 68.5759 163.81 66.4781C164.271 64.892 165.448 63.7152 165.959 61.822C166.369 60.3382 166.983 57.4218 166.471 55.631C166.266 54.9147 163.35 52.7146 162.633 51.9471C160.74 49.9516 158.796 47.4957 159.103 43.0955C159.308 40.2302 160.331 37.3138 162.122 35.5742C165.652 32.0949 172.969 32.7089 179.467 32.4019C188.165 32.0437 196.147 31.7879 203.157 29.7413C203.208 39.6674 195.533 41.8163 187.142 43.249C188.472 44.3746 190.417 44.7328 192.156 45.2444C197.989 46.9329 204.845 47.7515 211.855 48.5702C210.371 57.0636 199.933 58.9568 190.468 56.245C196.198 63.2547 203.976 69.6504 211.855 75.1251C210.167 76.8647 207.864 77.9392 204.845 77.9392C197.733 77.9903 193.384 72.0551 188.83 69.241C196.198 84.1813 204.436 98.2518 213.544 111.504C206.943 113.755 202.441 108.69 199.012 105.006C196.966 102.806 194.868 100.605 193.026 98.303C188.984 93.3911 185.453 88.0699 181.821 84.1302C184.788 89.0932 188.063 94.1074 189.854 100.503C191.593 106.848 192.668 113.857 194.049 120.867C196.659 134.375 203.055 145.426 207.097 157.092C203.617 156.734 199.678 156.325 197.426 154.432C196.045 153.306 194.51 150.901 193.231 149.11C184.43 136.421 179.876 117.234 173.839 102.038C173.429 104.443 173.89 107.103 173.992 109.713C174.197 113.755 174.043 118.002 174.504 121.89C176.09 135.449 178.29 148.752 180.849 160.469C170.564 159.702 166.317 150.901 163.145 142.254C159.87 133.3 157.773 123.886 158.489 112.374C155.726 119.23 157.363 130.486 154.805 137.598C153.833 138.11 152.605 138.366 150.968 138.263C145.544 132.891 146.823 120.816 144.981 111.862C142.474 122.095 142.372 134.426 147.335 141.077C148.051 141.998 149.023 143.022 149.484 144.096C150.763 147.013 150.405 150.492 151.991 153.101C156.391 160.367 160.689 166.455 164.68 173.312C167.699 174.437 169.745 172.953 170.513 170.804C170.82 169.935 170.564 168.758 171.025 167.99C171.639 166.865 173.788 166.762 175.374 165.841C176.039 165.432 176.806 164.306 177.523 163.999C179.314 163.283 181.769 164.051 183.356 164.665C181.974 165.023 180.081 164.818 179.518 165.995C179.723 167.223 180.951 166.814 181.002 167.837C181.207 170.088 177.062 170.344 175.476 169.525C174.709 169.832 175.425 170.958 175.476 171.521C174.555 172.544 172.815 172.749 172.815 174.693C174.811 175.614 176.96 174.642 179.007 173.67C179.825 173.312 180.797 172.442 181.667 172.493C182.588 172.595 183.663 174.13 184.686 174.488C188.421 175.819 194.254 173.414 194.868 177.507C193.794 176.944 191.9 177.047 191.542 178.172C191.593 179.4 192.719 179.4 192.566 180.526C192.361 181.703 190.826 182.214 189.393 181.703C188.216 181.293 187.091 178.684 185.198 178.684C183.714 179.963 181.309 179.554 180.695 177.865C178.239 178.377 176.039 179.093 173.839 179.861C174.811 182.726 179.16 183.698 181.872 185.387C182.383 186.256 182.588 187.433 182.69 188.712C181.514 188.712 181.769 187.28 180.542 187.382C179.314 187.945 179.825 189.48 178.7 189.889C176.499 190.759 175.425 185.745 173.02 185.54C172.867 184.875 172.406 184.619 172.201 184.056C170.564 183.187 168.773 182.47 167.341 181.396C163.554 180.577 160.689 180.577 156.647 181.242C155.726 182.521 151.223 183.852 150.661 181.6C150.302 180.219 151.377 180.014 151.837 178.94C151.633 177.149 149.74 178.786 149.484 178.428C151.223 174.028 156.903 178.889 160.996 176.74C156.596 169.167 151.428 162.362 145.8 156.018C145.339 156.939 144.725 157.706 143.139 157.501C142.73 157.911 142.832 158.883 142.116 158.985C138.176 158.525 139.148 152.283 138.278 148.65C138.125 148.036 137.664 145.938 136.795 145.836C135.004 145.58 134.441 151.515 134.441 152.692C134.441 156.734 135.515 163.181 139.762 164.869C144.009 166.558 149.33 164.409 151.428 167.53C151.991 168.349 152.349 170.344 152.912 171.367C153.679 172.698 155.931 174.693 152.758 175.051C151.53 175.205 150.968 174.284 149.74 174.028C146.311 173.363 141.041 174.949 137.716 173.67C136.488 173.209 136.078 172.339 135.055 171.674C135.311 174.54 136.692 177.354 138.074 179.503C139.455 181.6 141.348 183.749 143.907 184.824C147.949 186.512 152.912 186.768 157.414 187.638C166.471 189.378 174.453 192.14 174.76 202.681C175.016 211.686 166.931 218.593 157.875 214.193C164.117 214.039 169.643 210.714 169.899 204.523C170.155 198.536 165.243 194.596 160.024 193.675C160.894 197.052 166.369 198.894 167.034 203.039C167.29 204.523 166.573 207.337 164.68 207.03C163.35 206.825 162.071 204.625 160.843 203.499C157.056 200.071 151.837 197.564 147.13 195.313C143.651 193.624 140.325 191.987 137.971 189.992C135.311 187.689 133.725 184.21 131.78 181.652C132.804 187.484 133.673 192.857 138.483 196.029C140.939 197.666 145.902 198.28 148.358 199.866C150.098 201.043 151.786 203.243 149.688 205.188C151.94 207.592 154.856 209.332 158.182 210.714C143.395 211.072 136.488 202.118 130.296 193.368C129.273 200.685 130.399 207.899 133.111 212.555C134.032 214.142 135.669 215.574 136.129 216.905C137.05 219.616 135.311 223.607 131.78 222.737C130.296 225.091 128.864 227.496 127.585 230.105C125.743 227.854 124.566 224.989 122.724 222.737C120.012 222.993 118.272 221.1 118.733 218.081C119.193 215.011 122.519 212.811 123.594 209.076C125.129 203.448 124.719 198.127 125.078 192.038C123.901 192.857 123.338 194.289 122.57 195.364C117.198 202.885 109.574 209.23 97.0386 209.895C100.109 208.258 103.434 206.825 105.532 204.216C104.56 202.936 103.69 200.992 105.02 199.559C109.677 196.797 116.84 197.564 119.398 192.857C120.984 189.992 121.905 185.898 122.57 181.652C120.984 184.056 118.835 187.075 116.226 189.326C111.263 193.624 103.69 195.569 97.8572 199.662C96.7316 200.48 95.2989 201.555 93.8663 202.834C92.4336 204.062 89.2102 208.513 88.3403 204.164C87.1635 197.871 94.2756 195.978 95.8617 191.833C90.387 192.038 84.7076 197.922 86.1914 204.369C87.317 209.127 91.5638 212.351 97.3967 212.709C91.308 215.779 84.4006 212.3 81.8934 207.848C78.8235 201.248 81.7911 193.573 85.7309 190.503C93.0476 184.773 108.346 188.252 115.1 181.498C117.351 179.247 118.272 176.484 119.449 172.8C117.454 173.516 114.077 174.795 110.598 174.642C109.421 174.591 108.193 174.028 107.067 174.13C105.123 174.386 103.588 176.535 101.899 175.154C102.82 173.874 103.23 172.749 103.741 171.47C104.509 169.576 104.662 167.172 106.555 166.302C110.137 164.613 116.891 166.353 119.245 162.618C120.524 160.623 121.087 155.711 120.933 152.078C120.831 149.673 120.78 145.529 119.245 145.375C118.579 145.324 117.812 146.194 117.556 146.706C116.533 148.854 116.789 152.027 115.868 154.534C115.254 156.325 114.179 157.655 113.054 158.729C111.826 158.422 110.342 158.32 109.728 157.399C104.202 163.897 98.6247 170.344 93.2011 176.944C96.6292 178.53 101.644 175.102 104.202 177.609C103.588 178.428 102.309 178.633 101.541 179.298C101.695 180.526 102.871 180.219 102.564 181.447C102.155 183.135 98.2665 182.573 97.5502 181.293C94.4803 181.703 92.1266 180.014 89.3637 180.935C87.624 181.549 86.6519 183.698 84.7076 183.954C83.9912 186.87 80.0003 186.768 78.7211 189.122C78.0048 190.401 78.5676 192.089 77.3908 193.317C76.521 193.522 75.8047 193.982 74.8837 193.675C74.2185 193.42 74.5255 192.14 74.2185 191.526C72.837 191.629 72.53 192.703 72.223 193.88C71.3532 192.396 71.8649 189.992 72.5812 188.712C73.0417 188.457 73.5534 188.252 74.065 188.047C76.0093 184.312 81.3818 184.005 82.5586 179.554C80.9213 179.247 78.977 178.019 77.2373 178.377C76.4698 178.53 76.2652 179.298 75.5488 179.4C74.6278 179.503 74.1674 178.633 73.3999 178.582C72.5812 178.53 70.9439 179.298 70.3811 179.758C69.5112 180.475 69.5624 181.959 68.5391 182.777C67.5158 183.289 65.7761 183.135 64.8551 182.624C64.19 181.856 65.0598 180.577 64.3435 179.963C63.4737 179.247 62.8085 180.833 62.348 180.475C62.2457 176.433 67.1064 177.2 70.6881 175.461C71.6602 175 72.7859 173.67 73.8604 173.465C76.828 172.902 79.7956 175.512 82.5586 175.819C83.7866 173.312 80.8189 172.288 80.0514 170.651C77.2373 170.037 75.4465 170.753 72.8882 170.497C72.1207 169.423 72.8882 168.093 73.3999 167.325C72.837 166.353 71.3532 165.688 69.8694 166.148C70.7392 165.176 72.0184 164.255 73.1952 164.306C74.0139 164.358 74.679 165.227 75.5488 165.637C78.056 166.814 81.6888 167.479 84.2471 168.144C85.5262 169.014 85.8332 175.154 88.0845 175.154C89.2102 175.154 91.922 171.163 92.5871 170.293C96.5781 165.227 100.774 158.985 104.253 154.432C102.462 150.696 105.379 148.343 106.914 146.245C109.472 142.766 111.672 138.263 112.081 132.226C112.286 129.002 111.519 125.779 110.905 122.709C110.035 118.104 110.086 114.42 109.063 109.508C107.272 118.616 109.114 131.407 104.867 138.059C99.034 141.435 98.1642 132.328 97.7037 127.211C97.1921 121.686 97.0386 116.569 95.7082 113.192C96.4246 126.086 94.3268 136.575 90.5405 146.603C87.8798 154.073 84.3494 161.032 74.986 161.748C78.0048 143.636 80.5119 124.09 80.1538 103.164C78.6188 106.387 77.5955 109.969 76.4698 113.499C73.3999 123.118 70.6369 133.044 66.5948 142.049C66.339 142.612 66.2366 143.738 65.418 143.891C63.6272 148.803 60.199 155.455 55.3894 158.064C53.7521 158.985 51.4496 159.599 48.5332 159.395C52.0636 147.882 58.4082 136.984 60.4037 123.476C61.4782 116.262 62.1945 109.355 63.7295 102.959C65.2645 96.6146 67.5669 91.2933 70.7392 86.2791C64.9063 93.2888 59.7385 102.959 52.5241 109.662C49.9147 112.067 45.8725 115.546 41.5234 114.522C48.6867 99.8891 56.9756 86.3303 63.576 71.1341C58.6641 75.1251 49.9658 84.386 42.1886 77.9903C48.3285 71.0318 56.1058 65.6083 61.5293 57.9335C53.2916 60.8499 42.4444 60.3894 41.6769 50.9238C49.9147 49.747 57.4872 47.9562 64.19 45.2444C63.3713 44.4258 62.041 44.5793 61.0177 44.4258C54.1614 43.3513 48.2262 40.3837 48.2774 32.0437C57.7431 34.8578 70.5346 32.8624 81.4841 33.7322C88.9543 34.3462 92.7918 39.2581 92.3313 46.0631C91.9731 51.4866 88.4938 53.1239 85.475 56.3985C85.2192 61.7709 87.317 66.8363 90.4893 68.7294C92.3313 69.8038 95.0431 69.2922 97.1921 70.5713C98.0107 72.1063 97.1921 73.7436 96.1687 74.4087C87.4705 73.4366 82.6097 66.9897 83.6331 57.3706C82.4562 57.2683 81.8934 57.7288 81.2794 58.1893C80.4608 73.7436 92.7406 85.2558 107.476 84.5907C110.188 84.4372 111.621 80.0881 115.816 81.4184C116.686 80.2928 116.123 77.7345 116.993 76.5577C116.123 75.6367 114.179 75.8414 112.798 75.3809C117.658 75.1251 118.324 71.9528 120.831 68.6782C122.059 67.0921 123.645 65.9153 124.822 64.1756C121.752 62.2314 117.198 64.5338 115.97 66.0176C117.096 62.3849 120.114 61.3104 124.157 59.6731C126.715 58.6498 131.473 57.166 129.478 53.8402C126.664 52.2029 122.519 51.8959 119.449 50.5145C121.138 46.5747 132.138 51.9983 132.65 47.3422C130.245 46.4724 126.459 46.5747 123.645 46.6771C120.268 46.8306 117.096 47.2399 114.282 48.0074C110.035 49.133 106.862 51.9983 102.769 52.6634C110.598 48.1097 120.063 41.7652 132.804 44.8351C133.315 40.0255 126.868 38.2348 124.105 41.1512C120.626 38.3371 114.537 38.2859 113.258 42.9931C113.002 43.8118 113.923 44.3234 113.616 44.6816C110.956 42.8908 111.519 37.6719 113.77 35.83C114.742 35.0113 116.226 34.9602 117.454 34.1415C118.886 33.2205 119.245 30.9181 121.803 32.1461C122.877 31.5832 122.877 30.7134 123.645 30.1506C128.966 26.3644 139.199 33.1694 144.674 28.8203C144.981 29.1785 143.804 29.5878 143.19 29.9971C142.576 30.5088 141.809 31.1228 141.451 31.5321ZM122.724 32.5554C122.468 33.9369 123.031 35.1648 124.566 35.216C125.794 31.7879 130.45 31.7367 134.083 30.7134C130.706 29.639 123.44 29.025 122.724 32.5554ZM135.618 31.0716C134.953 31.2251 134.287 31.8902 133.622 32.0949C130.603 32.9647 126.51 32.6577 125.794 35.7788C126.971 36.751 127.789 36.8533 129.478 37.1091C133.571 37.7231 136.846 40.793 141.144 41.1C140.325 41.407 139.046 41.3047 138.125 41.6117C139.813 43.4025 141.706 50.1051 138.79 52.6123C138.739 51.1796 139.66 50.0028 139.148 48.6213C137.255 49.44 136.743 53.1239 135.976 55.631C135.618 54.6589 135.874 53.0727 135.464 52.1006C133.059 53.1239 133.418 57.8823 131.115 58.4451C131.371 56.8078 132.548 54.3007 132.292 53.2774C131.115 53.2262 131.678 54.9147 131.473 55.7845C130.143 60.9522 121.905 59.1103 119.449 63.1523C122.468 63.357 126.357 62.743 128.813 63.5105C124.105 64.892 122.059 68.9852 119.654 72.6691C121.138 72.8738 123.44 72.2086 124.157 73.1808C121.701 73.6413 119.091 73.9994 117.3 75.1762C118.989 75.5855 121.752 74.9716 123.133 75.6879C122.008 76.4554 119.552 75.8925 118.272 76.5065C117.607 78.195 117.505 80.4974 116.942 82.3394C113.975 82.0324 112.235 83.0045 110.598 84.0278C109.625 87.2001 108.807 89.6049 108.602 93.033C107.63 108.434 114.179 120.662 113.258 134.119C113.002 137.854 111.57 140.361 110.086 142.817C107.988 146.194 104.355 149.008 105.072 153.818C107.169 154.79 107.528 152.641 109.063 152.794C111.467 153.05 109.421 156.171 110.905 157.655C111.826 157.655 111.212 156.069 112.235 156.171C112.798 156.427 112.337 157.655 112.9 157.86C117.556 156.529 113.923 143.636 120.421 144.352C120.473 144.557 120.626 144.71 120.933 144.71C122.468 150.748 123.287 158.525 120.575 163.078C119.091 165.637 115.561 166.66 112.235 166.916C110.956 167.018 109.267 166.609 107.732 167.069C105.327 167.786 105.583 170.446 104.713 172.391C104.304 173.363 103.332 173.67 103.383 174.898C105.481 175.154 106.914 173.209 109.216 173.209C109.881 173.209 110.495 173.619 111.058 173.721C116.891 174.54 120.524 171.214 121.394 165.688C118.835 167.837 114.333 171.93 108.858 169.679C108.142 170.037 107.988 170.958 107.016 171.009C107.579 169.935 108.142 168.911 109.011 168.195C116.379 169.883 120.831 165.637 123.184 160.827C123.236 164.306 122.519 166.711 121.854 169.321C119.961 176.433 116.891 183.698 110.188 186.001C106.095 187.433 101.592 186.973 97.4991 187.689C94.1221 188.303 90.08 188.968 87.317 190.708C84.4006 192.55 81.9958 196.848 81.6376 200.583C80.8189 208.565 85.8332 213.374 93.3034 213.272C91.6661 211.737 89.4148 210.918 87.7775 209.076C85.3727 206.364 84.3494 201.606 86.089 197.871C87.9822 193.88 92.6383 191.271 97.7549 190.708C96.9874 194.955 91.308 197.257 89.7218 200.378C89.2613 201.299 88.5962 204.318 90.08 205.239C98.1131 194.648 116.277 194.034 121.649 181.038C122.57 178.837 122.775 176.279 123.798 173.67C123.747 176.586 123.901 178.633 123.645 181.191C123.082 186.717 120.882 194.75 116.789 197.052C114.077 198.587 105.43 198.076 105.276 201.555C105.174 203.346 106.76 203.141 107.937 203.704C106.453 205.853 103.997 207.03 102.104 208.718C113.923 205.955 120.831 198.28 125.64 188.508C126.101 198.127 125.743 207.644 122.468 213.732C121.752 215.063 120.421 216.086 119.961 217.416C118.784 220.793 121.138 222.84 124.617 221.919C124.668 223.812 125.231 224.784 125.947 225.91C126.357 226.575 126.971 227.496 127.636 227.752C128.864 226.779 130.092 224.324 130.45 221.919C131.985 222.277 133.52 221.97 134.646 221.407C135.464 220.333 135.413 217.774 134.799 216.546C133.776 214.602 132.497 213.374 131.627 211.686C128.761 206.211 129.273 197.718 129.273 189.48C134.39 199.252 140.786 207.797 153.628 209.844C151.684 207.695 148.409 206.825 147.13 204.011C148 203.96 149.228 204.216 149.637 203.653C149.842 202.322 149.074 201.555 148.307 200.992C144.214 197.973 138.381 198.28 135.464 194.494C131.678 189.582 129.989 181.14 130.45 172.953C131.883 183.187 136.641 188.968 144.316 193.01C149.893 195.927 155.777 198.587 160.331 202.374C161.815 203.602 162.992 205.239 164.68 206.211C166.317 205.853 166.369 204.011 165.857 202.527C164.527 198.741 157.875 196.387 158.028 191.987C164.168 193.368 170.308 196.694 170.718 203.346C171.127 210.355 166.573 212.402 162.531 215.011C168.978 214.551 172.611 211.276 173.532 205.648C174.197 201.606 173.071 197.411 171.536 195.108C165.448 186.052 145.442 190.298 138.637 182.419C135.055 176.535 131.422 169.832 131.627 160.725C133.418 165.893 136.692 169.576 143.804 169.423C145.39 166.967 148.409 169.576 148.972 170.907C147.642 170.958 147.437 169.883 146.311 169.73C141.911 171.828 136.436 169.167 133.622 167.069C134.287 171.009 138.483 174.181 142.986 173.567C144.418 173.363 145.749 172.698 147.335 172.749C149.228 172.749 150.814 173.363 152.656 173.414C152.656 172.186 151.53 171.214 150.968 169.883C150.763 169.321 150.814 168.553 150.456 168.042C149.177 166.251 146.516 167.018 143.446 166.711C136.334 165.995 133.213 161.441 133.418 153.204C133.52 148.957 134.134 142.356 138.278 145.017C138.432 146.501 138.892 148.138 139.097 149.878C139.506 152.948 139.251 156.529 141.451 157.911C142.116 157.553 141.911 156.325 142.627 156.069C143.497 155.864 143.651 157.092 144.316 156.58C145.288 153.664 145.595 150.185 146.67 147.422C147.539 146.961 148.102 147.78 149.177 147.575C147.488 141.026 142.269 137.752 141.809 130.23C141.655 128.081 141.86 125.779 142.167 123.221C143.139 114.215 145.135 103.88 144.674 94.1586C144.572 91.7538 144.521 88.2234 143.855 86.1256C142.525 82.2371 138.227 80.1393 133.673 82.4417C135.515 79.2183 136.641 74.7157 136.334 69.9062C138.074 72.7714 136.948 77.4787 135.976 80.4463C136.539 80.4463 136.795 80.1393 137.46 80.2928C136.692 77.581 137.869 75.6367 139.455 74.4599C138.585 68.7294 142.423 65.5571 141.962 60.2871C142.627 59.2126 143.037 57.0125 144.111 56.9613C143.19 59.4684 140.939 65.4036 145.288 65.8129C143.19 60.2359 148.307 53.3797 145.8 46.9329C147.13 47.8027 147.232 49.8493 149.33 49.9516C146.567 46.0119 146.311 39.6162 142.167 37.1091C138.79 37.0068 136.846 32.5554 133.673 34.4485C133.725 35.2672 135.26 34.6532 135.362 35.4718C133.776 35.7788 131.831 37.1603 130.041 36.8021C128.761 36.5463 128.301 35.4207 127.38 34.8067C129.785 31.6344 137.46 34.5508 139.711 31.1228C138.483 31.2763 136.999 30.7646 135.618 31.0716ZM186.016 33.374C180.695 33.6299 175.118 33.374 170.513 33.7322C162.685 34.2439 158.796 39.8209 160.996 48.2632C161.354 48.0585 161.61 48.6725 161.661 48.2632C160.484 46.1654 161.354 41.7652 163.145 41.5605C162.736 42.3792 162.582 43.0955 162.48 43.9141C161.661 52.2029 167.494 54.1472 172.662 56.7567C172.048 56.6543 171.946 57.0125 171.997 57.5753C171.434 75.2786 162.378 84.4372 145.288 85.614C145.442 86.228 145.442 87.0466 145.646 87.6094C162.122 87.3536 172.457 77.274 173.685 61.5662C173.89 58.7521 173.481 56.552 172.867 54.1984C167.545 56.4497 165.243 47.6492 170.871 47.8539C167.341 41.4582 180.286 41.6117 176.551 47.8539C182.23 46.6771 181.36 55.2217 176.551 54.3519C177.42 78.3485 165.959 90.0654 146.516 93.7493C145.8 98.7635 145.595 104.801 145.851 110.634C146.004 113.857 146.721 116.978 147.028 119.997C147.693 126.905 147.591 133.3 151.223 137.547C152.4 138.007 153.833 137.598 154.549 137.035C155.47 134.835 155.624 132.175 155.726 129.514C156.033 122.095 156.8 115.802 158.233 110.122C158.54 108.792 158.642 107.308 159.41 106.285C158.387 127.416 162.685 143.329 171.076 155.046C173.481 156.836 175.783 159.599 179.928 159.036C175.63 140.361 173.122 119.895 172.56 97.4332C171.843 97.689 171.076 98.2007 170.052 98.0984C168.21 97.9449 167.136 95.5912 166.215 95.7447C167.904 113.346 169.848 131.509 172.918 147.166C170.871 143.994 170.718 139.696 169.899 135.654C167.801 125.165 167.545 112.681 165.396 102.089C163.35 103.624 159.615 102.192 158.387 100.401C158.591 104.187 156.903 106.029 153.219 105.927C152.042 114.318 153.782 123.425 153.577 131.458C152.042 123.835 150.763 113.55 152.554 105.415C150.456 103.113 147.591 100.657 148.358 96.0517C150.456 99.1217 150.507 105.108 156.033 104.238C157.005 103.061 157.414 101.782 157.363 99.8891C157.312 97.5867 155.777 94.8238 157.363 93.6981C158.745 97.0239 158.949 102.294 164.066 101.373C165.294 99.7356 165.396 96.4611 164.885 93.8516C164.629 92.4701 163.401 90.7817 164.885 90.3212C166.88 92.5725 167.545 97.689 172.048 96.3076C173.378 93.5446 171.997 91.191 171.025 89.4514C170.462 88.4281 169.49 87.3024 169.848 86.4326C172.253 87.0978 173.122 90.6794 177.216 90.27C178.495 89.5026 177.881 87.4048 177.216 86.2791C176.09 84.3348 173.225 82.9534 173.89 81.4184C175.732 81.6231 177.932 83.8232 180.593 83.2604C182.588 79.9346 177.727 78.5531 176.397 76.4042C177.881 75.8925 181.462 78.2973 183.1 76.2507C183.509 72.6179 179.007 73.0273 178.444 70.9295C180.388 70.5202 182.844 70.5713 183.97 69.241C184.481 66.0176 180.848 67.0409 179.109 66.0688C180.081 64.0733 184.584 65.506 183.97 62.743C183.56 61.0034 180.183 62.2314 179.621 60.9011C182.332 59.4173 184.379 61.6685 185.453 63.2547C187.705 66.4781 190.365 68.5759 193.64 71.4411C196.045 73.5389 198.705 75.8925 201.468 76.6089C203.924 77.2228 208.273 77.1717 210.32 75.1251C202.134 68.627 193.435 61.7197 186.937 54.096C194.407 57.2171 209.553 58.6498 210.474 49.2353C200.036 47.9562 190.212 46.0119 181.923 42.5327C192.259 42.328 202.082 40.6907 202.441 31.0204C198.04 31.8902 192.259 33.1182 186.016 33.374ZM137.92 33.374C138.637 35.1137 140.99 35.216 142.576 36.0346C143.293 36.751 145.083 38.7464 145.595 38.5418C145.032 34.9602 141.553 30.8158 137.92 33.374ZM136.283 50.7703C137.664 49.6958 139.302 47.0864 138.79 44.5793C138.33 42.2768 135.106 39.8721 132.599 38.8999C128.199 37.1603 122.366 37.6719 121.598 32.9135C119.756 31.5321 119.193 34.1415 118.426 34.909C114.947 35.3183 111.57 38.1836 113.258 42.0722C113.975 37.7231 121.138 37.6208 123.952 40.2302C127.789 37.4673 134.901 39.6674 136.283 43.4025C136.692 44.4258 136.999 46.7794 136.283 48.2632C134.083 52.7146 125.896 48.3655 121.598 50.4121C125.333 51.7936 132.548 53.6356 136.283 50.7703ZM69.9717 44.4258C61.734 47.598 52.5241 49.8493 43.1096 51.8959C44.2864 61.822 58.7152 58.2916 65.4691 55.7333C59.1757 64.0222 50.6822 70.0085 43.9282 77.7857C51.0915 81.2137 56.2081 76.6089 60.4549 72.618C63.269 70.0085 65.9808 67.0409 67.6181 64.585C68.1809 63.7152 68.1298 63.1012 68.9484 62.5895C69.8694 61.9755 72.223 61.208 73.144 62.5895C71.8137 63.5105 68.9996 62.743 68.7949 64.4315C68.6926 65.2501 69.6647 66.1199 70.6369 66.4269C71.6602 66.7339 73.451 66.0176 73.8092 67.2456C72.2742 68.5247 68.5391 67.8596 68.7949 70.2643C68.9996 72.2598 72.5812 71.9016 74.7813 72.4133C73.5022 73.8971 69.1531 74.8181 69.9206 77.4275C70.7904 80.3439 75.9582 76.5577 76.7768 77.7857C75.3953 79.9858 72.1207 80.3951 72.1207 83.9767C74.5767 86.6373 77.6978 82.2371 79.6421 82.7999C79.5398 84.1302 78.056 85.307 77.135 86.6373C76.214 87.9164 74.9348 89.4514 76.1117 91.2933C78.0048 91.805 79.3863 91.1398 80.4608 90.27C81.6888 89.2979 82.3027 87.4559 83.6331 87.2513C84.0424 88.7862 81.4841 91.4468 81.1259 94.1074C80.8701 96.1029 81.5864 97.4332 82.9679 97.6379C86.6519 98.0472 86.9589 93.0841 88.8008 91.1398C90.2335 91.8562 88.9543 94.4144 88.8008 96.4611C88.4938 100.401 90.2847 104.238 93.6616 101.322C95.2989 99.838 95.5036 96.2052 96.4757 94.3121C98.3177 95.3866 96.4246 98.4565 96.6292 101.015C96.7827 102.447 97.2944 103.42 97.8061 104.545C103.434 106.182 103.588 99.5821 105.481 96.3587C106.504 100.503 103.485 103.471 101.644 105.876C103.69 113.192 102.82 124.5 101.49 131.919C100.774 123.988 102.82 112.476 100.825 106.029C96.9874 107.052 95.8106 104.238 95.5036 101.168C94.6849 101.322 94.1733 102.652 92.8429 103.164C91.5126 103.675 89.9777 103.675 88.6473 102.806C86.7542 115.546 86.703 131.407 84.2982 143.38C83.9401 145.068 83.9912 147.115 82.6097 148.241C85.0145 137.598 85.168 125.37 86.2937 113.704C86.8565 107.871 88.3915 102.243 87.4705 96.1541C86.2937 98.0984 83.6842 100.094 81.1259 98.303C81.8934 120.765 79.591 141.333 76.2652 160.264C79.284 160.162 81.7911 158.934 83.4284 157.246C92.9965 147.524 95.7594 126.342 95.2989 107.155C96.9362 111.504 97.6014 117.03 98.1131 122.658C98.6247 128.184 98.8805 133.965 101.439 137.7C105.276 139.338 106.555 134.119 106.965 130.998C107.374 127.467 107.579 122.862 107.988 118.309C108.704 109.662 108.397 100.759 107.169 93.5958C86.2937 90.8329 75.3953 78.0415 75.6 54.1984C70.8416 55.5799 69.8182 46.8817 75.0883 48.0074C74.8325 47.0864 74.6278 46.1142 74.4232 45.1933C75.5488 41.2024 83.0191 43.3513 80.6143 48.0074C85.9355 47.5469 85.168 55.938 79.284 54.1984C77.6978 63.664 80.6654 73.1808 85.6285 78.9113C90.5916 84.6418 97.8061 87.6606 107.681 87.6094C107.886 87.0466 108.142 86.4838 108.039 85.614C90.5405 84.7953 81.3306 75.6879 80.3073 58.3939C80.5631 57.5753 79.5398 58.0358 79.6421 57.3706C82.2516 55.6822 86.396 54.8635 88.1357 52.0494C89.7218 49.4912 89.7218 45.2444 88.8008 42.1745C91.001 43.0955 90.5405 46.8817 90.7963 48.8772C92.6383 44.3746 90.4381 39.0022 87.9822 36.6998C83.4796 34.5508 77.442 34.4485 71.3021 34.7043C63.1667 35.0625 55.8499 34.602 49.4542 33.2205C49.9147 43.3001 60.0455 43.7606 69.9717 44.4258ZM132.445 34.3973C131.524 34.3973 131.217 35.0625 130.45 35.216C129.785 35.216 129.785 34.5508 129.273 34.3973C128.864 36.4951 133.213 35.9323 132.445 34.3973ZM133.776 45.0909C134.39 45.3468 135.157 45.3979 135.771 45.6026C135.567 43.0955 134.39 41.5093 132.241 40.9465C132.855 42.1745 133.622 43.3001 133.776 45.0909ZM171.485 48.5702C169.95 48.3655 169.029 48.7748 168.313 49.3888C166.88 53.0216 170.922 54.403 173.174 53.3797C176.295 64.0221 172.15 75.2786 166.164 80.9068C161.047 85.7163 153.935 87.9676 145.8 89.0932C145.902 90.0654 146.107 90.884 146.311 91.7538C166.522 89.7072 177.165 76.4042 175.527 53.6867C181.002 55.2217 181.36 46.8817 175.527 48.519C176.039 47.3934 176.755 45.9607 176.039 44.5281C172.764 42.1745 169.336 45.7561 171.485 48.5702ZM79.4886 48.7237C82.5074 46.0631 78.1071 42.0722 75.4977 44.8863C74.9348 46.2166 75.7535 47.905 75.8558 48.5702C70.4834 48.1097 72.3254 55.4775 76.6745 53.5844C76.521 55.9892 76.4187 58.4451 76.6745 60.7476C77.5443 68.934 79.898 76.6089 84.7076 81.9301C89.5683 87.4048 97.7037 91.9585 107.425 91.6003C107.425 90.577 107.476 89.5537 107.272 88.7862C87.1124 88.2746 76.0605 74.1017 78.5676 53.2262C83.8889 56.1938 85.475 47.4445 79.4886 48.7237ZM114.23 47.3934C119.91 45.8584 128.25 45.6026 134.594 46.2166C128.557 44.4258 118.886 44.2723 114.23 47.3934ZM133.111 49.2353C134.134 48.9283 135.208 48.6725 135.26 47.3934C133.571 47.0864 133.315 48.1609 133.111 49.2353ZM159.154 69.9573C158.489 70.1108 156.749 69.855 156.135 70.6225C155.521 71.39 156.033 72.4645 156.647 73.1296C163.554 72.7203 167.648 67.1944 168.159 60.5941C168.262 59.0079 168.057 57.166 167.136 56.0915C167.852 63.2547 164.527 68.7805 159.154 69.9573ZM87.6752 69.8039C90.1312 71.3388 92.536 74.4599 96.5269 73.3343C98.0107 69.9062 94.3268 70.8783 92.0243 70.3155C89.9777 69.855 87.624 67.2967 86.4984 64.9943C85.3215 62.5895 85.0146 60.2359 84.8099 57.166C83.3261 61.8732 85.6797 66.8874 87.6752 69.8039ZM204.385 103.317C200.292 99.2752 196.761 94.0051 193.384 87.8141C191.235 83.8744 188.319 79.5253 186.016 75.2786C184.839 73.0784 183.765 69.7527 181.514 72.1063C184.788 73.5389 185.3 78.7066 180.49 78.4508C181.155 79.8834 182.69 81.0603 182.179 83.1069C187.193 89.5537 192.873 97.6379 198.705 103.829C202.338 107.717 205.562 112.22 212.571 111.657C211.753 109.662 210.269 107.922 209.041 106.131C200.036 93.1353 192.463 78.502 184.686 64.3803C184.328 65.1478 183.56 65.4548 182.69 65.7106C183.918 66.5293 185.709 68.1666 184.532 70.3667C190.979 81.8277 197.938 93.6981 205.05 103.931C205.05 103.778 204.897 103.727 204.897 103.573C204.692 103.573 204.487 103.471 204.385 103.317ZM42.7514 114.011C48.8402 113.601 52.3706 108.741 55.5941 105.006C59.7897 100.145 64.0877 95.1308 67.1064 89.5026C69.1019 88.2746 70.0229 85.6651 70.9439 83.3115C71.5067 81.8789 72.4277 80.5486 72.2742 79.6276C67.5158 79.9346 68.2321 74.8692 71.2509 73.2831C70.5857 73.0784 70.0741 72.6691 69.2554 72.618C62.2457 83.7209 57.4361 97.8425 48.5332 106.489C55.8499 95.5912 62.2457 83.8232 68.0786 71.4411C67.9251 70.8783 67.5669 70.5202 67.5669 69.7527C68.0786 68.627 68.8973 67.8596 69.9206 67.2456C68.9484 66.9897 68.3856 66.3246 67.5669 65.9153C60.0967 82.6975 51.3473 98.303 42.7514 114.011ZM180.03 94.1586C183.304 105.466 186.835 116.978 190.877 127.57C192.514 131.868 194.97 135.858 195.533 140.617C191.593 133.351 188.728 125.267 185.863 117.081C182.946 108.792 180.49 100.145 178.495 91.0375C177.011 91.8562 174.555 91.498 173.174 90.884C173.174 97.1262 175.016 102.601 177.011 107.769C181.821 120.202 185.607 133.965 191.696 145.017C194.817 150.645 198.45 156.171 205.869 156.376C201.52 145.375 195.584 133.607 193.026 120.355C192.156 115.802 191.645 111.094 190.519 106.489C189.905 103.931 188.779 101.168 187.858 98.4565C185.965 92.9306 183.765 88.2746 180.695 84.4372C179.774 85.2558 177.881 84.2837 177.011 84.5907C179.109 86.8419 179.007 90.7305 180.03 94.1586ZM72.4789 85.9721C72.4789 85.8698 72.4789 85.7675 72.3254 85.8186C68.9484 90.9863 66.5948 96.1029 64.9575 102.703C62.8085 111.657 62.0922 123.528 59.4315 132.43C56.8221 141.18 52.6776 150.185 50.0682 158.627C51.3985 158.474 52.3706 158.013 53.7521 157.962C58.7664 155.659 61.3759 151.003 63.6272 146.092C70.4322 131.202 75.7535 113.806 80.5119 97.3309C79.6933 96.0006 80.0003 93.4423 80.3584 91.805C78.8746 92.6748 77.135 92.9818 75.1907 92.3167C72.0695 108.024 67.5669 123.118 62.348 136.728C61.5805 138.673 61.2735 140.924 59.6874 142.408C63.6783 129.77 68.0786 116.62 71.5579 103.675C72.1719 101.373 72.6324 99.0705 73.2464 96.8192C73.9115 94.4144 74.1162 92.1632 74.5767 89.6561C74.8837 88.1211 76.0093 86.5349 75.907 85.8186C74.7302 85.9721 73.6557 86.2791 72.4789 85.9721ZM146.465 154.432C150.456 160.469 156.135 166.916 160.177 173.465C161.047 174.898 162.48 176.586 161.354 177.456C159.308 177.763 157.261 178.019 155.01 178.121C154.498 179.861 152.349 179.912 151.479 181.293C153.27 183.494 155.061 180.424 156.8 180.117C157.926 179.912 159.359 180.424 160.638 180.27C161.917 180.117 162.889 179.656 164.168 179.451C164.578 180.628 166.369 180.475 167.852 180.628C169.336 182.777 173.276 182.47 173.839 185.489C176.551 185.335 176.09 189.224 178.495 188.815C179.16 187.996 177.779 186.359 178.495 184.977C178.034 183.903 176.755 184.005 175.834 183.493C175.22 183.135 174.913 182.419 174.35 182.01C173.429 181.293 172.048 180.628 171.025 180.014C169.95 179.4 168.415 178.94 168.364 177.661C171.792 180.321 177.062 177.251 181.411 176.995C181.309 179.247 184.174 179.196 184.225 177.149C185.453 177.507 186.067 178.582 187.909 178.326C188.319 179.81 190.11 182.521 191.747 180.679C191.286 179.042 189.444 178.837 188.933 177.354C189.24 177.047 189.393 176.586 189.444 176.023C185.863 176.995 184.43 174.028 181.616 174.028C178.188 174.028 174.606 178.121 170.769 175.358C171.587 174.437 172.457 173.567 172.611 172.032C173.276 171.981 173.839 171.777 174.299 171.521C174.657 170.6 173.941 170.344 173.788 169.525C174.555 169.321 175.118 168.86 175.937 168.707C176.602 169.832 179.979 169.628 179.928 168.042C177.625 166.967 173.429 166.558 172.099 168.553C171.332 169.73 171.434 171.674 170.615 172.902C169.336 174.795 167.341 175.051 164.424 174.744C159.615 166.404 154.293 158.627 149.381 150.389C146.977 150.287 146.567 152.231 146.465 154.432ZM108.193 155.25C107.272 155.199 106.351 154.483 105.686 154.739C105.583 154.739 105.481 154.739 105.532 154.892C102.257 158.883 97.4991 165.074 94.0198 169.576C92.6383 171.316 91.615 173.26 90.3358 174.744C87.2147 178.53 85.2192 171.93 84.1447 169.218C82.2004 167.837 78.977 167.735 76.6233 166.711C75.7535 167.735 73.8604 167.735 73.6045 169.372C74.372 170.549 75.7023 169.218 76.6233 169.014C77.5443 170.139 79.7445 169.321 80.9724 169.525C81.4329 169.883 81.1771 170.856 81.4841 171.367C84.0936 171.521 83.2237 175.154 85.0146 176.228C83.0191 176.637 81.4329 175.819 79.8468 175.409C78.2095 174.949 76.0605 174.028 74.679 174.079C72.7859 174.181 71.4044 176.279 69.3578 176.74C68.6926 176.893 68.1298 176.484 67.3623 177.098C66.9529 177.609 67.7716 178.019 67.5158 178.94C65.8273 179.707 64.2411 183.033 68.1809 182.47C69.2043 181.754 69.3066 180.014 70.1764 179.144C71.8137 178.889 72.7347 177.916 74.372 177.661C74.8837 179.554 76.7257 178.633 77.3908 177.507C79.3863 178.479 82.7121 178.172 85.0657 178.837C82.8656 182.828 78.4653 184.67 75.3953 187.843C77.442 189.071 75.8047 191.475 75.7535 193.01C78.363 193.42 78.0048 189.531 78.9258 187.689C81.9446 187.177 83.5307 185.284 84.7587 183.033C86.703 182.828 87.9822 181.959 88.5962 180.372C90.694 180.27 93.9686 179.093 95.2989 180.731C96.3222 180.782 97.1409 180.679 97.9596 180.577C98.6759 181.293 101.132 182.88 102.155 181.242C102.155 180.424 101.183 180.679 100.671 180.424C100.16 179.707 99.8015 178.837 99.341 178.07C97.7037 177.558 93.3546 179.349 92.8429 177.405C92.6383 176.688 94.1221 175.051 94.5314 174.591C99.341 168.656 105.327 162.516 109.063 156.734C108.551 156.222 108.346 155.813 108.193 155.25ZM177.165 165.944C177.472 166.2 177.779 166.455 178.341 166.455C178.597 165.893 179.928 164.972 179.16 164.46C178.597 165.023 177.216 164.818 177.165 165.944ZM74.986 166.967C75.293 166.711 75.6 166.455 75.4977 165.79C74.679 165.432 73.8092 165.125 72.6835 165.125C72.9394 166.2 73.758 166.762 74.986 166.967ZM190.007 177.456C190.212 177.507 190.263 177.661 190.365 177.814C191.542 177.456 192.668 177.149 193.18 176.126C192.105 174.898 189.956 175.665 190.007 177.456ZM153.628 178.479C153.884 178.223 154.242 178.07 154.14 177.456C153.986 177.405 153.935 177.302 153.986 177.098C151.735 176.177 151.633 178.377 153.628 178.479ZM100.876 178.479C101.797 178.479 102.36 178.07 102.564 177.302C101.695 176.74 100.057 177.405 100.876 178.479ZM63.9853 179.144C65.1621 179.605 67.1064 179.144 66.339 177.661C65.0598 177.302 64.1388 177.916 63.9853 179.144ZM179.518 186.666C180.235 186.87 181.053 187.024 182.025 187.024C182.23 185.438 179.314 184.414 179.518 186.666ZM72.837 191.322C73.758 190.912 74.5767 190.401 75.4977 189.992C75.6 189.378 75.1395 189.326 75.1395 188.815C73.6045 188.866 72.6835 189.531 72.837 191.322ZM177.523 38.0813C178.188 37.2114 179.262 36.8021 179.876 35.9323C178.648 35.6765 177.267 35.6765 176.039 35.4207C175.578 35.4207 175.169 35.4207 174.709 35.4207C174.146 35.216 175.169 35.216 175.374 35.2672C177.727 35.3695 180.49 35.0625 182.537 35.4207C182.076 36.2905 180.695 36.2905 180.388 37.2626C186.477 37.9278 193.435 36.5975 198.091 34.7555C199.115 34.4485 197.733 35.216 197.273 35.4207C192.412 37.6208 185.044 38.2348 177.523 38.0813ZM184.532 47.7515C184.225 47.7004 184.123 47.9562 184.532 47.905C190.672 50.1563 198.552 53.1751 206.892 51.5889C198.45 51.8959 191.338 49.5935 184.532 47.7515ZM202.901 73.1296C196.915 69.1899 191.696 63.664 186.733 59.2638C191.184 64.6361 196.659 70.0085 202.901 73.1296ZM76.521 36.3928C75.1395 36.9045 73.0417 36.6998 71.8649 37.4161C72.3765 38.1836 73.2975 38.5418 74.2185 38.8999C66.9529 40.179 58.3059 39.0022 53.0358 36.751C57.9477 37.9278 64.8551 39.2069 71.4044 38.7464C70.9951 37.8254 69.8182 37.6208 69.0508 37.058C71.1997 36.6486 74.3209 36.2905 76.521 36.3928ZM68.1298 49.3888C68.1298 49.1842 68.0786 48.9795 67.7716 49.0307C61.0177 51.3843 54.0591 53.5844 45.4121 54.0449C54.7754 54.9659 61.3759 51.6401 68.1298 49.3888ZM65.6226 60.7476C61.2735 66.4781 56.1058 71.39 50.1193 75.4321C50.8357 74.3576 52.0636 73.6924 53.1381 72.7714C56.2081 70.162 59.4827 67.0921 62.1433 63.9198C63.8318 63.4082 64.1388 61.4639 65.6226 60.7476Z" fill="black"/>
<path d="M149.28 150.238C154.192 158.476 159.513 166.253 164.323 174.593C167.239 174.9 169.183 174.644 170.514 172.751C171.383 171.523 171.23 169.579 171.997 168.402C173.328 166.407 177.575 166.816 179.826 167.89C179.826 169.476 176.5 169.681 175.835 168.556C174.965 168.709 174.453 169.169 173.686 169.374C173.839 170.193 174.556 170.5 174.198 171.37C173.737 171.625 173.174 171.83 172.509 171.881C172.356 173.416 171.486 174.337 170.667 175.207C174.505 177.919 178.086 173.877 181.514 173.877C184.38 173.877 185.761 176.844 189.343 175.872C189.292 176.435 189.189 176.947 188.831 177.202C189.394 178.737 191.236 178.942 191.645 180.528C190.008 182.421 188.217 179.658 187.808 178.175C185.966 178.43 185.352 177.407 184.124 176.998C184.073 179.044 181.207 179.096 181.31 176.844C176.961 177.1 171.742 180.17 168.262 177.509C168.314 178.789 169.848 179.198 170.923 179.863C171.946 180.477 173.379 181.142 174.249 181.859C174.812 182.319 175.119 183.035 175.733 183.342C176.654 183.854 177.984 183.752 178.393 184.826C177.677 186.259 179.058 187.845 178.393 188.664C175.988 189.073 176.449 185.133 173.737 185.338C173.123 182.319 169.234 182.626 167.751 180.477C166.267 180.324 164.527 180.477 164.067 179.3C162.788 179.505 161.867 179.965 160.536 180.119C159.257 180.272 157.824 179.761 156.699 179.965C154.959 180.272 153.168 183.342 151.378 181.142C152.247 179.761 154.396 179.71 154.908 177.97C157.159 177.868 159.206 177.612 161.253 177.305C162.378 176.384 160.997 174.747 160.076 173.314C156.034 166.765 150.354 160.318 146.363 154.28C146.568 152.234 146.977 150.289 149.28 150.238ZM177.165 165.946C177.472 166.202 177.779 166.458 178.342 166.458C178.598 165.895 179.928 164.974 179.161 164.462C178.598 165.025 177.216 164.82 177.165 165.946ZM190.008 177.458C190.213 177.509 190.264 177.663 190.366 177.816C191.543 177.458 192.669 177.151 193.18 176.128C192.106 174.9 189.957 175.668 190.008 177.458ZM153.629 178.482C153.885 178.226 154.243 178.072 154.141 177.458C153.987 177.407 153.936 177.305 153.987 177.1C151.736 176.179 151.633 178.379 153.629 178.482ZM179.519 186.668C180.235 186.873 181.054 187.026 182.026 187.026C182.231 185.44 179.314 184.417 179.519 186.668Z" fill="#FCDD09"/>
<path d="M109.289 156.719C106.441 161.868 92.577 175.592 92.9326 177.355C93.4443 179.3 97.6047 177.406 99.1909 177.918C99.6514 178.685 100.01 179.555 100.521 180.271C101.033 180.527 102.056 180.322 102.005 181.09C101.033 182.727 98.5769 181.141 97.8094 180.425C96.9908 180.527 96.1209 180.629 95.1488 180.578C93.8185 178.992 90.595 180.169 88.446 180.22C87.832 181.806 86.5529 182.676 84.6086 182.881C83.3294 185.132 81.7944 187.076 78.7756 187.537C77.8547 189.379 78.2128 193.319 75.6034 192.858C75.7057 191.272 77.2918 188.918 75.2452 187.69C78.3152 184.518 82.7154 182.676 84.9156 178.685C82.5619 178.02 79.2361 178.327 77.2407 177.355C76.5755 178.481 74.7847 179.402 74.2219 177.508C72.5846 177.764 71.7147 178.788 70.0263 178.992C69.1564 179.913 69.0541 181.602 68.0308 182.318C64.091 182.881 65.6771 179.555 67.3656 178.788C67.6215 177.867 66.8028 177.508 67.2121 176.946C67.9796 176.332 68.5424 176.741 69.2076 176.587C71.2542 176.127 72.6357 174.029 74.5289 173.927C75.9104 173.876 78.1105 174.797 79.6966 175.257C81.3339 175.718 82.9201 176.536 84.8644 176.076C83.1248 175.052 83.9946 171.42 81.3339 171.215C81.027 170.755 81.2828 169.731 80.8223 169.373C79.6455 169.22 77.3942 169.987 76.4732 168.861C75.5522 169.066 74.273 170.396 73.4544 169.22C73.7102 167.582 75.6034 167.582 76.4732 166.559C78.8268 167.582 82.0503 167.685 83.9946 169.066C85.0179 171.778 87.0134 178.327 90.1857 174.592C91.4648 173.108 92.4881 171.164 93.8696 169.424C97.3489 164.922 102.159 158.731 105.382 154.74C105.331 154.586 105.433 154.586 105.535 154.586C106.201 154.33 107.122 155.047 108.043 155.098C108.35 155.814 108.931 156.361 109.289 156.719ZM74.9894 166.968C75.2964 166.712 75.6034 166.457 75.501 165.792C74.6824 165.433 73.8125 165.126 72.6869 165.126C72.9427 166.201 73.7614 166.764 74.9894 166.968ZM102.568 177.304C102.414 178.071 101.8 178.429 100.879 178.481C100.061 177.406 101.698 176.741 102.568 177.304ZM66.2911 177.611C67.0586 179.095 65.1655 179.555 63.9375 179.095C64.1422 177.918 65.0632 177.304 66.2911 177.611ZM75.1429 188.816C75.0917 189.328 75.6034 189.379 75.501 189.993C74.58 190.402 73.7614 190.914 72.8404 191.323C72.6869 189.532 73.6079 188.867 75.1429 188.816Z" fill="#FCDD09"/>
<path d="M175.989 44.5799C176.705 46.0125 175.989 47.4451 175.477 48.5708C181.31 46.9335 180.952 55.3246 175.477 53.7385C177.115 76.456 166.472 89.759 146.262 91.8056C146.108 90.9358 145.852 90.1171 145.75 89.145C153.885 88.0194 160.997 85.8192 166.114 80.9585C172.1 75.2792 176.245 64.0739 173.124 53.4315C170.873 54.4548 166.882 53.0733 168.263 49.4406C168.979 48.8266 169.9 48.4173 171.435 48.622C169.338 45.7567 172.766 42.1751 175.989 44.5799Z" fill="#FCDD09"/>
<path d="M78.5167 53.2832C76.0096 74.1587 87.0614 88.3315 107.221 88.8432C107.426 89.6107 107.374 90.6851 107.374 91.6573C97.6528 92.0154 89.5174 87.4105 84.6566 81.987C79.8982 76.6146 77.4934 68.9398 76.6236 60.8045C76.3677 58.4509 76.4701 56.0461 76.6236 53.6413C72.2745 55.5345 70.3813 48.1666 75.8049 48.6271C75.7026 48.0131 74.9351 46.3247 75.4467 44.9432C78.0562 42.1291 82.4565 46.12 79.4377 48.7806C85.4753 47.4503 83.8891 56.1996 78.5167 53.2832Z" fill="#FCDD09"/>
<path d="M121.55 50.4109C125.848 48.3643 134.035 52.7134 136.235 48.262C136.951 46.7782 136.644 44.4757 136.235 43.4013C134.802 39.6662 127.741 37.4661 123.904 40.229C121.09 37.6196 113.978 37.7219 113.21 42.071C111.522 38.1824 114.899 35.266 118.378 34.9078C119.145 34.1403 119.708 31.5309 121.55 32.9123C122.318 37.6707 128.202 37.2102 132.551 38.8987C135.058 39.8709 138.282 42.2756 138.742 44.5781C139.254 47.0852 137.616 49.6946 136.235 50.7691C132.551 53.6344 125.337 51.7924 121.55 50.4109Z" fill="#FCDD09"/>
<path d="M134.595 46.2191C128.25 45.6051 119.859 45.8609 114.23 47.3959C118.887 44.2748 128.557 44.4283 134.595 46.2191Z" fill="#DA121A"/>
<path d="M182.181 63.1049C181.976 63.8212 180.185 63.7189 179.52 63.4631C179.623 62.3374 181.516 62.7979 182.181 63.1049ZM178.65 68.7843C179.725 68.682 181.209 68.989 181.976 68.6308C181.055 68.4773 179.111 67.4028 178.65 68.7843ZM177.678 74.6172C178.906 74.8218 179.981 75.8963 181.362 75.4358C180.492 74.5148 178.855 74.4125 177.678 73.7473V74.6172ZM175.325 80.143C176.911 80.5012 177.883 81.4733 179.52 81.8315C178.497 80.6547 176.809 80.0919 175.325 79.3244V80.143ZM171.999 85.4642C173.483 86.0271 174.404 88.0737 175.99 87.9713C174.813 86.5387 173.636 85.0549 171.999 84.1339C171.59 84.5433 171.999 84.9526 171.999 85.4642ZM170.31 94.3159C169.492 92.2692 168.878 89.9668 167.138 88.79C167.906 90.9389 168.673 93.0879 170.31 94.3159ZM162.482 99.1766C162.329 97.1811 161.663 94.367 160.487 92.8321C160.487 94.981 161.561 97.437 162.482 99.1766ZM154.142 101.684C153.988 99.3812 153.272 97.6416 152.965 95.4927H152.147C152.556 97.7951 152.76 100.302 154.142 101.684ZM72.9927 64.7934C72.3787 64.2817 70.3832 65.1515 70.332 64.1282C71.1507 63.9747 72.9415 63.6166 72.9927 64.7934ZM70.639 70.2681C71.867 70.1658 73.3508 70.3193 73.9648 69.6029C72.9927 68.7331 71.253 69.7053 70.639 70.2681ZM71.5089 76.8173C73.095 76.4591 75.1928 76.6126 75.4998 74.9753C74.2207 75.6405 72.2252 75.5893 71.5089 76.8173ZM73.6578 82.8036C75.2951 82.906 77.3418 82.0361 77.8534 80.45C76.2161 81.0128 74.937 81.9338 73.6578 82.8036ZM77.4953 89.1482C79.0814 88.8412 81.3327 86.8969 81.3327 84.9526C79.7466 86.0271 78.6721 87.6644 77.4953 89.1482ZM83.3282 95.1857C84.4539 94.981 84.6074 93.4972 85.0167 92.6786C85.4772 91.6553 85.9888 90.6319 86.347 89.6598C86.1423 89.6598 86.0912 89.4551 85.8353 89.5063C84.9143 91.2459 83.9422 93.0367 83.3282 95.1857ZM91.5148 99.8417C92.0264 97.7951 93.2032 95.5438 93.2032 93.4972H92.6916C92.2311 95.3392 91.2078 98.3579 91.5148 99.8417ZM100.059 101.991C100.929 100.302 101.441 98.2556 101.39 95.6462H100.878C100.469 97.5393 99.8037 100.046 100.059 101.991ZM127.229 140.211C127.638 142.77 127.945 146.044 127.587 148.909C126.768 146.658 126.768 142.872 127.229 140.211ZM127.075 168.455C126.052 160.063 125.233 151.468 124.056 143.23C123.749 149.523 124.619 155.049 125.54 161.24C126.256 166.05 126.717 171.115 127.024 176.078C127.587 185.442 127.024 195.163 127.536 204.629C127.587 205.703 127.638 206.829 128.201 207.954C126.308 185.39 129.992 163.594 131.22 143.025C130.452 152.133 130.247 161.752 127.075 168.455ZM137.615 63.4631C138.076 63.4631 137.462 65.9702 138.127 66.2772C138.434 66.3284 138.639 65.5097 138.792 65.919C138.639 66.7888 138.229 67.3517 138.127 68.2726C136.694 67.454 137.564 65.1004 137.615 63.4631ZM133.778 77.1243C133.88 75.7428 134.904 74.4637 134.801 73.4404C134.341 73.6962 134.341 74.4125 133.778 74.6172C133.317 74.0543 133.931 72.4682 133.42 71.9566C132.857 73.2357 132.089 76.4591 133.778 77.1243ZM125.438 90.1715C125.591 89.1482 126.154 88.5853 125.949 87.1527C125.08 86.948 126.154 88.6877 125.284 88.483C123.391 86.8969 124.875 81.7292 124.261 79.6314C124.056 83.0595 122.777 88.4318 125.438 90.1715ZM122.726 85.6689C122.624 84.5433 121.498 84.8502 120.884 84.3386C119.81 83.3664 120.065 81.985 119.707 80.143C119.196 82.906 119.758 85.8224 122.726 85.6689ZM129.94 88.6365C129.992 88.483 130.094 88.4318 130.299 88.483C130.452 87.869 130.606 87.0504 130.299 86.4875C129.582 86.2317 130.247 87.3574 129.787 87.3062C128.303 86.4875 128.354 84.1851 127.791 82.4455C127.945 85.0549 127.638 88.176 129.94 88.6365ZM126.41 105.163C129.122 104.856 129.429 99.2277 129.429 96.1578C128.661 98.1533 128.764 104.498 126.103 104.344C123.596 104.191 123.596 98.3579 122.931 96.1578C123.135 99.6882 123.238 105.572 126.41 105.163ZM132.089 109.665C132.499 112.94 131.168 117.801 132.601 120.666C135.159 121.127 136.285 117.954 137.104 116.164C138.076 114.066 138.792 112.019 139.099 110.331C139.253 114.884 137.053 118.517 134.904 121.331C133.01 122.406 131.731 120.973 131.066 119.847C129.633 121.485 129.224 124.452 126.717 124.503C123.903 124.606 123.289 120.922 122.214 118.517C121.038 119.745 121.6 121.945 119.4 122.048C115.921 122.15 114.642 114.168 113.721 111.354C114.642 112.991 115.102 114.782 116.074 116.88C116.688 118.261 117.865 121.229 119.4 121.229C122.266 121.178 121.293 113.042 121.242 110.228C122.163 115.396 123.084 120.615 126.256 123.582C131.066 121.792 130.913 115.038 132.089 109.665ZM131.066 125.22C132.038 127.471 129.531 132.178 132.243 133.406C135.415 132.485 135.466 128.392 136.746 125.578C136.797 129.671 134.904 135.811 130.247 134.071C129.633 135.095 129.071 136.169 128.252 136.886C127.177 137.09 126.717 136.937 125.591 136.886C124.773 135.965 124.108 134.89 123.596 133.713C120.424 137.5 117.661 130.388 117.251 126.857C118.428 129.057 118.786 134.02 121.6 133.713C124.415 133.355 122.214 128.392 122.624 125.527C123.442 128.597 123.698 136.118 127.484 135.709C130.503 135.402 130.043 127.778 131.066 125.22ZM130.759 77.7894C130.606 80.757 130.861 84.6456 132.908 85.9759C133.829 86.334 133.727 85.0549 134.238 85.4642C134.648 86.0271 134.085 86.641 133.727 86.948C130.554 86.2317 130.35 81.6268 130.759 77.7894ZM114.079 94.0089C114.949 96.6183 115.563 100.763 116.74 103.014C116.995 103.526 117.814 104.754 118.582 104.702C120.321 104.498 120.833 98.6649 120.935 96.516C120.986 95.8508 120.935 95.0322 120.935 94.367C122.112 98.0509 121.959 104.037 124.261 106.544C125.182 107.517 126.205 107.721 127.433 106.903C130.247 104.907 130.964 99.1254 131.424 94.5717C131.936 96.823 131.066 102.809 133.113 104.6C136.541 103.526 136.694 99.1766 137.308 95.2368C138.076 97.2835 137.36 100.763 138.792 102.093C141.504 100.763 141.913 97.0788 142.63 93.753C142.988 95.5438 141.657 103.73 138.946 103.27C137.82 103.065 138.127 101.274 137.104 100.609C136.643 104.037 132.806 108.693 131.117 103.27C129.275 105.163 129.275 108.898 125.284 108.591C123.084 107.056 122.419 103.986 121.089 101.581C120.372 102.86 119.963 104.344 119.4 105.777C116.484 106.442 116.023 103.423 115.205 101.428C114.232 101.684 114.13 102.758 113.363 103.27C110.242 101.991 110.497 97.3858 110.19 93.2414C110.958 96.7206 110.856 101.019 113.516 102.605C115.205 100.865 114.079 96.5671 114.079 94.0089ZM123.238 114.526C124.568 116.368 124.67 119.438 126.41 120.871C128.661 120.001 128.764 116.982 129.582 114.68C129.582 117.494 129.071 121.996 125.745 121.536C124.517 119.592 123.801 117.136 123.238 114.526ZM129.94 126.704C129.685 129.415 129.173 133.304 127.126 133.56C124.773 133.867 124.568 129.518 123.954 127.215C124.977 128.955 125.131 131.615 126.973 132.536C128.498 130.968 129.945 126.703 129.94 126.704Z" fill="black"/>
<path d="M129.273 34.3984C129.785 34.5519 129.785 35.2171 130.45 35.2171C131.218 35.0124 131.525 34.3984 132.446 34.3984C133.213 35.9334 128.864 36.4962 129.273 34.3984Z" fill="white"/>
</svg>
