<svg width="256" height="256" viewBox="0 0 256 256" fill="none" xmlns="http://www.w3.org/2000/svg">
<path d="M132.79 22.6514C132.79 22.6514 135.915 21.5292 138.608 22.778C139.37 25.1983 138.651 28.6316 138.651 28.6316C138.651 28.6316 141.975 28.2576 143.418 29.501C144.188 32.6115 142.472 35.3648 142.472 35.3648C142.472 35.3648 145.041 35.8553 146.099 37.5475C145.808 41.2302 143.678 43.0478 143.678 43.0478C143.678 43.0478 145.686 45.3432 145.749 47.5401C144.445 49.9528 142.093 51.3393 139.011 51.0076C139.011 52.0726 138.885 53.3362 137.88 54.4691C136.937 55.3992 135.554 55.9319 134.045 55.5317C133.541 59.9262 137.125 63.4538 141.904 64.1186C146.307 64.5178 151.463 62.5223 152.784 58.0613C151.274 58.328 149.701 57.3965 149.199 55.9319C148.57 53.8014 150.016 51.4724 150.016 51.4724C150.102 51.5473 148.71 50.5352 147.755 47.7497C148.172 44.8367 150.968 42.6334 150.968 42.6334C150.968 42.6334 149.642 39.1947 150.143 37.2664C151.741 34.6124 154.309 34.6124 154.309 34.6124C154.309 34.6124 154.881 29.9709 156.138 28.9058C158.34 28.1074 160.097 28.6482 160.097 28.6482C160.097 28.6482 160.431 24.2359 162.539 22.6729C164.671 22.6917 166.491 24.0323 166.491 24.0323C166.491 24.0323 168.956 20.7872 171.068 21.0008C172.854 22.2149 172.937 26.2889 172.937 26.2889C172.937 26.2889 175.198 26.2766 176.932 27.5156C177.717 30.0197 175.39 33.7837 175.39 33.7837C175.39 33.7837 177.13 34.3809 178.44 36.3219C178.829 37.9227 176.56 42.0119 176.56 42.0119C176.56 42.0119 178.637 43.5232 178.367 46.6093C177.638 48.4636 174.542 50.4633 174.542 50.4633C174.542 50.4633 175.506 53.8899 174.129 56.4906C171.717 58.181 170.073 58.2042 169.967 58.2489C169.967 58.2489 169.017 61.7409 165.549 61.1233C164.794 62.5879 164.166 67.6447 168.316 68.7087C173.82 69.2669 175.547 63.7855 175.547 63.7855C175.547 63.7855 174.32 60.6513 174.954 56.9983C176.574 55.3395 178.207 55.1659 178.207 55.1659C178.207 55.1659 177.938 52.1021 178.963 50.044C179.655 49.4427 182.315 49.4859 182.315 49.4859C182.315 49.4859 182.889 46.2817 184.478 45.0922C186.699 45.1678 188.197 46.1116 188.197 46.1116C188.197 46.1116 189.698 43.8285 192.519 42.6785C194.69 43.6518 196.297 45.1488 196.297 45.1488C196.297 45.1488 200.071 44.0184 201.896 44.4176C204.158 44.685 205.541 46.4149 205.919 48.2772C203.404 47.9452 201.518 48.9431 200.194 50.6077C199 52.0719 198.37 54.402 196.61 55.9987C194.346 58.5273 193.789 58.3411 191.524 59.2715C191.274 60.6701 190.825 62.5876 189.567 63.7851C188.372 64.9823 186.235 65.581 184.347 65.716C182.398 68.9751 180.763 72.0393 179.129 75.6975C179.129 75.765 172.024 93.6004 172.024 93.5355C159.699 86.9469 142.192 83.4865 128.46 83.6189C114.727 83.4865 97.2202 86.9469 84.8952 93.5355C84.8952 93.6004 77.7906 75.765 77.7906 75.6975C76.1563 72.0393 74.5213 68.9751 72.5725 65.716C70.6844 65.581 68.5472 64.9823 67.3527 63.7851C66.0945 62.5876 65.6533 60.6872 65.4036 59.2887C63.139 58.3582 62.5731 58.5273 60.3095 55.9987C58.5491 54.402 57.9188 52.0719 56.725 50.6077C55.4015 48.9431 53.5157 47.9452 51 48.2772C51.3778 46.4149 52.7611 44.685 55.0236 44.4176C56.8481 44.0184 60.6219 45.1488 60.6219 45.1488C60.6219 45.1488 62.2295 43.6518 64.4007 42.6785C67.2208 43.8285 68.7224 46.1116 68.7224 46.1116C68.7224 46.1116 70.2198 45.1678 72.4417 45.0922C74.0307 46.2817 74.6044 49.4859 74.6044 49.4859C74.6044 49.4859 77.2644 49.4427 77.9567 50.044C78.9814 52.1021 78.7118 55.1659 78.7118 55.1659C78.7118 55.1659 80.3453 55.3395 81.9651 56.9983C82.5988 60.6513 81.3721 63.7855 81.3721 63.7855C81.3721 63.7855 83.0991 69.2669 88.6037 68.7087C92.7534 67.6447 92.1255 62.5879 91.3705 61.1233C87.9026 61.7409 86.952 58.2489 86.952 58.2489C86.8462 58.2042 85.2017 58.181 82.7907 56.4906C81.4136 53.8899 82.3775 50.4633 82.3775 50.4633C82.3775 50.4633 79.2816 48.4636 78.5523 46.6093C78.2826 43.5232 80.359 42.0119 80.359 42.0119C80.359 42.0119 78.0898 37.9227 78.4793 36.3219C79.7895 34.3809 81.529 33.7837 81.529 33.7837C81.529 33.7837 79.2026 30.0197 79.987 27.5156C81.7213 26.2766 83.9824 26.2889 83.9824 26.2889C83.9824 26.2889 84.0654 22.2149 85.8516 21.0008C87.9633 20.7872 90.4278 24.0323 90.4278 24.0323C90.4278 24.0323 92.2487 22.6917 94.38 22.6729C96.4878 24.2359 96.8218 28.6482 96.8218 28.6482C96.8218 28.6482 98.5797 28.1074 100.781 28.9058C102.038 29.9709 102.61 34.6124 102.61 34.6124C102.61 34.6124 105.178 34.6124 106.776 37.2664C107.277 39.1947 105.951 42.6334 105.951 42.6334C105.951 42.6334 108.747 44.8367 109.164 47.7497C108.209 50.5352 106.842 51.5218 106.903 51.4724C106.903 51.4724 108.349 53.8014 107.72 55.9319C107.218 57.3965 105.645 58.328 104.135 58.0613C105.456 62.5223 110.613 64.5178 115.015 64.1186C119.794 63.4538 123.378 59.9262 122.874 55.5317C121.365 55.9319 119.982 55.3992 119.039 54.4691C118.034 53.3362 117.908 52.0726 117.908 51.0076C114.826 51.3393 112.475 49.9528 111.17 47.5401C111.233 45.3432 113.241 43.0478 113.241 43.0478C113.241 43.0478 111.112 41.2302 110.82 37.5475C111.878 35.8553 114.447 35.3648 114.447 35.3648C114.447 35.3648 112.731 32.6115 113.501 29.501C114.944 28.2576 118.268 28.6316 118.268 28.6316C118.268 28.6316 117.549 25.1983 118.311 22.778C121.004 21.5292 124.129 22.6514 124.129 22.6514C124.129 22.6514 123.9 17.4841 128.46 15C133.02 17.4841 132.79 22.6514 132.79 22.6514Z" fill="#FCDD09" stroke="black" stroke-width="0.967471" stroke-miterlimit="2.4142"/>
<path d="M81.5547 97.0739C80.4869 97.5377 79.4154 96.8729 79.0383 95.9413C78.6611 94.9419 78.9136 93.7444 80.0447 93.2121C93.9434 86.6228 112.777 82.8281 128.458 82.8281C144.14 82.8281 162.974 86.6228 176.872 93.2121C178.003 93.7444 178.256 94.9419 177.879 95.9413C177.501 96.8729 176.43 97.5377 175.362 97.0739C161.592 90.6835 144.954 87.0213 128.458 87.0213C111.963 87.0213 95.3246 90.6835 81.5547 97.0739Z" fill="#FCDD09" stroke="black" stroke-width="0.967471" stroke-miterlimit="2.4142"/>
<path d="M92.6249 39.9829C92.3876 40.0062 92.1653 40.0617 91.9453 40.1698C89.9975 41.0353 89.8007 44.0344 90.8068 46.7625C92.0003 49.3597 94.0858 50.9622 95.9723 50.2288C97.7343 49.2287 97.9854 46.5006 97.0427 43.84C96.2701 41.624 94.2858 39.82 92.6249 39.9829ZM163.939 39.9829C162.362 40.0852 160.612 41.7822 159.895 43.84C158.952 46.5006 159.203 49.2287 160.965 50.2288C162.851 50.9622 164.92 49.3597 166.113 46.7625C167.12 44.0344 166.94 41.0353 164.992 40.1698C164.662 40.0077 164.302 39.9593 163.939 39.9829Z" fill="#078930" stroke="black" stroke-width="0.815596" stroke-miterlimit="2.4142"/>
<path d="M128.454 35.2773C125.917 35.4755 124.727 38.4766 124.665 41.1394C124.728 43.7326 126.42 46.5262 128.454 46.5937C130.487 46.5262 132.197 43.7326 132.26 41.1394C132.197 38.4766 130.99 35.4755 128.454 35.2773ZM68.7794 57.8422C67.6473 57.8341 66.4751 58.1952 65.5 58.8277C65.6254 60.2248 66.0708 62.2906 67.454 63.7552C68.9006 65.0184 71.0369 65.3563 72.4835 65.4884C73.4889 64.5579 73.8667 61.1625 71.8548 59.0995C71.006 58.235 69.9115 57.8503 68.7794 57.8422ZM188.145 57.8422C187.013 57.8503 185.902 58.235 185.053 59.0995C183.041 61.1625 183.419 64.5579 184.424 65.4884C185.871 65.3563 188.024 65.0184 189.471 63.7552C190.854 62.2906 191.282 60.2248 191.408 58.8277C190.432 58.1952 189.277 57.834 188.145 57.8422Z" fill="#DA121A" stroke="black" stroke-width="0.815596" stroke-miterlimit="2.4142"/>
<path d="M128.118 51.0436L128.474 51.4684L128.814 51.0436L130.811 47.7812L128.474 49.9392L126.112 47.7812L128.118 51.0436ZM96.4112 54.9007L96.904 55.2915L97.1249 54.6628L97.813 50.9672L96.4452 53.6943L93.7266 52.1481L96.4112 54.9007ZM160.469 53.6943L159.102 50.9672L159.807 54.6628L160.011 55.2915L160.52 54.9007L163.197 52.1481L160.469 53.6943Z" fill="black"/>
<path d="M95.3594 66.459L103.154 64.5892C100.824 62.8754 97.4816 58.9453 97.4816 58.9453C97.4816 58.9453 96.4862 63.7722 95.3594 66.459Z" stroke="black" stroke-width="0.815596" stroke-miterlimit="2.4142"/>
<path d="M128.457 70.1797L122.238 76.4326L128.457 82.7535L134.676 76.4326L128.457 70.1797ZM103.564 72.3411L98.6029 79.8684L105.451 85.0508L110.429 77.4726L103.564 72.3411ZM153.35 72.3411L146.502 77.4726L151.464 85.0508L158.328 79.8684L153.35 72.3411ZM79.4194 79.712L76.6328 88.0378L83.8712 91.0963L87.6943 83.2462L79.4194 79.712ZM177.512 79.712L169.22 83.2462L173.043 91.0963L180.281 88.0378L177.512 79.712Z" fill="#078930" stroke="black" stroke-width="0.815596" stroke-miterlimit="2.4142"/>
<path d="M115.97 74.2031C114.442 74.2031 113.217 75.5259 113.217 77.1427C113.217 78.7594 114.442 80.0652 115.97 80.0652C117.498 80.0652 118.74 78.7594 118.74 77.1427C118.74 75.5259 117.498 74.2031 115.97 74.2031ZM140.948 74.2031C139.42 74.2031 138.178 75.5259 138.178 77.1427C138.178 78.7594 139.42 80.0652 140.948 80.0652C142.475 80.0652 143.717 78.7594 143.717 77.1427C143.717 75.5259 142.475 74.2031 140.948 74.2031ZM92.6915 78.8418C91.1638 78.8418 89.9219 80.1473 89.9219 81.7644C89.9219 83.3815 91.1634 84.6869 92.6915 84.6869C94.2199 84.6869 95.4611 83.3815 95.4611 81.7644C95.4611 80.1473 94.2199 78.8418 92.6915 78.8418ZM164.226 78.8418C162.698 78.8418 161.456 80.1473 161.456 81.7644C161.456 83.3815 162.698 84.6869 164.226 84.6869C165.754 84.6869 166.996 83.3815 166.996 81.7644C166.996 80.1473 165.754 78.8418 164.226 78.8418Z" fill="#DA121A" stroke="black" stroke-width="0.815596" stroke-miterlimit="2.4142"/>
<path d="M181.75 76.5586C182.819 76.9578 183.135 78.2228 182.695 79.2208C182.444 80.0866 181.5 80.6854 180.556 80.3511C162.886 73.3656 145.589 70.1682 128.463 70.1682C111.337 70.1682 94.0402 73.3656 76.3703 80.3511C75.4266 80.6854 74.4822 80.0866 74.2311 79.2208C73.7915 78.2228 74.1067 76.9578 75.1758 76.5586C92.845 69.3038 110.396 65.8438 128.463 65.8438C146.53 65.8438 164.081 69.3038 181.75 76.5586Z" fill="#FCDD09" stroke="black" stroke-width="0.967471" stroke-miterlimit="2.4142"/>
<path d="M161.56 66.459L153.766 64.5892C156.096 62.8754 159.438 58.9453 159.438 58.9453C159.438 58.9453 160.433 63.7722 161.56 66.459Z" stroke="black" stroke-width="0.815596" stroke-miterlimit="2.4142"/>
<path d="M132.969 62.0591C131.018 59.8133 128.457 55.2695 128.457 55.2695C128.457 55.2695 125.896 59.8133 123.945 62.0591H132.969Z" stroke="black" stroke-width="0.815596" stroke-miterlimit="2.4142"/>
<path d="M166.363 57.2664C164.852 56.7325 163.595 59.9285 165.671 60.8589C167.431 61.5252 168.941 60.5272 169.57 58.3967C170.009 56.7325 169.003 54.2704 166.426 54.2704C164.161 54.3375 162.527 56.4658 162.527 59.5297C162.527 61.9243 163.156 63.4564 164.602 65.7854C165.545 67.0505 165.985 67.5832 168.312 68.8478C172.462 70.6426 177.869 67.4485 178.939 62.7905C177.869 63.7224 176.795 63.9884 175.601 63.7885M151.686 54.3634C152.566 53.433 154.137 53.8322 154.327 55.4289C154.515 57.3598 151.874 58.9565 149.986 57.0941C147.975 54.8972 149.484 52.1683 150.742 51.3025C152.062 50.5716 153.76 50.2382 155.395 51.7013C156.904 53.3655 157.219 56.5614 154.955 59.7559C152.376 63.216 148.1 64.6795 142.253 64.2814C138.857 63.9483 136.719 62.2845 134.77 60.1551C133.01 58.0242 131.311 54.2985 131.687 51.7013C132.191 48.5743 135.21 47.5764 137.285 48.9071C139.234 50.3046 139.047 53.0988 137.724 54.4981C136.719 55.4289 134.958 55.8291 133.953 54.8301C132.756 53.5001 133.197 50.9033 135.651 51.5692M90.5605 57.2664C92.0708 56.7325 93.3283 59.9285 91.2521 60.8589C89.4921 61.5252 87.9821 60.5272 87.3535 58.3967C86.9137 56.7325 87.9198 54.2704 90.4972 54.2704C92.7617 54.3375 94.3964 56.4658 94.3964 59.5297C94.3964 61.9243 93.7672 63.4564 92.3212 65.7854C91.3785 67.0505 90.9383 67.5832 88.6111 68.8478C84.4614 70.6426 79.0541 67.4485 77.9844 62.7905C79.0538 63.7224 80.2311 64.0228 81.4252 63.8228M105.238 54.3634C104.357 53.433 102.786 53.8322 102.597 55.4289C102.408 57.3598 105.049 58.9565 106.937 57.0941C108.948 54.8972 107.44 52.1683 106.181 51.3025C104.861 50.5716 103.163 50.2382 101.528 51.7013C100.019 53.3655 99.7044 56.5614 101.968 59.7559C104.547 63.216 108.823 64.6795 114.671 64.2814C118.067 63.9483 120.204 62.2845 122.154 60.1551C123.914 58.0242 125.612 54.2985 125.236 51.7013C124.732 48.5743 121.713 47.5764 119.638 48.9071C117.689 50.3046 117.876 53.0988 119.199 54.4981C120.204 55.4289 121.965 55.8291 122.97 54.8301C124.167 53.5001 123.727 50.9033 121.273 51.5692" stroke="black" stroke-width="0.815596" stroke-miterlimit="2.4142" stroke-linecap="round" stroke-linejoin="round"/>
<path d="M192.977 52.0636L190.777 58.3193M189.853 51.4181L188.533 57.8875M186.246 54.3652L186.624 58.0924M183.537 56.5242L185.173 58.9863M181.905 60.0547L184.168 60.5859M180.078 63.4593L183.601 62.7942M156.744 35.6085L160.203 42.7972M155.455 41.1517L159.668 44.5468M159.371 45.6279L154.153 45.76M159.271 47.6519L154.616 49.2511M164.537 49.1632L167.43 52.2245M169.477 49.5547L165.957 47.0922M170.124 46.3562L166.413 45.957M171.857 43.0928L166.637 44.4899M166.675 42.6053L172.335 37.8802M165.918 40.7521L171.2 33.6323M164.749 40.041L168.082 28.5259M164.005 31.1333L163.187 40.1951M160.902 33.7578L161.593 41.0787M133.816 46.0866L131.583 44.2686M137.774 45.2733L131.904 43.037M132.216 41.0369L139.345 39.9508M131.568 37.5891L137.383 34.3045M130.885 36.2888L135.135 31.8329M134.6 26.9015L130.067 35.6603M129.037 35.2692L130.348 29.929M132.047 39.2501L136.659 38.0364M132.192 42.0173L137.144 42.8426M63.9375 52.0636L66.1377 58.3193M67.0613 51.4181L68.3819 57.8875M70.6686 54.3652L70.2908 58.0924M73.3771 56.5242L71.7417 58.9863M75.0091 60.0547L72.7461 60.5859M76.8365 63.4593L73.313 62.7942M100.171 35.6085L96.7116 42.7972M101.459 41.1517L97.2467 44.5468M97.5431 45.6279L102.762 45.76M97.644 47.6519L102.298 49.2511M92.3776 49.1632L89.4847 52.2245M87.437 49.5547L90.9578 47.0922M86.7907 46.3562L90.5015 45.957M85.0578 43.0928L90.2772 44.4899M90.239 42.6053L84.5797 37.8802M90.9967 40.7521L85.7142 33.6323M92.1653 40.041L88.832 28.5259M92.9093 31.1333L93.7273 40.1951M96.0126 33.7578L95.321 41.0787M128.435 23.5508V35.3171M123.098 46.0866L125.332 44.2686M119.14 45.2733L125.01 43.037M124.699 41.0369L117.569 39.9508M125.346 37.5891L119.532 34.3045M126.029 36.2888L121.779 31.8329M122.314 26.9015L126.847 35.6603M127.878 35.2692L126.567 29.929M124.868 39.2501L120.256 38.0364M124.722 42.0173L119.77 42.8426" stroke="black" stroke-width="0.652478" stroke-miterlimit="2.4142" stroke-linecap="round"/>
<path d="M70.0469 97.832V181.537C70.0469 213.148 95.9561 240.369 128.506 240.369C161.055 240.369 186.871 213.148 186.871 181.537V97.832H70.0469Z" fill="#DA121A" stroke="black" stroke-width="1.34376"/>
<path d="M73.375 100.906V180.553C73.375 210.633 97.7978 236.534 128.48 236.534C159.161 236.534 183.495 210.634 183.495 180.553V100.906H73.375Z" fill="#DA121A" stroke="black" stroke-width="1.11975"/>
<path d="M111.866 157.392C114.434 154.703 117.188 152.094 119.806 149.474C118.289 147.738 114.82 144.532 114.82 144.532L112.207 147.066L114.967 150.038L112.766 152.242L107.816 147.479L115.234 140.259L124.523 149.339C124.523 149.339 117.598 156.175 114.243 159.656M99.2704 145.018C106.778 137.415 114.559 129.928 122.212 122.492C119.07 119.184 112.303 112.778 112.303 112.778L105.104 119.867L110.147 124.75L112.58 122.391L109.796 119.359L111.701 117.466L117.151 122.71L110.424 129.285L100.49 119.628L111.842 108.491L111.979 108.469L139.072 135.054L127.718 146.252L118.405 137.129L125.119 130.552L130.062 135.337L128.095 137.268L124.982 134.553L122.559 136.955L127.58 141.86C127.58 141.86 132.462 137.115 134.819 134.768C131.631 131.45 124.889 125.084 124.889 125.084L101.855 147.529M86.8672 132.807L97.3778 122.752L107.261 132.419L99.8428 139.636L94.427 134.386L96.6451 132.186L99.7988 134.91L102.402 132.427L97.2799 127.43L89.308 135.193" fill="#F3F2F2"/>
<path d="M111.866 157.392C114.434 154.703 117.188 152.094 119.806 149.474C118.289 147.738 114.82 144.532 114.82 144.532L112.207 147.066L114.967 150.038L112.766 152.242L107.816 147.479L115.234 140.259L124.523 149.339C124.523 149.339 117.598 156.175 114.243 159.656M99.2704 145.018C106.778 137.415 114.559 129.928 122.212 122.492C119.07 119.184 112.303 112.778 112.303 112.778L105.104 119.867L110.147 124.75L112.58 122.391L109.796 119.359L111.701 117.466L117.151 122.71L110.424 129.285L100.49 119.628L111.842 108.491L111.979 108.469L139.072 135.054L127.718 146.252L118.405 137.129L125.119 130.552L130.062 135.337L128.095 137.268L124.982 134.553L122.559 136.955L127.58 141.86C127.58 141.86 132.462 137.115 134.819 134.768C131.631 131.45 124.889 125.084 124.889 125.084L101.855 147.529M86.8672 132.807L97.3778 122.752L107.261 132.419L99.8428 139.636L94.427 134.386L96.6451 132.186L99.7988 134.91L102.402 132.427L97.2799 127.43L89.308 135.193" stroke="black" stroke-width="0.738293"/>
<path d="M161.139 208.778C160.962 208.662 161.038 208.77 160.95 208.695C162.293 206.676 160.46 204.107 158.086 204.656C158.361 203.457 156.961 202.772 155.984 203.271L155.636 203.556C152.328 198.913 153.407 188.674 156.522 183.666L156.708 183.737C157.668 184.32 158.863 183.496 158.724 182.413C161.261 183.277 163.107 180.453 161.639 178.376L161.601 178.256C163.527 177.285 164.248 177.189 165.534 176.251C168.26 174.263 168.214 171.266 166.211 169.229C163.414 166.386 158.625 168.07 157.466 172.143C157.416 172.314 157.344 172.93 157.03 173.011L156.556 172.801C154.638 171.775 152.388 173.473 152.703 175.566C151.604 175.223 150.75 176.399 151.118 177.38L151.272 177.786C144.972 181.239 136.786 180.557 130.832 176.69L131.014 176.41C131.619 175.324 130.644 174.256 129.541 174.183C130.142 172.028 128.041 170.163 125.938 170.369C125.986 169.697 125.587 169.031 125.005 168.644C124.308 168.106 122.956 168.882 122.956 168.882L81.1594 127.566L76.1406 132.013L117.162 174.341C116.924 174.77 116.814 174.966 116.814 174.966C116.353 176.072 117.289 176.964 118.336 177.119L118.212 178.422C118.393 180.206 120.262 181.263 121.938 181.049C121.671 182.209 122.836 183.106 123.936 182.79L124.234 182.687C128.209 188.175 128.903 195.876 126.111 201.946L125.858 201.804C124.892 201.181 123.691 201.956 123.721 203.051C121.181 202.364 119.328 205.209 120.867 207.268C119.205 208.17 117.886 208.462 116.675 209.47C111.557 213.73 118.182 220.015 122.902 216.726C124.18 215.837 124.967 213.804 125.499 212.478L126.19 212.825C128.072 213.81 130.165 211.822 129.787 209.9C130.915 210.241 131.765 209.025 131.36 208.033L131.368 207.481C137.355 205.004 144.889 205.467 150.331 208.962L150.238 209.129C149.664 210.127 150.496 211.35 151.653 211.12C151.005 213.861 154.066 215.124 156.12 213.619C157.139 216.772 160.861 220.953 164.564 218.33C168.142 215.796 166.888 209.137 161.139 208.778ZM145.931 197.278C144.74 199.163 141.902 197.177 140.779 195.828C139.576 197.192 136.638 199.198 135.369 196.881C135.007 195.305 136.243 193.988 137.303 193.023C136.166 191.948 133.712 188.458 135.841 187.565C137.662 186.804 139.177 189.313 140.578 190.073C141.699 188.811 143.763 187.113 145.354 188.12C147.419 189.425 145.463 192.25 143.766 193.247C145.013 194.166 146.869 195.793 145.931 197.278Z" fill="#F3F2F2" stroke="black" stroke-width="0.939662"/>
<path d="M155.374 182.195C150.917 188.938 150.232 198.033 154.168 205.126M129.556 177.938C136.401 182.499 145.39 182.979 152.727 179.167M127.36 203.49C130.822 196.471 130.323 187.875 125.719 181.447M151.605 207.753C145.217 203.459 136.665 202.633 129.73 206.127" stroke="black" stroke-width="0.671182" stroke-linecap="round"/>
<path d="M150.222 202.961C149.739 202.72 149.27 202.504 148.814 202.308C148.358 202.113 147.913 201.938 147.482 201.78C147.049 201.623 146.628 201.483 146.216 201.358C145.802 201.232 145.399 201.123 145.003 201.025C144.606 200.929 144.217 200.844 143.834 200.77C143.45 200.698 143.072 200.637 142.697 200.585C142.322 200.534 141.951 200.493 141.581 200.461C141.211 200.43 140.843 200.409 140.475 200.396C140.106 200.384 139.737 200.381 139.366 200.388C138.995 200.395 138.622 200.411 138.245 200.437C137.868 200.464 137.486 200.5 137.099 200.549C136.711 200.596 136.318 200.654 135.915 200.726C135.513 200.797 135.103 200.88 134.683 200.978C134.264 201.077 133.834 201.188 133.392 201.317C132.95 201.446 132.495 201.591 132.027 201.757C131.559 201.923 131.077 202.107 130.578 202.315C130.822 201.839 131.041 201.379 131.239 200.93C131.437 200.481 131.616 200.045 131.776 199.62C131.936 199.195 132.078 198.779 132.205 198.374C132.332 197.969 132.444 197.571 132.542 197.182C132.641 196.792 132.727 196.409 132.801 196.032C132.875 195.653 132.937 195.281 132.989 194.913C133.041 194.543 133.082 194.178 133.113 193.814C133.145 193.451 133.166 193.087 133.179 192.724C133.19 192.361 133.192 191.999 133.185 191.633C133.178 191.268 133.161 190.901 133.134 190.529C133.107 190.158 133.07 189.781 133.021 189.401C132.972 189.019 132.913 188.631 132.841 188.236C132.769 187.84 132.684 187.437 132.584 187.023C132.484 186.611 132.371 186.188 132.24 185.752C132.108 185.317 131.962 184.87 131.794 184.41C131.625 183.949 131.437 183.475 131.226 182.984C131.71 183.224 132.179 183.441 132.636 183.636C133.091 183.83 133.536 184.006 133.968 184.163C134.401 184.322 134.822 184.461 135.235 184.587C135.648 184.712 136.051 184.822 136.447 184.919C136.843 185.016 137.232 185.1 137.616 185.174C137.999 185.246 138.377 185.308 138.752 185.359C139.127 185.411 139.499 185.452 139.868 185.484C140.237 185.515 140.605 185.537 140.973 185.549C141.341 185.561 141.709 185.564 142.081 185.557C142.452 185.55 142.824 185.533 143.201 185.507C143.578 185.48 143.96 185.444 144.348 185.396C144.736 185.348 145.129 185.29 145.531 185.219C145.934 185.148 146.343 185.065 146.763 184.966C147.183 184.868 147.613 184.757 148.056 184.628C148.498 184.499 148.952 184.354 149.42 184.188C149.889 184.022 150.371 183.838 150.87 183.63C150.626 184.106 150.407 184.566 150.209 185.015C150.011 185.464 149.832 185.9 149.672 186.324C149.512 186.75 149.37 187.165 149.243 187.57C149.116 187.977 149.004 188.372 148.906 188.763C148.807 189.153 148.721 189.535 148.647 189.913C148.572 190.291 148.511 190.662 148.459 191.031C148.407 191.4 148.365 191.766 148.335 192.13C148.303 192.493 148.281 192.856 148.27 193.22C148.258 193.583 148.256 193.946 148.263 194.311C148.27 194.676 148.286 195.044 148.313 195.416C148.341 195.787 148.378 196.163 148.426 196.545C148.475 196.926 148.535 197.314 148.608 197.71C148.681 198.105 148.765 198.508 148.864 198.921C148.964 199.335 149.078 199.758 149.209 200.193C149.34 200.627 149.488 201.075 149.655 201.536C149.823 201.996 150.011 202.471 150.222 202.961Z" stroke="black" stroke-width="0.805404" stroke-linecap="round"/>
<path d="M125.905 202.008L131.397 208.105M150.17 209.446L156.213 203.095M125.423 212.302L120.868 207.268M123.723 203.05L129.788 209.899M161.854 178.708L157.086 173.092M152.704 175.563L158.724 182.412M151.654 211.12L158.087 204.656M155.922 213.678L161.003 208.555M121.938 181.048L129.541 174.181M118.418 177.064L125.94 170.365M156.666 183.604L151.202 177.363M123.933 182.721L130.847 176.372M117.055 174.599L123.071 168.832" stroke="black" stroke-width="0.805404" stroke-linecap="round"/>
</svg>
