<svg width="256" height="256" viewBox="0 0 256 256" fill="none" xmlns="http://www.w3.org/2000/svg">
<path d="M221.181 20.7754L221.014 125.651C220.654 219.313 159.331 235.45 128.072 235.5C96.8131 235.357 35.5411 219.038 35.4805 125.376L35.6477 20.5L221.181 20.7754Z" fill="#D40000" stroke="#545454" stroke-width="0.528001"/>
<path fill-rule="evenodd" clip-rule="evenodd" d="M87.7141 47.0311L81.0196 54.4361L87.7141 61.8411L77.954 59.746L74.8883 69.2461L71.8227 59.746L62.0625 61.8411L68.757 54.4361L62.0625 47.0311L71.8227 49.1262L74.8883 39.6261L77.954 49.1262L87.7141 47.0311Z" fill="white" stroke="#808080" stroke-width="0.706607"/>
<path d="M129.512 106.18C139.944 106.18 148.402 98.0522 148.402 88.0257C148.402 77.9992 139.944 69.8711 129.512 69.8711C119.079 69.8711 110.621 77.9992 110.621 88.0257C110.621 98.0522 119.079 106.18 129.512 106.18Z" fill="#ECECEC" stroke="#808080" stroke-width="1.3255"/>
<path fill-rule="evenodd" clip-rule="evenodd" d="M65.4428 211.11C65.4428 211.11 73.5664 218.48 78.2106 221.337C84.2442 225.05 90.8506 227.846 97.5477 230.157C101.678 231.582 105.95 232.73 110.29 233.229C122.757 234.66 135.481 234.474 147.934 232.932C150.985 232.554 153.957 231.655 156.896 230.751C161.13 229.449 165.355 227.999 169.342 226.094C174.567 223.597 179.583 220.638 184.256 217.275C186.842 215.413 191.456 211.032 191.456 211.032V209.743L65.0508 208.867L65.4428 211.11Z" fill="#ECECEC"/>
<path d="M65.2709 210.999C65.2709 210.999 79.2535 210.853 86.2447 210.901C100.221 210.998 128.168 211.679 128.168 211.679C128.168 211.679 157.007 211.006 171.429 210.816C178.113 210.728 191.483 210.689 191.483 210.689L191.365 182.183L188.198 178.025V113.221L190.812 110.594L191.109 89.0374L188.446 85.3597L185.999 84.867L186.12 91.1133L179.225 90.9228L179.193 84.83L174.141 84.9107L174.162 91.007L168.983 90.8809L169.048 84.8276L163.854 84.9057L163.928 90.9696L158.826 90.9704L158.846 84.8172L153.611 86.7859L153.404 112.594L156.531 113.807L156.99 114.348L157.069 124.729L146.056 124.606L145.973 113.539L148.486 107.689V86.3925L144.827 82.6929L143.299 82.682L143.374 88.8542L138.337 88.7932L138.494 82.5784L133.809 82.6182L133.81 88.8088L126.518 88.8408L126.478 82.6977L121.35 82.7203L121.298 88.8447L116.207 88.8803L116.331 82.5273L114.956 82.5595L113.104 83.9763L110.659 86.6209L110.283 108.479L112.815 112.819L112.962 124.413L99.6143 124.363L99.59 124.207L99.5958 112.478L104.469 111.399L104.432 88.7951L102.673 85.8757L99.2313 85.9351L99.2489 90.9709L94.0676 90.8946L94.0277 84.9766L87.3213 84.8897L87.3535 90.8067L82.1156 90.7795L82.0194 84.6103L75.2271 84.6716L75.2952 90.6547L70.2721 90.5654L70.211 84.6636L66.5838 84.7553L64.8573 88.872L64.9127 111.132L68.2423 113.544L67.6708 178.678L64.2422 183.17L65.2709 210.999Z" fill="#ECECEC" stroke="#808080" stroke-width="0.741281"/>
<path d="M104.262 88.9163L102.631 86.2734L99.3335 86.3486L99.2618 91.2513L93.4794 91.145L93.4766 110.623L94.3483 114.734L93.9124 178.803L95.22 185.313L94.8142 210.473L117.325 211.586L117.449 193.878L110.475 182.229L105.245 155.163L99.3297 124.73L99.2787 112.504L101.694 111.893L103.095 111.402L104.239 110.943L104.262 88.9163Z" fill="#F2F2F2"/>
<path d="M138.391 88.9877L143.598 88.9989L143.442 83.0236L144.719 83.0234L148.341 86.8393L148.204 108.232L145.93 112.828L145.784 124.775L139.729 124.764L139.892 119.19L138.499 116.174L138.391 88.9877Z" fill="#F2F2F2"/>
<path d="M191.361 210.277L191.233 182.301L188.049 178.076L187.958 112.878L190.468 110.571L190.992 89.0862L188.329 85.58L186.242 85.3477L186.2 91.2473L180.836 91.3147L180.865 177.779L181.955 183.946L181.785 210.381L191.361 210.277Z" fill="#F2F2F2"/>
<path d="M69.8737 84.9297L70.0206 113.363L68.2424 113.219L64.8672 110.993L64.9871 88.927L66.8255 84.9885L69.8737 84.9297Z" fill="#F2F2F2"/>
<path d="M115.846 93.7665L116.003 82.9669L114.592 82.8711L110.63 86.7605L110.27 108.307L113.115 112.886L113.142 124.626L115.897 107.342L115.846 93.7665Z" fill="#F2F2F2" stroke="#808080" stroke-width="0.712112"/>
<path d="M143.326 93.7665L143.168 82.9669L144.579 82.8711L148.541 86.7605L148.902 108.307L146.057 112.886L146.029 124.626L143.275 107.342L143.326 93.7665Z" fill="#F2F2F2" stroke="#808080" stroke-width="0.712112"/>
<path d="M64.6523 198.682C77.3282 196.343 89.9357 193.74 104.266 198.632" stroke="#808080" stroke-width="0.741281"/>
<path d="M104.374 211.075L104.064 185.912L99.9336 179.419L99.9442 124.821L104.787 124.559" fill="white"/>
<path d="M104.374 211.075L104.064 185.912L99.9336 179.419L99.9442 124.821L104.787 124.559" stroke="#808080" stroke-width="0.741281"/>
<path d="M103.794 185.264C90.279 183.246 76.8225 184.346 64.4023 185.771" stroke="#808080" stroke-width="0.741281"/>
<path d="M99.9349 177.253C85.1785 175.455 76.5474 176.898 67.8555 177.904" stroke="#808080" stroke-width="0.741281"/>
<path d="M68.0039 163.833C82.6997 161.317 91.0069 163.065 100.073 164.483" stroke="#808080" stroke-width="0.741281"/>
<path d="M99.7961 153.017C88.9194 150.037 78.8962 150.161 68.0195 153.28" stroke="#808080" stroke-width="0.741281"/>
<path d="M68.1484 139.087C78.7952 136.638 89.0111 136.529 99.6579 139.162" stroke="#808080" stroke-width="0.741281"/>
<path d="M99.7962 124.442C91.1319 122.608 82.0027 121.542 68.2305 124.728" stroke="#808080" stroke-width="0.741281"/>
<path d="M68.293 113.544C78.3489 110.69 88.1853 110.068 99.5324 113.304" stroke="#808080" stroke-width="0.741281"/>
<path d="M72.9492 112.059L73.2581 123.416" stroke="#808080" stroke-width="0.741281"/>
<path d="M80.3868 123.053L80.1836 111.258" stroke="#808080" stroke-width="0.741281"/>
<path d="M91.0552 111.574L90.9922 122.833" stroke="#808080" stroke-width="0.741281"/>
<path d="M93.6016 137.826L93.7712 123.32" stroke="#808080" stroke-width="0.741281"/>
<path d="M76.9754 137.654L76.8047 123.148" stroke="#808080" stroke-width="0.741281"/>
<path d="M86.168 137.02L86.3072 150.655" stroke="#808080" stroke-width="0.741281"/>
<path d="M96.5388 152.113L96.4883 138.414" stroke="#808080" stroke-width="0.741281"/>
<path d="M74.5977 137.984V151.737" stroke="#808080" stroke-width="0.741281"/>
<path d="M90.0559 150.973L90.0234 163.245" stroke="#808080" stroke-width="0.741281"/>
<path d="M77.2539 151.395V162.763" stroke="#808080" stroke-width="0.741281"/>
<path d="M74.673 163.031L74.4688 177.04" stroke="#808080" stroke-width="0.741281"/>
<path d="M84.3789 176.393L84.4114 162.766" stroke="#808080" stroke-width="0.741281"/>
<path d="M96.4219 163.949L96.4911 177.035" stroke="#808080" stroke-width="0.741281"/>
<path d="M85.1351 195.983L85.0664 183.965" stroke="#808080" stroke-width="0.741281"/>
<path d="M74.7684 197.128L74.5977 185.051" stroke="#808080" stroke-width="0.741281"/>
<path d="M97.7296 197.027L97.5938 184.605" stroke="#808080" stroke-width="0.741281"/>
<path d="M93.0508 210.872V195.945" stroke="#808080" stroke-width="0.741281"/>
<path d="M80.1091 210.784L80.0039 196.59" stroke="#808080" stroke-width="0.741281"/>
<path d="M175.448 138.931L175.691 126.195C173.524 121.794 170.809 124.285 169.928 126.028L169.914 138.708L175.448 138.931Z" fill="white" stroke="#737373" stroke-width="1.76652"/>
<path d="M117.194 142.648H109V156.655H117.194V142.648Z" fill="white" stroke="#737373" stroke-width="1.76652"/>
<path d="M191.171 199.847C172.766 196.627 163.283 198.952 152.48 200.355" stroke="#808080" stroke-width="0.741281"/>
<path d="M152.477 211.266L152.752 187.074L156.882 180.581L157.347 124.941" stroke="#808080" stroke-width="0.741281"/>
<path d="M153.031 186.428C166.206 183.609 178.225 183.9 191.204 186.642" stroke="#808080" stroke-width="0.741281"/>
<path d="M156.887 178.419C171.906 175.794 180.048 177.11 188.551 178.713" stroke="#808080" stroke-width="0.741281"/>
<path d="M187.828 165.018C175.838 162.617 166.452 163.813 157.02 165.432" stroke="#808080" stroke-width="0.741281"/>
<path d="M156.883 153.966C167.345 152.254 177.554 151.628 188.017 153.962" stroke="#808080" stroke-width="0.741281"/>
<path d="M187.967 140.009C176.93 138.618 166.904 138.667 157.16 140.325" stroke="#808080" stroke-width="0.741281"/>
<path d="M157.16 125.169C170.003 122.146 178.731 123.555 187.769 125.516" stroke="#808080" stroke-width="0.741281"/>
<path d="M188.001 114.825C176.618 111.979 166.611 112.339 157.164 114.566" stroke="#808080" stroke-width="0.741281"/>
<path d="M183.695 113.762L183.728 124.577" stroke="#808080" stroke-width="0.741281"/>
<path d="M176.27 123.946L176.299 112.688" stroke="#808080" stroke-width="0.741281"/>
<path d="M165.608 113.273L165.523 123.829" stroke="#808080" stroke-width="0.741281"/>
<path d="M163.219 139.255L163.252 124.098" stroke="#808080" stroke-width="0.741281"/>
<path d="M180.016 139.355V124.039" stroke="#808080" stroke-width="0.741281"/>
<path d="M170.48 138.984L170.683 152.62" stroke="#808080" stroke-width="0.741281"/>
<path d="M160.324 153.749L160.325 140.328" stroke="#808080" stroke-width="0.741281"/>
<path d="M182.215 139.414V153.049" stroke="#808080" stroke-width="0.741281"/>
<path d="M166.939 152.406L166.801 163.874" stroke="#808080" stroke-width="0.741281"/>
<path d="M179.738 152.352L179.909 164.195" stroke="#808080" stroke-width="0.741281"/>
<path d="M182.152 164.195L182.357 177.131" stroke="#808080" stroke-width="0.741281"/>
<path d="M172.611 176.482L172.578 163.66" stroke="#808080" stroke-width="0.741281"/>
<path d="M160.465 164.922L160.328 178.199" stroke="#808080" stroke-width="0.741281"/>
<path d="M171.754 197.857L171.755 184.051" stroke="#808080" stroke-width="0.741281"/>
<path d="M182.215 198.556V185.137" stroke="#808080" stroke-width="0.741281"/>
<path d="M159.086 199.258V185.672" stroke="#808080" stroke-width="0.741281"/>
<path d="M163.766 211.059L163.833 198.605" stroke="#808080" stroke-width="0.741281"/>
<path d="M176.988 210.524L176.99 198.289" stroke="#808080" stroke-width="0.741281"/>
<path d="M145.846 113.125H112.98" stroke="#808080" stroke-width="0.741281"/>
<path d="M121.301 211.588L121.556 175.417C121.95 173.049 122.704 170.719 123.795 168.973C124.637 167.627 125.764 166.656 126.925 166.174C127.913 165.763 128.996 165.81 129.992 166.174C131.258 166.636 132.545 167.476 133.492 168.876C134.206 169.932 134.649 171.426 134.946 172.895C135.369 174.983 135.361 179.436 135.361 179.436" fill="#E2E2DE"/>
<path d="M121.301 211.588L121.556 175.417C121.95 173.049 122.704 170.719 123.795 168.973C124.637 167.627 125.764 166.656 126.925 166.174C127.913 165.763 128.996 165.81 129.992 166.174C131.258 166.636 132.545 167.476 133.492 168.876C134.206 169.932 134.649 171.426 134.946 172.895C135.369 174.983 135.361 179.436 135.361 179.436" stroke="#808080" stroke-width="0.741281"/>
<path d="M123.602 211.188L123.857 175.017C124.436 172.824 125.644 170.875 127.031 169.931C128.25 169.101 129.747 169.169 131.015 169.793C132.121 170.337 133.122 171.561 133.827 173.008C134.693 174.786 135.352 179.286 135.352 179.286" fill="#D5D5D0"/>
<path d="M123.602 211.188L123.857 175.017C124.436 172.824 125.644 170.875 127.031 169.931C128.25 169.101 129.747 169.169 131.015 169.793C132.121 170.337 133.122 171.561 133.827 173.008C134.693 174.786 135.352 179.286 135.352 179.286" stroke="#808080" stroke-width="0.741281"/>
<path d="M135.057 211.732L135.225 177.883C134.581 176.303 133.153 175.498 131.96 175.571C130.638 175.652 129.424 177.113 128.478 178.568C127.879 179.488 127.222 181.989 127.222 181.989L127.055 211.732H135.057Z" fill="#B3B3B3" stroke="#737373" stroke-width="0.741281"/>
<path d="M99.5703 131.609H157.343" stroke="#808080" stroke-width="0.741281"/>
<path d="M156.834 142.464L99.8281 142.062" stroke="#808080" stroke-width="0.741281"/>
<path d="M156.834 156.531H99.8281" stroke="#808080" stroke-width="0.741281"/>
<path d="M156.995 179.438H134.852" stroke="#808080" stroke-width="0.741281"/>
<path d="M152.488 195.113H135.105" stroke="#808080" stroke-width="0.741281"/>
<path d="M121.299 195.515L104.172 195.113" stroke="#808080" stroke-width="0.741281"/>
<path d="M121.46 180.056L100.062 179.668" stroke="#808080" stroke-width="0.741281"/>
<path d="M143.801 211.187L143.889 195.098" stroke="#808080" stroke-width="0.741281"/>
<path d="M141.664 195.098V179.562" stroke="#808080" stroke-width="0.741281"/>
<path d="M145.566 169.192L145.596 156.516" stroke="#808080" stroke-width="0.741281"/>
<path d="M149.535 179.253L149.418 169.113" stroke="#808080" stroke-width="0.741281"/>
<path d="M139.708 179.44L139.629 169.254" stroke="#808080" stroke-width="0.741281"/>
<path d="M117.327 179.841L117.219 168.852" stroke="#808080" stroke-width="0.741281"/>
<path d="M117.469 211.577L117.478 195.238" stroke="#808080" stroke-width="0.741281"/>
<path d="M105.449 179.843L105.537 168.59" stroke="#808080" stroke-width="0.741281"/>
<path d="M114.402 168.574V156.379" stroke="#808080" stroke-width="0.741281"/>
<path d="M129.227 156.934V166.191" stroke="#808080" stroke-width="0.741281"/>
<path d="M136.809 156.379L136.894 142.438" stroke="#808080" stroke-width="0.741281"/>
<path d="M150.533 156.516L150.445 142.57" stroke="#808080" stroke-width="0.741281"/>
<path d="M121.38 156.254L121.301 142.188" stroke="#808080" stroke-width="0.741281"/>
<path d="M105.532 156.517L105.285 142.188" stroke="#808080" stroke-width="0.741281"/>
<path d="M113.979 142.062L113.891 131.211" stroke="#808080" stroke-width="0.741281"/>
<path d="M129.48 141.922V131.598" stroke="#808080" stroke-width="0.741281"/>
<path d="M146.609 142.184L146.613 131.855" stroke="#808080" stroke-width="0.741281"/>
<path d="M99.9453 168.711L123.727 168.974" stroke="#808080" stroke-width="0.741281"/>
<path d="M134.246 169.242H156.885" stroke="#808080" stroke-width="0.741281"/>
<path d="M148.42 142.871H140.227V156.494H148.42V142.871Z" fill="white" stroke="#737373" stroke-width="1.76652"/>
<path d="M145.948 124.749L112.922 124.531" stroke="#808080" stroke-width="0.741281"/>
<path d="M121.215 131.485V124.75" stroke="#808080" stroke-width="0.741281"/>
<path d="M136.969 131.485V124.723" stroke="#808080" stroke-width="0.741281"/>
<path d="M104.906 131.266V124.531" stroke="#808080" stroke-width="0.741281"/>
<path d="M150.509 131.488L150.371 124.797" stroke="#808080" stroke-width="0.741281"/>
<path d="M129.785 124.317V113.02" stroke="#808080" stroke-width="0.741281"/>
<path d="M82.7479 137.288L82.6953 124.936C84.7246 121.205 87.3866 123.248 88.4585 124.768L88.4729 137.448L82.7479 137.288Z" fill="white" stroke="#737373" stroke-width="1.76652"/>
<path d="M64.9102 92.6306L70.123 90.6719" stroke="#808080" stroke-width="0.739818"/>
<path d="M75.3008 90.7266L82.0689 90.786" stroke="#808080" stroke-width="0.739818"/>
<path d="M87.5312 90.7852L93.9873 90.8446" stroke="#808080" stroke-width="0.739818"/>
<path d="M99.0273 90.8477L104.16 92.8658" stroke="#808080" stroke-width="0.739818"/>
<path d="M116.143 88.8086L110.766 90.8882" stroke="#808080" stroke-width="0.739818"/>
<path d="M120.582 88.8867H127.333" stroke="#808080" stroke-width="0.739818"/>
<path d="M133.84 88.7656L138.303 88.8106" stroke="#808080" stroke-width="0.739818"/>
<path d="M143.504 88.8594L148.724 91.0837" stroke="#808080" stroke-width="0.739818"/>
<path d="M80.1797 90.7695V96.8734" stroke="#808080" stroke-width="0.739818"/>
<path d="M65.0117 98.9879L69.8849 96.9532L99.043 96.9531L104.214 98.9879" stroke="#808080" stroke-width="0.739818"/>
<path d="M65.0117 105.089L70.1335 103.055L99.0927 103.055L104.214 105.089" stroke="#808080" stroke-width="0.739818"/>
<path d="M110.535 97.1268L116.146 94.9141H143.417L148.642 97.1103" stroke="#808080" stroke-width="0.739818"/>
<path d="M110.586 103.054L116.147 101.02H143.418L148.709 103.148" stroke="#808080" stroke-width="0.739818"/>
<path d="M65.0625 111.054L70.1843 109.02L99.1435 109.02L104.265 111.054" stroke="#808080" stroke-width="0.739818"/>
<path d="M110.586 108.648L116.147 106.613H143.418L148.52 108.23" stroke="#808080" stroke-width="0.739818"/>
<path d="M90.6289 90.9922V97.0961" stroke="#808080" stroke-width="0.739818"/>
<path d="M99.0977 90.8477V96.9516" stroke="#808080" stroke-width="0.739818"/>
<path d="M99.0977 90.8477V96.9516" stroke="#808080" stroke-width="0.739818"/>
<path d="M70.1367 90.9219V97.0258" stroke="#808080" stroke-width="0.739818"/>
<path d="M74.7305 96.9102V103.014" stroke="#808080" stroke-width="0.739818"/>
<path d="M85.1797 97.1328V103.237" stroke="#808080" stroke-width="0.739818"/>
<path d="M93.6523 96.9844V103.088" stroke="#808080" stroke-width="0.739818"/>
<path d="M100.805 97.7852V103.889" stroke="#808080" stroke-width="0.739818"/>
<path d="M80.1133 102.754V108.858" stroke="#808080" stroke-width="0.739818"/>
<path d="M90.5703 102.977V109.08" stroke="#808080" stroke-width="0.739818"/>
<path d="M99.0391 102.832V108.936" stroke="#808080" stroke-width="0.739818"/>
<path d="M70.0781 102.906V109.01" stroke="#808080" stroke-width="0.739818"/>
<path d="M153.82 92.8846L158.605 90.9258" stroke="#808080" stroke-width="0.739818"/>
<path d="M163.777 90.9801L168.953 90.9648" stroke="#808080" stroke-width="0.739818"/>
<path d="M173.328 91.0108L181.946 90.9453" stroke="#808080" stroke-width="0.739818"/>
<path d="M186.273 91.1719L190.805 92.6785" stroke="#808080" stroke-width="0.739818"/>
<path d="M153.637 99.4574L158.36 97.2037L186.355 96.9844L190.853 98.7269" stroke="#808080" stroke-width="0.739818"/>
<path d="M153.461 105.489L158.605 103.309L187.564 103.309L190.849 104.978" stroke="#808080" stroke-width="0.739818"/>
<path d="M153.539 111.314L158.661 109.279L186.151 109.133L190.538 110.51" stroke="#808080" stroke-width="0.739818"/>
<path d="M168.656 91.0273V97.1313" stroke="#808080" stroke-width="0.739818"/>
<path d="M179.105 91.25V97.3539" stroke="#808080" stroke-width="0.739818"/>
<path d="M186.233 91.25L186.172 97.1347" stroke="#808080" stroke-width="0.739818"/>
<path d="M158.613 91.1719V97.2758" stroke="#808080" stroke-width="0.739818"/>
<path d="M163.203 97.168V103.272" stroke="#808080" stroke-width="0.739818"/>
<path d="M173.656 97.3828V103.487" stroke="#808080" stroke-width="0.739818"/>
<path d="M182.129 97.2383V103.342" stroke="#808080" stroke-width="0.739818"/>
<path d="M189.405 98.2617L189.344 103.927" stroke="#808080" stroke-width="0.739818"/>
<path d="M155.121 98.625V104.729" stroke="#808080" stroke-width="0.739818"/>
<path d="M168.594 103.012V109.116" stroke="#808080" stroke-width="0.739818"/>
<path d="M179.047 103.234V109.338" stroke="#808080" stroke-width="0.739818"/>
<path d="M186.108 103.379L186.047 109.191" stroke="#808080" stroke-width="0.739818"/>
<path d="M158.551 103.156V109.26" stroke="#808080" stroke-width="0.739818"/>
<path d="M115.945 88.8711V94.975" stroke="#808080" stroke-width="0.739818"/>
<path d="M126.172 88.8711V94.975" stroke="#808080" stroke-width="0.739818"/>
<path d="M136.398 88.8711V94.975" stroke="#808080" stroke-width="0.739818"/>
<path d="M126.246 101.207L126.402 106.581" stroke="#808080" stroke-width="0.739818"/>
<path d="M136.469 101.207L136.547 106.581" stroke="#808080" stroke-width="0.739818"/>
<path d="M120.66 94.9102V101.014" stroke="#808080" stroke-width="0.739818"/>
<path d="M130.883 94.9102V101.014" stroke="#808080" stroke-width="0.739818"/>
<path d="M139.562 94.8281V100.932" stroke="#808080" stroke-width="0.739818"/>
<path d="M112.531 96.3984V102.502" stroke="#808080" stroke-width="0.739818"/>
<path d="M129.988 70.2891V88.6834" stroke="#808080" stroke-width="0.681447"/>
<path d="M113.93 83.7245C113.93 83.7245 114.857 81.0685 115.595 79.8657C116.782 77.9316 118.11 75.9685 119.968 74.5755C122.85 72.4151 129.996 70.1797 129.996 70.1797C129.996 70.1797 124.869 73.7492 123.065 76.1582C121.51 78.2352 120.616 80.7255 119.923 83.1788C119.422 84.9511 119.216 88.6392 119.216 88.6392" stroke="#808080" stroke-width="0.681447"/>
<path d="M120.505 106.809L120.422 113.144" stroke="#808080" stroke-width="0.681447"/>
<path d="M139.105 106.652L139.189 113.379" stroke="#808080" stroke-width="0.681447"/>
<path d="M146.458 84.1939C146.458 84.1939 145.513 81.2116 144.709 79.8657C143.546 77.9193 142.194 75.9685 140.336 74.5755C137.454 72.4151 130.309 70.1797 130.309 70.1797C130.309 70.1797 135.435 73.7492 137.239 76.1582C138.795 78.2352 139.688 80.7255 140.382 83.1788C140.882 84.9511 141.088 88.6392 141.088 88.6392" stroke="#808080" stroke-width="0.681447"/>
<path fill-rule="evenodd" clip-rule="evenodd" d="M94.9766 211.262V229.301L100.222 231.037L103.822 231.905L104.028 211.262H94.9766Z" fill="#F2F2F2"/>
<path d="M79.6562 222.27C79.6562 222.27 84.5799 221.63 87.0561 221.485C92.9436 221.142 104.747 221.292 104.747 221.292L151.753 220.714C151.753 220.714 163.752 220.367 169.753 220.424C172.879 220.454 179.126 220.753 179.126 220.753" stroke="#808080" stroke-width="0.901499"/>
<path fill-rule="evenodd" clip-rule="evenodd" d="M109.617 233.221L111.452 182.143C111.452 182.143 112.393 175.559 114.212 172.823C115.905 170.276 118.483 168.101 121.386 166.84C123.765 165.806 129.173 165.805 129.173 165.805L129.903 235.036C123.009 235.265 116.331 234.348 109.617 233.221Z" fill="white" stroke="#808080" stroke-width="1.76652"/>
<path fill-rule="evenodd" clip-rule="evenodd" d="M111.585 183.827L118.607 183.689L118.523 180.581L117.165 181.872L117.248 177.934L118.523 176.809L119.666 174.43L119.786 183.67L122.408 183.706C122.408 183.706 123.772 184.284 123.779 184.86C123.785 185.412 122.491 185.994 122.491 185.994L119.894 185.93L119.978 195.226L118.69 192.653L117.285 191.601L117.187 187.673L118.499 190.235L118.366 186.096L111.434 186.225L111.585 183.827Z" fill="#B3B3B3" stroke="#808080" stroke-width="0.69021"/>
<path fill-rule="evenodd" clip-rule="evenodd" d="M110.35 217.537L118.607 217.63L118.524 214.522L117.165 215.814L117.249 211.876L118.524 210.75L119.666 208.371L119.787 217.611L122.408 217.648C122.408 217.648 123.772 218.225 123.779 218.801C123.786 219.353 122.492 219.936 122.492 219.936L119.895 219.871L119.978 229.167L118.691 226.594L117.285 225.542L117.187 221.614L118.499 224.177L118.367 220.037L110.199 219.935L110.35 217.537Z" fill="#B3B3B3" stroke="#808080" stroke-width="0.69021"/>
<path fill-rule="evenodd" clip-rule="evenodd" d="M148.438 233.002L146.603 182.146C146.603 182.146 145.715 175.426 143.843 172.657C142.174 170.191 139.566 168.189 136.736 166.97C134.432 165.978 129.221 165.871 129.221 165.871L128.151 235.038C135.875 235.268 144.339 233.844 148.438 233.002Z" fill="white" stroke="#808080" stroke-width="1.76652"/>
<path fill-rule="evenodd" clip-rule="evenodd" d="M146.47 183.827L139.448 183.689L139.531 180.581L140.89 181.872L140.807 177.934L139.531 176.809L138.389 174.43L138.268 183.67L135.647 183.706C135.647 183.706 134.283 184.284 134.276 184.86C134.269 185.412 135.563 185.994 135.563 185.994L138.16 185.93L138.077 195.226L139.364 192.653L140.77 191.601L140.868 187.673L139.556 190.235L139.689 186.096L146.621 186.225L146.47 183.827Z" fill="#B3B3B3" stroke="#808080" stroke-width="0.69021"/>
<path fill-rule="evenodd" clip-rule="evenodd" d="M147.642 217.6L139.453 217.63L139.536 214.522L140.895 215.814L140.811 211.876L139.536 210.75L138.394 208.371L138.273 217.611L135.652 217.648C135.652 217.648 134.288 218.225 134.281 218.801C134.274 219.353 135.568 219.936 135.568 219.936L138.165 219.871L138.082 229.167L139.369 226.594L140.775 225.542L140.873 221.614L139.561 224.177L139.693 220.037L147.793 219.999L147.642 217.6Z" fill="#B3B3B3" stroke="#808080" stroke-width="0.69021"/>
<path fill-rule="evenodd" clip-rule="evenodd" d="M181.582 211.549L180.926 219.345L185.465 216.161L191.225 210.793L181.582 211.549Z" fill="#F2F2F2"/>
<path d="M98.5781 210.977L98.6809 221.009" stroke="#808080" stroke-width="0.681447"/>
<path d="M84.5874 211.07L84.4844 221.778" stroke="#808080" stroke-width="0.681447"/>
<path d="M71.5526 211.066L71.5273 216.732" stroke="#808080" stroke-width="0.681447"/>
<path d="M158.643 210.977L158.477 220.488" stroke="#808080" stroke-width="0.681447"/>
<path d="M92.918 221.582L93.1238 228.624" stroke="#808080" stroke-width="0.681447"/>
<path d="M104.441 210.203L104.647 232.101" stroke="#808080" stroke-width="0.681447"/>
<path d="M152.574 210.684L152.658 231.874" stroke="#808080" stroke-width="0.681447"/>
<path d="M171.812 211.16L171.684 220.421" stroke="#808080" stroke-width="0.681447"/>
<path d="M164.922 220.621L164.82 228.255" stroke="#808080" stroke-width="0.681447"/>
<path d="M182.089 210.633L182.012 218.851" stroke="#808080" stroke-width="0.681447"/>
<path fill-rule="evenodd" clip-rule="evenodd" d="M197.363 47.0311L190.668 54.4361L197.363 61.8411L187.602 59.746L184.537 69.2461L181.471 59.746L171.711 61.8411L178.405 54.4361L171.711 47.0311L181.471 49.1262L184.537 39.6261L187.602 49.1262L197.363 47.0311Z" fill="white" stroke="#808080" stroke-width="0.706607"/>
<path d="M114.543 47.5423C116.453 49.8191 118.839 51.65 121.533 52.9061C124.227 54.1623 127.163 54.8132 130.135 54.8132C133.108 54.8132 136.044 54.1623 138.738 52.9061C141.431 51.65 143.818 49.8191 145.728 47.5423V65.5491C143.818 63.2722 141.431 61.4414 138.738 60.1853C136.044 58.9291 133.108 58.2782 130.135 58.2782C127.163 58.2782 124.227 58.9291 121.533 60.1853C118.839 61.4414 116.453 63.2722 114.543 65.5491V47.5423ZM139.139 40.9531C136.862 42.8637 135.031 45.2497 133.775 47.9435C132.519 50.6372 131.868 53.5734 131.868 56.5457C131.868 59.518 132.519 62.4542 133.775 65.1479C135.031 67.8417 136.862 70.2277 139.139 72.1382H121.132C123.409 70.2277 125.24 67.8417 126.496 65.1479C127.752 62.4542 128.403 59.518 128.403 56.5457C128.403 53.5734 127.752 50.6372 126.496 47.9435C125.24 45.2497 123.409 42.8637 121.132 40.9531H139.139Z" fill="white" stroke="#737373" stroke-width="1.1765"/>
<path fill-rule="evenodd" clip-rule="evenodd" d="M128.605 54.0469L128.693 55.3802L131.537 55.3585L131.653 54.3564L128.605 54.0469Z" fill="white"/>
<path fill-rule="evenodd" clip-rule="evenodd" d="M128.648 58.7522L128.702 57.8727L131.563 57.5078L131.646 58.8798L128.648 58.7522Z" fill="white"/>
<path fill-rule="evenodd" clip-rule="evenodd" d="M127.695 58.0391L129.045 58.0184L129.024 55.1736L127.753 55.0242L127.695 58.0391Z" fill="white"/>
<path fill-rule="evenodd" clip-rule="evenodd" d="M132.42 58.0664L131.541 58.0129L131.176 55.1514L132.514 55.019L132.42 58.0664Z" fill="white"/>
</svg>
