<svg width="256" height="256" viewBox="0 0 256 256" fill="none" xmlns="http://www.w3.org/2000/svg">
<path d="M212.839 26.0398L212.589 26.5058L212.185 26.1813C211.682 25.786 211.091 25.5031 210.846 25.4449C210.434 25.3367 210.309 25.345 210.263 25.3825C209.901 25.6945 210.114 28.3614 210.184 29.2351L210.247 30.0838L209.519 29.6636C209.082 29.4056 208.354 29.1435 207.875 29.0187C207.355 28.8731 207.222 28.923 207.18 28.9438C207.164 28.9563 207.114 29.0146 207.047 29.2642C206.86 30.0048 207.226 30.7952 207.613 31.6357C208.05 32.5551 208.495 33.4996 208.241 34.4981C208.017 35.3593 207.205 36.1373 205.924 35.8003C204.771 35.4924 204.26 34.5896 203.852 33.8574L203.735 33.6535C203.253 32.8172 202.209 31.7064 200.823 31.3319C200.307 31.1947 199.787 31.074 199.587 31.1905C199.35 31.3236 199.159 32.0143 198.968 32.7631C198.423 34.91 198.914 37.9138 200.145 40.0731L200.303 40.3435L200.112 40.5848C199.159 41.808 198.577 43.181 198.418 43.8092C198.056 45.203 198.14 45.3278 199.471 45.6856C201.181 46.1432 203.049 45.3902 204.53 44.7952C205.724 44.3126 206.664 43.9382 207.422 44.1379C208.553 44.4374 208.645 45.0116 208.645 45.7314C208.645 47.9738 205.787 50.2039 200.598 52.047C200.465 52.1052 198.331 52.7792 196.23 53.6571C193.33 54.8594 191.279 56.1076 190.097 57.5221L189.76 57.9299L189.415 57.5221C188.304 56.1741 186.528 55.0217 183.694 53.836C182.912 54.2062 182.022 54.6098 180.52 55.2838C182.284 56.0993 183.333 56.7649 183.333 57.7718C183.333 59.2695 182.039 60.0226 179.488 60.0226C176.938 60.0226 175.656 59.2695 175.656 57.7718C175.656 56.5985 177.133 55.833 179.226 54.8678C179.226 54.8678 181.789 53.7236 182.588 53.3117C183.382 52.8998 184.814 52.1385 184.814 52.1385C186.095 51.3979 187.672 50.3786 189.582 48.4232L189.902 48.0945L190.21 48.4273C192.003 50.3037 193.626 51.3522 194.99 52.1343L195.989 52.6585C197.087 52.1926 197.898 51.9263 198.527 51.7183C194.528 50.0624 191.171 47.6452 189.885 45.49C188.546 47.666 185.109 50.1207 181.061 51.7848C180.037 52.2633 177.599 53.0787 175.702 53.9108C173.164 55.005 170.718 56.715 169.457 58.3001L169.108 58.7328L168.767 58.2918C167.498 56.69 165.492 55.2339 162.838 53.9691C162.135 54.3144 161.39 54.6764 160.038 55.2755C161.702 56.0785 162.738 56.7691 162.738 57.7676C162.738 59.2737 161.407 60.0351 158.794 60.0351C156.173 60.0351 154.842 59.2737 154.842 57.7676C154.842 56.5611 156.31 55.8621 158.707 54.8137C158.707 54.8137 160.97 53.8276 161.765 53.4449C162.559 53.0579 164.003 52.2591 164.003 52.2591C165.28 51.5186 167.169 50.3204 168.75 48.444L169.083 48.0446L169.42 48.444C170.997 50.3204 172.898 51.5227 174.175 52.2591L175.39 52.8957C176.626 52.3631 177.52 52.0511 178.215 51.8015C173.456 50.0083 170.851 47.8698 170.851 45.7272C170.851 44.8452 171.425 43.959 172.528 43.959C173.31 43.959 174.125 44.5664 175.161 45.3403C176.464 46.3055 178.074 47.5079 179.838 47.5079C181.227 47.5079 181.323 47.3997 181.323 45.9643C181.323 45.3195 181.098 43.8383 180.478 42.403L180.354 42.1201L180.57 41.9037C182.305 40.1272 183.524 37.3522 183.524 35.1388C183.524 33.2707 183.524 33.2707 182.076 33.2707C180.653 33.2707 179.363 34.0737 178.689 34.7643L178.523 34.9266C177.953 35.5257 177.229 36.2746 176.039 36.2746C174.72 36.2746 174.121 35.3094 174.121 34.4107C174.121 33.3872 174.787 32.5801 175.432 31.8021C176.018 31.099 176.568 30.4208 176.568 29.6636C176.568 29.2684 176.568 29.2059 175.831 29.2059C175.328 29.2059 174.562 29.2767 174.075 29.4056L173.268 29.622L173.543 28.819C173.834 27.9952 174.7 25.4698 174.412 25.0704C174.387 25.0288 174.263 24.9831 173.842 24.9831C173.593 24.9831 172.948 25.0954 172.37 25.3533L171.887 25.5614L171.766 25.0496C171.496 23.9637 170.344 22.4868 169.083 22C167.822 22.4868 166.682 23.9637 166.412 25.0496L166.287 25.5614L165.809 25.3533C165.222 25.0954 164.581 24.9831 164.332 24.9831C163.916 24.9831 163.787 25.0288 163.762 25.0704C163.483 25.474 164.344 27.9994 164.627 28.819L164.906 29.622L164.103 29.4056C163.604 29.2725 162.842 29.2059 162.343 29.2059C161.598 29.2059 161.598 29.2684 161.598 29.6636C161.598 30.4208 162.156 31.099 162.746 31.8021C163.387 32.5842 164.049 33.3872 164.049 34.4107C164.049 35.3094 163.45 36.2746 162.135 36.2746C160.941 36.2746 160.221 35.5257 159.647 34.9266L159.485 34.7643C158.819 34.0737 157.525 33.2707 156.098 33.2707C154.659 33.2707 154.659 33.2707 154.659 35.1388C154.659 37.3522 155.865 40.1314 157.604 41.9037L157.816 42.1201L157.692 42.403C157.076 43.8383 156.847 45.3195 156.847 45.9643C156.847 47.3997 156.943 47.5079 158.336 47.5079C160.105 47.5079 161.715 46.3055 163.009 45.3403C164.045 44.5623 164.86 43.959 165.642 43.959C166.749 43.959 167.319 44.8452 167.319 45.7272C167.319 47.9322 164.565 50.1331 159.547 51.9513C158.694 52.2924 156.593 53.0039 154.862 53.6737C152.774 54.485 150.032 56.0868 148.838 57.4764L148.501 57.8758L148.177 57.4764C147.037 56.1325 145.26 54.9884 142.406 53.7985C141.62 54.173 140.754 54.5599 139.227 55.2464C141.037 56.0743 142.111 56.74 142.111 57.7634C142.111 59.307 140.867 60.0267 138.183 60.0267C135.5 60.0267 134.247 59.307 134.247 57.7634C134.247 56.5361 135.753 55.7664 137.884 54.8053C137.884 54.8053 140.317 53.7611 141.249 53.3034C142.185 52.8458 143.4 52.1302 143.4 52.1302C144.694 51.3896 146.263 50.3703 148.177 48.4149L148.489 48.0987L148.801 48.4149C150.431 50.0333 151.867 51.1441 153.585 52.1302L154.621 52.6835C155.732 52.205 156.543 51.9513 157.176 51.7308C153.152 50.0832 149.778 47.6535 148.484 45.49C147.136 47.6826 143.725 50.1373 139.71 51.7682C139.302 51.9554 136.394 52.9248 134.297 53.8276C131.393 55.0633 129.255 56.4903 128.044 58.0505L127.707 58.4874L127.357 58.0713C126.08 56.5527 124.137 55.1715 121.604 53.9566C120.917 54.2978 120.135 54.668 118.791 55.263C120.468 56.066 121.516 56.7691 121.516 57.7676C121.516 58.7994 120.834 60.0351 117.568 60.0351C114.306 60.0351 113.624 58.7952 113.624 57.7676C113.624 56.5611 115.088 55.8621 117.476 54.8137C117.476 54.8137 119.652 53.8568 120.672 53.3866C121.691 52.9123 122.781 52.2591 122.781 52.2591C124.062 51.5186 125.947 50.3204 127.528 48.444L127.869 48.0446L128.202 48.444C129.783 50.3204 131.668 51.5227 132.953 52.2591L134.014 52.8499C135.254 52.3174 136.182 51.9929 136.864 51.7557C132.188 49.9709 129.625 47.8574 129.625 45.7314C129.625 44.8493 130.207 43.9631 131.314 43.9631C132.096 43.9631 132.912 44.5706 133.948 45.3444C135.242 46.3097 136.852 47.512 138.616 47.512C140.005 47.512 140.101 47.4039 140.101 45.9685C140.101 45.3236 139.881 43.8425 139.261 42.4071L139.144 42.1242L139.352 41.9079C141.091 40.1314 142.302 37.3563 142.302 35.1429C142.302 33.2749 142.302 33.2749 140.862 33.2749C139.435 33.2749 138.137 34.0779 137.467 34.7685L137.309 34.9308C136.731 35.5299 136.011 36.2788 134.813 36.2788C133.503 36.2788 132.903 35.3135 132.903 34.4149C132.903 33.3914 133.569 32.5842 134.21 31.8062C134.796 31.1031 135.346 30.425 135.346 29.6678C135.346 29.2725 135.346 29.2101 134.609 29.2101C134.114 29.2101 133.353 29.2808 132.858 29.4098L132.051 29.6262L132.325 28.8232C132.604 27.9994 133.469 25.474 133.19 25.0746C133.166 25.033 133.045 24.9872 132.625 24.9872C132.367 24.9872 131.734 25.0996 131.144 25.3575L130.673 25.5655L130.544 25.0538C130.274 23.9679 129.126 22.4909 127.869 22.0042C126.613 22.4909 125.46 23.9679 125.19 25.0538L125.061 25.5655L124.587 25.3575C124.004 25.0996 123.359 24.9872 123.105 24.9872C122.689 24.9872 122.565 25.033 122.544 25.0746C122.261 25.4782 123.122 28.0036 123.409 28.8232L123.688 29.6262L122.877 29.4098C122.386 29.2767 121.62 29.2101 121.125 29.2101C120.385 29.2101 120.385 29.2725 120.385 29.6678C120.385 30.425 120.938 31.1031 121.516 31.8062C122.165 32.5884 122.827 33.3914 122.827 34.4149C122.827 35.3135 122.232 36.2788 120.917 36.2788C119.715 36.2788 119.003 35.5299 118.417 34.9308L118.267 34.7685C117.589 34.0779 116.295 33.2749 114.88 33.2749C113.432 33.2749 113.432 33.2749 113.432 35.1429C113.432 37.3563 114.647 40.1355 116.378 41.9079L116.594 42.1242L116.474 42.4071C115.858 43.8425 115.629 45.3236 115.629 45.9685C115.629 47.4039 115.729 47.512 117.114 47.512C118.883 47.512 120.484 46.3097 121.787 45.3444C122.823 44.5664 123.646 43.9631 124.429 43.9631C125.527 43.9631 126.105 44.8493 126.105 45.7314C126.105 48.0529 123.06 50.362 117.535 52.2342C117.535 52.2342 115.059 53.0829 113.649 53.6779C110.824 54.8594 108.744 56.1284 107.558 57.5596L107.212 57.9715L106.875 57.5596C105.76 56.1825 103.959 55.0217 101.08 53.8152C100.331 54.1896 99.5322 54.5848 97.9554 55.288C99.7195 56.1034 100.764 56.7733 100.764 57.7676C100.764 59.2862 99.4948 60.0226 96.8945 60.0226C94.29 60.0226 93.0294 59.2862 93.0294 57.7676C93.0294 56.5444 94.5105 55.7831 96.5991 54.8428C96.5991 54.8428 98.9872 53.7902 100.036 53.2909C101.08 52.7834 102.187 52.1343 102.187 52.1343C103.472 51.3938 105.049 50.3744 106.955 48.419L107.275 48.1028L107.583 48.419C109.218 50.0374 110.649 51.1483 112.359 52.1343L113.345 52.6877C114.448 52.2217 115.284 51.9429 115.929 51.7224C111.91 50.0707 108.552 47.6493 107.267 45.49C105.906 47.7034 102.482 50.1581 98.4505 51.7932C97.1358 52.3382 95.7004 52.7459 93.0128 53.8526C90.3126 54.9718 88.0119 56.5153 86.8012 58.0838L86.4725 58.5165L86.1147 58.1046C84.8749 56.6318 82.8779 55.2505 80.2193 54.0024C79.5287 54.3394 78.759 54.7013 77.4193 55.3046C79.0544 56.0951 80.0862 56.7816 80.0862 57.7718C80.0862 59.3153 78.8422 60.0351 76.1753 60.0351C73.5168 60.0351 72.2686 59.3153 72.2686 57.7718C72.2686 56.5902 73.7082 55.8829 76.088 54.8386C76.088 54.8386 78.4636 53.8152 79.1376 53.4906C79.8157 53.1661 81.4259 52.2633 81.4259 52.2633C82.7073 51.5227 84.592 50.3245 86.1771 48.4481L86.51 48.0487L86.8469 48.4481C88.4238 50.3245 90.3085 51.5269 91.5982 52.2633L92.7091 52.8707C93.9447 52.334 94.8725 52.022 95.5673 51.7848C90.8493 50 88.274 47.874 88.274 45.7397C88.274 44.8577 88.8523 43.9715 89.959 43.9715C90.7328 43.9715 91.5566 44.5789 92.5926 45.3527C93.8865 46.318 95.4883 47.5204 97.2565 47.5204C98.6585 47.5204 98.7459 47.4122 98.7459 45.9768C98.7459 45.3319 98.5212 43.8508 97.9055 42.4155L97.7765 42.1325L97.997 41.9162C99.7361 40.1397 100.943 37.3646 100.943 35.1513C100.943 33.2832 100.943 33.2832 99.4948 33.2832C98.0761 33.2832 96.7822 34.0862 96.1123 34.7768L95.9501 34.9391C95.3718 35.5382 94.6562 36.2871 93.4621 36.2871C92.1432 36.2871 91.5483 35.3218 91.5483 34.4232C91.5483 33.3997 92.214 32.5926 92.8547 31.8146C93.433 31.1114 93.9947 30.4333 93.9947 29.6761C93.9947 29.2808 93.9946 29.2184 93.2541 29.2184C92.759 29.2184 91.9935 29.2892 91.4984 29.4181L90.6954 29.6345L90.9658 28.8315C91.2487 28.0077 92.1099 25.4823 91.8354 25.0829C91.8104 25.0413 91.6897 24.9955 91.2695 24.9955C91.0116 24.9955 90.3709 25.1079 89.7842 25.3658L89.3183 25.5738L89.1893 25.0621C88.9147 23.9762 87.7664 22.4993 86.51 22.0125C85.2535 22.4993 84.1094 23.9762 83.8389 25.0621L83.7058 25.5738L83.2315 25.3658C82.649 25.1079 82.0083 24.9955 81.7587 24.9955C81.3343 24.9955 81.2095 25.0413 81.1762 25.0829C80.9016 25.4865 81.7712 28.0119 82.0582 28.8315L82.3328 29.6345L81.5299 29.4181C81.0306 29.285 80.2651 29.2184 79.77 29.2184C79.0253 29.2184 79.0253 29.2808 79.0253 29.6761C79.0253 30.4333 79.5786 31.1114 80.1694 31.8146C80.8059 32.5967 81.4799 33.3997 81.4799 34.4232C81.4799 35.3218 80.8725 36.2871 79.5578 36.2871C78.3637 36.2871 77.6481 35.5382 77.074 34.9391L76.9076 34.7768C76.2294 34.0862 74.9438 33.2832 73.5209 33.2832C72.0773 33.2832 72.0773 33.2832 72.0773 35.1513C72.0773 37.3646 73.2921 40.1438 75.0229 41.9162L75.2434 42.1325L75.1144 42.4155C74.4987 43.8508 74.2698 45.3319 74.2698 45.9768C74.2698 47.4122 74.3697 47.5204 75.7593 47.5204C77.5233 47.5204 79.1334 46.318 80.4273 45.3527C81.4633 44.5747 82.2829 43.9715 83.0651 43.9715C84.1634 43.9715 84.7417 44.8577 84.7417 45.7397C84.7417 47.9447 82 50.1373 76.9783 51.9637C76.1296 52.2966 75.2267 52.5129 72.9593 53.3991L72.2354 53.7028C69.3355 54.9135 67.4383 56.1159 66.2651 57.4889L65.9281 57.8841L65.5869 57.4847C64.4386 56.1242 62.6288 54.9759 59.7456 53.7694C59.0259 54.1105 58.2021 54.4933 56.7334 55.134C58.5349 56.0535 59.5584 56.8315 59.5584 57.7759C59.5584 58.866 58.2811 60.0392 55.477 60.0392C52.6021 60.0392 51.5869 58.8701 51.5869 57.7759C51.5869 56.4154 53.1055 55.6582 55.427 54.6597C55.427 54.6597 58.0731 53.5447 58.6389 53.2701C59.2089 52.9955 60.7441 52.1426 60.7441 52.1426C62.1004 51.3605 63.7189 50.3162 65.5079 48.4357L65.8199 48.1028L66.1444 48.4315C68.0541 50.3869 69.6267 51.4062 70.9123 52.1468L72.0273 52.7542C73.1382 52.2799 73.9245 51.9804 74.5694 51.7557C70.567 50.0915 67.1845 47.6577 65.8407 45.5025C64.4927 47.7658 60.8689 50.3204 56.6045 51.9679C56.3923 52.0511 53.871 52.9373 51.9198 53.7319C48.9783 55.0591 47.8342 56.378 47.8342 58.4458C47.8342 61.1501 49.9477 62.6062 51.9322 62.6062H203.781C205.77 62.6062 207.883 61.1501 207.883 58.4458C207.883 56.4196 206.785 55.1091 203.968 53.8152C203.278 54.148 202.458 54.5058 201.218 55.0716C203.003 55.8912 204.135 56.6068 204.135 57.7801C204.135 59.3236 202.895 60.0434 200.237 60.0434C197.524 60.0434 196.151 59.2779 196.151 57.7801C196.151 56.6817 197.536 55.808 199.933 54.668C199.933 54.668 202.749 53.3617 203.415 53.0496C204.085 52.7334 205.849 51.8681 205.849 51.8681C209.831 49.8086 210.862 47.9406 210.862 42.7982V42.74C210.862 42.74 215.431 24.879 215.714 23.7807C214.341 23.9346 213.275 25.216 212.83 26.044M47.0853 45.7438C47.0853 45.0241 47.1768 44.4499 48.3043 44.1504C49.0615 43.9507 50.0059 44.3251 51.2042 44.8077C52.6894 45.4068 54.545 46.1557 56.2591 45.6981C56.9623 45.5108 57.3076 45.3444 57.4241 45.1447C57.5406 44.9533 57.5031 44.5664 57.3159 43.8217C57.1578 43.1976 56.5712 41.8205 55.6184 40.5973L55.4229 40.356L55.581 40.0856C56.825 37.9263 57.3076 34.9224 56.7667 32.7756C56.5712 32.0309 56.3756 31.3403 56.1385 31.203C55.9429 31.0823 55.4187 31.2071 54.8987 31.3444C53.5257 31.7147 52.4773 32.8256 51.9905 33.666L51.8823 33.8698C51.4663 34.5938 50.9587 35.5007 49.8062 35.8086C48.5331 36.1456 47.7135 35.3676 47.493 34.5064C47.2392 33.5079 47.6844 32.5634 48.1088 31.644C48.5082 30.8036 48.8743 30.0131 48.6829 29.2725C48.6163 29.0187 48.5664 28.9605 48.5456 28.9522C48.5165 28.9314 48.3792 28.8814 47.8467 29.027C47.3682 29.1519 46.6568 29.4098 46.2033 29.6719L45.4793 30.0921L45.5418 29.2434C45.6208 28.3655 45.833 25.7028 45.4627 25.3908C45.4253 25.3575 45.2921 25.3492 44.8886 25.4532C44.6473 25.5114 44.0523 25.7944 43.553 26.1896L43.137 26.5141L42.8874 26.0481C42.4464 25.2202 41.3771 23.9429 40 23.7848C40.2788 24.8832 44.8636 42.7441 44.8636 42.7441V42.8024C44.8636 47.9447 45.8871 49.8128 49.8645 51.8722L51.7242 52.7917C52.8392 52.3049 53.6505 51.9929 54.2871 51.7557C49.6315 49.975 47.0853 47.8615 47.0853 45.7438Z" fill="#EFCF4D"/>
<path d="M212.839 26.0398L212.589 26.5058L212.185 26.1813C211.682 25.786 211.091 25.5031 210.846 25.4449C210.434 25.3367 210.309 25.345 210.263 25.3825C209.901 25.6945 210.114 28.3614 210.184 29.2351L210.247 30.0838L209.519 29.6636C209.082 29.4056 208.354 29.1435 207.875 29.0187C207.355 28.8731 207.222 28.923 207.18 28.9438C207.164 28.9563 207.114 29.0146 207.047 29.2642C206.86 30.0048 207.226 30.7952 207.613 31.6357C208.05 32.5551 208.495 33.4996 208.241 34.4981C208.017 35.3593 207.205 36.1373 205.924 35.8003C204.771 35.4924 204.26 34.5896 203.852 33.8574L203.735 33.6535C203.253 32.8172 202.209 31.7064 200.823 31.3319C200.307 31.1947 199.787 31.074 199.587 31.1905C199.35 31.3236 199.159 32.0143 198.968 32.7631C198.423 34.91 198.914 37.9138 200.145 40.0731L200.303 40.3435L200.112 40.5848C199.159 41.808 198.577 43.181 198.418 43.8092C198.056 45.203 198.14 45.3278 199.471 45.6856C201.181 46.1432 203.049 45.3902 204.53 44.7952C205.724 44.3126 206.664 43.9382 207.422 44.1379C208.553 44.4374 208.645 45.0116 208.645 45.7314C208.645 47.9738 205.787 50.2039 200.598 52.047C200.465 52.1052 198.331 52.7792 196.23 53.6571C193.33 54.8594 191.279 56.1076 190.097 57.5221L189.76 57.9299L189.415 57.5221C188.304 56.1741 186.528 55.0217 183.694 53.836C182.912 54.2062 182.022 54.6098 180.52 55.2838C182.284 56.0993 183.333 56.7649 183.333 57.7718C183.333 59.2695 182.039 60.0226 179.488 60.0226C176.938 60.0226 175.656 59.2695 175.656 57.7718C175.656 56.5985 177.133 55.833 179.226 54.8678C179.226 54.8678 181.789 53.7236 182.588 53.3117C183.382 52.8998 184.814 52.1385 184.814 52.1385C186.095 51.3979 187.672 50.3786 189.582 48.4232L189.902 48.0945L190.21 48.4273C192.003 50.3037 193.626 51.3522 194.99 52.1343L195.989 52.6585C197.087 52.1926 197.898 51.9263 198.527 51.7183C194.528 50.0624 191.171 47.6452 189.885 45.49C188.546 47.666 185.109 50.1207 181.061 51.7848C180.037 52.2633 177.599 53.0787 175.702 53.9108C173.164 55.005 170.718 56.715 169.457 58.3001L169.108 58.7328L168.767 58.2918C167.498 56.69 165.492 55.2339 162.838 53.9691C162.135 54.3144 161.39 54.6764 160.038 55.2755C161.702 56.0785 162.738 56.7691 162.738 57.7676C162.738 59.2737 161.407 60.0351 158.794 60.0351C156.173 60.0351 154.842 59.2737 154.842 57.7676C154.842 56.5611 156.31 55.8621 158.707 54.8137C158.707 54.8137 160.97 53.8276 161.765 53.4449C162.559 53.0579 164.003 52.2591 164.003 52.2591C165.28 51.5186 167.169 50.3204 168.75 48.444L169.083 48.0446L169.42 48.444C170.997 50.3204 172.898 51.5227 174.175 52.2591L175.39 52.8957C176.626 52.3631 177.52 52.0511 178.215 51.8015C173.456 50.0083 170.851 47.8698 170.851 45.7272C170.851 44.8452 171.425 43.959 172.528 43.959C173.31 43.959 174.125 44.5664 175.161 45.3403C176.464 46.3055 178.074 47.5079 179.838 47.5079C181.227 47.5079 181.323 47.3997 181.323 45.9643C181.323 45.3195 181.098 43.8383 180.478 42.403L180.354 42.1201L180.57 41.9037C182.305 40.1272 183.524 37.3522 183.524 35.1388C183.524 33.2707 183.524 33.2707 182.076 33.2707C180.653 33.2707 179.363 34.0737 178.689 34.7643L178.523 34.9266C177.953 35.5257 177.229 36.2746 176.039 36.2746C174.72 36.2746 174.121 35.3094 174.121 34.4107C174.121 33.3872 174.787 32.5801 175.432 31.8021C176.018 31.099 176.568 30.4208 176.568 29.6636C176.568 29.2684 176.568 29.2059 175.831 29.2059C175.328 29.2059 174.562 29.2767 174.075 29.4056L173.268 29.622L173.543 28.819C173.834 27.9952 174.7 25.4698 174.412 25.0704C174.387 25.0288 174.263 24.9831 173.842 24.9831C173.593 24.9831 172.948 25.0954 172.37 25.3533L171.887 25.5614L171.766 25.0496C171.496 23.9637 170.344 22.4868 169.083 22C167.822 22.4868 166.682 23.9637 166.412 25.0496L166.287 25.5614L165.809 25.3533C165.222 25.0954 164.581 24.9831 164.332 24.9831C163.916 24.9831 163.787 25.0288 163.762 25.0704C163.483 25.474 164.344 27.9994 164.627 28.819L164.906 29.622L164.103 29.4056C163.604 29.2725 162.842 29.2059 162.343 29.2059C161.598 29.2059 161.598 29.2684 161.598 29.6636C161.598 30.4208 162.156 31.099 162.746 31.8021C163.387 32.5842 164.049 33.3872 164.049 34.4107C164.049 35.3094 163.45 36.2746 162.135 36.2746C160.941 36.2746 160.221 35.5257 159.647 34.9266L159.485 34.7643C158.819 34.0737 157.525 33.2707 156.098 33.2707C154.659 33.2707 154.659 33.2707 154.659 35.1388C154.659 37.3522 155.865 40.1314 157.604 41.9037L157.816 42.1201L157.692 42.403C157.076 43.8383 156.847 45.3195 156.847 45.9643C156.847 47.3997 156.943 47.5079 158.336 47.5079C160.105 47.5079 161.715 46.3055 163.009 45.3403C164.045 44.5623 164.86 43.959 165.642 43.959C166.749 43.959 167.319 44.8452 167.319 45.7272C167.319 47.9322 164.565 50.1331 159.547 51.9513C158.694 52.2924 156.593 53.0039 154.862 53.6737C152.774 54.485 150.032 56.0868 148.838 57.4764L148.501 57.8758L148.177 57.4764C147.037 56.1325 145.26 54.9884 142.406 53.7985C141.62 54.173 140.754 54.5599 139.227 55.2464C141.037 56.0743 142.111 56.74 142.111 57.7634C142.111 59.307 140.867 60.0267 138.183 60.0267C135.5 60.0267 134.247 59.307 134.247 57.7634C134.247 56.5361 135.753 55.7664 137.884 54.8053C137.884 54.8053 140.317 53.7611 141.249 53.3034C142.185 52.8458 143.4 52.1302 143.4 52.1302C144.694 51.3896 146.263 50.3703 148.177 48.4149L148.489 48.0987L148.801 48.4149C150.431 50.0333 151.867 51.1441 153.585 52.1302L154.621 52.6835C155.732 52.205 156.543 51.9513 157.176 51.7308C153.152 50.0832 149.778 47.6535 148.484 45.49C147.136 47.6826 143.725 50.1373 139.71 51.7682C139.302 51.9554 136.394 52.9248 134.297 53.8276C131.393 55.0633 129.255 56.4903 128.044 58.0505L127.707 58.4874L127.357 58.0713C126.08 56.5527 124.137 55.1715 121.604 53.9566C120.917 54.2978 120.135 54.668 118.791 55.263C120.468 56.066 121.516 56.7691 121.516 57.7676C121.516 58.7994 120.834 60.0351 117.568 60.0351C114.306 60.0351 113.624 58.7952 113.624 57.7676C113.624 56.5611 115.088 55.8621 117.476 54.8137C117.476 54.8137 119.652 53.8568 120.672 53.3866C121.691 52.9123 122.781 52.2591 122.781 52.2591C124.062 51.5186 125.947 50.3204 127.528 48.444L127.869 48.0446L128.202 48.444C129.783 50.3204 131.668 51.5227 132.953 52.2591L134.014 52.8499C135.254 52.3174 136.182 51.9929 136.864 51.7557C132.188 49.9709 129.625 47.8574 129.625 45.7314C129.625 44.8493 130.207 43.9631 131.314 43.9631C132.096 43.9631 132.912 44.5706 133.948 45.3444C135.242 46.3097 136.852 47.512 138.616 47.512C140.005 47.512 140.101 47.4039 140.101 45.9685C140.101 45.3236 139.881 43.8425 139.261 42.4071L139.144 42.1242L139.352 41.9079C141.091 40.1314 142.302 37.3563 142.302 35.1429C142.302 33.2749 142.302 33.2749 140.862 33.2749C139.435 33.2749 138.137 34.0779 137.467 34.7685L137.309 34.9308C136.731 35.5299 136.011 36.2788 134.813 36.2788C133.503 36.2788 132.903 35.3135 132.903 34.4149C132.903 33.3914 133.569 32.5842 134.21 31.8062C134.796 31.1031 135.346 30.425 135.346 29.6678C135.346 29.2725 135.346 29.2101 134.609 29.2101C134.114 29.2101 133.353 29.2808 132.858 29.4098L132.051 29.6262L132.325 28.8232C132.604 27.9994 133.469 25.474 133.19 25.0746C133.166 25.033 133.045 24.9872 132.625 24.9872C132.367 24.9872 131.734 25.0996 131.144 25.3575L130.673 25.5655L130.544 25.0538C130.274 23.9679 129.126 22.4909 127.869 22.0042C126.613 22.4909 125.46 23.9679 125.19 25.0538L125.061 25.5655L124.587 25.3575C124.004 25.0996 123.359 24.9872 123.105 24.9872C122.689 24.9872 122.565 25.033 122.544 25.0746C122.261 25.4782 123.122 28.0036 123.409 28.8232L123.688 29.6262L122.877 29.4098C122.386 29.2767 121.62 29.2101 121.125 29.2101C120.385 29.2101 120.385 29.2725 120.385 29.6678C120.385 30.425 120.938 31.1031 121.516 31.8062C122.165 32.5884 122.827 33.3914 122.827 34.4149C122.827 35.3135 122.232 36.2788 120.917 36.2788C119.715 36.2788 119.003 35.5299 118.417 34.9308L118.267 34.7685C117.589 34.0779 116.295 33.2749 114.88 33.2749C113.432 33.2749 113.432 33.2749 113.432 35.1429C113.432 37.3563 114.647 40.1355 116.378 41.9079L116.594 42.1242L116.474 42.4071C115.858 43.8425 115.629 45.3236 115.629 45.9685C115.629 47.4039 115.729 47.512 117.114 47.512C118.883 47.512 120.484 46.3097 121.787 45.3444C122.823 44.5664 123.646 43.9631 124.429 43.9631C125.527 43.9631 126.105 44.8493 126.105 45.7314C126.105 48.0529 123.06 50.362 117.535 52.2342C117.535 52.2342 115.059 53.0829 113.649 53.6779C110.824 54.8594 108.744 56.1284 107.558 57.5596L107.212 57.9715L106.875 57.5596C105.76 56.1825 103.959 55.0217 101.08 53.8152C100.331 54.1896 99.5322 54.5848 97.9554 55.288C99.7195 56.1034 100.764 56.7733 100.764 57.7676C100.764 59.2862 99.4948 60.0226 96.8945 60.0226C94.29 60.0226 93.0294 59.2862 93.0294 57.7676C93.0294 56.5444 94.5105 55.7831 96.5991 54.8428C96.5991 54.8428 98.9872 53.7902 100.036 53.2909C101.08 52.7834 102.187 52.1343 102.187 52.1343C103.472 51.3938 105.049 50.3744 106.955 48.419L107.275 48.1028L107.583 48.419C109.218 50.0374 110.649 51.1483 112.359 52.1343L113.345 52.6877C114.448 52.2217 115.284 51.9429 115.929 51.7224C111.91 50.0707 108.552 47.6493 107.267 45.49C105.906 47.7034 102.482 50.1581 98.4505 51.7932C97.1358 52.3382 95.7004 52.7459 93.0128 53.8526C90.3126 54.9718 88.0119 56.5153 86.8012 58.0838L86.4725 58.5165L86.1147 58.1046C84.8749 56.6318 82.8779 55.2505 80.2193 54.0024C79.5287 54.3394 78.759 54.7013 77.4193 55.3046C79.0544 56.0951 80.0862 56.7816 80.0862 57.7718C80.0862 59.3153 78.8422 60.0351 76.1753 60.0351C73.5168 60.0351 72.2686 59.3153 72.2686 57.7718C72.2686 56.5902 73.7082 55.8829 76.088 54.8386C76.088 54.8386 78.4636 53.8152 79.1376 53.4906C79.8157 53.1661 81.4259 52.2633 81.4259 52.2633C82.7073 51.5227 84.592 50.3245 86.1771 48.4481L86.51 48.0487L86.8469 48.4481C88.4238 50.3245 90.3085 51.5269 91.5982 52.2633L92.7091 52.8707C93.9447 52.334 94.8725 52.022 95.5673 51.7848C90.8493 50 88.274 47.874 88.274 45.7397C88.274 44.8577 88.8523 43.9715 89.959 43.9715C90.7328 43.9715 91.5566 44.5789 92.5926 45.3527C93.8865 46.318 95.4883 47.5204 97.2565 47.5204C98.6585 47.5204 98.7459 47.4122 98.7459 45.9768C98.7459 45.3319 98.5212 43.8508 97.9055 42.4155L97.7765 42.1325L97.997 41.9162C99.7361 40.1397 100.943 37.3646 100.943 35.1513C100.943 33.2832 100.943 33.2832 99.4948 33.2832C98.0761 33.2832 96.7822 34.0862 96.1123 34.7768L95.9501 34.9391C95.3718 35.5382 94.6562 36.2871 93.4621 36.2871C92.1432 36.2871 91.5483 35.3218 91.5483 34.4232C91.5483 33.3997 92.214 32.5926 92.8547 31.8146C93.433 31.1114 93.9947 30.4333 93.9947 29.6761C93.9947 29.2808 93.9946 29.2184 93.2541 29.2184C92.759 29.2184 91.9935 29.2892 91.4984 29.4181L90.6954 29.6345L90.9658 28.8315C91.2487 28.0077 92.1099 25.4823 91.8354 25.0829C91.8104 25.0413 91.6897 24.9955 91.2695 24.9955C91.0116 24.9955 90.3709 25.1079 89.7842 25.3658L89.3183 25.5738L89.1893 25.0621C88.9147 23.9762 87.7664 22.4993 86.51 22.0125C85.2535 22.4993 84.1094 23.9762 83.8389 25.0621L83.7058 25.5738L83.2315 25.3658C82.649 25.1079 82.0083 24.9955 81.7587 24.9955C81.3343 24.9955 81.2095 25.0413 81.1762 25.0829C80.9016 25.4865 81.7712 28.0119 82.0582 28.8315L82.3328 29.6345L81.5299 29.4181C81.0306 29.285 80.2651 29.2184 79.77 29.2184C79.0253 29.2184 79.0253 29.2808 79.0253 29.6761C79.0253 30.4333 79.5786 31.1114 80.1694 31.8146C80.8059 32.5967 81.4799 33.3997 81.4799 34.4232C81.4799 35.3218 80.8725 36.2871 79.5578 36.2871C78.3637 36.2871 77.6481 35.5382 77.074 34.9391L76.9076 34.7768C76.2294 34.0862 74.9438 33.2832 73.5209 33.2832C72.0773 33.2832 72.0773 33.2832 72.0773 35.1513C72.0773 37.3646 73.2921 40.1438 75.0229 41.9162L75.2434 42.1325L75.1144 42.4155C74.4987 43.8508 74.2698 45.3319 74.2698 45.9768C74.2698 47.4122 74.3697 47.5204 75.7593 47.5204C77.5233 47.5204 79.1334 46.318 80.4273 45.3527C81.4633 44.5747 82.2829 43.9715 83.0651 43.9715C84.1634 43.9715 84.7417 44.8577 84.7417 45.7397C84.7417 47.9447 82 50.1373 76.9783 51.9637C76.1296 52.2966 75.2267 52.5129 72.9593 53.3991L72.2354 53.7028C69.3355 54.9135 67.4383 56.1159 66.2651 57.4889L65.9281 57.8841L65.5869 57.4847C64.4386 56.1242 62.6288 54.9759 59.7456 53.7694C59.0259 54.1105 58.2021 54.4933 56.7334 55.134C58.5349 56.0535 59.5584 56.8315 59.5584 57.7759C59.5584 58.866 58.2811 60.0392 55.477 60.0392C52.6021 60.0392 51.5869 58.8701 51.5869 57.7759C51.5869 56.4154 53.1055 55.6582 55.427 54.6597C55.427 54.6597 58.0731 53.5447 58.6389 53.2701C59.2089 52.9955 60.7441 52.1426 60.7441 52.1426C62.1004 51.3605 63.7189 50.3162 65.5079 48.4357L65.8199 48.1028L66.1444 48.4315C68.0541 50.3869 69.6267 51.4062 70.9123 52.1468L72.0273 52.7542C73.1382 52.2799 73.9245 51.9804 74.5694 51.7557C70.567 50.0915 67.1845 47.6577 65.8407 45.5025C64.4927 47.7658 60.8689 50.3204 56.6045 51.9679C56.3923 52.0511 53.871 52.9373 51.9198 53.7319C48.9783 55.0591 47.8342 56.378 47.8342 58.4458C47.8342 61.1501 49.9477 62.6062 51.9322 62.6062H203.781C205.77 62.6062 207.883 61.1501 207.883 58.4458C207.883 56.4196 206.785 55.1091 203.968 53.8152C203.278 54.148 202.458 54.5058 201.218 55.0716C203.003 55.8912 204.135 56.6068 204.135 57.7801C204.135 59.3236 202.895 60.0434 200.237 60.0434C197.524 60.0434 196.151 59.2779 196.151 57.7801C196.151 56.6817 197.536 55.808 199.933 54.668C199.933 54.668 202.749 53.3617 203.415 53.0496C204.085 52.7334 205.849 51.8681 205.849 51.8681C209.831 49.8086 210.862 47.9406 210.862 42.7982V42.74C210.862 42.74 215.431 24.879 215.714 23.7807C214.341 23.9346 213.275 25.216 212.83 26.044M47.0853 45.7438C47.0853 45.0241 47.1768 44.4499 48.3043 44.1504C49.0615 43.9507 50.0059 44.3251 51.2042 44.8077C52.6894 45.4068 54.545 46.1557 56.2591 45.6981C56.9623 45.5108 57.3076 45.3444 57.4241 45.1447C57.5406 44.9533 57.5031 44.5664 57.3159 43.8217C57.1578 43.1976 56.5712 41.8205 55.6184 40.5973L55.4229 40.356L55.581 40.0856C56.825 37.9263 57.3076 34.9224 56.7667 32.7756C56.5712 32.0309 56.3756 31.3403 56.1385 31.203C55.9429 31.0823 55.4187 31.2071 54.8987 31.3444C53.5257 31.7147 52.4773 32.8256 51.9905 33.666L51.8823 33.8698C51.4663 34.5938 50.9587 35.5007 49.8062 35.8086C48.5331 36.1456 47.7135 35.3676 47.493 34.5064C47.2392 33.5079 47.6844 32.5634 48.1088 31.644C48.5082 30.8036 48.8743 30.0131 48.6829 29.2725C48.6163 29.0187 48.5664 28.9605 48.5456 28.9522C48.5165 28.9314 48.3792 28.8814 47.8467 29.027C47.3682 29.1519 46.6568 29.4098 46.2033 29.6719L45.4793 30.0921L45.5418 29.2434C45.6208 28.3655 45.833 25.7028 45.4627 25.3908C45.4253 25.3575 45.2921 25.3492 44.8886 25.4532C44.6473 25.5114 44.0523 25.7944 43.553 26.1896L43.137 26.5141L42.8874 26.0481C42.4464 25.2202 41.3771 23.9429 40 23.7848C40.2788 24.8832 44.8636 42.7441 44.8636 42.7441V42.8024C44.8636 47.9447 45.8871 49.8128 49.8645 51.8722L51.7242 52.7917C52.8392 52.3049 53.6505 51.9929 54.2871 51.7557C49.6315 49.975 47.0853 47.8615 47.0853 45.7438Z" stroke="black" stroke-width="1.99703"/>
<path d="M189.897 40.6562C188.665 40.6562 187.663 41.6797 187.663 42.932C187.663 44.1885 188.665 45.2078 189.897 45.2078C191.128 45.2078 192.135 44.1885 192.135 42.932C192.135 41.6797 191.128 40.6562 189.897 40.6562ZM148.488 40.6562C147.256 40.6562 146.254 41.6797 146.254 42.932C146.254 44.1885 147.256 45.2078 148.488 45.2078C149.719 45.2078 150.726 44.1885 150.726 42.932C150.726 41.6797 149.719 40.6562 148.488 40.6562ZM107.274 40.6562C106.038 40.6562 105.04 41.6797 105.04 42.932C105.04 44.1885 106.038 45.2078 107.274 45.2078C108.497 45.2078 109.496 44.1885 109.496 42.932C109.496 41.6797 108.497 40.6562 107.274 40.6562ZM65.8399 40.6562C64.6126 40.6562 63.6016 41.6797 63.6016 42.932C63.6016 44.1885 64.6126 45.2078 65.8399 45.2078C67.0714 45.2078 68.0616 44.1885 68.0616 42.932C68.0616 41.6797 67.0714 40.6562 65.8399 40.6562Z" fill="#00529F" stroke="black" stroke-width="1.99703"/>
<path d="M54.1748 156.04C54.1748 203.128 86.56 234.465 127.89 234.465C169.204 234.465 201.597 203.128 201.597 156.04L203.815 64.3594H51.9531L54.1748 156.04Z" fill="#00529F" stroke="black" stroke-width="2.37147"/>
<path d="M54.1748 156.04C54.1748 203.128 86.56 234.465 127.89 234.465C169.204 234.465 201.597 203.128 201.597 156.04L203.815 64.3594H51.9531L54.1748 156.04Z" fill="#00529F"/>
<path d="M176.472 141.912L173.747 140.315C168.035 136.799 159.556 125.612 159.556 117.382C159.556 116.887 159.577 116.396 159.601 115.922H153.947C153.54 117.336 152.812 119.088 151.672 120.598C151.006 121.476 150.153 123.735 150.153 126.722C150.153 127.205 150.182 127.7 150.228 128.216L150.319 129.21L149.358 129.427C147.965 129.735 146.438 129.427 145.169 128.882C145.198 130.409 145.905 132.089 146.463 132.822L146.979 133.504L146.475 134.199C146.042 134.798 145.481 135.326 144.836 135.767C146.034 137.086 147.199 138.13 148.256 138.838C150.952 140.614 153.831 142.262 156.618 143.843C164.889 148.544 172.707 152.996 172.707 160.073C172.707 161.325 172.461 162.407 172.016 163.285C173.135 163.95 174.259 164.225 175.952 164.225C182.164 164.225 186.678 159.586 186.678 153.196C186.678 147.729 181.494 144.775 176.472 141.912Z" fill="#00529F"/>
<path d="M127.79 91.5092C127.54 90.9601 127.024 90.2445 126.558 89.8076C125.522 88.8299 124.241 88.3057 123.313 88.0977C123.146 88.963 122.747 89.9283 122.031 90.7604C121.682 91.1764 121.416 91.6174 121.133 91.8254C122.239 91.5633 123.442 91.3636 124.69 91.3636C125.73 91.3636 126.845 91.4219 127.79 91.5092Z" fill="#00529F"/>
<path d="M120.519 96.4388C122.333 96.4388 123.04 96.7259 124.455 96.7259C125.424 96.7259 127.451 96.6718 128.108 95.2573C126.893 95.0076 125.562 94.8828 124.135 94.8828C122.346 94.8828 120.989 95.2781 119.758 95.6775C119.845 96.0228 120.082 96.2724 120.27 96.443C120.357 96.443 120.44 96.4388 120.519 96.4388Z" fill="#00529F"/>
<mask id="mask0_2729_2422" style="mask-type:alpha" maskUnits="userSpaceOnUse" x="58" y="67" width="139" height="157">
<path fill-rule="evenodd" clip-rule="evenodd" d="M156.446 110.406C157.553 101.882 157.307 97.9291 156.679 96.4646C158.302 96.373 159.679 96.1484 160.935 95.5992C159.537 94.2387 157.295 91.4138 156.579 88.9341C155.988 86.8913 154.628 83.6462 152.951 83.0179C154.062 82.6643 154.857 82.1733 155.818 80.8087C152.951 79.4524 151.716 77.73 148.832 76.2655C149.743 75.7329 150.542 74.7802 150.809 73.7858C149.311 73.5861 147.88 73.0161 146.461 72.3213C146.232 73.4447 145.833 74.4765 144.626 75.8161L143.798 75.113C144.551 74.2435 145.429 72.8788 145.429 71.7805C145.429 70.2577 144.198 68.76 143.353 68.269C142.433 67.7407 141.61 67.8239 139.683 69.1344C139.039 69.5962 137.537 70.9692 136.675 71.7098L136.072 70.99C136.913 70.1787 137.982 69.3216 138.502 68.8806C137.936 68.7683 137.483 68.7433 137.121 68.7433C135.498 68.7433 133.913 68.9597 132.644 69.9457C124.543 69.9457 120.37 74.5514 119.493 76.7314C116.381 78.5621 112.94 81.3579 112.94 83.3674C112.94 83.8958 113.015 84.2328 113.131 84.4658C113.968 84.0372 114.779 83.3258 115.507 82.6768L116.002 83.2301C115.382 83.8625 114.092 84.8735 113.551 85.223C113.148 85.7555 113.048 86.6334 113.048 87.3906C113.048 89.6289 115.37 91.5511 117.779 91.5511C121.211 91.5511 122.426 88.3725 122.226 86.908C124.09 86.7582 129.386 88.6387 129.386 94.0681C129.386 97.4548 125.671 97.8126 124.373 97.8126C123.066 97.8126 122.101 97.409 120.666 97.409C119.222 97.409 118.561 97.9207 118.561 98.8901C118.561 100.201 120.079 101.382 121.727 101.382C123.345 101.382 123.466 100.047 124.764 100.047C125.525 100.047 126.828 100.446 126.828 102.568C126.828 104.673 124.618 105.564 122.422 105.564C117.346 105.564 113.855 101.865 112.378 101.865V106.491C107.677 106.491 106.113 105.181 104.161 103.388C102.551 104.698 100.783 107.219 100.783 110.078C100.783 112.058 100.949 113.689 101.349 114.821C97.3298 115.391 93.1901 119.31 91.218 123.895C89.9574 126.815 89.6163 128.367 87.0326 129.47C88.4805 133.043 91.6965 134.857 94.742 134.974C92.824 137.154 93.9432 141.934 95.3619 142.142C97.2216 140.437 99.202 140.054 101.345 140.054C106.283 140.054 108.95 141.81 113.739 141.81C122.854 141.81 128.666 138.71 133.072 134.837C135.078 135.798 138.011 136.318 139.38 136.318C142.067 136.318 144.368 135.298 145.537 133.68C144.614 132.457 143.478 129.453 144.281 127.26C145.392 128.163 147.468 128.829 149.069 128.479C148.724 124.756 149.66 121.49 150.742 120.059C151.973 118.419 152.756 116.314 153.043 114.908H157.532C156.879 113.909 156.184 112.395 156.446 110.406ZM125.118 78.6078C125.613 79.0738 126.087 79.8768 126.087 79.8768C126.087 79.8768 126.728 79.3567 126.732 79.365C125.217 77.2349 123.245 76.4152 121.768 76.2821C121.402 76.6982 121.169 77.4429 121.169 77.913C121.169 78.9282 121.951 80.0515 123.191 80.0515C124.048 80.0515 124.901 79.1945 125.118 78.6078Z" fill="#D9D9D9"/>
<path d="M90.7438 122.792C92.7241 118.898 96.2938 114.908 100.321 113.951C100.105 112.824 99.8843 112.012 99.8843 110.036C99.8843 109.271 100.113 108.043 100.325 107.34C95.5824 104.873 87.9521 100.259 86.5125 98.2078C82.4062 92.379 78.9197 90.2031 78.9654 87.0286C78.9821 85.7139 79.8599 83.85 79.8599 82.1942C79.8599 80.5383 77.8296 79.7977 76.5441 79.7977C75.0546 79.7977 73.4944 80.2595 73.4195 81.6366C73.353 83.0179 73.9021 84.2453 74.0977 84.9567C74.3515 85.9095 74.2308 87.2575 74.0686 88.3142C72.7123 86.8372 71.3934 85.1231 71.3934 83.6129C71.3934 82.0652 70.0495 80.9377 68.4977 81.0084C66.9417 81.0833 64.4662 82.9514 64.4662 84.7612C64.4662 86.3421 65.6436 86.9579 66.7253 87.6527C67.4284 88.1187 68.2023 88.6762 68.6516 90.332C67.4701 89.6622 66.5672 89.4334 65.1443 89.4334C63.7215 89.4334 61.7619 90.1074 61.7619 92.587C61.7619 95.6991 64.0501 96.8973 66.6172 97.2426C66.4216 99.5225 68.4228 103.042 71.9675 103.042C72.7414 103.042 73.5152 102.655 73.8605 102.144C78.1292 107.952 78.7741 112.333 78.7949 115.748C80.4133 115.748 81.8653 115.324 82.1815 112.853C83.7625 117.462 83.5336 121.115 82.2772 124.598C83.9747 124.876 86.4377 124.065 87.0534 122.201C88.6302 124.843 88.7592 125.696 88.805 127.002C89.8326 125.596 89.7244 124.793 90.7438 122.792Z" fill="#D9D9D9"/>
<path d="M135.165 158.123C134.45 158.942 133.651 159.637 132.914 159.637C129.948 159.637 127.997 159.483 125.272 159.483C113.269 159.483 104.419 167.018 104.419 175.643C104.419 180.914 104.195 182.075 102.555 183.876C103.275 184.442 104.386 184.804 105.33 184.767C103.737 189.073 96.4311 190.471 94.6629 190.471C92.1833 190.471 92.1167 188.145 89.3167 188.145C87.4986 188.145 85.2062 188.981 85.2062 191.074C85.2062 192.027 85.4308 193.071 85.7928 193.662C84.7776 193.1 83.6377 192.967 82.6849 192.967C81.0041 192.967 79.1319 194.527 79.1319 196.67C79.1319 198.662 80.4299 200.705 82.0026 200.705C82.9179 200.705 83.6377 200.635 84.3907 200.435C82.9803 202.365 82.6766 204.129 84.1702 205.565C84.4573 204.862 85.4433 203.747 87.3696 203.747C88.805 203.747 90.3527 205.107 89.9949 207.137C91.5758 206.755 93.8516 205.457 93.4231 201.471C94.6629 201.471 95.9776 201.109 96.5227 200.493C96.8139 201.799 97.6002 203.093 99.1646 203.697C99.5889 202.898 100.721 201.629 102.056 201.629C103.525 201.629 104.215 202.286 104.64 202.973C105.405 201.92 105.855 201.03 105.21 199.137C107.369 198.583 112.058 196.869 114.571 195.134L115.677 197.335C117.475 196.636 119.197 195.072 120.179 193.537C121.061 194.735 121.132 195.9 121.219 197.394C124.718 194.964 128.171 191.806 128.171 186.16C128.171 181.01 126.174 181.06 126.174 178.272C126.174 175.501 128.7 171.715 132.773 171.715C133.684 171.715 134.096 171.728 134.579 171.761C135.257 167.201 138.206 162.945 141.56 161.722C140.208 160.045 137.928 158.822 135.165 158.123Z" fill="#D9D9D9"/>
<path d="M189.135 163.531C193.753 157.832 192.043 151.616 192.043 148.758C192.043 144.576 196.253 141.847 196.253 138.398C196.253 137.445 196.224 136.63 195.771 135.76C193.849 137.666 192.684 137.495 190.978 138.227C189.043 139.06 187.238 141.061 187.708 143.316C184.991 141.398 180.727 138.947 180.727 134.999C180.727 129.336 190.924 130.901 190.924 124.876C189.909 126.383 188.673 127.073 186.892 127.073C185.128 127.073 182.782 125.987 180.439 125.987C176.071 125.987 174.294 129.074 174.294 130.601C174.294 132.132 174.319 133.36 175.027 134.616C171.744 133.422 169.115 130.252 169.115 126.041C169.115 113.527 186.351 117.217 188.494 108.551C182.407 113.244 177.877 109.162 172.222 112.936C172.505 111.463 173.05 110.51 174.365 109.404C170.82 109.687 168.395 110.51 165.287 113.36C167.646 105.93 171.736 103.313 177.548 102.435C188.432 100.791 193.545 93.7519 193.545 86.105C193.545 83.2384 193.299 81.2872 192.588 79.2194C190.845 83.7418 186.243 86.8747 182.033 88.2726C182.794 86.8164 183.343 84.7487 182.686 82.294C181.812 82.735 179.732 84.0248 178.526 84.5823C175.975 85.7763 168.079 88.9424 169.447 99.5017C166.177 102.368 160.623 107.269 160.623 117.525C160.623 125.38 168.853 136.139 174.274 139.484C179.703 142.833 187.745 146.07 187.745 153.334C187.745 160.394 182.694 165.499 175.909 165.499C173.633 165.499 172.131 165.079 170.442 163.748C171.174 162.966 171.553 161.722 171.553 160.22C171.553 151.603 158.634 146.919 147.605 139.921C146.145 138.997 145.063 138.04 143.819 136.559C142.8 137.137 140.844 137.262 139.267 137.262C137.894 137.262 135.743 136.817 133.555 136.047C129.403 139.451 122.971 142.841 113.864 142.841C109.066 142.841 105.992 141.069 101.74 141.069C99.6014 141.069 97.2591 141.631 95.728 143.678C93.265 142.9 91.9753 139.005 93.265 135.756C91.01 135.257 88.9589 134.242 87.2906 132.003C84.8192 133.613 81.1206 136.002 78.695 136.626C76.2736 137.237 70.8567 140.054 69.4421 140.054C67.2579 140.054 65.939 137.766 64.3871 137.766C62.5399 137.766 60.5512 139.971 60.5512 141.302C60.5512 142.887 61.8992 144.339 63.2222 144.938C59.8356 144.826 58.7455 145.849 58.887 147.925C60.7966 148.233 61.999 150.809 61.5289 152.381C61.6745 152.781 62.4151 153.184 63.2014 152.956C62.9559 153.983 62.3735 156.159 63.9295 157.432C64.5328 156.292 65.3316 155.905 66.484 155.905C67.6282 155.905 68.6183 156.999 68.8929 157.786C69.646 157.615 70.4906 156.887 70.4906 155.88C70.4906 153.875 71.4974 152.535 72.3503 152.485C72.6249 153.713 73.6858 154.112 74.5595 154.391C74.418 152.207 75.8784 151.512 76.8353 151.512C78.3497 151.512 79.0029 152.169 79.577 153.28C80.4591 152.947 81.0082 151.978 80.9666 150.884C80.9292 149.789 80.7544 149.336 80.1637 148.812C80.6255 148.287 82.9637 147.135 85.5473 147.135C89.3833 147.135 91.1224 148.437 93.5937 150.035C94.355 149.511 95.0706 148.624 95.1622 147.285C96.843 147.098 98.0953 149.174 99.6888 151.358C100.671 150.809 102.206 148.837 101.965 147.081C105.368 147.339 107.178 148.275 109.329 149.606C110.751 148.912 111.259 147.26 111.338 145.791C119.068 153.355 126.582 155.481 136.343 156.13C143.786 156.625 148.113 161.006 148.753 163.199C147.592 162.595 146.136 162.283 144.277 162.283C139.401 162.283 135.477 168.254 135.477 174.253C135.477 178.497 136.155 182.141 140.307 186.626C144.181 190.774 145.2 191.286 145.2 195.351C147.326 194.735 147.9 193.687 148.475 192.293C148.504 195.43 149.927 198.138 152.057 198.812C153.209 196.616 154.187 195.284 155.556 194.41C155.947 203.335 147.26 208.344 144.168 208.344C141.685 208.344 141.51 206.958 139.5 206.958C137.52 206.958 135.194 208.606 135.194 210.915C135.194 212.355 136.101 213.349 137.079 213.923C134.707 215.175 134.42 216.444 134.595 218.196C137.557 217.597 138.772 220.376 138.227 222.186C140.058 222.577 141.393 221.72 142.338 220.871C142.629 221.77 143.469 222.627 144.476 222.897C145.109 221.799 146.095 221 147.305 221C148.524 221 149.535 221.47 150.047 223.164C151.42 222.864 153.055 220.326 152.252 218.575C153.65 218.196 155.044 216.203 155.11 214.826C156.042 216.045 157.27 216.989 158.584 216.39C158.451 214.048 160.423 212.355 161.738 212.355C162.504 212.355 163.132 212.463 163.623 212.717C163.793 212.409 163.931 211.976 163.931 211.506C163.931 210.395 162.995 209.559 162.158 209.105C164.688 207.483 167.109 204.183 167.829 202.045C168.029 203.43 168.74 204.516 170.134 204.808C171.091 204 171.432 203.335 171.578 201.554C174.203 202.407 176.899 202.236 177.835 200.601C177.136 200.006 176.433 198.987 176.433 197.647C176.433 194.186 177.598 192.813 177.598 189.663C177.598 186.439 175.314 183.81 172.418 183.81C170.508 183.81 168.861 184.563 168.02 185.52C164.388 185.52 160.648 181.513 160.648 177.115C160.648 172.926 163.315 170.43 166.518 168.903C168.491 169.764 171.694 170.75 175.064 170.75C178.426 170.75 181.018 169.764 182.237 168.607C182.703 169.09 183.726 169.951 185.137 169.951C187.579 169.951 189.135 169.24 190.358 167.717C191.565 166.194 192.53 164.688 194.668 162.887C192.987 161.93 190.874 162.213 189.135 163.531Z" fill="#D9D9D9"/>
<path d="M121.731 77.9796C121.731 78.7077 122.247 79.4898 123.179 79.4898C123.899 79.4898 124.514 78.6952 124.664 78.2791C124.152 77.7216 123.062 77.056 122.006 76.9519C121.814 77.1974 121.731 77.6426 121.731 77.9796Z" fill="#D9D9D9"/>
<path fill-rule="evenodd" clip-rule="evenodd" d="M156.446 110.406C157.553 101.882 157.307 97.9291 156.679 96.4646C158.302 96.373 159.679 96.1484 160.935 95.5992C159.537 94.2387 157.295 91.4138 156.579 88.9341C155.988 86.8913 154.628 83.6462 152.951 83.0179C154.062 82.6643 154.857 82.1733 155.818 80.8087C152.951 79.4524 151.716 77.73 148.832 76.2655C149.743 75.7329 150.542 74.7802 150.809 73.7858C149.311 73.5861 147.88 73.0161 146.461 72.3213C146.232 73.4447 145.833 74.4765 144.626 75.8161L143.798 75.113C144.551 74.2435 145.429 72.8788 145.429 71.7805C145.429 70.2577 144.198 68.76 143.353 68.269C142.433 67.7407 141.61 67.8239 139.683 69.1344C139.039 69.5962 137.537 70.9692 136.675 71.7098L136.072 70.99C136.913 70.1787 137.982 69.3216 138.502 68.8806C137.936 68.7683 137.483 68.7433 137.121 68.7433C135.498 68.7433 133.913 68.9597 132.644 69.9457C124.543 69.9457 120.37 74.5514 119.493 76.7314C116.381 78.5621 112.94 81.3579 112.94 83.3674C112.94 83.8958 113.015 84.2328 113.131 84.4658C113.968 84.0372 114.779 83.3258 115.507 82.6768L116.002 83.2301C115.382 83.8625 114.092 84.8735 113.551 85.223C113.148 85.7555 113.048 86.6334 113.048 87.3906C113.048 89.6289 115.37 91.5511 117.779 91.5511C121.211 91.5511 122.426 88.3725 122.226 86.908C124.09 86.7582 129.386 88.6387 129.386 94.0681C129.386 97.4548 125.671 97.8126 124.373 97.8126C123.066 97.8126 122.101 97.409 120.666 97.409C119.222 97.409 118.561 97.9207 118.561 98.8901C118.561 100.201 120.079 101.382 121.727 101.382C123.345 101.382 123.466 100.047 124.764 100.047C125.525 100.047 126.828 100.446 126.828 102.568C126.828 104.673 124.618 105.564 122.422 105.564C117.346 105.564 113.855 101.865 112.378 101.865V106.491C107.677 106.491 106.113 105.181 104.161 103.388C102.551 104.698 100.783 107.219 100.783 110.078C100.783 112.058 100.949 113.689 101.349 114.821C97.3298 115.391 93.1901 119.31 91.218 123.895C89.9574 126.815 89.6163 128.367 87.0326 129.47C88.4805 133.043 91.6965 134.857 94.742 134.974C92.824 137.154 93.9432 141.934 95.3619 142.142C97.2216 140.437 99.202 140.054 101.345 140.054C106.283 140.054 108.95 141.81 113.739 141.81C122.854 141.81 128.666 138.71 133.072 134.837C135.078 135.798 138.011 136.318 139.38 136.318C142.067 136.318 144.368 135.298 145.537 133.68C144.614 132.457 143.478 129.453 144.281 127.26C145.392 128.163 147.468 128.829 149.069 128.479C148.724 124.756 149.66 121.49 150.742 120.059C151.973 118.419 152.756 116.314 153.043 114.908H157.532C156.879 113.909 156.184 112.395 156.446 110.406ZM125.118 78.6078C125.613 79.0738 126.087 79.8768 126.087 79.8768C126.087 79.8768 126.728 79.3567 126.732 79.365C125.217 77.2349 123.245 76.4152 121.768 76.2821C121.402 76.6982 121.169 77.4429 121.169 77.913C121.169 78.9282 121.951 80.0515 123.191 80.0515C124.048 80.0515 124.901 79.1945 125.118 78.6078Z" stroke="black" stroke-width="1.29308"/>
<path d="M90.7438 122.792C92.7241 118.898 96.2938 114.908 100.321 113.951C100.105 112.824 99.8843 112.012 99.8843 110.036C99.8843 109.271 100.113 108.043 100.325 107.34C95.5824 104.873 87.9521 100.259 86.5125 98.2078C82.4062 92.379 78.9197 90.2031 78.9654 87.0286C78.9821 85.7139 79.8599 83.85 79.8599 82.1942C79.8599 80.5383 77.8296 79.7977 76.5441 79.7977C75.0546 79.7977 73.4944 80.2595 73.4195 81.6366C73.353 83.0179 73.9021 84.2453 74.0977 84.9567C74.3515 85.9095 74.2308 87.2575 74.0686 88.3142C72.7123 86.8372 71.3934 85.1231 71.3934 83.6129C71.3934 82.0652 70.0495 80.9377 68.4977 81.0084C66.9417 81.0833 64.4662 82.9514 64.4662 84.7612C64.4662 86.3421 65.6436 86.9579 66.7253 87.6527C67.4284 88.1187 68.2023 88.6762 68.6516 90.332C67.4701 89.6622 66.5672 89.4334 65.1443 89.4334C63.7215 89.4334 61.7619 90.1074 61.7619 92.587C61.7619 95.6991 64.0501 96.8973 66.6172 97.2426C66.4216 99.5225 68.4228 103.042 71.9675 103.042C72.7414 103.042 73.5152 102.655 73.8605 102.144C78.1292 107.952 78.7741 112.333 78.7949 115.748C80.4133 115.748 81.8653 115.324 82.1815 112.853C83.7625 117.462 83.5336 121.115 82.2772 124.598C83.9747 124.876 86.4377 124.065 87.0534 122.201C88.6302 124.843 88.7592 125.696 88.805 127.002C89.8326 125.596 89.7244 124.793 90.7438 122.792Z" stroke="black" stroke-width="1.29308"/>
<path d="M135.165 158.123C134.45 158.942 133.651 159.637 132.914 159.637C129.948 159.637 127.997 159.483 125.272 159.483C113.269 159.483 104.419 167.018 104.419 175.643C104.419 180.914 104.195 182.075 102.555 183.876C103.275 184.442 104.386 184.804 105.33 184.767C103.737 189.073 96.4311 190.471 94.6629 190.471C92.1833 190.471 92.1167 188.145 89.3167 188.145C87.4986 188.145 85.2062 188.981 85.2062 191.074C85.2062 192.027 85.4308 193.071 85.7928 193.662C84.7776 193.1 83.6377 192.967 82.6849 192.967C81.0041 192.967 79.1319 194.527 79.1319 196.67C79.1319 198.662 80.4299 200.705 82.0026 200.705C82.9179 200.705 83.6377 200.635 84.3907 200.435C82.9803 202.365 82.6766 204.129 84.1702 205.565C84.4573 204.862 85.4433 203.747 87.3696 203.747C88.805 203.747 90.3527 205.107 89.9949 207.137C91.5758 206.755 93.8516 205.457 93.4231 201.471C94.6629 201.471 95.9776 201.109 96.5227 200.493C96.8139 201.799 97.6002 203.093 99.1646 203.697C99.5889 202.898 100.721 201.629 102.056 201.629C103.525 201.629 104.215 202.286 104.64 202.973C105.405 201.92 105.855 201.03 105.21 199.137C107.369 198.583 112.058 196.869 114.571 195.134L115.677 197.335C117.475 196.636 119.197 195.072 120.179 193.537C121.061 194.735 121.132 195.9 121.219 197.394C124.718 194.964 128.171 191.806 128.171 186.16C128.171 181.01 126.174 181.06 126.174 178.272C126.174 175.501 128.7 171.715 132.773 171.715C133.684 171.715 134.096 171.728 134.579 171.761C135.257 167.201 138.206 162.945 141.56 161.722C140.208 160.045 137.928 158.822 135.165 158.123Z" stroke="black" stroke-width="1.29308"/>
<path d="M189.135 163.531C193.753 157.832 192.043 151.616 192.043 148.758C192.043 144.576 196.253 141.847 196.253 138.398C196.253 137.445 196.224 136.63 195.771 135.76C193.849 137.666 192.684 137.495 190.978 138.227C189.043 139.06 187.238 141.061 187.708 143.316C184.991 141.398 180.727 138.947 180.727 134.999C180.727 129.336 190.924 130.901 190.924 124.876C189.909 126.383 188.673 127.073 186.892 127.073C185.128 127.073 182.782 125.987 180.439 125.987C176.071 125.987 174.294 129.074 174.294 130.601C174.294 132.132 174.319 133.36 175.027 134.616C171.744 133.422 169.115 130.252 169.115 126.041C169.115 113.527 186.351 117.217 188.494 108.551C182.407 113.244 177.877 109.162 172.222 112.936C172.505 111.463 173.05 110.51 174.365 109.404C170.82 109.687 168.395 110.51 165.287 113.36C167.646 105.93 171.736 103.313 177.548 102.435C188.432 100.791 193.545 93.7519 193.545 86.105C193.545 83.2384 193.299 81.2872 192.588 79.2194C190.845 83.7418 186.243 86.8747 182.033 88.2726C182.794 86.8164 183.343 84.7487 182.686 82.294C181.812 82.735 179.732 84.0248 178.526 84.5823C175.975 85.7763 168.079 88.9424 169.447 99.5017C166.177 102.368 160.623 107.269 160.623 117.525C160.623 125.38 168.853 136.139 174.274 139.484C179.703 142.833 187.745 146.07 187.745 153.334C187.745 160.394 182.694 165.499 175.909 165.499C173.633 165.499 172.131 165.079 170.442 163.748C171.174 162.966 171.553 161.722 171.553 160.22C171.553 151.603 158.634 146.919 147.605 139.921C146.145 138.997 145.063 138.04 143.819 136.559C142.8 137.137 140.844 137.262 139.267 137.262C137.894 137.262 135.743 136.817 133.555 136.047C129.403 139.451 122.971 142.841 113.864 142.841C109.066 142.841 105.992 141.069 101.74 141.069C99.6014 141.069 97.2591 141.631 95.728 143.678C93.265 142.9 91.9753 139.005 93.265 135.756C91.01 135.257 88.9589 134.242 87.2906 132.003C84.8192 133.613 81.1206 136.002 78.695 136.626C76.2736 137.237 70.8567 140.054 69.4421 140.054C67.2579 140.054 65.939 137.766 64.3871 137.766C62.5399 137.766 60.5512 139.971 60.5512 141.302C60.5512 142.887 61.8992 144.339 63.2222 144.938C59.8356 144.826 58.7455 145.849 58.887 147.925C60.7966 148.233 61.999 150.809 61.5289 152.381C61.6745 152.781 62.4151 153.184 63.2014 152.956C62.9559 153.983 62.3735 156.159 63.9295 157.432C64.5328 156.292 65.3316 155.905 66.484 155.905C67.6282 155.905 68.6183 156.999 68.8929 157.786C69.646 157.615 70.4906 156.887 70.4906 155.88C70.4906 153.875 71.4974 152.535 72.3503 152.485C72.6249 153.713 73.6858 154.112 74.5595 154.391C74.418 152.207 75.8784 151.512 76.8353 151.512C78.3497 151.512 79.0029 152.169 79.577 153.28C80.4591 152.947 81.0082 151.978 80.9666 150.884C80.9292 149.789 80.7544 149.336 80.1637 148.812C80.6255 148.287 82.9637 147.135 85.5473 147.135C89.3833 147.135 91.1224 148.437 93.5937 150.035C94.355 149.511 95.0706 148.624 95.1622 147.285C96.843 147.098 98.0953 149.174 99.6888 151.358C100.671 150.809 102.206 148.837 101.965 147.081C105.368 147.339 107.178 148.275 109.329 149.606C110.751 148.912 111.259 147.26 111.338 145.791C119.068 153.355 126.582 155.481 136.343 156.13C143.786 156.625 148.113 161.006 148.753 163.199C147.592 162.595 146.136 162.283 144.277 162.283C139.401 162.283 135.477 168.254 135.477 174.253C135.477 178.497 136.155 182.141 140.307 186.626C144.181 190.774 145.2 191.286 145.2 195.351C147.326 194.735 147.9 193.687 148.475 192.293C148.504 195.43 149.927 198.138 152.057 198.812C153.209 196.616 154.187 195.284 155.556 194.41C155.947 203.335 147.26 208.344 144.168 208.344C141.685 208.344 141.51 206.958 139.5 206.958C137.52 206.958 135.194 208.606 135.194 210.915C135.194 212.355 136.101 213.349 137.079 213.923C134.707 215.175 134.42 216.444 134.595 218.196C137.557 217.597 138.772 220.376 138.227 222.186C140.058 222.577 141.393 221.72 142.338 220.871C142.629 221.77 143.469 222.627 144.476 222.897C145.109 221.799 146.095 221 147.305 221C148.524 221 149.535 221.47 150.047 223.164C151.42 222.864 153.055 220.326 152.252 218.575C153.65 218.196 155.044 216.203 155.11 214.826C156.042 216.045 157.27 216.989 158.584 216.39C158.451 214.048 160.423 212.355 161.738 212.355C162.504 212.355 163.132 212.463 163.623 212.717C163.793 212.409 163.931 211.976 163.931 211.506C163.931 210.395 162.995 209.559 162.158 209.105C164.688 207.483 167.109 204.183 167.829 202.045C168.029 203.43 168.74 204.516 170.134 204.808C171.091 204 171.432 203.335 171.578 201.554C174.203 202.407 176.899 202.236 177.835 200.601C177.136 200.006 176.433 198.987 176.433 197.647C176.433 194.186 177.598 192.813 177.598 189.663C177.598 186.439 175.314 183.81 172.418 183.81C170.508 183.81 168.861 184.563 168.02 185.52C164.388 185.52 160.648 181.513 160.648 177.115C160.648 172.926 163.315 170.43 166.518 168.903C168.491 169.764 171.694 170.75 175.064 170.75C178.426 170.75 181.018 169.764 182.237 168.607C182.703 169.09 183.726 169.951 185.137 169.951C187.579 169.951 189.135 169.24 190.358 167.717C191.565 166.194 192.53 164.688 194.668 162.887C192.987 161.93 190.874 162.213 189.135 163.531Z" stroke="black" stroke-width="1.29308"/>
<path d="M121.731 77.9796C121.731 78.7077 122.247 79.4898 123.179 79.4898C123.899 79.4898 124.514 78.6952 124.664 78.2791C124.152 77.7216 123.062 77.056 122.006 76.9519C121.814 77.1974 121.731 77.6426 121.731 77.9796Z" stroke="black" stroke-width="1.29308"/>
</mask>
<g mask="url(#mask0_2729_2422)">
<rect x="45.0234" y="67.9258" width="165.514" height="15.5169" fill="white"/>
<rect x="45.0234" y="129.992" width="165.514" height="15.5169" fill="white"/>
<rect x="45.0234" y="98.9609" width="165.514" height="15.5169" fill="white"/>
<rect x="45.0234" y="161.027" width="165.514" height="15.5169" fill="white"/>
<rect x="45.0234" y="192.062" width="165.514" height="15.5169" fill="white"/>
<rect x="45.0234" y="83.4414" width="165.514" height="15.5169" fill="#E10000"/>
<rect x="45.0234" y="145.512" width="165.514" height="15.5169" fill="#E10000"/>
<rect x="45.0234" y="114.477" width="165.514" height="15.5169" fill="#E10000"/>
<rect x="45.0234" y="176.543" width="165.514" height="15.5169" fill="#E10000"/>
<rect x="45.0234" y="207.578" width="165.514" height="15.5169" fill="#E10000"/>
</g>
<path fill-rule="evenodd" clip-rule="evenodd" d="M156.446 110.406C157.553 101.882 157.307 97.9291 156.679 96.4646C158.302 96.373 159.679 96.1484 160.935 95.5992C159.537 94.2387 157.295 91.4138 156.579 88.9341C155.988 86.8913 154.628 83.6462 152.951 83.0179C154.062 82.6643 154.857 82.1733 155.818 80.8087C152.951 79.4524 151.716 77.73 148.832 76.2655C149.743 75.7329 150.542 74.7802 150.809 73.7858C149.311 73.5861 147.88 73.0161 146.461 72.3213C146.232 73.4447 145.833 74.4765 144.626 75.8161L143.798 75.113C144.551 74.2435 145.429 72.8788 145.429 71.7805C145.429 70.2577 144.198 68.76 143.353 68.269C142.433 67.7407 141.61 67.8239 139.683 69.1344C139.039 69.5962 137.537 70.9692 136.675 71.7098L136.072 70.99C136.913 70.1787 137.982 69.3216 138.502 68.8806C137.936 68.7683 137.483 68.7433 137.121 68.7433C135.498 68.7433 133.913 68.9597 132.644 69.9457C124.543 69.9457 120.37 74.5514 119.493 76.7314C116.381 78.5621 112.94 81.3579 112.94 83.3674C112.94 83.8958 113.015 84.2328 113.131 84.4658C113.968 84.0372 114.779 83.3258 115.507 82.6768L116.002 83.2301C115.382 83.8625 114.092 84.8735 113.551 85.223C113.148 85.7555 113.048 86.6334 113.048 87.3906C113.048 89.6289 115.37 91.5511 117.779 91.5511C121.211 91.5511 122.426 88.3725 122.226 86.908C124.09 86.7582 129.386 88.6387 129.386 94.0681C129.386 97.4548 125.671 97.8126 124.373 97.8126C123.066 97.8126 122.101 97.409 120.666 97.409C119.222 97.409 118.561 97.9207 118.561 98.8901C118.561 100.201 120.079 101.382 121.727 101.382C123.345 101.382 123.466 100.047 124.764 100.047C125.525 100.047 126.828 100.446 126.828 102.568C126.828 104.673 124.618 105.564 122.422 105.564C117.346 105.564 113.855 101.865 112.378 101.865V106.491C107.677 106.491 106.113 105.181 104.161 103.388C102.551 104.698 100.783 107.219 100.783 110.078C100.783 112.058 100.949 113.689 101.349 114.821C97.3298 115.391 93.1901 119.31 91.218 123.895C89.9574 126.815 89.6163 128.367 87.0326 129.47C88.4805 133.043 91.6965 134.857 94.742 134.974C92.824 137.154 93.9432 141.934 95.3619 142.142C97.2216 140.437 99.202 140.054 101.345 140.054C106.283 140.054 108.95 141.81 113.739 141.81C122.854 141.81 128.666 138.71 133.072 134.837C135.078 135.798 138.011 136.318 139.38 136.318C142.067 136.318 144.368 135.298 145.537 133.68C144.614 132.457 143.478 129.453 144.281 127.26C145.392 128.163 147.468 128.829 149.069 128.479C148.724 124.756 149.66 121.49 150.742 120.059C151.973 118.419 152.756 116.314 153.043 114.908H157.532C156.879 113.909 156.184 112.395 156.446 110.406Z" stroke="black" stroke-width="1.29308"/>
<path d="M90.7438 122.792C92.7241 118.898 96.2938 114.908 100.321 113.951C100.105 112.824 99.8843 112.012 99.8843 110.036C99.8843 109.271 100.113 108.043 100.325 107.34C95.5824 104.873 87.9521 100.259 86.5125 98.2078C82.4062 92.379 78.9197 90.2031 78.9654 87.0286C78.9821 85.7139 79.8599 83.85 79.8599 82.1942C79.8599 80.5383 77.8296 79.7977 76.5441 79.7977C75.0546 79.7977 73.4944 80.2595 73.4195 81.6366C73.353 83.0179 73.9021 84.2453 74.0977 84.9567C74.3515 85.9095 74.2308 87.2575 74.0686 88.3142C72.7123 86.8372 71.3934 85.1231 71.3934 83.6129C71.3934 82.0652 70.0495 80.9377 68.4977 81.0084C66.9417 81.0833 64.4662 82.9514 64.4662 84.7612C64.4662 86.3421 65.6436 86.9579 66.7253 87.6527C67.4284 88.1187 68.2023 88.6762 68.6516 90.332C67.4701 89.6622 66.5672 89.4334 65.1443 89.4334C63.7215 89.4334 61.7619 90.1074 61.7619 92.587C61.7619 95.6991 64.0501 96.8973 66.6172 97.2426C66.4216 99.5225 68.4228 103.042 71.9675 103.042C72.7414 103.042 73.5152 102.655 73.8605 102.144C78.1292 107.952 78.7741 112.333 78.7949 115.748C80.4133 115.748 81.8653 115.324 82.1815 112.853C83.7625 117.462 83.5336 121.115 82.2772 124.598C83.9747 124.876 86.4377 124.065 87.0534 122.201C88.6302 124.843 88.7592 125.696 88.805 127.002C89.8326 125.596 89.7244 124.793 90.7438 122.792Z" stroke="black" stroke-width="1.29308"/>
<path d="M135.165 158.123C134.45 158.942 133.651 159.637 132.914 159.637C129.948 159.637 127.997 159.483 125.272 159.483C113.269 159.483 104.419 167.018 104.419 175.643C104.419 180.914 104.195 182.075 102.555 183.876C103.275 184.442 104.386 184.804 105.33 184.767C103.737 189.073 96.4311 190.471 94.6629 190.471C92.1833 190.471 92.1167 188.145 89.3167 188.145C87.4986 188.145 85.2062 188.981 85.2062 191.074C85.2062 192.027 85.4308 193.071 85.7928 193.662C84.7776 193.1 83.6377 192.967 82.6849 192.967C81.0041 192.967 79.1319 194.527 79.1319 196.67C79.1319 198.662 80.4299 200.705 82.0026 200.705C82.9179 200.705 83.6377 200.635 84.3907 200.435C82.9803 202.365 82.6766 204.129 84.1702 205.565C84.4573 204.862 85.4433 203.747 87.3696 203.747C88.805 203.747 90.3527 205.107 89.9949 207.137C91.5758 206.755 93.8516 205.457 93.4231 201.471C94.6629 201.471 95.9776 201.109 96.5227 200.493C96.8139 201.799 97.6002 203.093 99.1646 203.697C99.5889 202.898 100.721 201.629 102.056 201.629C103.525 201.629 104.215 202.286 104.64 202.973C105.405 201.92 105.855 201.03 105.21 199.137C107.369 198.583 112.058 196.869 114.571 195.134L115.677 197.335C117.475 196.636 119.197 195.072 120.179 193.537C121.061 194.735 121.132 195.9 121.219 197.394C124.718 194.964 128.171 191.806 128.171 186.16C128.171 181.01 126.174 181.06 126.174 178.272C126.174 175.501 128.7 171.715 132.773 171.715C133.684 171.715 134.096 171.728 134.579 171.761C135.257 167.201 138.206 162.945 141.56 161.722C140.208 160.045 137.928 158.822 135.165 158.123Z" stroke="black" stroke-width="1.29308"/>
<path d="M189.135 163.531C193.753 157.832 192.043 151.616 192.043 148.758C192.043 144.576 196.253 141.847 196.253 138.398C196.253 137.445 196.224 136.63 195.771 135.76C193.849 137.666 192.684 137.495 190.978 138.227C189.043 139.06 187.238 141.061 187.708 143.316C184.991 141.398 180.727 138.947 180.727 134.999C180.727 129.336 190.924 130.901 190.924 124.876C189.909 126.383 188.673 127.073 186.892 127.073C185.128 127.073 182.782 125.987 180.439 125.987C176.071 125.987 174.294 129.074 174.294 130.601C174.294 132.132 174.319 133.36 175.027 134.616C171.744 133.422 169.115 130.252 169.115 126.041C169.115 113.527 186.351 117.217 188.494 108.551C182.407 113.244 177.877 109.162 172.222 112.936C172.505 111.463 173.05 110.51 174.365 109.404C170.82 109.687 168.395 110.51 165.287 113.36C167.646 105.93 171.736 103.313 177.548 102.435C188.432 100.791 193.545 93.7519 193.545 86.105C193.545 83.2384 193.299 81.2872 192.588 79.2194C190.845 83.7418 186.243 86.8747 182.033 88.2726C182.794 86.8164 183.343 84.7487 182.686 82.294C181.812 82.735 179.732 84.0248 178.526 84.5823C175.975 85.7763 168.079 88.9424 169.447 99.5017C166.177 102.368 160.623 107.269 160.623 117.525C160.623 125.38 168.853 136.139 174.274 139.484C179.703 142.833 187.745 146.07 187.745 153.334C187.745 160.394 182.694 165.499 175.909 165.499C173.633 165.499 172.131 165.079 170.442 163.748C171.174 162.966 171.553 161.722 171.553 160.22C171.553 151.603 158.634 146.919 147.605 139.921C146.145 138.997 145.063 138.04 143.819 136.559C142.8 137.137 140.844 137.262 139.267 137.262C137.894 137.262 135.743 136.817 133.555 136.047C129.403 139.451 122.971 142.841 113.864 142.841C109.066 142.841 105.992 141.069 101.74 141.069C99.6014 141.069 97.2591 141.631 95.728 143.678C93.265 142.9 91.9753 139.005 93.265 135.756C91.01 135.257 88.9589 134.242 87.2906 132.003C84.8192 133.613 81.1206 136.002 78.695 136.626C76.2736 137.237 70.8567 140.054 69.4421 140.054C67.2579 140.054 65.939 137.766 64.3871 137.766C62.5399 137.766 60.5512 139.971 60.5512 141.302C60.5512 142.887 61.8992 144.339 63.2222 144.938C59.8356 144.826 58.7455 145.849 58.887 147.925C60.7966 148.233 61.999 150.809 61.5289 152.381C61.6745 152.781 62.4151 153.184 63.2014 152.956C62.9559 153.983 62.3735 156.159 63.9295 157.432C64.5328 156.292 65.3316 155.905 66.484 155.905C67.6282 155.905 68.6183 156.999 68.8929 157.786C69.646 157.615 70.4906 156.887 70.4906 155.88C70.4906 153.875 71.4974 152.535 72.3503 152.485C72.6249 153.713 73.6858 154.112 74.5595 154.391C74.418 152.207 75.8784 151.512 76.8353 151.512C78.3497 151.512 79.0029 152.169 79.577 153.28C80.4591 152.947 81.0082 151.978 80.9666 150.884C80.9292 149.789 80.7544 149.336 80.1637 148.812C80.6255 148.287 82.9637 147.135 85.5473 147.135C89.3833 147.135 91.1224 148.437 93.5937 150.035C94.355 149.511 95.0706 148.624 95.1622 147.285C96.843 147.098 98.0953 149.174 99.6888 151.358C100.671 150.809 102.206 148.837 101.965 147.081C105.368 147.339 107.178 148.275 109.329 149.606C110.751 148.912 111.259 147.26 111.338 145.791C119.068 153.355 126.582 155.481 136.343 156.13C143.786 156.625 148.113 161.006 148.753 163.199C147.592 162.595 146.136 162.283 144.277 162.283C139.401 162.283 135.477 168.254 135.477 174.253C135.477 178.497 136.155 182.141 140.307 186.626C144.181 190.774 145.2 191.286 145.2 195.351C147.326 194.735 147.9 193.687 148.475 192.293C148.504 195.43 149.927 198.138 152.057 198.812C153.209 196.616 154.187 195.284 155.556 194.41C155.947 203.335 147.26 208.344 144.168 208.344C141.685 208.344 141.51 206.958 139.5 206.958C137.52 206.958 135.194 208.606 135.194 210.915C135.194 212.355 136.101 213.349 137.079 213.923C134.707 215.175 134.42 216.444 134.595 218.196C137.557 217.597 138.772 220.376 138.227 222.186C140.058 222.577 141.393 221.72 142.338 220.871C142.629 221.77 143.469 222.627 144.476 222.897C145.109 221.799 146.095 221 147.305 221C148.524 221 149.535 221.47 150.047 223.164C151.42 222.864 153.055 220.326 152.252 218.575C153.65 218.196 155.044 216.203 155.11 214.826C156.042 216.045 157.27 216.989 158.584 216.39C158.451 214.048 160.423 212.355 161.738 212.355C162.504 212.355 163.132 212.463 163.623 212.717C163.793 212.409 163.931 211.976 163.931 211.506C163.931 210.395 162.995 209.559 162.158 209.105C164.688 207.483 167.109 204.183 167.829 202.045C168.029 203.43 168.74 204.516 170.134 204.808C171.091 204 171.432 203.335 171.578 201.554C174.203 202.407 176.899 202.236 177.835 200.601C177.136 200.006 176.433 198.987 176.433 197.647C176.433 194.186 177.598 192.813 177.598 189.663C177.598 186.439 175.314 183.81 172.418 183.81C170.508 183.81 168.861 184.563 168.02 185.52C164.388 185.52 160.648 181.513 160.648 177.115C160.648 172.926 163.315 170.43 166.518 168.903C168.491 169.764 171.694 170.75 175.064 170.75C178.426 170.75 181.018 169.764 182.237 168.607C182.703 169.09 183.726 169.951 185.137 169.951C187.579 169.951 189.135 169.24 190.358 167.717C191.565 166.194 192.53 164.688 194.668 162.887C192.987 161.93 190.874 162.213 189.135 163.531Z" stroke="black" stroke-width="1.29308"/>
<path fill-rule="evenodd" clip-rule="evenodd" d="M125.12 78.607C125.615 79.0729 126.09 79.8759 126.09 79.8759C126.09 79.8759 126.73 79.3558 126.734 79.3642C125.22 77.234 123.248 76.4144 121.771 76.2812C121.405 76.6973 121.172 77.442 121.172 77.9122C121.172 78.9273 121.954 80.0506 123.194 80.0506C124.051 80.0506 124.904 79.1936 125.12 78.607Z" stroke="black" stroke-width="0.86205" stroke-linejoin="round"/>
<path d="M119.456 96.5642C119.285 96.2937 119.181 96.1148 119.115 95.8777C119.115 95.8735 118.332 96.1731 118.332 96.1648C118.274 96.4144 118.203 96.7181 118.366 97.209C118.607 96.8512 118.923 96.6765 119.456 96.5642ZM117.621 92.9113C117.621 92.9113 118.549 92.6741 118.549 92.6658C118.565 92.5784 118.57 92.3746 118.57 92.2539C118.133 92.3912 117.729 92.3787 117.367 92.3621C117.425 92.5493 117.546 92.8197 117.621 92.9113Z" fill="white" stroke="black" stroke-width="1.66419"/>
<path d="M124.671 92.3281C122.212 92.3281 119.965 93.1186 118.26 93.6178C116.545 94.1171 115.588 94.504 113.18 94.504C108.462 94.504 106.619 92.145 106.619 90.2478C106.619 88.9997 107.051 87.997 107.883 86.9652C107.492 86.6407 106.956 86.5117 106.44 86.5117C104.817 86.5117 102.953 87.9055 102.953 90.7138C102.953 95.0157 106.881 97.0086 110.75 97.0086C114.295 97.0086 117.673 95.5025 119.179 94.9575C120.685 94.4208 122.799 93.9257 124.113 93.9257C126.476 93.9257 127.338 94.1046 128.386 94.3542C128.403 94.2419 128.428 94.0255 128.428 93.8425C128.428 93.2683 128.349 92.8814 128.249 92.5236C127.517 92.4154 126.66 92.3281 124.671 92.3281Z" fill="#E10000" stroke="black" stroke-width="1.66419"/>
<path d="M74.3116 76.4062C72.5184 76.4062 71.495 77.1177 70.9291 78.0205C72.0774 78.6612 72.6807 79.1688 73.1508 79.9427C73.908 79.1688 74.9315 78.8651 75.8551 78.8651C76.6581 78.8651 77.2739 78.8984 77.8563 79.0731C77.2281 77.4048 76.1547 76.4062 74.3074 76.4062H74.3116ZM65.6536 78.4865C63.5984 78.4865 62.3211 80.2505 62.1172 81.9605C63.0742 82.0063 63.6649 82.206 64.264 82.5721C65.0421 81.5195 66.7562 80.03 68.8031 80.1507C68.0834 78.9649 67.0266 78.4865 65.6578 78.4865H65.6536ZM61.0397 91.2051C59.4712 91.5213 58.0733 93.0981 58.0733 95.2199C58.0733 96.9257 58.9886 98.2654 59.6584 99.0684C60.0412 97.4416 60.9898 96.4389 61.8551 96.0395C61.023 94.912 60.4447 93.1938 61.0355 91.2051H61.0397ZM67.7339 102.318C67.0016 102.942 66.6064 103.329 64.7966 103.699C65.1877 104.415 66.5273 106.037 68.2955 106.037C69.6435 106.037 71.1663 105.326 72.0941 103.919C69.7392 103.944 68.6201 103.108 67.738 102.318H67.7339ZM61.0771 137.124C58.8887 137.124 57.5698 138.622 56.8501 140.311C58.0441 140.253 58.897 140.432 59.5544 140.777C59.675 139.758 60.6486 138.148 62.5333 137.307C62.2129 137.232 61.7012 137.124 61.0771 137.124ZM58.3479 148.736C57.1372 149.177 56.5547 150.275 56.5547 151.399C56.5547 152.922 57.4034 154.124 58.6724 155.235C59.0759 153.6 59.9954 152.884 60.5571 152.56C60.9565 151.395 60.2201 149.019 58.3479 148.736ZM76.8495 152.31C75.1229 152.31 75.2602 154.066 75.3143 155.081C75.5265 155.713 76.1422 156.649 76.7039 157.29C78.4637 156.046 78.73 155.314 78.9796 154.224C78.5886 152.959 77.8605 152.31 76.8453 152.31H76.8495ZM66.2153 156.886C64.9588 156.886 64.547 157.956 64.393 158.318C64.2141 159.89 65.9282 161.613 67.7755 161.53C67.684 160.544 67.867 159.462 68.1541 158.721C67.788 157.627 67.1181 156.886 66.2153 156.886ZM85.2495 186.884C83.0902 186.884 81.9253 188.768 81.7672 190.586C82.4079 190.474 83.6019 190.445 84.2634 190.728C84.2551 189.047 85.4533 188.044 87.0843 187.416C86.7764 187.171 86.2355 186.884 85.2495 186.884ZM78.7342 194.593C77.5401 194.801 75.6263 196.17 75.6263 198.491C75.6263 200.201 76.396 201.453 77.1366 202.352C77.7024 200.925 78.4637 200.413 79.1377 199.922C78.0311 198.362 77.8355 195.982 78.7342 194.593ZM102.166 202.51C100.83 202.51 99.9734 204.145 99.9692 204.133C100.697 204.865 101.043 205.531 100.477 207.112C102.382 207.058 104.454 205.622 104.259 204.133C104.259 204.133 103.514 202.51 102.166 202.51ZM87.2007 204.665C85.6447 204.665 84.8667 205.947 84.7045 206.538C84.6753 207.952 86.0649 209.412 87.1467 209.999C87.9663 209.408 88.6403 208.293 88.9149 207.698C89.3309 206.625 88.9523 204.665 87.2007 204.665ZM135.358 206.317C132.5 206.317 131.248 208.842 131.888 212.183C132.612 211.289 133.357 210.968 134.135 210.777C133.94 209.204 135.238 207.249 136.839 206.617C136.552 206.442 135.945 206.317 135.358 206.317ZM161.752 213.419C160.962 213.419 159.452 214.626 159.618 216.731C160.275 217.039 160.866 217.525 161.582 219.202C162.605 219.031 164.403 217.338 164.403 215.757C164.403 215.424 164.265 214.626 163.791 214.026C163.267 213.619 162.364 213.419 161.752 213.419ZM135.2 219.007C134.842 219.007 134.339 219.077 133.836 219.269C133.157 219.818 132.612 220.583 132.612 222.297C132.612 223.654 133.336 224.91 134.177 225.289C135.292 223.516 136.482 222.684 137.089 222.364C137.663 220.762 136.973 219.007 135.2 219.007ZM147.266 221.894C146.346 221.894 145.647 222.539 145.006 223.637C145.697 225.114 146.175 226.583 146.242 227.964C147.898 226.932 148.896 225.543 149.192 224.12C149.092 223.08 148.485 221.894 147.266 221.894Z" fill="#EFCF4D" stroke="black" stroke-width="1.87221"/>
<path d="M74.3116 76.4062C72.5184 76.4062 71.495 77.1177 70.9291 78.0205C72.0774 78.6612 72.6807 79.1688 73.1508 79.9427C73.908 79.1688 74.9315 78.8651 75.8551 78.8651C76.6581 78.8651 77.2739 78.8984 77.8563 79.0731C77.2281 77.4048 76.1547 76.4062 74.3074 76.4062H74.3116ZM65.6536 78.4865C63.5984 78.4865 62.3211 80.2505 62.1172 81.9605C63.0742 82.0063 63.6649 82.206 64.264 82.5721C65.0421 81.5195 66.7562 80.03 68.8031 80.1507C68.0834 78.9649 67.0266 78.4865 65.6578 78.4865H65.6536ZM61.0397 91.2051C59.4712 91.5213 58.0733 93.0981 58.0733 95.2199C58.0733 96.9257 58.9886 98.2654 59.6584 99.0684C60.0412 97.4416 60.9898 96.4389 61.8551 96.0395C61.023 94.912 60.4447 93.1938 61.0355 91.2051H61.0397ZM67.7339 102.318C67.0016 102.942 66.6064 103.329 64.7966 103.699C65.1877 104.415 66.5273 106.037 68.2955 106.037C69.6435 106.037 71.1663 105.326 72.0941 103.919C69.7392 103.944 68.6201 103.108 67.738 102.318H67.7339ZM61.0771 137.124C58.8887 137.124 57.5698 138.622 56.8501 140.311C58.0441 140.253 58.897 140.432 59.5544 140.777C59.675 139.758 60.6486 138.148 62.5333 137.307C62.2129 137.232 61.7012 137.124 61.0771 137.124ZM58.3479 148.736C57.1372 149.177 56.5547 150.275 56.5547 151.399C56.5547 152.922 57.4034 154.124 58.6724 155.235C59.0759 153.6 59.9954 152.884 60.5571 152.56C60.9565 151.395 60.2201 149.019 58.3479 148.736ZM76.8495 152.31C75.1229 152.31 75.2602 154.066 75.3143 155.081C75.5265 155.713 76.1422 156.649 76.7039 157.29C78.4637 156.046 78.73 155.314 78.9796 154.224C78.5886 152.959 77.8605 152.31 76.8453 152.31H76.8495ZM66.2153 156.886C64.9588 156.886 64.547 157.956 64.393 158.318C64.2141 159.89 65.9282 161.613 67.7755 161.53C67.684 160.544 67.867 159.462 68.1541 158.721C67.788 157.627 67.1181 156.886 66.2153 156.886ZM85.2495 186.884C83.0902 186.884 81.9253 188.768 81.7672 190.586C82.4079 190.474 83.6019 190.445 84.2634 190.728C84.2551 189.047 85.4533 188.044 87.0843 187.416C86.7764 187.171 86.2355 186.884 85.2495 186.884ZM78.7342 194.593C77.5401 194.801 75.6263 196.17 75.6263 198.491C75.6263 200.201 76.396 201.453 77.1366 202.352C77.7024 200.925 78.4637 200.413 79.1377 199.922C78.0311 198.362 77.8355 195.982 78.7342 194.593ZM102.166 202.51C100.83 202.51 99.9734 204.145 99.9692 204.133C100.697 204.865 101.043 205.531 100.477 207.112C102.382 207.058 104.454 205.622 104.259 204.133C104.259 204.133 103.514 202.51 102.166 202.51ZM87.2007 204.665C85.6447 204.665 84.8667 205.947 84.7045 206.538C84.6753 207.952 86.0649 209.412 87.1467 209.999C87.9663 209.408 88.6403 208.293 88.9149 207.698C89.3309 206.625 88.9523 204.665 87.2007 204.665ZM135.358 206.317C132.5 206.317 131.248 208.842 131.888 212.183C132.612 211.289 133.357 210.968 134.135 210.777C133.94 209.204 135.238 207.249 136.839 206.617C136.552 206.442 135.945 206.317 135.358 206.317ZM161.752 213.419C160.962 213.419 159.452 214.626 159.618 216.731C160.275 217.039 160.866 217.525 161.582 219.202C162.605 219.031 164.403 217.338 164.403 215.757C164.403 215.424 164.265 214.626 163.791 214.026C163.267 213.619 162.364 213.419 161.752 213.419ZM135.2 219.007C134.842 219.007 134.339 219.077 133.836 219.269C133.157 219.818 132.612 220.583 132.612 222.297C132.612 223.654 133.336 224.91 134.177 225.289C135.292 223.516 136.482 222.684 137.089 222.364C137.663 220.762 136.973 219.007 135.2 219.007ZM147.266 221.894C146.346 221.894 145.647 222.539 145.006 223.637C145.697 225.114 146.175 226.583 146.242 227.964C147.898 226.932 148.896 225.543 149.192 224.12C149.092 223.08 148.485 221.894 147.266 221.894Z" fill="#EFCF4D"/>
<path d="M212.839 26.0398L212.589 26.5058L212.185 26.1813C211.682 25.786 211.091 25.5031 210.846 25.4449C210.434 25.3367 210.309 25.345 210.263 25.3825C209.901 25.6945 210.114 28.3614 210.184 29.2351L210.247 30.0838L209.519 29.6636C209.082 29.4056 208.354 29.1435 207.875 29.0187C207.355 28.8731 207.222 28.923 207.18 28.9438C207.164 28.9563 207.114 29.0146 207.047 29.2642C206.86 30.0048 207.226 30.7952 207.613 31.6357C208.05 32.5551 208.495 33.4996 208.241 34.4981C208.017 35.3593 207.205 36.1373 205.924 35.8003C204.771 35.4924 204.26 34.5896 203.852 33.8574L203.735 33.6535C203.253 32.8172 202.209 31.7064 200.823 31.3319C200.307 31.1947 199.787 31.074 199.587 31.1905C199.35 31.3236 199.159 32.0143 198.968 32.7631C198.423 34.91 198.914 37.9138 200.145 40.0731L200.303 40.3435L200.112 40.5848C199.159 41.808 198.577 43.181 198.418 43.8092C198.056 45.203 198.14 45.3278 199.471 45.6856C201.181 46.1432 203.049 45.3902 204.53 44.7952C205.724 44.3126 206.664 43.9382 207.422 44.1379C208.553 44.4374 208.645 45.0116 208.645 45.7314C208.645 47.9738 205.787 50.2039 200.598 52.047C200.465 52.1052 198.331 52.7792 196.23 53.6571C193.33 54.8594 191.279 56.1076 190.097 57.5221L189.76 57.9299L189.415 57.5221C188.304 56.1741 186.528 55.0217 183.694 53.836C182.912 54.2062 182.022 54.6098 180.52 55.2838C182.284 56.0993 183.333 56.7649 183.333 57.7718C183.333 59.2695 182.039 60.0226 179.488 60.0226C176.938 60.0226 175.656 59.2695 175.656 57.7718C175.656 56.5985 177.133 55.833 179.226 54.8678C179.226 54.8678 181.789 53.7236 182.588 53.3117C183.382 52.8998 184.814 52.1385 184.814 52.1385C186.095 51.3979 187.672 50.3786 189.582 48.4232L189.902 48.0945L190.21 48.4273C192.003 50.3037 193.626 51.3522 194.99 52.1343L195.989 52.6585C197.087 52.1926 197.898 51.9263 198.527 51.7183C194.528 50.0624 191.171 47.6452 189.885 45.49C188.546 47.666 185.109 50.1207 181.061 51.7848C180.037 52.2633 177.599 53.0787 175.702 53.9108C173.164 55.005 170.718 56.715 169.457 58.3001L169.108 58.7328L168.767 58.2918C167.498 56.69 165.492 55.2339 162.838 53.9691C162.135 54.3144 161.39 54.6764 160.038 55.2755C161.702 56.0785 162.738 56.7691 162.738 57.7676C162.738 59.2737 161.407 60.0351 158.794 60.0351C156.173 60.0351 154.842 59.2737 154.842 57.7676C154.842 56.5611 156.31 55.8621 158.707 54.8137C158.707 54.8137 160.97 53.8276 161.765 53.4449C162.559 53.0579 164.003 52.2591 164.003 52.2591C165.28 51.5186 167.169 50.3204 168.75 48.444L169.083 48.0446L169.42 48.444C170.997 50.3204 172.898 51.5227 174.175 52.2591L175.39 52.8957C176.626 52.3631 177.52 52.0511 178.215 51.8015C173.456 50.0083 170.851 47.8698 170.851 45.7272C170.851 44.8452 171.425 43.959 172.528 43.959C173.31 43.959 174.125 44.5664 175.161 45.3403C176.464 46.3055 178.074 47.5079 179.838 47.5079C181.227 47.5079 181.323 47.3997 181.323 45.9643C181.323 45.3195 181.098 43.8383 180.478 42.403L180.354 42.1201L180.57 41.9037C182.305 40.1272 183.524 37.3522 183.524 35.1388C183.524 33.2707 183.524 33.2707 182.076 33.2707C180.653 33.2707 179.363 34.0737 178.689 34.7643L178.523 34.9266C177.953 35.5257 177.229 36.2746 176.039 36.2746C174.72 36.2746 174.121 35.3094 174.121 34.4107C174.121 33.3872 174.787 32.5801 175.432 31.8021C176.018 31.099 176.568 30.4208 176.568 29.6636C176.568 29.2684 176.568 29.2059 175.831 29.2059C175.328 29.2059 174.562 29.2767 174.075 29.4056L173.268 29.622L173.543 28.819C173.834 27.9952 174.7 25.4698 174.412 25.0704C174.387 25.0288 174.263 24.9831 173.842 24.9831C173.593 24.9831 172.948 25.0954 172.37 25.3533L171.887 25.5614L171.766 25.0496C171.496 23.9637 170.344 22.4868 169.083 22C167.822 22.4868 166.682 23.9637 166.412 25.0496L166.287 25.5614L165.809 25.3533C165.222 25.0954 164.581 24.9831 164.332 24.9831C163.916 24.9831 163.787 25.0288 163.762 25.0704C163.483 25.474 164.344 27.9994 164.627 28.819L164.906 29.622L164.103 29.4056C163.604 29.2725 162.842 29.2059 162.343 29.2059C161.598 29.2059 161.598 29.2684 161.598 29.6636C161.598 30.4208 162.156 31.099 162.746 31.8021C163.387 32.5842 164.049 33.3872 164.049 34.4107C164.049 35.3094 163.45 36.2746 162.135 36.2746C160.941 36.2746 160.221 35.5257 159.647 34.9266L159.485 34.7643C158.819 34.0737 157.525 33.2707 156.098 33.2707C154.659 33.2707 154.659 33.2707 154.659 35.1388C154.659 37.3522 155.865 40.1314 157.604 41.9037L157.816 42.1201L157.692 42.403C157.076 43.8383 156.847 45.3195 156.847 45.9643C156.847 47.3997 156.943 47.5079 158.336 47.5079C160.105 47.5079 161.715 46.3055 163.009 45.3403C164.045 44.5623 164.86 43.959 165.642 43.959C166.749 43.959 167.319 44.8452 167.319 45.7272C167.319 47.9322 164.565 50.1331 159.547 51.9513C158.694 52.2924 156.593 53.0039 154.862 53.6737C152.774 54.485 150.032 56.0868 148.838 57.4764L148.501 57.8758L148.177 57.4764C147.037 56.1325 145.26 54.9884 142.406 53.7985C141.62 54.173 140.754 54.5599 139.227 55.2464C141.037 56.0743 142.111 56.74 142.111 57.7634C142.111 59.307 140.867 60.0267 138.183 60.0267C135.5 60.0267 134.247 59.307 134.247 57.7634C134.247 56.5361 135.753 55.7664 137.884 54.8053C137.884 54.8053 140.317 53.7611 141.249 53.3034C142.185 52.8458 143.4 52.1302 143.4 52.1302C144.694 51.3896 146.263 50.3703 148.177 48.4149L148.489 48.0987L148.801 48.4149C150.431 50.0333 151.867 51.1441 153.585 52.1302L154.621 52.6835C155.732 52.205 156.543 51.9513 157.176 51.7308C153.152 50.0832 149.778 47.6535 148.484 45.49C147.136 47.6826 143.725 50.1373 139.71 51.7682C139.302 51.9554 136.394 52.9248 134.297 53.8276C131.393 55.0633 129.255 56.4903 128.044 58.0505L127.707 58.4874L127.357 58.0713C126.08 56.5527 124.137 55.1715 121.604 53.9566C120.917 54.2978 120.135 54.668 118.791 55.263C120.468 56.066 121.516 56.7691 121.516 57.7676C121.516 58.7994 120.834 60.0351 117.568 60.0351C114.306 60.0351 113.624 58.7952 113.624 57.7676C113.624 56.5611 115.088 55.8621 117.476 54.8137C117.476 54.8137 119.652 53.8568 120.672 53.3866C121.691 52.9123 122.781 52.2591 122.781 52.2591C124.062 51.5186 125.947 50.3204 127.528 48.444L127.869 48.0446L128.202 48.444C129.783 50.3204 131.668 51.5227 132.953 52.2591L134.014 52.8499C135.254 52.3174 136.182 51.9929 136.864 51.7557C132.188 49.9709 129.625 47.8574 129.625 45.7314C129.625 44.8493 130.207 43.9631 131.314 43.9631C132.096 43.9631 132.912 44.5706 133.948 45.3444C135.242 46.3097 136.852 47.512 138.616 47.512C140.005 47.512 140.101 47.4039 140.101 45.9685C140.101 45.3236 139.881 43.8425 139.261 42.4071L139.144 42.1242L139.352 41.9079C141.091 40.1314 142.302 37.3563 142.302 35.1429C142.302 33.2749 142.302 33.2749 140.862 33.2749C139.435 33.2749 138.137 34.0779 137.467 34.7685L137.309 34.9308C136.731 35.5299 136.011 36.2788 134.813 36.2788C133.503 36.2788 132.903 35.3135 132.903 34.4149C132.903 33.3914 133.569 32.5842 134.21 31.8062C134.796 31.1031 135.346 30.425 135.346 29.6678C135.346 29.2725 135.346 29.2101 134.609 29.2101C134.114 29.2101 133.353 29.2808 132.858 29.4098L132.051 29.6262L132.325 28.8232C132.604 27.9994 133.469 25.474 133.19 25.0746C133.166 25.033 133.045 24.9872 132.625 24.9872C132.367 24.9872 131.734 25.0996 131.144 25.3575L130.673 25.5655L130.544 25.0538C130.274 23.9679 129.126 22.4909 127.869 22.0042C126.613 22.4909 125.46 23.9679 125.19 25.0538L125.061 25.5655L124.587 25.3575C124.004 25.0996 123.359 24.9872 123.105 24.9872C122.689 24.9872 122.565 25.033 122.544 25.0746C122.261 25.4782 123.122 28.0036 123.409 28.8232L123.688 29.6262L122.877 29.4098C122.386 29.2767 121.62 29.2101 121.125 29.2101C120.385 29.2101 120.385 29.2725 120.385 29.6678C120.385 30.425 120.938 31.1031 121.516 31.8062C122.165 32.5884 122.827 33.3914 122.827 34.4149C122.827 35.3135 122.232 36.2788 120.917 36.2788C119.715 36.2788 119.003 35.5299 118.417 34.9308L118.267 34.7685C117.589 34.0779 116.295 33.2749 114.88 33.2749C113.432 33.2749 113.432 33.2749 113.432 35.1429C113.432 37.3563 114.647 40.1355 116.378 41.9079L116.594 42.1242L116.474 42.4071C115.858 43.8425 115.629 45.3236 115.629 45.9685C115.629 47.4039 115.729 47.512 117.114 47.512C118.883 47.512 120.484 46.3097 121.787 45.3444C122.823 44.5664 123.646 43.9631 124.429 43.9631C125.527 43.9631 126.105 44.8493 126.105 45.7314C126.105 48.0529 123.06 50.362 117.535 52.2342C117.535 52.2342 115.059 53.0829 113.649 53.6779C110.824 54.8594 108.744 56.1284 107.558 57.5596L107.212 57.9715L106.875 57.5596C105.76 56.1825 103.959 55.0217 101.08 53.8152C100.331 54.1896 99.5322 54.5848 97.9554 55.288C99.7195 56.1034 100.764 56.7733 100.764 57.7676C100.764 59.2862 99.4948 60.0226 96.8945 60.0226C94.29 60.0226 93.0294 59.2862 93.0294 57.7676C93.0294 56.5444 94.5105 55.7831 96.5991 54.8428C96.5991 54.8428 98.9872 53.7902 100.036 53.2909C101.08 52.7834 102.187 52.1343 102.187 52.1343C103.472 51.3938 105.049 50.3744 106.955 48.419L107.275 48.1028L107.583 48.419C109.218 50.0374 110.649 51.1483 112.359 52.1343L113.345 52.6877C114.448 52.2217 115.284 51.9429 115.929 51.7224C111.91 50.0707 108.552 47.6493 107.267 45.49C105.906 47.7034 102.482 50.1581 98.4505 51.7932C97.1358 52.3382 95.7004 52.7459 93.0128 53.8526C90.3126 54.9718 88.0119 56.5153 86.8012 58.0838L86.4725 58.5165L86.1147 58.1046C84.8749 56.6318 82.8779 55.2505 80.2193 54.0024C79.5287 54.3394 78.759 54.7013 77.4193 55.3046C79.0544 56.0951 80.0862 56.7816 80.0862 57.7718C80.0862 59.3153 78.8422 60.0351 76.1753 60.0351C73.5168 60.0351 72.2686 59.3153 72.2686 57.7718C72.2686 56.5902 73.7082 55.8829 76.088 54.8386C76.088 54.8386 78.4636 53.8152 79.1376 53.4906C79.8157 53.1661 81.4259 52.2633 81.4259 52.2633C82.7073 51.5227 84.592 50.3245 86.1771 48.4481L86.51 48.0487L86.8469 48.4481C88.4238 50.3245 90.3085 51.5269 91.5982 52.2633L92.7091 52.8707C93.9447 52.334 94.8725 52.022 95.5673 51.7848C90.8493 50 88.274 47.874 88.274 45.7397C88.274 44.8577 88.8523 43.9715 89.959 43.9715C90.7328 43.9715 91.5566 44.5789 92.5926 45.3527C93.8865 46.318 95.4883 47.5204 97.2565 47.5204C98.6585 47.5204 98.7459 47.4122 98.7459 45.9768C98.7459 45.3319 98.5212 43.8508 97.9055 42.4155L97.7765 42.1325L97.997 41.9162C99.7361 40.1397 100.943 37.3646 100.943 35.1513C100.943 33.2832 100.943 33.2832 99.4948 33.2832C98.0761 33.2832 96.7822 34.0862 96.1123 34.7768L95.9501 34.9391C95.3718 35.5382 94.6562 36.2871 93.4621 36.2871C92.1432 36.2871 91.5483 35.3218 91.5483 34.4232C91.5483 33.3997 92.214 32.5926 92.8547 31.8146C93.433 31.1114 93.9947 30.4333 93.9947 29.6761C93.9947 29.2808 93.9946 29.2184 93.2541 29.2184C92.759 29.2184 91.9935 29.2892 91.4984 29.4181L90.6954 29.6345L90.9658 28.8315C91.2487 28.0077 92.1099 25.4823 91.8354 25.0829C91.8104 25.0413 91.6897 24.9955 91.2695 24.9955C91.0116 24.9955 90.3709 25.1079 89.7842 25.3658L89.3183 25.5738L89.1893 25.0621C88.9147 23.9762 87.7664 22.4993 86.51 22.0125C85.2535 22.4993 84.1094 23.9762 83.8389 25.0621L83.7058 25.5738L83.2315 25.3658C82.649 25.1079 82.0083 24.9955 81.7587 24.9955C81.3343 24.9955 81.2095 25.0413 81.1762 25.0829C80.9016 25.4865 81.7712 28.0119 82.0582 28.8315L82.3328 29.6345L81.5299 29.4181C81.0306 29.285 80.2651 29.2184 79.77 29.2184C79.0253 29.2184 79.0253 29.2808 79.0253 29.6761C79.0253 30.4333 79.5786 31.1114 80.1694 31.8146C80.8059 32.5967 81.4799 33.3997 81.4799 34.4232C81.4799 35.3218 80.8725 36.2871 79.5578 36.2871C78.3637 36.2871 77.6481 35.5382 77.074 34.9391L76.9076 34.7768C76.2294 34.0862 74.9438 33.2832 73.5209 33.2832C72.0773 33.2832 72.0773 33.2832 72.0773 35.1513C72.0773 37.3646 73.2921 40.1438 75.0229 41.9162L75.2434 42.1325L75.1144 42.4155C74.4987 43.8508 74.2698 45.3319 74.2698 45.9768C74.2698 47.4122 74.3697 47.5204 75.7593 47.5204C77.5233 47.5204 79.1334 46.318 80.4273 45.3527C81.4633 44.5747 82.2829 43.9715 83.0651 43.9715C84.1634 43.9715 84.7417 44.8577 84.7417 45.7397C84.7417 47.9447 82 50.1373 76.9783 51.9637C76.1296 52.2966 75.2267 52.5129 72.9593 53.3991L72.2354 53.7028C69.3355 54.9135 67.4383 56.1159 66.2651 57.4889L65.9281 57.8841L65.5869 57.4847C64.4386 56.1242 62.6288 54.9759 59.7456 53.7694C59.0259 54.1105 58.2021 54.4933 56.7334 55.134C58.5349 56.0535 59.5584 56.8315 59.5584 57.7759C59.5584 58.866 58.2811 60.0392 55.477 60.0392C52.6021 60.0392 51.5869 58.8701 51.5869 57.7759C51.5869 56.4154 53.1055 55.6582 55.427 54.6597C55.427 54.6597 58.0731 53.5447 58.6389 53.2701C59.2089 52.9955 60.7441 52.1426 60.7441 52.1426C62.1004 51.3605 63.7189 50.3162 65.5079 48.4357L65.8199 48.1028L66.1444 48.4315C68.0541 50.3869 69.6267 51.4062 70.9123 52.1468L72.0273 52.7542C73.1382 52.2799 73.9245 51.9804 74.5694 51.7557C70.567 50.0915 67.1845 47.6577 65.8407 45.5025C64.4927 47.7658 60.8689 50.3204 56.6045 51.9679C56.3923 52.0511 53.871 52.9373 51.9198 53.7319C48.9783 55.0591 47.8342 56.378 47.8342 58.4458C47.8342 61.1501 49.9477 62.6062 51.9322 62.6062H203.781C205.77 62.6062 207.883 61.1501 207.883 58.4458C207.883 56.4196 206.785 55.1091 203.968 53.8152C203.278 54.148 202.458 54.5058 201.218 55.0716C203.003 55.8912 204.135 56.6068 204.135 57.7801C204.135 59.3236 202.895 60.0434 200.237 60.0434C197.524 60.0434 196.151 59.2779 196.151 57.7801C196.151 56.6817 197.536 55.808 199.933 54.668C199.933 54.668 202.749 53.3617 203.415 53.0496C204.085 52.7334 205.849 51.8681 205.849 51.8681C209.831 49.8086 210.862 47.9406 210.862 42.7982V42.74C210.862 42.74 215.431 24.879 215.714 23.7807C214.341 23.9346 213.275 25.216 212.83 26.044M47.0853 45.7438C47.0853 45.0241 47.1768 44.4499 48.3043 44.1504C49.0615 43.9507 50.0059 44.3251 51.2042 44.8077C52.6894 45.4068 54.545 46.1557 56.2591 45.6981C56.9623 45.5108 57.3076 45.3444 57.4241 45.1447C57.5406 44.9533 57.5031 44.5664 57.3159 43.8217C57.1578 43.1976 56.5712 41.8205 55.6184 40.5973L55.4229 40.356L55.581 40.0856C56.825 37.9263 57.3076 34.9224 56.7667 32.7756C56.5712 32.0309 56.3756 31.3403 56.1385 31.203C55.9429 31.0823 55.4187 31.2071 54.8987 31.3444C53.5257 31.7147 52.4773 32.8256 51.9905 33.666L51.8823 33.8698C51.4663 34.5938 50.9587 35.5007 49.8062 35.8086C48.5331 36.1456 47.7135 35.3676 47.493 34.5064C47.2392 33.5079 47.6844 32.5634 48.1088 31.644C48.5082 30.8036 48.8743 30.0131 48.6829 29.2725C48.6163 29.0187 48.5664 28.9605 48.5456 28.9522C48.5165 28.9314 48.3792 28.8814 47.8467 29.027C47.3682 29.1519 46.6568 29.4098 46.2033 29.6719L45.4793 30.0921L45.5418 29.2434C45.6208 28.3655 45.833 25.7028 45.4627 25.3908C45.4253 25.3575 45.2921 25.3492 44.8886 25.4532C44.6473 25.5114 44.0523 25.7944 43.553 26.1896L43.137 26.5141L42.8874 26.0481C42.4464 25.2202 41.3771 23.9429 40 23.7848C40.2788 24.8832 44.8636 42.7441 44.8636 42.7441V42.8024C44.8636 47.9447 45.8871 49.8128 49.8645 51.8722L51.7242 52.7917C52.8392 52.3049 53.6505 51.9929 54.2871 51.7557C49.6315 49.975 47.0853 47.8615 47.0853 45.7438Z" fill="#EFCF4D"/>
<path d="M189.897 40.6562C188.665 40.6562 187.663 41.6797 187.663 42.932C187.663 44.1885 188.665 45.2078 189.897 45.2078C191.128 45.2078 192.135 44.1885 192.135 42.932C192.135 41.6797 191.128 40.6562 189.897 40.6562ZM148.488 40.6562C147.256 40.6562 146.254 41.6797 146.254 42.932C146.254 44.1885 147.256 45.2078 148.488 45.2078C149.719 45.2078 150.726 44.1885 150.726 42.932C150.726 41.6797 149.719 40.6562 148.488 40.6562ZM107.274 40.6562C106.038 40.6562 105.04 41.6797 105.04 42.932C105.04 44.1885 106.038 45.2078 107.274 45.2078C108.497 45.2078 109.496 44.1885 109.496 42.932C109.496 41.6797 108.497 40.6562 107.274 40.6562ZM65.8399 40.6562C64.6126 40.6562 63.6016 41.6797 63.6016 42.932C63.6016 44.1885 64.6126 45.2078 65.8399 45.2078C67.0714 45.2078 68.0616 44.1885 68.0616 42.932C68.0616 41.6797 67.0714 40.6562 65.8399 40.6562Z" fill="#00529F"/>
<path d="M119.456 96.5642C119.285 96.2937 119.181 96.1148 119.115 95.8777C119.115 95.8735 118.332 96.1731 118.332 96.1648C118.274 96.4144 118.203 96.7181 118.366 97.209C118.607 96.8512 118.923 96.6765 119.456 96.5642ZM117.621 92.9113C117.621 92.9113 118.549 92.6741 118.549 92.6658C118.565 92.5784 118.57 92.3746 118.57 92.2539C118.133 92.3912 117.729 92.3787 117.367 92.3621C117.425 92.5493 117.546 92.8197 117.621 92.9113Z" fill="white"/>
<path d="M124.671 92.3281C122.212 92.3281 119.965 93.1186 118.26 93.6178C116.545 94.1171 115.588 94.504 113.18 94.504C108.462 94.504 106.619 92.145 106.619 90.2478C106.619 88.9997 107.051 87.997 107.883 86.9652C107.492 86.6407 106.956 86.5117 106.44 86.5117C104.817 86.5117 102.953 87.9055 102.953 90.7138C102.953 95.0157 106.881 97.0086 110.75 97.0086C114.295 97.0086 117.673 95.5025 119.179 94.9575C120.685 94.4208 122.799 93.9257 124.113 93.9257C126.476 93.9257 127.338 94.1046 128.386 94.3542C128.403 94.2419 128.428 94.0255 128.428 93.8425C128.428 93.2683 128.349 92.8814 128.249 92.5236C127.517 92.4154 126.66 92.3281 124.671 92.3281Z" fill="#E10000"/>
</svg>
