<svg width="256" height="256" viewBox="0 0 256 256" fill="none" xmlns="http://www.w3.org/2000/svg">
<path d="M127.484 30.4023H217.689V154.649C216.704 183.267 203.762 198.722 181.084 213.31C163.046 224.91 142.612 225.762 127.484 225.581" fill="white"/>
<path d="M127.585 30.3984L37.5475 30.4057L37.3906 153.317C37.6995 184.42 51.5916 199.184 75.2749 213.846C93.0384 224.837 112.463 225.538 127.585 225.352V30.3984Z" fill="#FFE013"/>
<path d="M127.414 30.4023V225.066" stroke="#231F20" stroke-width="0.721205" stroke-miterlimit="3.864"/>
<path d="M174.721 157.05C174.721 157.05 173.721 156.417 172.764 156.49C171.813 156.566 171.131 157.102 170.929 157.396C170.734 157.688 170.783 157.959 171.691 157.884C172.594 157.808 172.837 157.884 173.106 158.35C173.374 158.813 173.447 159.718 173.447 159.718C173.447 159.718 174.472 159.45 174.625 158.496C174.77 157.539 174.721 157.05 174.721 157.05Z" fill="#FFE013"/>
<path d="M174.721 157.05C174.721 157.05 173.721 156.417 172.764 156.49C171.813 156.566 171.131 157.102 170.929 157.396C170.734 157.688 170.783 157.959 171.691 157.884C172.594 157.808 172.837 157.884 173.106 158.35C173.374 158.813 173.447 159.718 173.447 159.718C173.447 159.718 174.472 159.45 174.625 158.496C174.77 157.539 174.721 157.05 174.721 157.05Z" stroke="black" stroke-width="0.530733" stroke-miterlimit="3.864"/>
<path d="M170.839 164.547C170.839 164.547 169.656 164.766 169.431 165.696C169.211 166.627 169.187 167.444 169.339 168.163C169.479 168.885 170.078 169.611 170.279 168.962C170.473 168.312 170.523 167.851 170.937 167.674C171.352 167.508 172.065 167.7 172.065 167.7C172.065 167.7 173.242 167.038 173.267 166.477C173.285 165.916 172.821 165.203 172.334 164.935C171.839 164.666 170.839 164.547 170.839 164.547Z" fill="#FFE013"/>
<path d="M170.839 164.547C170.839 164.547 169.656 164.766 169.431 165.696C169.211 166.627 169.187 167.444 169.339 168.163C169.479 168.885 170.078 169.611 170.279 168.962C170.473 168.312 170.523 167.851 170.937 167.674C171.352 167.508 172.065 167.7 172.065 167.7C172.065 167.7 173.242 167.038 173.267 166.477C173.285 165.916 172.821 165.203 172.334 164.935C171.839 164.666 170.839 164.547 170.839 164.547Z" stroke="black" stroke-width="0.530733" stroke-miterlimit="3.864"/>
<path d="M179.305 169.649C179.305 169.649 179.799 170.698 180.531 170.941C181.269 171.186 182.366 170.941 182.799 170.841C183.243 170.75 182.775 170.186 182.415 170.062C182.049 169.945 181.726 169.524 181.829 169.308C181.92 169.089 182.317 168.634 182.074 167.944C181.829 167.266 181.409 167.092 180.774 167.241C180.134 167.384 179.817 167.653 179.622 168.095C179.433 168.534 179.305 169.649 179.305 169.649Z" fill="#FFE013"/>
<path d="M179.305 169.649C179.305 169.649 179.799 170.698 180.531 170.941C181.269 171.186 182.366 170.941 182.799 170.841C183.243 170.75 182.775 170.186 182.415 170.062C182.049 169.945 181.726 169.524 181.829 169.308C181.92 169.089 182.317 168.634 182.074 167.944C181.829 167.266 181.409 167.092 180.774 167.241C180.134 167.384 179.817 167.653 179.622 168.095C179.433 168.534 179.305 169.649 179.305 169.649Z" stroke="black" stroke-width="0.530733" stroke-miterlimit="3.864"/>
<path fill-rule="evenodd" clip-rule="evenodd" d="M183.781 164.154C183.781 164.154 184.678 163.911 184.97 164.446C185.263 164.984 185.386 165.989 185.361 166.383C185.336 166.77 185.922 166.502 186.318 165.864C186.715 165.233 186.946 164.767 187.001 164.178C187.05 163.593 187.001 163.006 187.001 163.006C187.001 163.006 186.025 162.027 185.678 161.856C185.336 161.689 184.593 162.151 184.434 162.395C184.27 162.639 183.977 163.081 183.977 163.398C183.977 163.72 183.781 164.154 183.781 164.154Z" fill="#FFE013"/>
<path d="M183.781 164.154C183.781 164.154 184.678 163.911 184.97 164.446C185.263 164.984 185.386 165.989 185.361 166.383C185.336 166.77 185.922 166.502 186.318 165.864C186.715 165.233 186.946 164.767 187.001 164.178C187.05 163.593 187.001 163.006 187.001 163.006C187.001 163.006 186.025 162.027 185.678 161.856C185.336 161.689 184.593 162.151 184.434 162.395C184.27 162.639 183.977 163.081 183.977 163.398C183.977 163.72 183.781 164.154 183.781 164.154Z" stroke="black" stroke-width="0.530733" stroke-miterlimit="3.864"/>
<path d="M148.812 146.488C148.812 146.488 147.891 145.603 146.831 145.38C145.775 145.147 144.861 145.147 144.319 145.467C143.769 145.778 143.251 146.209 144.026 146.321C144.8 146.434 145.147 146.488 145.287 146.84C145.428 147.175 145.714 147.708 145.892 147.971C146.062 148.227 146.72 148.455 146.977 148.37C147.233 148.281 147.946 147.751 148.264 147.382C148.58 147.007 148.812 146.488 148.812 146.488Z" fill="#FFE013"/>
<path d="M148.812 146.488C148.812 146.488 147.891 145.603 146.831 145.38C145.775 145.147 144.861 145.147 144.319 145.467C143.769 145.778 143.251 146.209 144.026 146.321C144.8 146.434 145.147 146.488 145.287 146.84C145.428 147.175 145.714 147.708 145.892 147.971C146.062 148.227 146.72 148.455 146.977 148.37C147.233 148.281 147.946 147.751 148.264 147.382C148.58 147.007 148.812 146.488 148.812 146.488Z" stroke="black" stroke-width="0.530733" stroke-miterlimit="3.864"/>
<path d="M141.692 151.949C141.692 151.949 140.661 152.091 140.064 152.549C139.46 153.01 139.149 153.597 138.832 154.438C138.515 155.284 138.801 156.024 138.918 156.457C139.033 156.887 139.546 156.369 139.832 155.771C140.119 155.17 140.211 155.116 140.661 155.083C141.125 155.058 141.624 155.284 142.113 155.083C142.6 154.884 142.911 154.32 143.058 153.866C143.197 153.409 143.197 153.18 143.027 153.01C142.857 152.835 141.692 151.949 141.692 151.949Z" fill="#FFE013"/>
<path d="M141.692 151.949C141.692 151.949 140.661 152.091 140.064 152.549C139.46 153.01 139.149 153.597 138.832 154.438C138.515 155.284 138.801 156.024 138.918 156.457C139.033 156.887 139.546 156.369 139.832 155.771C140.119 155.17 140.211 155.116 140.661 155.083C141.125 155.058 141.624 155.284 142.113 155.083C142.6 154.884 142.911 154.32 143.058 153.866C143.197 153.409 143.197 153.18 143.027 153.01C142.857 152.835 141.692 151.949 141.692 151.949Z" stroke="black" stroke-width="0.530733" stroke-miterlimit="3.864"/>
<path d="M145.427 160.631C145.427 160.631 145.026 161.822 145.489 162.71C145.946 163.597 146.805 164.082 147.172 164.201C147.55 164.314 147.697 163.884 147.574 163.372C147.464 162.854 147.141 162.542 147.404 162.137C147.659 161.735 148.092 161.536 148.092 161.536C148.092 161.536 148.782 160.775 148.635 160.292C148.495 159.808 148.062 159.344 147.519 159.433C146.976 159.518 146.031 159.887 145.891 160.149C145.745 160.406 145.427 160.631 145.427 160.631Z" fill="#FFE013"/>
<path d="M145.427 160.631C145.427 160.631 145.026 161.822 145.489 162.71C145.946 163.597 146.805 164.082 147.172 164.201C147.55 164.314 147.697 163.884 147.574 163.372C147.464 162.854 147.141 162.542 147.404 162.137C147.659 161.735 148.092 161.536 148.092 161.536C148.092 161.536 148.782 160.775 148.635 160.292C148.495 159.808 148.062 159.344 147.519 159.433C146.976 159.518 146.031 159.887 145.891 160.149C145.745 160.406 145.427 160.631 145.427 160.631Z" stroke="black" stroke-width="0.530733" stroke-miterlimit="3.864"/>
<path d="M155.23 157.574C155.23 157.574 155.864 158.007 155.81 158.639C155.742 159.27 155.376 159.867 155.632 160.011C155.889 160.154 156.822 159.523 157.279 159.124C157.736 158.718 157.998 158.087 157.968 157.574C157.937 157.056 157.627 156.287 157.084 156.084C156.529 155.883 155.718 155.828 155.486 156.026C155.261 156.228 155.059 156.435 155.12 156.715C155.175 157.002 155.23 157.574 155.23 157.574Z" fill="#FFE013"/>
<path d="M155.23 157.574C155.23 157.574 155.864 158.007 155.81 158.639C155.742 159.27 155.376 159.867 155.632 160.011C155.889 160.154 156.822 159.523 157.279 159.124C157.736 158.718 157.998 158.087 157.968 157.574C157.937 157.056 157.627 156.287 157.084 156.084C156.529 155.883 155.718 155.828 155.486 156.026C155.261 156.228 155.059 156.435 155.12 156.715C155.175 157.002 155.23 157.574 155.23 157.574Z" stroke="black" stroke-width="0.530733" stroke-miterlimit="3.864"/>
<path d="M136.87 116.353C136.87 116.353 136.968 115.598 136.406 115.003C135.852 114.412 135.217 114.311 134.693 114.21C134.157 114.11 133.821 114.281 134.388 114.902C134.961 115.527 134.821 116.189 134.821 116.189C134.821 116.189 135.486 116.32 135.913 116.385C136.346 116.451 136.87 116.353 136.87 116.353Z" fill="#FFE013"/>
<path d="M136.87 116.353C136.87 116.353 136.968 115.598 136.406 115.003C135.852 114.412 135.217 114.311 134.693 114.21C134.157 114.11 133.821 114.281 134.388 114.902C134.961 115.527 134.821 116.189 134.821 116.189C134.821 116.189 135.486 116.32 135.913 116.385C136.346 116.451 136.87 116.353 136.87 116.353Z" stroke="#231F20" stroke-width="0.530733" stroke-miterlimit="3.864"/>
<path d="M132.283 121.497C132.283 121.497 131.167 121.466 130.838 121.927C130.509 122.391 130.112 123.475 130.283 123.707C130.442 123.939 132.252 123.903 132.252 123.903C132.252 123.903 132.88 123.244 132.844 122.945C132.813 122.652 132.283 121.497 132.283 121.497Z" fill="#FFE013"/>
<path d="M132.283 121.497C132.283 121.497 131.167 121.466 130.838 121.927C130.509 122.391 130.112 123.475 130.283 123.707C130.442 123.939 132.252 123.903 132.252 123.903C132.252 123.903 132.88 123.244 132.844 122.945C132.813 122.652 132.283 121.497 132.283 121.497Z" stroke="black" stroke-width="0.530733" stroke-miterlimit="3.864"/>
<path d="M133.275 128.984C133.275 128.984 132.056 129.213 131.921 129.969C131.788 130.731 131.83 131.553 132.019 132.079C132.221 132.606 132.811 132.442 132.916 131.916C133.007 131.386 133.104 130.962 133.44 130.926C133.769 130.892 134.196 131.057 134.196 131.057C134.196 131.057 134.623 130.563 134.562 130.039C134.495 129.509 134.196 129.116 133.935 129.051C133.671 128.984 133.275 128.984 133.275 128.984Z" fill="#FFE013"/>
<path d="M133.275 128.984C133.275 128.984 132.056 129.213 131.921 129.969C131.788 130.731 131.83 131.553 132.019 132.079C132.221 132.606 132.811 132.442 132.916 131.916C133.007 131.386 133.104 130.962 133.44 130.926C133.769 130.892 134.196 131.057 134.196 131.057C134.196 131.057 134.623 130.563 134.562 130.039C134.495 129.509 134.196 129.116 133.935 129.051C133.671 128.984 133.275 128.984 133.275 128.984Z" stroke="black" stroke-width="0.530733" stroke-miterlimit="3.864"/>
<path d="M142.087 131.254C142.215 131.284 143.27 131.748 143.074 132.309C142.879 132.869 142.477 133.308 142.477 133.5C142.477 133.702 143.403 133.608 144.025 133.339C144.659 133.065 145.343 132.372 145.385 131.616C145.416 130.86 144.885 129.906 144.885 129.906C144.885 129.906 143.537 129.936 143.104 130.098C142.678 130.266 141.952 131.222 142.087 131.254Z" fill="#FFE013"/>
<path d="M142.087 131.254C142.215 131.284 143.27 131.748 143.074 132.309C142.879 132.869 142.477 133.308 142.477 133.5C142.477 133.702 143.403 133.608 144.025 133.339C144.659 133.065 145.343 132.372 145.385 131.616C145.416 130.86 144.885 129.906 144.885 129.906C144.885 129.906 143.537 129.936 143.104 130.098C142.678 130.266 141.952 131.222 142.087 131.254Z" stroke="black" stroke-width="0.530733" stroke-miterlimit="3.864"/>
<path fill-rule="evenodd" clip-rule="evenodd" d="M143.82 82.0615C143.82 82.0615 144.07 82.0615 144.6 81.9789C145.137 81.8999 145.387 82.0983 145.467 81.6493C145.546 81.1984 144.929 80.7441 145.009 80.458C145.088 80.168 145.259 80.168 145.631 80.412C145.997 80.6622 146.283 80.9489 146.454 81.4056C146.613 81.8536 146.82 82.5915 146.82 82.9671C146.82 83.3365 146.82 83.5675 146.741 83.9797C146.661 84.3905 146.49 84.5526 146.49 84.5526C146.49 84.5526 145.997 84.5951 145.387 84.266C144.764 83.9392 144.85 84.1955 144.515 83.5798C144.191 82.9671 143.82 82.0615 143.82 82.0615Z" fill="#FFE013"/>
<path d="M143.82 82.0615C143.82 82.0615 144.07 82.0615 144.6 81.9789C145.137 81.8999 145.387 82.0983 145.467 81.6493C145.546 81.1984 144.929 80.7441 145.009 80.458C145.088 80.168 145.259 80.168 145.631 80.412C145.997 80.6622 146.283 80.9489 146.454 81.4056C146.613 81.8536 146.82 82.5915 146.82 82.9671C146.82 83.3365 146.82 83.5675 146.741 83.9797C146.661 84.3905 146.49 84.5526 146.49 84.5526C146.49 84.5526 145.997 84.5951 145.387 84.266C144.764 83.9392 144.85 84.1955 144.515 83.5798C144.191 82.9671 143.82 82.0615 143.82 82.0615Z" stroke="#231F20" stroke-width="0.530733" stroke-miterlimit="3.864"/>
<path d="M135.639 81.1988C135.639 81.1988 135.779 80.9948 135.805 80.8458C135.822 80.6933 136.023 80.3517 135.865 80.1748C135.701 79.989 135.413 79.989 135.097 79.9828C134.774 79.9702 134.651 80.0438 134.572 79.8328C134.487 79.6198 134.572 79.4161 134.755 79.2903C134.932 79.16 135.371 78.9646 135.578 78.8915C135.779 78.8148 135.841 78.6471 136.365 78.6655C136.89 78.6897 137.042 78.7086 137.316 78.9466C137.596 79.1778 137.572 79.0956 137.884 79.5073C138.188 79.9277 138.121 80.1839 138.121 80.1839L137.572 81.1261C137.572 81.1261 137.505 81.4892 137.237 81.5925C136.969 81.6994 136.737 81.5925 136.578 81.5501C136.419 81.5077 136.14 81.3883 135.907 81.3545C135.67 81.3244 135.639 81.1988 135.639 81.1988Z" fill="#FFE013"/>
<path d="M135.639 81.1988C135.639 81.1988 135.779 80.9948 135.805 80.8458C135.822 80.6933 136.023 80.3517 135.865 80.1748C135.701 79.989 135.413 79.989 135.097 79.9828C134.774 79.9702 134.651 80.0438 134.572 79.8328C134.487 79.6198 134.572 79.4161 134.755 79.2903C134.932 79.16 135.371 78.9646 135.578 78.8915C135.779 78.8148 135.841 78.6471 136.365 78.6655C136.89 78.6897 137.042 78.7086 137.316 78.9466C137.596 79.1778 137.572 79.0956 137.884 79.5073C138.188 79.9277 138.121 80.1839 138.121 80.1839L137.572 81.1261C137.572 81.1261 137.505 81.4892 137.237 81.5925C136.969 81.6994 136.737 81.5925 136.578 81.5501C136.419 81.5077 136.14 81.3883 135.907 81.3545C135.67 81.3244 135.639 81.1988 135.639 81.1988Z" stroke="#231F20" stroke-width="0.530733" stroke-miterlimit="3.864"/>
<path d="M133.229 85.5692C133.229 85.5692 133.077 85.2307 132.437 85.1695C131.789 85.1057 131.271 84.926 131.027 85.2307C130.778 85.538 130.174 86.1178 130.204 86.3925C130.229 86.6661 130.295 86.7853 130.631 86.8799C130.966 86.9748 131.149 86.8496 131.582 86.8799C132.003 86.91 132.491 87.1 132.491 87.1C132.491 87.1 132.955 86.8799 133.015 86.6059C133.077 86.3314 133.229 85.5692 133.229 85.5692Z" fill="#FFE013"/>
<path d="M133.229 85.5692C133.229 85.5692 133.077 85.2307 132.437 85.1695C131.789 85.1057 131.271 84.926 131.027 85.2307C130.778 85.538 130.174 86.1178 130.204 86.3925C130.229 86.6661 130.295 86.7853 130.631 86.8799C130.966 86.9748 131.149 86.8496 131.582 86.8799C132.003 86.91 132.491 87.1 132.491 87.1C132.491 87.1 132.955 86.8799 133.015 86.6059C133.077 86.3314 133.229 85.5692 133.229 85.5692Z" stroke="#231F20" stroke-width="0.530733" stroke-miterlimit="3.864"/>
<path fill-rule="evenodd" clip-rule="evenodd" d="M135.796 96.7539C135.796 96.7539 135.832 97.0525 135.704 97.3269C135.588 97.6105 135.588 97.851 135.222 98.0002C134.85 98.1593 134.393 98.2782 134.118 98.2782C133.844 98.2782 133.661 98.4331 133.723 98.5828C133.784 98.7321 134.21 98.921 134.423 99.0131C134.637 99.1013 135.771 99.1621 135.978 99.1621C136.198 99.1621 137.058 99.0131 137.296 98.8878C137.54 98.762 137.606 98.921 137.82 98.5828C138.027 98.2446 137.387 97.6956 137.174 97.5158C136.96 97.3269 135.796 96.7539 135.796 96.7539Z" fill="#FFE013"/>
<path d="M135.796 96.7539C135.796 96.7539 135.832 97.0525 135.704 97.3269C135.588 97.6105 135.588 97.851 135.222 98.0002C134.85 98.1593 134.393 98.2782 134.118 98.2782C133.844 98.2782 133.661 98.4331 133.723 98.5828C133.784 98.7321 134.21 98.921 134.423 99.0131C134.637 99.1013 135.771 99.1621 135.978 99.1621C136.198 99.1621 137.058 99.0131 137.296 98.8878C137.54 98.762 137.606 98.921 137.82 98.5828C138.027 98.2446 137.387 97.6956 137.174 97.5158C136.96 97.3269 135.796 96.7539 135.796 96.7539Z" stroke="#231F20" stroke-width="0.530733" stroke-miterlimit="3.864"/>
<path d="M146.132 99.917C145.326 98.6423 142.534 95.5788 141.918 94.8109C141.314 94.0359 140.454 93.2858 140.027 93.4749C139.6 93.661 139.332 94.5974 139.095 95.2587C138.85 95.9262 138.405 96.3771 138.747 97.0209C139.095 97.6581 139.18 98.2372 138.644 98.5302C138.113 98.8256 137.844 98.3749 137.789 98.1062C137.735 97.8379 136.777 97.2066 136.089 96.8073C135.387 96.4083 134.491 96.5391 134.491 96.5391C134.491 96.5391 134.619 95.6089 134.838 95.1546C135.051 94.7041 136.089 94.7555 136.351 94.7041C136.619 94.6491 137.07 94.2743 137.393 93.8225C137.71 93.368 137.68 92.8864 137.82 92.5424C137.948 92.1952 138.43 91.7191 138.375 91.213C138.326 90.7012 137.521 90.3076 136.936 90.1761C136.351 90.0391 135.868 90.4966 135.174 90.1458C134.485 89.8044 134.545 89.0846 134.064 88.7585C133.582 88.4414 133.1 88.792 132.76 88.8988C132.412 89.0026 131.984 88.8409 131.716 88.3933C131.448 87.9354 131.857 86.9814 131.857 86.9814C131.857 86.9814 132.412 87.0881 132.68 86.9814C132.948 86.8747 133.21 85.938 133.13 85.5119C133.052 85.0877 133.399 84.713 133.717 84.765C134.033 84.8197 134.405 85.7008 134.918 86.4172C135.424 87.1365 136.643 87.9111 137.277 88.2616C137.923 88.6027 138.43 88.3933 138.43 88.3933C138.43 88.3933 138.534 87.8283 138.217 87.0881C137.899 86.3378 137.277 86.5243 136.99 85.9936C136.698 85.4569 137.07 85.1946 136.961 84.5272C136.857 83.8594 136.405 83.7342 135.656 82.9839C134.911 82.2406 135.022 82.268 135.07 81.5486C135.124 80.8223 135.528 81.1492 135.821 81.2249C136.112 81.3044 136.643 81.5486 136.961 81.6248C137.277 81.7033 137.418 81.2797 137.581 80.8564C137.735 80.4231 138.192 79.8926 138.192 79.8926C138.192 79.8926 138.991 79.844 139.18 80.268C139.363 80.6918 139.308 81.9474 139.308 83.0667C139.308 84.1825 140.4 85.8318 140.4 85.8318C140.4 85.8318 140.936 85.9626 141.332 85.9626C141.735 85.9626 142.418 85.6702 142.74 84.9509C143.064 84.2346 142.826 83.2526 142.826 82.5027C142.826 81.7618 143.594 81.5966 143.594 81.5966C143.594 81.5966 144.156 82.9352 144.417 83.4078C144.686 83.8897 145.082 84.1031 145.588 84.2346C146.1 84.3656 146.528 84.4448 146.528 84.4448C146.528 84.4448 146.79 84.5515 146.979 84.8197C147.161 85.0877 146.765 85.8071 146.1 86.042C145.436 86.2861 145.247 85.6464 144.552 85.938C143.863 86.2311 144.076 87.0538 144.18 87.38C144.283 87.698 144.076 87.8862 143.357 88.4963C142.638 89.1094 142.369 90.0727 142.29 90.9507C142.205 91.8259 144.156 93.8473 144.953 94.7555C145.753 95.658 149.296 98.5052 149.296 98.5052C149.296 98.5052 149.533 98.1888 149.881 97.5515C150.222 96.9196 151.082 96.6703 151.424 96.7282C151.771 96.7772 151.479 97.7708 151.454 98.4571C151.424 99.1431 152.198 99.9506 152.918 100.853C153.631 101.762 155.607 103.866 155.607 103.866C155.607 103.866 157.497 102.533 158.161 101.918C158.827 101.304 161.143 99.9749 162.802 99.0121C164.454 98.0576 165.083 97.3135 165.107 96.4601C165.142 95.6089 164.046 93.1791 163.673 92.6244C163.302 92.0636 163.174 90.7068 162.904 89.8287C162.637 88.9543 161.253 80.3502 161.253 80.3502C161.253 80.3502 162.186 79.5181 162.613 79.3624C163.034 79.2004 164.21 79.0694 164.21 79.0694C164.21 79.0694 164.686 77.3351 165.272 76.3771C165.856 75.4291 167.302 75.5294 167.985 75.1789C168.68 74.8348 168.844 74.8348 169.265 75.0486C169.698 75.2618 168.735 76.0848 168.387 76.5146C168.046 76.9412 167.994 78.4795 168.049 78.4003C168.103 78.3181 168.362 77.2039 171.064 76.3163C173.771 75.4291 175.668 75.6426 176.6 75.8108C177.528 75.9784 177.954 76.4017 177.784 76.6153C177.619 76.8229 176.857 76.8229 176.558 77.0792C176.259 77.3284 175.375 78.4324 174.399 78.9749C173.43 79.5237 171.558 80.0481 171.478 81.0239C171.399 81.9997 171.558 82.5851 172.003 82.966C172.455 83.3534 172.838 84.3531 173.058 85.0391C173.283 85.7316 174.082 87.0666 174.753 87.2925C175.418 87.5115 176.083 87.6734 176.259 87.2311C176.442 86.7801 176.424 86.5366 176.625 86.3984C176.826 86.256 177.6 86.6 177.503 87.1485C177.405 87.6917 177.295 88.6027 176.588 89.0084C175.875 89.4137 174.985 89.7039 174.619 89.7039C174.26 89.7039 174.016 90.3957 174.503 91.0818C174.985 91.7766 175.369 92.3195 176.119 92.5424C176.869 92.7681 177.424 92.6065 177.46 92.7681C177.503 92.932 177.497 94.2861 177.051 94.6734C176.606 95.0546 175.674 94.972 175.369 94.8928C175.07 94.8109 174.637 94.5482 174.637 94.5482C174.637 94.5482 173.851 96.9966 174.601 97.9511C175.351 98.9144 176.205 99.1186 177.338 98.308C178.479 97.4873 179.686 96.4719 180.284 95.6035C180.869 94.7278 182.101 92.6883 182.71 92.2188C183.314 91.7492 183.704 91.7492 183.992 92.0395C184.272 92.3195 184.064 92.8681 183.906 93.2312C183.741 93.6002 185.795 92.1825 186.18 91.6699C186.564 91.1641 188.673 88.405 189.381 86.905C190.088 85.4083 191.698 81.9997 192.082 79.9686C192.472 77.9447 192.735 76.216 192.716 75.6036C192.686 74.9996 192.845 74.2131 193.448 73.8682C194.065 73.5238 195.387 73.4385 196.015 74.1062C196.643 74.7739 197.668 76.1029 197.595 78.6125C197.534 80.9228 196.887 82.292 196.558 83.4535C196.234 84.6151 195.064 87.835 195.064 87.835C195.064 87.835 196.161 87.2858 199.101 83.3718C202.034 79.4633 203.107 77.5208 203.594 76.8467C204.083 76.1733 204.942 75.5238 205.692 75.7103C206.443 75.8897 206.698 76.8229 206.679 78.9937C206.668 81.0603 205.954 82.9082 204.704 85.6702C203.442 88.4234 201.515 91.2375 200.564 92.5575C199.612 93.8744 197.229 96.6883 196.156 97.85C195.082 99.0121 194.009 100.329 194.167 100.512C194.332 100.692 194.759 100.731 199.491 97.307C204.21 93.8811 206.79 91.3833 208.35 89.597C209.911 87.8162 212.022 85.6242 212.814 85.219C213.601 84.8197 214.021 85.6522 214.046 86.9226C214.064 88.2033 214.01 91.2891 213.253 92.7433C212.503 94.2037 210.546 96.1975 207.57 98.5696C204.997 100.619 202.119 103.365 200.375 104.607C198.631 105.85 197.106 107.167 197.192 107.305C197.271 107.448 199.54 106.673 203.802 104.265C208.064 101.847 211.424 99.3195 211.424 99.3195C211.424 99.3195 212.619 99.7801 212.455 102.152C212.296 104.527 210.521 107.442 206.625 109.841C202.729 112.237 198.466 114.079 196.643 114.686C194.82 115.295 192.161 115.945 192.161 115.945C192.161 115.945 192.833 117.444 195.101 117.563C197.369 117.688 199.265 117.363 200.228 116.915C201.204 116.469 201.881 116.027 202.607 116.39C203.332 116.758 203.107 117.78 202.93 118.6C202.747 119.417 201.222 123.365 197.997 124.195C194.778 125.024 192.057 123.869 191.247 123.344C190.436 122.819 188.71 122.533 188.631 122.695C188.558 122.859 190.427 124.413 191.581 126.817C193.334 130.467 190.912 136.535 189.425 135.321C188.174 134.301 187.098 131.512 185.581 129.995C183.525 127.939 182.528 126.518 182.125 126.365C181.716 126.222 181.777 126.817 182.064 127.484C182.345 128.152 183.259 130.518 182.875 131.963C182.484 133.411 182.064 133.775 182.064 133.775C182.064 133.775 183.992 136.307 184.93 137.519C185.857 138.737 186.345 139.054 187.436 139.811C188.528 140.567 194.014 144.561 196.715 141.802C199.41 139.043 199.105 137.182 198.434 134.323C197.77 131.457 198.825 130.32 199.514 129.246C200.196 128.17 200.728 127.311 200.624 126.393C200.519 125.475 200.142 124.887 200.142 124.5C200.142 124.113 200.459 123.814 201.154 123.832C201.837 123.85 202.35 124.219 203.099 124.136C203.848 124.057 204.746 123.265 205.355 122.433C205.959 121.603 207.197 120.591 207.8 120.223C208.416 119.859 208.653 119.698 208.715 119.417C208.837 118.881 208.837 117.951 208.434 117.789C208.026 117.625 207.782 118.357 207.295 118.274C206.812 118.194 206.69 117.158 207.459 116.652C208.227 116.146 209.453 116.003 210.222 116.432C210.995 116.856 212.123 118.445 211.502 120.567C210.867 122.695 208.923 123.85 208.452 124.945C207.989 126.042 207.85 126.96 207.85 126.96C207.85 126.96 208.904 126.655 209.715 126.877C210.526 127.097 211.032 128.033 211.032 128.658C211.032 129.289 211.094 129.832 210.642 129.938C210.203 130.039 209.142 129.694 208.416 130.082C207.684 130.463 205.977 132.311 205.331 134.401C204.679 136.488 203.898 138.661 202.739 140.423C201.582 142.188 200.105 143.887 196.959 145.107C193.813 146.323 187.48 142.856 186.808 142.532C186.138 142.207 184.661 141.359 184.661 141.359C184.661 141.359 184.46 146.246 184.93 147.622C185.388 149 187.052 151.066 188.089 152.204C189.119 153.336 190.887 154.676 191.082 156C191.29 157.31 190.802 157.501 190.559 158.222C190.314 158.954 190.314 159.829 189.442 160.64C188.576 161.446 187.498 161.182 187.498 161.182C187.498 161.182 187.826 161.759 187.661 162.39C187.498 163.012 187.191 163.177 186.851 162.957C186.509 162.73 185.845 161.397 184.93 162.082C184.009 162.768 184.046 163.32 184.028 163.762C184.009 164.213 183.576 164.476 182.973 164.393C182.369 164.31 181.509 164.454 182.345 165.365C183.18 166.278 183.686 166.939 183.362 167.777C183.034 168.612 182.064 168.938 182.064 168.938C182.064 168.938 182.241 167.188 181.168 167.228C180.095 167.271 179.796 167.67 179.606 168.283C179.423 168.897 179.472 169.668 179.472 169.668C179.472 169.668 177.954 169.952 177.625 169.326C177.295 168.694 177.503 167.713 178.046 167.128C178.594 166.539 178.631 166.037 178.314 165.909C177.991 165.793 177.253 166.317 176.704 166.926C176.162 167.534 175.247 167.371 175.247 167.371C175.247 167.371 175.509 168.534 174.583 169.119C173.644 169.707 173.302 168.957 172.734 168.796C172.174 168.633 171.82 168.039 172.174 167.652C172.515 167.271 173.405 166.926 173.18 166.116C172.96 165.304 172.229 164.755 171.741 164.673C171.253 164.597 170.71 164.573 170.71 164.573C170.71 164.573 170.729 163.481 171.418 162.914C172.107 162.344 172.631 161.902 172.631 161.902C172.631 161.902 172.332 161.002 172.388 160.558C172.455 160.11 172.838 159.926 173.467 159.705C174.094 159.484 174.503 159.054 174.637 158.387C174.783 157.718 174.68 156.887 174.68 156.887C174.68 156.887 176.064 156.624 176.588 157.094C177.113 157.555 177.095 158.204 177.028 158.917C176.973 159.622 176.973 160.253 176.973 160.253C176.973 160.253 178.454 160.335 178.924 160.027C179.387 159.728 179.631 158.673 180.119 158.125C180.601 157.582 181.296 157.094 181.149 156.118C181.009 155.147 180.79 154.451 179.893 153.847C179.003 153.235 178.21 152.53 177.991 152.144C177.765 151.756 177.418 151.673 177.07 152.062C176.729 152.448 175.875 153.657 173.997 153.496C172.107 153.336 171.418 152.08 171.418 152.08C171.418 152.08 172.613 151.394 172.796 150.662C172.978 149.933 173.039 148.591 172.491 147.152C171.948 145.71 171.863 145.005 171.802 143.283C171.741 141.558 171.723 140.527 171.723 140.527C171.723 140.527 166.856 140.484 163.918 141.765C160.973 143.039 160.265 144.375 160.265 145.387C160.265 146.405 160.601 147.701 161.96 148.963C163.332 150.219 163.673 150.683 163.612 151.673C163.551 152.668 163.441 153.378 162.509 153.397C161.583 153.414 161.113 153.777 160.729 154.229C160.345 154.676 159.533 155.372 159.247 155.488C158.966 155.613 158.924 155.677 158.741 156.182C158.558 156.688 157.954 156.912 157.954 156.912C157.954 156.912 157.107 155.714 156.295 155.875C155.473 156.039 155.089 156.182 155.149 156.688C155.21 157.196 155.296 157.582 155.296 157.582C155.296 157.582 154.156 157.375 153.265 157.475C152.375 157.582 151.705 157.905 151.32 157.863C150.936 157.823 150.576 158.167 150.734 158.854C150.893 159.543 151.38 160.146 151.118 160.964C150.856 161.778 150.112 161.902 149.472 161.778C148.845 161.659 147.979 161.594 147.979 161.594C147.979 161.594 149.088 160.64 148.338 159.865C147.588 159.097 146.551 159.585 146.211 159.926C145.863 160.271 145.314 160.778 145.314 160.778C145.314 160.778 144.503 160.354 144.729 159.359C144.953 158.364 145.296 157.905 146.045 157.393C146.795 156.887 147.058 156.158 146.308 156.201C145.558 156.237 143.887 156.589 142.905 156.525C141.923 156.463 141.339 155.813 141.119 155.613C140.893 155.409 140.979 155.164 140.979 155.164C140.979 155.164 142.32 155.377 142.74 154.478C143.167 153.579 143.313 153.235 142.679 152.71C142.058 152.18 141.642 151.854 141.642 151.854C141.642 151.854 142.137 150.707 143.052 150.743C143.96 150.786 144.57 151.554 145.497 151.798C146.436 152.043 146.96 151.917 146.96 151.917C146.96 151.917 147.302 151.089 146.96 150.726C146.613 150.357 145.838 150.762 145.277 150.4C144.709 150.03 143.717 148.783 144.222 148.07C144.729 147.353 145.399 147.296 145.399 147.296C145.399 147.296 146.387 148.719 147.137 148.252C147.887 147.783 148.6 147.09 148.661 146.865C148.716 146.645 148.923 146.424 148.923 146.424C148.923 146.424 150.186 146.448 150.491 147.801C150.79 149.164 150.387 151.231 150.387 151.231C150.387 151.231 151.38 151.454 152.552 151.066C153.734 150.683 155.351 150.176 155.619 149.832C155.881 149.488 155.783 148.594 155.07 148.046C154.356 147.502 152.052 145.899 151.521 144.72C150.997 143.545 150.619 141.438 149.338 140.811C148.052 140.174 146.96 140.253 145.801 140.298C144.649 140.335 142.436 139.585 141.887 138.494C141.339 137.399 141.418 136.933 141.418 136.933C141.418 136.933 142.74 137.762 143.332 137.381C143.917 136.993 144.57 135.956 146.009 135.615C147.449 135.271 149.802 135.558 149.802 135.558C149.802 135.558 150.521 133.442 153.979 132.347C157.423 131.256 161.119 131.701 163.551 132.286C165.984 132.871 166.998 132.954 167.771 132.918C168.54 132.871 169.772 132.674 169.772 132.674C169.772 132.674 167.222 129.878 165.613 128.072C164.015 126.268 162.369 124.661 162.369 124.661C162.369 124.661 161.454 124.743 159.942 125.188C158.418 125.637 156.912 125.429 155.033 125.332C153.143 125.232 152.089 125.067 151.082 125.619C150.07 126.161 149.546 126.591 149.21 127.079C148.881 127.566 147.466 126.506 147.869 125.393C148.278 124.274 148.881 123.67 148.881 123.67C148.881 123.67 146.064 123.994 144.466 124.136C142.863 124.274 140.96 124.006 141.436 126.204C141.923 128.396 143.637 128.459 144.222 128.558C144.808 128.658 144.936 129.307 144.875 129.615C144.808 129.914 144.79 130.021 144.79 130.021C144.79 130.021 143.656 129.749 142.887 130.218C142.112 130.688 142.137 131.256 142.137 131.256C142.137 131.256 141.278 131.439 140.979 130.886C140.667 130.344 141.077 129.796 141.339 129.451C141.6 129.109 141.418 129.028 141.094 129.028C140.771 129.028 139.973 128.92 139.905 128.459C139.802 127.81 140.429 127.097 139.887 126.798C139.332 126.493 138.423 126.835 138.217 127.522C138.014 128.216 137.546 129.353 137.168 129.39C136.784 129.433 136.016 129.082 135.905 129.326C135.809 129.57 135.705 130.401 135.772 130.97C135.832 131.535 135.392 132.042 134.93 131.963C134.467 131.88 134.283 131.23 134.283 131.23C134.283 131.23 134.692 130.201 134.399 129.57C134.119 128.945 133.308 128.963 133.308 128.963C133.308 128.963 132.966 128.134 133.344 127.871C133.735 127.609 134.387 127.954 134.979 127.729C135.564 127.503 137.265 126.125 137.814 125.738C138.362 125.351 138.728 124.786 138.485 124.725C138.241 124.661 137.204 125.167 136.393 124.969C135.588 124.762 135.387 124.274 135.04 124.195C134.692 124.113 134.319 124.439 134.119 124.868C133.924 125.292 133.106 125.429 132.626 124.969C132.357 124.707 132.198 123.789 132.198 123.789C132.198 123.789 132.82 123.506 132.723 122.695C132.626 121.884 132.198 121.484 132.479 121.197C132.76 120.917 133.064 120.774 133.387 120.936C133.717 121.097 134.058 121.683 134.485 122.152C134.905 122.616 135.319 122.551 135.668 122.271C136.016 121.991 135.984 121.197 135.564 121.015C135.137 120.835 134.345 120.347 134.643 119.978C134.949 119.619 135.344 119.704 135.424 119.273C135.509 118.844 135.113 118.094 134.625 117.868C134.137 117.646 133.679 117.021 133.924 116.615C134.156 116.207 134.93 116.207 134.93 116.207C134.93 116.207 136.051 116.432 136.765 116.432C137.466 116.432 137.63 116.307 138.033 116.469C138.442 116.634 138.667 117.384 138.326 117.868C137.979 118.357 137.222 118.869 137.43 119.517C137.63 120.168 138.46 122.335 138.46 122.335C138.46 122.335 141.04 122.045 143.247 121.783C145.461 121.521 148.539 120.811 148.539 120.811C148.539 120.811 147.344 119.792 147.247 118.923C147.137 118.051 147.119 117.482 147.528 117.527C147.929 117.563 148.168 118.031 149.028 118.176C149.881 118.313 151.161 118.313 152.173 118.194C153.503 118.036 153.997 117.402 153.997 117.402C153.997 117.402 152.478 115.741 152.235 114.627C151.991 113.512 152.155 110.509 152.155 110.509C152.155 110.509 150.326 108.279 149.009 107.268C147.693 106.249 146.979 105.93 146.082 106.13C145.197 106.329 144.936 106.841 144.709 106.457C144.485 106.07 144.424 105.03 145.197 104.265C145.967 103.49 147.693 102.597 147.693 102.597C147.693 102.597 146.93 101.198 146.132 99.917Z" fill="#ED1C24" stroke="black" stroke-width="0.530645" stroke-miterlimit="3.864"/>
<path d="M160.643 80.1535C159.82 79.9311 159.185 80.1535 159.185 80.1535C159.185 80.1535 158.441 80.2601 158.246 80.4858C158.052 80.7048 157.753 80.9158 157.558 81.367C157.417 81.6965 157.448 82.3275 157.448 82.3275C157.448 82.3275 157.008 82.4397 156.845 82.5221C156.673 82.6078 154.472 82.6899 154.058 83.6261C153.643 84.5623 153.863 86.934 154.442 87.2911C155.027 87.6536 154.911 87.3483 155.051 87.2661C155.186 87.1844 155.601 86.5465 156.32 86.6289C157.034 86.7115 158.222 87.2117 158.912 87.236C159.594 87.2661 160.704 86.6289 161.863 86.9919C163.015 87.3483 164.832 88.8636 165.442 90.1868C166.052 91.5132 166.027 92.1289 165.856 92.5561C165.747 92.8359 165.356 93.0528 164.698 93.0231C164.033 92.9984 161.637 92.3119 159.411 93.1107C157.174 93.9094 157.777 93.7418 157.643 93.9094C157.503 94.0711 157.619 94.3514 157.777 94.4037C157.948 94.4583 160.729 94.5959 161.252 94.4859C161.777 94.379 164.228 94.541 164.917 94.4583C165.606 94.379 166.679 94.516 167.045 93.5226C167.399 92.5288 167.045 91.2058 166.96 90.8763C166.875 90.5439 166.156 88.7509 165.222 87.7602C164.283 86.7664 163.149 85.3423 162.802 83.9006C162.436 82.4397 162.393 82.3089 162.107 81.5593C161.669 80.397 160.643 80.1535 160.643 80.1535Z" fill="#FFE013"/>
<path d="M160.643 80.1535C159.82 79.9311 159.185 80.1535 159.185 80.1535C159.185 80.1535 158.441 80.2601 158.246 80.4858C158.052 80.7048 157.753 80.9158 157.558 81.367C157.417 81.6965 157.448 82.3275 157.448 82.3275C157.448 82.3275 157.008 82.4397 156.845 82.5221C156.673 82.6078 154.472 82.6899 154.058 83.6261C153.643 84.5623 153.863 86.934 154.442 87.2911C155.027 87.6536 154.911 87.3483 155.051 87.2661C155.186 87.1844 155.601 86.5465 156.32 86.6289C157.034 86.7115 158.222 87.2117 158.912 87.236C159.594 87.2661 160.704 86.6289 161.863 86.9919C163.015 87.3483 164.832 88.8636 165.442 90.1868C166.052 91.5132 166.027 92.1289 165.856 92.5561C165.747 92.8359 165.356 93.0528 164.698 93.0231C164.033 92.9984 161.637 92.3119 159.411 93.1107C157.174 93.9094 157.777 93.7418 157.643 93.9094C157.503 94.0711 157.619 94.3514 157.777 94.4037C157.948 94.4583 160.729 94.5959 161.252 94.4859C161.777 94.379 164.228 94.541 164.917 94.4583C165.606 94.379 166.679 94.516 167.045 93.5226C167.399 92.5288 167.045 91.2058 166.96 90.8763C166.875 90.5439 166.156 88.7509 165.222 87.7602C164.283 86.7664 163.149 85.3423 162.802 83.9006C162.436 82.4397 162.393 82.3089 162.107 81.5593C161.669 80.397 160.643 80.1535 160.643 80.1535Z" stroke="black" stroke-width="0.530733" stroke-miterlimit="3.864"/>
<path d="M149.946 87.9764C149.726 87.9276 148.843 88.0886 148.567 89.138C148.33 90.0555 148.373 91.5308 149.946 92.0031C152.708 92.8352 154.202 91.9423 156.507 91.7288C158.885 91.5125 159.544 91.424 161.25 91.3421C163.568 91.2289 164.324 91.162 164.921 91.3755C165.416 91.543 165.818 91.7538 165.818 91.7538C165.818 91.7538 165.665 90.2385 165.165 89.7442C164.946 89.5252 164.226 89.4116 164.226 89.4116C164.226 89.4116 162.08 89.3568 160.148 89.7442C158.221 90.1316 155.025 90.6255 153.257 90.5188C151.489 90.4055 150.349 89.9643 150.276 89.4702C150.172 88.6953 150.665 88.3627 150.501 88.1467C150.336 87.9276 150.172 88.0342 149.946 87.9764Z" fill="#ED1C24"/>
<path d="M149.946 87.9764C149.726 87.9276 148.843 88.0886 148.567 89.138C148.33 90.0555 148.373 91.5308 149.946 92.0031C152.708 92.8352 154.202 91.9423 156.507 91.7288C158.885 91.5125 159.544 91.424 161.25 91.3421C163.568 91.2289 164.324 91.162 164.921 91.3755C165.416 91.543 165.818 91.7538 165.818 91.7538C165.818 91.7538 165.665 90.2385 165.165 89.7442C164.946 89.5252 164.226 89.4116 164.226 89.4116C164.226 89.4116 162.08 89.3568 160.148 89.7442C158.221 90.1316 155.025 90.6255 153.257 90.5188C151.489 90.4055 150.349 89.9643 150.276 89.4702C150.172 88.6953 150.665 88.3627 150.501 88.1467C150.336 87.9276 150.172 88.0342 149.946 87.9764Z" stroke="black" stroke-width="0.530733" stroke-miterlimit="3.864"/>
<path d="M162.703 81.0692C162.703 81.0692 163.465 83.0108 163.795 83.2857C164.135 83.5626 165.1 83.6172 165.63 83.4559C166.155 83.2857 167.24 82.5928 167.24 82.5928C167.24 82.5928 166.349 81.7057 165.99 81.4833C165.63 81.264 164.966 81.0386 164.41 81.0692C163.862 81.0962 162.703 81.0692 162.703 81.0692Z" fill="white"/>
<path d="M158.223 147.191C158.223 147.191 158.186 148.109 159.039 148.651C159.894 149.194 160.491 150.07 160.454 150.613C160.405 151.155 159.778 152.109 159.583 152.304C159.388 152.506 158.998 152.966 158.998 152.966M157.716 154.253C157.716 154.253 158.338 154.777 158.534 155.088C158.728 155.402 158.812 155.902 158.812 155.902M153.808 154.813C153.808 154.813 152.929 155.021 152.796 155.749C152.637 156.607 153.302 157.38 153.302 157.38M144.223 156.45C144.223 156.45 143.68 155.146 144.26 154.585C144.851 154.015 146.168 154.015 146.985 154.215C147.802 154.409 148.619 154.29 148.619 154.29" stroke="black" stroke-width="0.53077" stroke-miterlimit="3.864"/>
<path d="M147.039 151.856C147.039 151.856 147.554 151.648 148.572 151.411C149.414 151.218 150.165 151.113 150.433 151.189" stroke="black" stroke-width="0.618149" stroke-miterlimit="3.864"/>
<path d="M148.336 140.428C148.336 140.428 148.885 140.02 149.524 140.095C150.617 140.225 151.311 140.546 151.817 141.32C152.323 142.101 152.049 143.459 152.824 143.847C153.604 144.235 153.879 143.967 153.879 143.967" stroke="black" stroke-width="0.530733" stroke-miterlimit="3.864"/>
<path d="M141.812 138.316C141.812 138.316 142.7 139.359 143.908 139.124C145.115 138.893 145.578 137.963 146.901 137.53C148.219 137.106 148.876 137.189 149.529 137.53C150.45 138.017 150.535 138.112 150.889 138.156M146.626 139.359C146.626 139.359 148.248 138.517 149.499 138.816C150.974 139.18 151.712 139.822 151.712 139.822" stroke="black" stroke-width="0.530735" stroke-miterlimit="3.864" stroke-linecap="round"/>
<path d="M155.009 115.044L157.327 114.537M155.553 116.248C155.553 116.248 154.388 114.324 154.62 112.632C154.852 110.941 155.034 110.159 156.546 108.992C158.059 107.824 160.784 106.895 160.784 106.895M154.072 117.297C154.072 117.297 155.077 116.266 155.698 116.266C156.327 116.266 157.943 116.166 157.943 116.166M148.839 123.641C148.947 123.539 149.839 123.029 150.693 122.715C151.546 122.41 151.741 122.486 151.741 122.486L151.668 122.135C151.668 122.135 150.851 122.367 150.418 122.135C149.991 121.903 149.113 120.605 148.516 120.68M149.876 126.355C150.028 126.276 151.314 124.858 152.674 124.388C154.034 123.922 155.535 124.172 156.662 124.12C158.254 124.041 159.034 123.221 159.846 122.916C160.662 122.605 161.485 122.715 161.485 122.715M165.546 116.748C165.546 116.748 165.662 118.364 165.352 119.12C165.04 119.882 164.693 122.059 164.693 122.059M163.991 116.904C163.991 116.904 164.455 117.934 164.26 118.769C164.065 119.605 163.608 120.544 163.644 120.967C163.681 121.397 163.718 121.867 163.718 121.867M162.339 124.662C162.339 124.662 164.338 124.16 165.114 123.965C165.894 123.772 166.169 122.916 165.62 122.523C165.077 122.135 163.931 121.94 163.077 121.824C162.217 121.711 161.674 121.087 162.065 120.193C162.455 119.3 163.034 117.41 163.034 117.41M182.071 133.76C182.071 133.76 180.321 135.666 178.881 135.123C177.442 134.58 177.174 134.056 177.369 132.769C177.559 131.489 177.992 130.727 177.754 129.696C177.559 128.843 176.413 127.754 175.791 127.48C175.168 127.211 172.37 126.449 171.748 125.87C171.133 125.282 170.955 124.275 170.467 124.041C169.98 123.809 168.54 123.727 167.875 122.873C167.223 122.016 166.321 120.461 166.321 120.461M184.912 141.529C184.912 141.529 182.766 139.555 182.224 138.699C181.681 137.846 181.485 137.608 181.485 137.608C181.485 137.608 182.577 139.925 182.808 140.934C183.04 141.946 183.119 143.501 183.083 144.127C183.04 144.745 182.924 145.717 182.924 145.717M184.728 146.52C184.728 146.52 184.925 148.995 185.046 149.941C185.12 150.501 185.169 150.596 185.169 150.596M177.406 148.964C177.406 148.964 177.291 150.556 177.369 151.026C177.442 151.495 177.754 151.918 177.754 151.918M176.022 148.808C176.022 148.808 176.413 151.34 176.413 151.65C176.413 151.957 176.203 152.88 176.042 153.033M174.627 146.694C174.627 146.694 174.821 151.181 174.662 151.842C174.509 152.507 173.925 153.474 173.925 153.474M161.485 141.285C161.485 141.285 164.223 139.867 166.4 139.675C168.583 139.474 171.675 139.437 171.675 139.437M161.833 139.318C161.833 139.318 164.418 138.425 165.937 138.425C167.449 138.425 169.607 138.352 170.095 138.352C170.577 138.352 171.589 138.313 171.589 138.313M162.217 137.458C162.217 137.458 163.912 136.989 164.693 136.989C165.468 136.989 168.479 137.026 169.589 137.065C170.699 137.108 171.516 137.108 171.516 137.108M164.534 135.471C164.534 135.471 170.626 135.279 171.358 135.355M169.742 132.574L171.4 134.074L171.437 134.193L166.753 134.074" stroke="black" stroke-width="0.530735" stroke-miterlimit="3.864"/>
<path d="M200.404 118.747C200.404 118.747 198.141 120.894 195.769 121.065C193.398 121.226 191.08 119.515 190.257 119.183C189.435 118.854 187.77 118.336 187.77 118.336M177.995 123.637C177.995 123.637 180.501 127.571 180.556 129.168C180.611 130.766 179.617 133.463 179.617 133.463M182.758 121.888C182.758 121.888 184.516 123.463 186.334 125.064C188.151 126.661 189.181 128.909 189.663 131.611M185.397 151.528C185.397 151.528 185.868 153.571 186.367 154.013C186.873 154.461 187.307 155.161 187.58 155.354C187.849 155.549 188.587 155.669 188.587 155.669C188.587 155.669 187.459 156.836 187.416 157.414C187.379 158.003 187.727 158.427 188.001 158.471C188.282 158.51 187.617 159.052 187.379 159.126C187.147 159.207 185.556 159.244 185.556 159.244M170.977 129.537C170.977 129.537 171.715 130.355 171.715 131.092C171.715 131.836 171.678 132.634 171.678 133.683C171.678 134.733 171.403 136.866 171.52 138.309C171.635 139.745 171.723 140.27 171.723 140.27" stroke="black" stroke-width="0.530735" stroke-miterlimit="3.864" stroke-linecap="round"/>
<path d="M189.703 106.345C189.703 106.345 193.173 105.626 198.357 101.767C203.538 97.9098 209.989 90.8555 209.989 90.8555M191.075 111.526C191.075 111.526 195.386 111.34 199.13 109.928C203.381 108.33 209.661 103.867 209.661 103.867" stroke="black" stroke-width="0.530733" stroke-miterlimit="3.864"/>
<path d="M187.492 101.49C187.492 101.49 191.406 98.35 194.436 95.2037C197.473 92.0632 199.125 89.966 201.108 86.6608C203.095 83.3529 203.589 80.9805 203.589 80.9805" stroke="black" stroke-width="0.618148" stroke-miterlimit="3.864"/>
<path d="M166.156 112.791C166.156 112.791 168.034 109.208 169.358 107.941C170.68 106.672 170.24 107.004 170.24 107.004C170.24 107.004 169.308 106.617 169.638 105.187C169.967 103.751 170.406 103.251 170.906 102.425C171.399 101.596 171.564 100.66 171.564 100.66" stroke="black" stroke-width="0.530733" stroke-miterlimit="3.864" stroke-linecap="round"/>
<path d="M207.879 126.96C207.879 126.96 206.331 128.51 205.995 129.499C205.666 130.494 205.227 131.156 205.227 131.156M207.263 124.32C207.263 124.32 206.495 125.586 205.562 127.019C204.623 128.455 203.903 129.499 203.794 130.546C203.69 131.595 203.519 132.586 203.519 132.586M202.082 128.89C202.082 128.89 200.763 130.658 200.654 131.982C200.544 133.305 200.983 134.574 200.983 134.574M201.594 127.348C201.594 127.348 200.818 129.058 200.208 130.214C199.605 131.375 199.214 131.65 199.276 132.805C199.331 133.967 199.715 135.122 199.715 135.122M172.832 93.168C172.832 93.168 172.387 95.5372 172.777 97.0823C173.161 98.6249 174.203 98.9577 174.203 98.9577" stroke="black" stroke-width="0.530733" stroke-miterlimit="3.864" stroke-linecap="square"/>
<path d="M186.781 160.21L187.495 161.259M202.414 124.152C202.414 124.152 203.023 124.701 203.298 125.256C203.572 125.804 203.462 125.862 203.462 125.862" stroke="black" stroke-width="0.530733" stroke-miterlimit="3.864" stroke-linecap="round"/>
<path d="M172.562 162.027C172.562 162.027 173.502 162.743 174.435 162.357C175.374 161.975 176.91 160.215 176.91 160.215M176.643 165.281C176.643 165.281 175.149 165.115 174.928 165.996C174.709 166.878 175.204 167.491 175.204 167.491M183.588 161.091C183.588 161.091 182.429 161.474 182.155 162.631C181.935 163.555 182.984 164.399 182.984 164.399" stroke="black" stroke-width="0.530733" stroke-miterlimit="3.864"/>
<path d="M155.733 103.914C155.733 103.914 154.854 105.188 154.526 106.232C154.19 107.281 153.587 107.335 153.14 108.271C152.708 109.21 152.062 110.601 152.062 110.601" stroke="black" stroke-width="0.618149" stroke-miterlimit="3.864"/>
<path d="M152.264 102.758C152.264 102.758 150.558 104.413 150.338 105.236C150.119 106.069 149.898 108.053 149.898 108.053M153.204 103.581C153.204 103.581 151.442 105.187 151.216 106.011C150.996 106.834 150.776 108.876 150.776 108.876M153.978 104.575C153.978 104.575 152.484 106.069 152.209 106.947C151.935 107.828 151.447 109.851 151.447 109.851" stroke="black" stroke-width="0.530735" stroke-miterlimit="3.864"/>
<path d="M147.086 102.917C147.086 102.917 147.531 102.756 148.08 102.643C148.629 102.537 149.232 103.03 149.232 103.03C149.232 103.03 148.8 101.1 148.958 100.165C149.129 99.228 149.293 98.3477 149.293 98.3477" stroke="black" stroke-width="0.618148" stroke-miterlimit="3.864"/>
<path d="M135.688 122.267C135.688 122.267 136.331 122.004 136.989 122.225C137.654 122.44 138.337 122.352 138.337 122.352" stroke="black" stroke-width="0.530735" stroke-miterlimit="3.864"/>
<path d="M140.362 85.8326C140.362 85.8326 140.855 87.488 141.185 88.3656C141.52 89.247 142.099 90.6283 142.27 91.0645M138.319 88.479C138.319 88.479 139.039 89.528 139.204 89.7471M135.977 83.2897C135.977 83.2897 137.112 83.2407 137.495 83.1861C137.88 83.1282 138.044 84.0706 138.209 84.5092C138.38 84.9517 138.654 85.778 138.654 85.778M141.398 129.345C141.398 129.345 141.794 128.784 141.575 128.396C141.355 128.01 141.3 128.01 141.3 128.01" stroke="black" stroke-width="0.530733" stroke-miterlimit="3.864" stroke-linecap="round"/>
<path fill-rule="evenodd" clip-rule="evenodd" d="M158.664 82.2443L159.377 81.5826L159.712 81.3086C159.712 81.3086 160.383 81.4399 160.591 81.8576C160.981 82.6316 160.872 83.1834 160.872 83.1834C160.872 83.1834 160.316 82.577 159.548 82.3573C158.774 82.1374 158.664 82.2443 158.664 82.2443Z" fill="#231F20"/>
<path d="M162.734 81.2051C162.734 81.2051 163.179 82.3423 163.667 83.0922C164.027 83.6474 165.197 83.6409 165.801 83.3669C166.405 83.0922 167.3 82.705 167.3 82.705M161.758 80.8695C161.758 80.8695 162.909 81.257 163.85 81.1506C164.788 81.0376 165.496 81.126 165.941 81.5127C166.38 81.9002 166.934 82.4673 167.764 82.7996C168.594 83.1289 169.197 83.0804 169.197 83.0804M164.125 79.0897C164.125 79.0897 165.947 79.1073 166.386 79.4394C166.825 79.7697 167.1 80.0437 167.1 80.0437L168.149 78.2266M163.685 81.257C163.685 81.257 164.307 82.455 164.697 82.6168C165.075 82.7874 165.527 82.4246 165.527 82.4246C165.527 82.4246 164.332 82.1226 164.301 81.2875C164.295 80.976 163.685 81.257 163.685 81.257Z" stroke="black" stroke-width="0.530735" stroke-miterlimit="3.864" stroke-linecap="round"/>
<path d="M168.539 80.3159C168.832 79.9319 168.893 79.5995 169.197 79.2183C169.985 78.2518 170.795 77.9896 172.008 77.7271C172.692 77.5903 173.034 77.2821 173.722 77.2334L173.936 77.1758C173.595 77.8646 172.929 77.8528 172.229 78.1697L172.454 78.3314C172.063 78.6268 171.68 78.5027 171.185 78.5506C171.156 78.6754 171.07 78.7427 171.07 78.883C171.07 79.0624 171.308 79.0934 171.46 79.1635C170.948 79.6116 169.802 79.0748 169.802 79.7676C169.802 80.0691 170.167 80.0995 170.357 80.3159C170.191 80.3862 170.076 80.4281 169.918 80.4865C169.918 80.5777 170.021 80.6057 170.021 80.7056C170.021 80.7853 169.874 80.6355 169.802 80.6482C169.905 80.7975 169.985 80.9221 170.076 81.0931C169.997 81.0931 169.942 81.1486 169.862 81.1486C169.277 81.1486 169.015 80.6057 168.539 80.3159Z" fill="black"/>
<path d="M171.729 85.1719C171.662 85.3212 171.564 85.4341 171.564 85.6142C171.564 86.1533 172.175 86.3454 172.175 86.8823C172.175 87.2149 171.729 87.2693 171.729 87.5987C171.729 88.3308 172.333 88.6293 172.333 89.3607C172.333 89.7238 171.9 89.7481 171.564 89.8606C171.662 90.5038 171.564 90.8672 171.564 91.5164C171.259 91.5407 171.095 91.5532 170.79 91.5164C170.76 91.8701 170.699 92.007 170.711 92.3702C170.321 92.3702 170.107 92.3975 169.717 92.3702C169.717 92.6567 169.729 92.8213 169.717 93.1139L169.084 93.5011C168.26 93.0016 168.784 91.5407 168.089 90.8554L167.869 90.7971L168.035 92.6139C167.858 93.1808 167.662 93.3464 167.594 93.9373C167.181 93.9827 166.729 94.0743 166.656 94.4891C166.888 94.5743 167.016 94.6567 167.266 94.6567C167.619 94.6567 167.79 94.3822 168.144 94.3822C168.381 94.3822 168.461 94.5991 168.692 94.5991C168.918 94.5991 168.985 94.4194 169.138 94.2697C169.235 94.3667 169.321 94.4891 169.467 94.4891C170.223 94.4891 170.736 93.7573 170.736 93.0016C170.736 92.532 171.455 92.7512 171.839 92.5072C172.364 92.1603 172.114 91.5407 172.114 90.91C172.376 90.9466 172.528 90.9343 172.778 90.8554C172.833 90.7418 172.943 90.5471 172.943 90.4094C172.943 90.1354 172.778 89.9986 172.778 89.7238C172.778 88.8548 173.224 88.4131 173.224 87.544C173.224 87.3638 173.162 87.2693 173.108 87.1024C172.766 86.2757 172.296 85.8885 171.729 85.1719Z" fill="black"/>
<path d="M174.706 102.256C174.706 102.256 175.474 102.757 175.256 103.638C175.042 104.525 174.969 104.77 174.197 105.102M172.45 102.315C172.45 102.315 173.657 102.757 174.706 102.208C175.755 101.65 175.688 100.253 175.688 100.253M172.572 99.33C172.572 99.33 172.999 100.385 174.103 100.498C175.2 100.607 175.645 100.498 175.816 99.9486C175.974 99.3906 175.218 98.5555 175.218 98.5555M170.188 107.114C170.188 107.114 171.731 105.79 172.834 105.567C173.932 105.348 174.651 104.906 175.7 104.137C176.749 103.363 177.297 103.363 178.566 102.87C179.835 102.37 180.005 101.982 180.334 101.595C180.664 101.214 181.213 100.385 182.097 99.8361C182.98 99.2843 183.584 98.0677 183.645 97.4606C183.694 96.8576 183.2 96.7509 182.48 96.6928C181.761 96.6378 181.048 96.7997 181.048 96.7997C181.048 96.7997 182.036 95.3148 182.871 94.7077C183.694 94.1013 183.912 93.2383 183.912 93.2383M172.67 99.4487C172.67 99.4487 173.054 101.433 172.28 102.702C171.511 103.967 170.571 104.632 170.852 105.403C171.127 106.171 171.155 106.202 171.155 106.202" stroke="black" stroke-width="0.530735" stroke-miterlimit="3.864"/>
<path d="M175.039 102.539C175.039 102.539 176.417 101.935 177.076 101.935C177.74 101.935 178.07 101.377 177.74 100.941C177.412 100.499 177.459 100.053 178.179 99.6177C178.892 99.1756 179.337 98.7305 179.337 98.7305" stroke="black" stroke-width="0.530733" stroke-miterlimit="3.864" stroke-linecap="round"/>
<path d="M177.786 99.8366C177.786 99.8366 179.164 99.6169 179.609 100.111C180.055 100.608 180 100.992 179.774 101.65C179.555 102.315 178.854 102.745 178.854 102.745M175.695 99.1172C175.695 99.1172 178.067 99.2848 177.957 99.8914" stroke="black" stroke-width="0.530733" stroke-miterlimit="3.864"/>
<path d="M170.914 104.712C170.914 104.712 171.896 104.742 172.72 104.355C173.548 103.967 173.877 103.477 173.877 103.477" stroke="black" stroke-width="0.530733" stroke-miterlimit="3.864" stroke-linecap="round"/>
<path d="M194.267 100.171C194.267 100.171 192.458 102.097 191.19 103.032C189.922 103.969 188.874 104.743 187.83 104.801C186.782 104.855 185.787 104.633 185.787 104.633M195.852 87.2075C195.852 87.2075 194.831 89.0294 193.946 89.9142C193.062 90.795 190.916 92.749 190.599 93.2375C190.294 93.7064 188.324 95.4293 187.934 96.1392C187.556 96.8592 187.276 97.1876 186.782 97.7427C186.282 98.2956 185.342 98.743 185.342 98.743M195.255 87.301C195.255 87.301 194.111 89.5269 193.287 90.4072C192.458 91.2887 190.196 93.4989 189.257 94.597C188.324 95.7031 188.105 96.0906 187.001 97.3587C186.191 98.2887 185.617 98.6759 185.068 98.8434C184.519 99.005 184.026 99.6362 184.026 99.6362M183.306 96.8592C183.306 96.8592 185.617 97.0263 186.392 97.0263C187.166 97.0263 187.556 96.8012 187.556 96.8012M184.393 95.4299C184.393 95.4299 185.617 95.3708 186.446 95.4292C187.276 95.4775 188.763 95.2583 188.763 95.2583M185.636 94.493C185.636 94.493 187.166 94.2099 187.989 94.2675C188.819 94.3221 189.867 94.0476 189.867 94.0476M186.836 93.3862C186.836 93.3862 188.819 93.4417 189.647 93.1668C190.47 92.886 191.293 92.4444 191.293 92.4444M188.05 92.0632C188.05 92.0632 189.361 92.1947 190.245 91.95C191.141 91.7063 192.525 91.1946 192.525 91.1946M189.099 90.6826C189.099 90.6826 190.086 90.8532 190.855 90.5759C191.629 90.2945 193.172 89.1976 193.172 89.1976M190.032 89.4719C190.032 89.4719 191.52 89.0294 192.019 88.8104C192.514 88.5903 193.062 88.2029 193.062 88.2029M191.074 87.7611C191.074 87.7611 192.733 87.4291 193.172 87.1547C193.617 86.8801 194.056 86.5474 194.056 86.5474M191.874 86.2524C191.874 86.2524 194.282 85.283 194.556 85.0085M192.843 83.956C192.843 83.956 194.611 83.1849 194.885 82.8532M182.648 96.6943C182.648 96.6943 186.611 94.1028 188.654 91.4015C190.695 88.697 191.355 87.6546 192.294 85.0085C193.233 82.3588 194.409 78.6943 194.556 77.8953C194.77 76.6759 194.995 77.1211 194.611 78.5508C194.221 79.987 193.446 82.1912 192.959 83.6813C192.458 85.1697 190.504 88.8104 190.504 88.8104M180.178 99.7491C180.178 99.7491 181.099 99.9989 181.599 99.8376C182.093 99.6728 182.592 99.3981 182.592 99.3981M181.154 98.2956C181.154 98.2956 181.654 98.2367 181.654 98.4567C181.654 98.6759 180.934 98.8433 180.934 98.8433M178.031 97.7885C178.031 97.7885 179.556 96.9135 180.33 97.3587C181.099 97.7948 180.995 98.35 181.044 98.5692C181.099 98.7859 180.495 99.4503 180.276 99.6179C180.056 99.7797 179.66 100.053 179.66 100.053" stroke="black" stroke-width="0.530735" stroke-miterlimit="3.864"/>
<path d="M197.81 106.708C197.81 106.708 195.713 107.997 194.39 108.765C193.066 109.539 191.853 110.201 191.305 110.147M191.829 102.515C191.829 102.515 194.047 100.809 194.822 100.422" stroke="black" stroke-width="0.509813" stroke-miterlimit="3.864"/>
<path d="M179.166 110.975C179.166 110.975 180.605 111.356 180.276 112.517C179.94 113.674 178.288 113.012 178.288 113.012M178.117 108.932C178.117 108.932 180.318 108.972 180.049 110.35C179.867 111.274 178.434 110.957 178.434 110.957M180.522 106.786C180.522 106.786 182.282 106.673 182.148 108.161C181.964 110.082 179.52 109.282 179.52 109.282M183.416 105.569C183.416 105.569 181.428 106.506 180.495 106.786C179.556 107.06 178.678 107.28 178.678 107.28M185.325 101.896C185.325 101.896 182.282 104.115 180.16 104.688C179.94 104.744 182.422 103.252 183.416 103.64C184.41 104.027 185.184 104.301 185.184 105.017C185.184 105.737 184.794 106.448 184.464 106.948C184.135 107.447 182.977 107.828 182.751 107.883M183.068 100.774C183.068 100.774 185.513 99.7249 186.556 100.28C187.605 100.829 187.934 101.709 187.605 102.539C187.276 103.365 185.548 104.364 185.164 105.3M184.574 96.9688C184.574 96.9688 185.239 97.3589 184.794 98.1245C184.349 98.8987 184.245 99.5053 183.58 100.225C182.921 100.942 182.476 101.323 182.202 101.765L181.927 102.21M193.873 109.066C193.873 109.066 196.154 107.883 197.087 107.5C198.026 107.116 198.958 106.725 198.958 106.725" stroke="black" stroke-width="0.530735" stroke-miterlimit="3.864"/>
<path d="M181.132 109.445C181.132 109.445 182.882 109.79 182.778 111.058C182.674 112.333 180.32 112.036 180.32 112.036" stroke="black" stroke-width="0.530733" stroke-miterlimit="3.864" stroke-linecap="round"/>
<path d="M180.978 125.007C180.978 125.007 181.685 126.406 181.874 126.907M179.545 114.187L180.551 114.58M178.672 114.849C178.672 114.849 179.337 115.428 179.807 115.474M177.404 114.788C177.404 114.788 178.63 114.98 179.253 114.516C179.874 114.05 179.637 113.331 179.179 113.211M179.094 116.422L180.862 117.934M176.643 117.876C176.643 117.876 177.892 119.357 178.241 119.455M176.703 116.379C176.703 116.379 177.643 117.059 177.831 117.16M176.605 114.361C176.605 114.361 177.465 114.555 177.557 115.135C177.624 115.504 176.935 115.742 176.935 115.742M174.776 120.769C174.776 120.769 174.575 119.782 174.203 119.357C173.838 118.925 173.264 117.916 173.264 117.916C173.264 117.916 174.276 119.794 175.587 119.587C176.899 119.389 176.289 117.209 176.289 117.209C176.289 117.209 177.667 118.757 178.838 117.846C180.02 116.941 177.631 115.361 177.631 115.361C177.631 115.361 180.691 117.41 181.228 116.065C181.764 114.717 180.633 114.619 180.633 114.619M179.783 118.824C179.783 118.824 180.691 119.727 181.398 119.925C182.106 120.132 182.405 120.568 182.509 120.769M183.319 119.431L184.471 120.138M179.484 120.568C179.484 120.568 180.771 122.178 182.612 121.91C184.454 121.642 184.259 120.657 184.027 120.111C183.788 119.574 182.033 118.656 182.033 118.656M176.929 120.769L178.569 122.416M176.033 122.379C176.033 122.379 179.179 124.84 180.119 123.63C180.856 122.678 179.582 120.736 179.582 120.736M172.942 123.327C172.942 123.327 174.88 125.58 175.984 124.769C177.094 123.965 175.984 122.248 175.984 122.248M173.466 122.248C173.466 122.248 173.801 122.885 174.374 123.221C174.94 123.559 174.959 123.574 174.959 123.574M171.612 120.093C171.612 120.093 172.222 120.604 172.319 120.736M171.039 121.105C171.039 121.105 171.881 122.855 172.923 122.486C173.972 122.111 173.564 120.699 173.564 120.699C173.564 120.699 174.142 123.053 175.953 122.047C177.764 121.038 176.025 119.617 176.025 119.617C176.025 119.617 177.727 121.742 179.343 120.599C180.96 119.455 178.637 117.846 178.637 117.846C178.637 117.846 181.191 119.967 182.002 118.559C182.807 117.142 181.63 116.303 181.63 116.303M170.484 124.053C170.484 124.053 171.649 125.209 172.49 124.532C173.332 123.864 172.966 122.992 172.556 122.547M179.916 123.489C179.916 123.489 180.875 124.995 181.495 125.614C181.966 126.087 182.319 126.532 182.319 126.532M188.655 122.653C188.655 122.653 187.545 122.248 187.008 121.779C186.472 121.306 185.929 120.461 185.356 120.361C184.788 120.264 184.375 120.086 184.375 120.086M189.815 116.161L192.349 115.967M185.622 116.295C185.622 116.295 187.313 116.617 187.612 118.184C187.917 119.757 187.783 119.855 187.038 120.093C186.301 120.331 184.368 120.138 184.368 120.138M186.801 113.069C186.801 113.069 189.191 113.108 190.033 114.013C190.874 114.922 190.776 115.154 190.471 115.659C190.173 116.166 189.495 116.333 188.825 116.333C188.155 116.333 185.46 116.266 185.624 116.333M186.502 109.211C186.502 109.211 191.454 108.312 191.313 110.553C191.186 112.8 187.344 113.138 187.344 113.138L186.74 113.108M188.035 104.785C188.035 104.785 190.033 104.87 189.869 106.151C189.698 107.424 188.892 107.492 188.215 108.032C187.545 108.575 186.74 108.974 186.74 108.974L186.502 109.04M183.916 117.153L185.966 118.321M185.087 114.419C185.527 114.449 188.752 114.955 189.094 114.687M185.124 110.791C185.124 110.791 187.679 112.169 189.259 110.66M184.29 107.357C184.455 107.357 187.106 106.687 187.106 106.687M179.948 110.59C179.948 110.59 180.826 111.227 181.569 110.827M178.167 111.433L178.838 111.87M182.204 114.717C182.204 114.717 183.154 115.897 184.051 115.428M179.819 113.239L181.697 113.645M182.076 112.162C182.076 112.162 183.16 113.425 185.154 112.9M181.667 109.379C181.667 109.379 183.746 109.714 184.515 109.278M177.831 109.779L178.807 109.986M178.173 108.929C178.173 108.929 179.984 108.672 180.216 108.367M183.545 107.562C183.545 107.562 186.033 107.812 186.399 108.605C186.771 109.385 186.667 109.952 186.064 110.291C185.46 110.623 184.527 110.916 184.227 110.916M184.484 114.251C184.484 114.251 185.899 115.224 185.46 116.303C185.02 117.377 183.685 117.239 182.849 116.873C182.002 116.504 181.228 116.099 181.228 116.099M182.709 110.791C182.709 110.791 185.892 110.696 186.472 112.363C186.807 113.336 186.27 114.043 185.557 114.282C184.85 114.516 182.74 113.843 182.74 113.843M181.289 112.077C181.423 112.144 183.246 112.8 182.642 114.08C182.033 115.361 180.119 114.419 180.119 114.419" stroke="black" stroke-width="0.530735" stroke-miterlimit="3.864"/>
<path d="M82.9823 115.697C70.7558 116.107 66.0768 117.622 64.0614 118.397C61.7355 117.877 56.8515 119.089 56.8515 119.089C56.8515 119.089 52.765 119.588 51.1977 121.573C46.2363 120.49 46.3361 121.988 46.3361 121.988C47.1003 131.662 53.7339 131.798 53.7339 131.798C59.2882 132.983 64.2438 131.052 64.2438 131.052L65.6949 139.048L63.6955 144.069L64.0614 148.717L55.7331 158.202C65.4232 160.171 67.6884 167.497 67.6884 167.497C72.8268 162.569 78.0156 168.059 78.0156 168.059C83.7359 163.867 89.4278 168.427 89.4278 168.427C93.088 162.173 101.389 165.268 101.389 165.268C102.048 156.871 109.54 156.899 109.54 156.899C108.083 148.773 114.795 145.184 114.795 145.184C114.795 145.184 105.846 141.38 104.467 131.43C115.487 134.282 118.776 127.708 118.776 127.708C120.061 126.182 120.409 120.269 120.409 120.269C117.043 121.988 114.429 120.637 114.429 120.637C109.352 117.292 102.247 117.774 102.247 117.774C102.247 117.774 88.9575 115.562 82.9823 115.697Z" fill="#231F20"/>
<path d="M82.9823 115.697C70.7558 116.107 66.0768 117.622 64.0614 118.397C61.7355 117.877 56.8515 119.089 56.8515 119.089C56.8515 119.089 52.765 119.588 51.1977 121.573C46.2363 120.49 46.3361 121.988 46.3361 121.988C47.1003 131.662 53.7339 131.798 53.7339 131.798C59.2882 132.983 64.2438 131.052 64.2438 131.052L65.6949 139.048L63.6955 144.069L64.0614 148.717L55.7331 158.202C65.4232 160.171 67.6884 167.497 67.6884 167.497C72.8268 162.569 78.0156 168.059 78.0156 168.059C83.7359 163.867 89.4278 168.427 89.4278 168.427C93.088 162.173 101.389 165.268 101.389 165.268C102.048 156.871 109.54 156.899 109.54 156.899C108.083 148.773 114.795 145.184 114.795 145.184C114.795 145.184 105.846 141.38 104.467 131.43C115.487 134.282 118.776 127.708 118.776 127.708C120.061 126.182 120.409 120.269 120.409 120.269C117.043 121.988 114.429 120.637 114.429 120.637C109.352 117.292 102.247 117.774 102.247 117.774C102.247 117.774 88.9575 115.562 82.9823 115.697Z" stroke="#231F20" stroke-width="0.181449" stroke-miterlimit="3.864"/>
<path d="M62.7837 116.965C80.7135 111.225 103.372 116.553 103.372 116.553M62.4844 109.816C83.6207 104.168 103.699 110.138 103.699 110.138M62.8443 111.574C83.9749 105.926 103.229 111.89 103.229 111.89M64.0629 114.908C83.0891 110.353 102.16 114.908 102.16 114.908" stroke="#231F20" stroke-width="0.453622" stroke-miterlimit="3.864"/>
<path d="M84.4105 109.834L87.2622 109.964C88.0211 109.997 88.6134 110.559 88.5856 111.215C88.5581 111.874 87.9213 112.379 87.1682 112.345L84.3163 112.215C83.5519 112.182 82.9649 111.62 82.9929 110.961C83.0204 110.305 83.6572 109.798 84.4105 109.834ZM99.4609 112.907C99.4609 112.276 99.9541 111.766 100.563 111.766C101.177 111.766 101.676 112.276 101.676 112.907C101.676 113.535 101.177 114.045 100.563 114.045C99.9541 114.045 99.4609 113.535 99.4609 112.907ZM70.3012 111.711C70.3012 111.08 70.7997 110.57 71.4144 110.57C72.0289 110.57 72.5273 111.08 72.5273 111.711C72.5273 112.339 72.0289 112.849 71.4144 112.849C70.7997 112.849 70.3012 112.339 70.3012 111.711ZM65.0515 111.581L67.8643 111.069C68.6123 110.933 69.2932 111.284 69.4099 111.935L69.4265 111.999C69.5314 112.652 69.0167 113.287 68.2748 113.417L65.4561 113.926C64.7143 114.062 64.0109 113.666 63.9 112.984L63.9056 112.999C63.7949 112.351 64.3099 111.717 65.0515 111.581Z" stroke="#231F20" stroke-width="0.340216" stroke-miterlimit="3.864"/>
<path d="M61.2422 102.46C62.5543 103.357 64.0552 102.393 64.0552 102.393C64.0552 102.393 62.6485 104.422 62.8204 105.904C63.5565 108.664 68.4958 108.443 68.4958 108.443C72.278 107.995 72.7102 104.487 72.7102 104.487C73.4468 107.767 78.2695 107.474 78.2695 107.474C82.2675 107.1 83.5023 101.145 83.5023 101.145C83.5023 101.145 80.9385 99.104 78.4634 98.7306C81.2322 98.4335 82.1789 96.4161 82.1789 96.4161L83.4136 92.9077L84.6818 96.4161C84.6818 96.4161 85.6233 98.4335 88.3921 98.7306C85.9167 99.104 83.3528 101.145 83.3528 101.145C83.3528 101.145 84.1726 107.025 88.1705 107.393C88.1705 107.393 93.4142 107.767 94.14 104.487C94.14 104.487 94.5774 108.374 98.3595 108.822C98.3595 108.822 102.263 108.891 103.42 105.976C103.133 103.589 102.8 102.393 102.8 102.393C102.8 102.393 104.506 102.675 105.818 101.781M65.7107 99.154L64.7804 100.696C64.7804 100.696 65.8825 97.9525 67.9923 99.2732C69.2878 101.762 66.9677 102.393 66.9677 102.393C68.7232 103.13 68.4958 105.563 67.0506 105.998C65.6608 106.425 64.0552 105.528 64.0552 105.528C64.0552 105.528 65.1403 107.172 68.2025 107.025C70.3897 106.945 70.8271 104.932 70.8271 104.932C67.04 103.362 69.7307 100.527 71.2595 101.643C69.7307 99.4777 72.278 98.7306 72.278 98.7306C74.7532 98.808 74.1718 101.122 74.1718 101.122C75.9713 100.494 77.5888 103.811 74.5319 104.487C75.4785 106.203 77.7379 105.835 77.7379 105.835C81.3758 105.555 81.1545 101.349 81.1545 101.349C81.1545 101.349 79.8477 105.154 77.2284 103.509C76.2818 101.269 77.8761 100.153 77.8761 100.153C75.5562 101.269 74.4601 99.6881 74.6036 98.0437C75.4734 95.2834 77.8098 97.2383 77.8098 97.2383C77.8098 97.2383 76.5253 95.0728 77.9483 94.1869C79.4934 93.4006 80.4955 94.4776 80.4955 94.4776C80.4955 94.4776 78.8344 93.0294 80.0748 91.7615C81.6528 90.7978 82.4392 92.1795 82.4392 92.1795C82.4392 92.1795 80.3403 90.0476 83.2477 87.957C86.1609 90.0476 83.9899 92.1404 83.9899 92.1404C83.9899 92.1404 84.726 90.8753 86.3982 91.8446C87.5501 93.1789 85.8668 94.4776 85.8668 94.4776C85.8668 94.4776 87.2955 93.4448 88.5804 94.2338C90.0478 95.3385 88.5638 97.2383 88.5638 97.2383C88.5638 97.2383 90.884 95.1448 91.7585 97.9136C92.0577 99.6467 90.8172 101.269 88.4863 100.153C88.4863 100.153 90.0863 101.269 89.1396 103.509C86.7309 105.029 85.2081 101.349 85.2081 101.349C85.2081 101.349 85.0969 105.549 88.763 105.782C88.763 105.782 90.884 106.203 91.8306 104.487C88.7795 103.811 90.5237 100.375 92.1959 101.122C92.1959 101.122 91.6147 98.808 94.09 98.7306C94.09 98.7306 96.6371 99.4777 95.1091 101.643C96.6371 100.527 99.3281 103.362 95.5465 104.932C95.5465 104.932 96.2827 107.009 98.3653 107.127C101.333 107.252 102.313 105.528 102.313 105.528C102.313 105.528 100.541 106.856 99.0569 105.904C98.2486 105.325 97.5837 103.141 99.4003 102.393C99.4003 102.393 96.4874 101.502 98.3817 98.816C100.491 98.2877 101.455 100.84 101.455 100.84M81.7195 98.2033C81.7195 99.643 82.4668 100.811 83.3866 100.811C84.3109 100.811 85.0583 99.643 85.0583 98.2033C85.0583 96.7633 84.3109 95.6005 83.3866 95.5949C82.4668 95.5949 81.7195 96.7633 81.7195 98.2033Z" stroke="#231F20" stroke-width="0.4538" stroke-miterlimit="3.864"/>
<path d="M70.29 121.791C70.29 121.791 71.6579 120.589 76.1376 121.489C79.5429 121.99 81.2984 120.691 81.2984 120.691C81.2984 120.691 81.9851 122.391 78.0811 122.89C76.719 122.488 73.9946 121.791 72.2446 122.89C69.6091 122.488 70.29 121.791 70.29 121.791Z" fill="white"/>
<path d="M88.3134 120.789C89.1389 121.439 90.9165 121.633 90.9165 121.633L96.4925 121.791L98.3415 122.187L97.6611 122.688C97.6611 122.688 92.5995 123.09 89.9693 122.592C88.989 122.392 88.3134 122.09 88.3134 122.09C88.3134 122.09 87.0457 121.293 88.3134 120.789Z" fill="white"/>
<path d="M48.7734 123.891C50.2296 123.788 50.9106 123.486 50.9106 123.486L53.4472 122.892C53.4472 122.892 62.8936 121.792 63.7686 122.593C63.9624 123.091 62.9878 123.692 62.9878 123.692C62.9878 123.692 58.9953 123.193 55.7834 123.788C54.1281 123.788 52.8654 124.087 52.8654 124.087C52.8654 124.087 48.7734 124.79 48.7734 123.891Z" fill="white"/>
<path d="M53.9348 124.688L49.6491 125.487C49.2557 126.185 50.33 126.185 50.33 126.185C54.9094 125.687 53.9348 124.688 53.9348 124.688Z" fill="white"/>
<path d="M54.9049 125.686C54.7054 125.187 56.6604 124.49 56.6604 124.49C56.6604 124.49 58.6041 123.889 58.8973 124.49C59.3792 124.291 54.7054 126.588 54.9049 125.686Z" fill="white"/>
<path d="M58.211 126.371C57.4357 125.791 61.0349 124.391 61.0349 124.391C61.9156 124.59 61.9156 124.192 61.1345 125.293C60.3536 125.592 59.0913 126.29 59.0913 126.29L58.211 126.371Z" fill="white"/>
<path d="M104.484 123.691L107.989 124.688C111.212 125.183 114.025 124.491 114.025 124.491L117.148 123.691C117.929 124.389 115.37 125.314 113.93 125.591C113.881 125.602 110.077 126.244 106.666 125.541C104.522 125.142 104.484 123.691 104.484 123.691Z" fill="white"/>
<path d="M105.057 125.688C107.981 126.787 108.668 128.29 108.668 128.29L106.331 127.888C106.331 127.888 104.675 126.889 105.057 125.688Z" fill="white"/>
<path d="M108.859 126.391C112.077 126.589 112.951 128.084 112.951 128.084C112.951 128.084 110.127 128.289 109.253 127.19C109.353 127.586 108.859 126.391 108.859 126.391Z" fill="white"/>
<path d="M112.852 126.286C115.487 125.987 115.975 127.086 115.975 127.086L114.807 127.188L112.852 126.286Z" fill="white"/>
<path d="M71.7585 126.122C73.3201 130.619 76.4268 126.325 76.4268 126.325C77.0138 125.528 77.9884 126.183 77.9884 126.183C77.9884 126.183 76.6094 130.522 72.4343 129.387C70.7234 128.816 70.02 126.897 70.02 126.897C70.02 126.897 69.8426 125.588 71.7585 126.122Z" fill="white"/>
<path d="M91.0444 127.189C91.0444 127.189 91.1882 128.964 94.0128 128.363C95.535 127.818 96.1055 125.891 96.1055 125.891C96.1055 125.891 96.8862 126.043 96.8753 127.012C96.6318 128.707 94.627 129.496 94.627 129.496C94.627 129.496 90.557 131.085 89.2891 127.784C89.7817 126.887 91.0444 127.189 91.0444 127.189Z" fill="white"/>
<path d="M68.9375 125.292C73.4114 122.291 77.7029 124.99 77.7029 124.99L75.0669 125.386C75.0669 125.386 74.7733 126.59 73.7047 126.59C72.7356 126.488 72.8298 125.386 72.8298 125.386C71.8551 124.492 69.3247 125.989 68.9375 125.292Z" fill="white"/>
<path d="M89.2891 126.184C91.9193 122.392 96.8862 123.889 96.8862 123.889C96.8862 123.889 97.7673 124.49 97.086 125.188C94.843 124.388 93.6746 125.29 93.6746 125.29C93.6746 125.29 93.8242 126.445 92.9884 126.691C92.9828 126.683 92.008 126.979 91.6314 125.988C91.1442 126.287 89.6764 126.888 89.2891 126.184Z" fill="white"/>
<path fill-rule="evenodd" clip-rule="evenodd" d="M61.9976 152.863C57.2078 157.235 58.4817 157.786 58.4817 157.786C62.1085 157.786 64.0244 159.638 64.0244 159.638V158.766C64.0244 158.766 62.7397 156.363 59.7662 156.798C62.3135 154.064 61.9976 152.863 61.9976 152.863Z" fill="white"/>
<path d="M69.6706 157.023C69.6706 157.023 67.5391 160.193 67.5391 163.142C67.6387 164.128 68.8128 162.927 68.8128 162.927C71.0497 158.555 69.6706 157.023 69.6706 157.023Z" fill="white"/>
<path d="M76.5867 164.779C76.5867 164.779 76.481 162.809 77.0129 161.171C77.2285 159.639 78.1867 159.535 78.1867 159.535L77.9708 163.361C77.7604 166.309 76.5867 164.779 76.5867 164.779Z" fill="white"/>
<path d="M77.7578 166.308C77.7578 166.308 78.0733 164.34 84.6793 164.454C86.595 164.561 85.5326 165.221 85.5326 165.221C85.5326 165.221 80.1 164.999 78.1841 166.86C77.7578 166.638 77.7578 166.308 77.7578 166.308Z" fill="white"/>
<path d="M87.9794 160.52C87.8852 162.798 87.6641 164.125 87.6641 164.125C88.0905 167.074 88.8325 166.093 88.8325 166.093C88.8325 166.093 89.17 162.846 88.9543 161.074C88.7549 159.908 87.9794 160.52 87.9794 160.52Z" fill="white"/>
<path d="M90.22 164.889C90.9673 162.592 95.4416 162.266 95.4416 162.266C96.5047 162.592 95.4416 163.359 95.4416 163.359C95.4416 163.359 92.5677 163.467 91.0724 164.998C89.8982 165.978 90.22 164.889 90.22 164.889Z" fill="white"/>
<path d="M95.9775 156.801C97.8934 159.755 100.025 161.064 100.025 161.064C100.025 161.064 101.41 157.789 103.326 157.896C103.436 158.553 100.983 162.269 100.983 162.269L99.9202 162.704C99.9202 162.704 96.4038 160.63 95.5514 158.331C95.0196 157.346 95.9775 156.801 95.9775 156.801Z" fill="white"/>
<path d="M102.468 146.855C102.468 146.855 103.964 152.321 107.48 155.272C106.466 155.848 103.869 154.987 102.275 149.743C101.848 147.336 102.468 146.855 102.468 146.855Z" fill="white"/>
<path d="M105.562 139.75C109.073 143.571 111.626 144.781 111.626 144.781C109.937 148.704 108.109 151.005 108.109 151.005C108.109 151.005 106.592 150.88 108.109 147.948C108.647 148.056 110.241 145.215 110.241 145.215L105.562 139.75Z" fill="white"/>
<path d="M68.7109 163.798C71.9062 161.062 74.5639 163.36 74.5639 163.36L75.2062 164.125C72.2215 162.923 68.7109 163.798 68.7109 163.798Z" fill="white"/>
<path fill-rule="evenodd" clip-rule="evenodd" d="M79.7782 124.659C81.2732 124.225 80.9464 125.974 80.9464 125.974C80.9464 130.235 77.5413 133.954 77.5413 133.954C81.4838 134.391 83.1893 135.156 83.1893 135.156C83.1893 135.156 82.7628 135.815 77.0099 135.263C75.6252 135.593 73.5155 136.205 72.7513 139.743C72.6184 141.139 72.3969 142.85 74.5566 144.12C83.0789 147.399 90.6431 145.431 90.6431 145.431C92.8796 144.888 94.2035 144.488 95.3994 143.082C95.9417 142.34 96.8059 138.259 94.0371 136.447C91.4844 135.064 87.7634 135.486 87.7634 135.486L88.3004 134.61C89.7953 133.845 92.2431 134.61 92.2431 134.61L91.3902 132.423L90.7531 130.891L91.7112 130.562C93.2011 134.061 96.1854 136.144 96.1854 136.144C96.9276 137.781 97.8854 140.402 97.0327 143.135C95.3276 147.507 85.0002 147.833 85.0002 147.833C85.0002 147.833 73.3384 147.374 71.6329 143.547C70.9904 142.454 70.7244 137.123 74.4572 134.826C75.4148 134.061 80.205 130.454 79.7782 124.659Z" fill="white"/>
<path d="M66.0465 119.638C66.8992 119.417 67.2147 118.979 67.1096 120.289C64.9831 125.212 64.7676 128.052 64.7676 128.052C64.7676 128.052 64.0253 131.765 66.8992 133.626C70.3047 135.923 70.1994 136.757 69.5629 136.688C69.9613 138.203 68.8154 137.347 68.8154 137.347C67.2147 135.487 66.8992 135.049 66.0465 134.827C65.9413 136.25 66.0465 137.125 66.6832 138.44C67.1096 139.091 66.6832 139.967 66.6832 139.967C66.6832 139.967 64.0253 141.718 64.3412 144.89C64.6567 150.354 69.1308 152.757 69.1308 152.757C71.689 155.928 78.2952 156.8 78.2952 156.8C78.2952 156.8 74.2472 158.66 69.6733 155.382C68.389 154.505 65.6367 152.801 63.6709 149.133C62.0483 144.36 63.156 141.503 64.7676 139.42C65.1937 139.312 64.6567 135.487 64.6567 135.487C64.6567 135.487 60.6144 127.393 66.0465 119.638Z" fill="white"/>
<path d="M66.0465 119.638C66.8992 119.417 67.2147 118.979 67.1096 120.289C64.9831 125.212 64.7676 128.052 64.7676 128.052C64.7676 128.052 64.0253 131.765 66.8992 133.626C70.3047 135.923 70.1994 136.757 69.5629 136.688C69.9613 138.203 68.8154 137.347 68.8154 137.347C67.2147 135.487 66.8992 135.049 66.0465 134.827C65.9413 136.25 66.0465 137.125 66.6832 138.44C67.1096 139.091 66.6832 139.967 66.6832 139.967C66.6832 139.967 64.0253 141.718 64.3412 144.89C64.6567 150.354 69.1308 152.757 69.1308 152.757C71.689 155.928 78.2952 156.8 78.2952 156.8C78.2952 156.8 74.2472 158.66 69.6733 155.382C68.389 154.505 65.6367 152.801 63.6709 149.133C62.0483 144.36 63.156 141.503 64.7676 139.42C65.1937 139.312 64.6567 135.487 64.6567 135.487C64.6567 135.487 60.6144 127.393 66.0465 119.638Z" stroke="#231F20" stroke-width="0.453622" stroke-miterlimit="3.864"/>
<path fill-rule="evenodd" clip-rule="evenodd" d="M99.4907 120.837C99.3803 119.415 100.554 119.744 100.554 119.744C104.923 121.602 103.854 135.262 103.854 135.262C103.323 138.984 101.617 141.279 101.617 141.279C101.085 142.151 101.085 149.914 101.085 149.914C100.022 155.053 89.5845 156.906 89.5845 156.906C88.5154 156.689 89.5845 155.817 89.5845 155.817C97.7847 153.63 98.6324 151.224 98.6324 151.224C100.338 150.131 99.1639 141.609 100.134 140.077C102.259 138.324 102.896 133.844 102.896 133.844C102.896 133.844 101.617 135.376 101.085 134.825C101.938 133.515 102.043 131.441 102.043 131.441C102.043 131.441 103.433 124.116 99.4907 120.837Z" fill="white"/>
<path d="M74.6692 139.311C74.138 138.546 75.3121 138.109 75.3121 138.109C77.3332 137.78 78.8832 139.907 78.8832 139.907C80.0962 141.581 78.0914 143.048 77.2996 143.032C75.068 142.876 76.2699 140.728 76.2699 140.728C76.8013 141.825 77.4382 141.609 77.4382 141.609C78.6843 140.847 76.7848 139.227 74.6692 139.311Z" fill="white"/>
<path d="M88.7308 142.814C87.668 140.298 90.0876 138.89 90.0876 138.89C91.4054 138.074 92.8839 138.766 92.8839 138.766C94.9054 139.86 93.3105 141.829 93.3105 141.829C91.9258 143.464 91.4996 141.72 91.4996 141.72C91.4996 141.72 92.79 141.51 92.2474 140.298C91.6159 139.491 90.7685 140.07 90.7685 140.07C90.7685 140.07 89.584 140.845 90.1154 142.156C90.1154 143.138 88.7308 142.814 88.7308 142.814Z" fill="white"/>
<path fill-rule="evenodd" clip-rule="evenodd" d="M68.6562 149.15C68.7672 148.599 69.8803 146.473 69.8803 146.473C73.3964 149.15 79.3048 150.131 79.3048 150.131L78.5073 153.084C77.6544 153.469 75.9988 152.636 75.9988 152.636L76.6962 150.46L75.988 152.658C74.775 152.669 73.6124 151.661 73.6124 151.661L74.4653 149.472L73.6071 151.678C73.6071 151.678 71.7738 151.382 70.8878 150.46C70.6883 150.347 71.8017 148.491 71.8017 148.491L70.8438 150.352C70.8438 150.352 69.5646 150.131 68.6562 149.15Z" fill="white"/>
<path d="M68.6562 149.15C68.7672 148.599 69.8803 146.473 69.8803 146.473C73.3964 149.15 79.3048 150.131 79.3048 150.131L78.5073 153.084C77.6544 153.469 75.9988 152.636 75.9988 152.636L76.6962 150.46L75.988 152.658C74.775 152.669 73.6124 151.661 73.6124 151.661L74.4653 149.472L73.6071 151.678C73.6071 151.678 71.7738 151.382 70.8878 150.46C70.6883 150.347 71.8017 148.491 71.8017 148.491L70.8438 150.352C70.8438 150.352 69.5646 150.131 68.6562 149.15Z" stroke="#231F20" stroke-width="0.226811" stroke-miterlimit="3.864"/>
<path fill-rule="evenodd" clip-rule="evenodd" d="M97.0938 149.423C96.9834 148.877 95.8701 147.125 95.8701 147.125C92.3541 149.802 86.4453 150.403 86.4453 150.403L87.2428 153.357C88.2006 153.687 89.7238 152.858 89.7238 152.858C90.9697 152.972 92.1436 151.934 92.1436 151.934L91.2907 149.753L92.0825 151.884C92.0825 151.884 94.1814 151.499 94.8846 150.677C94.8846 150.653 93.9486 148.764 93.9486 148.764L94.907 150.625C94.907 150.625 96.1913 150.403 97.0938 149.423Z" fill="white"/>
<path d="M89.7238 152.858C89.7238 152.858 88.2006 153.687 87.2428 153.357L86.4453 150.403C86.4453 150.403 92.3541 149.802 95.8701 147.125C95.8701 147.125 96.9834 148.877 97.0938 149.423C96.1913 150.403 94.907 150.625 94.907 150.625L93.9486 148.764C93.9486 148.764 94.8846 150.653 94.8846 150.677C94.1814 151.499 92.0825 151.884 92.0825 151.884L91.2907 149.753L92.1436 151.934C92.1436 151.934 90.9697 152.972 89.7238 152.858ZM89.7238 152.858L89.0537 150.732" stroke="#231F20" stroke-width="0.226811" stroke-miterlimit="3.864"/>
<path d="M67.6219 148.851C66.8244 148.325 69.9531 145.189 70.241 143.023C70.5734 144.106 71.9356 147.531 79.6987 148.03C79.3114 148.392 78.3919 150.122 70.3905 146.011C68.9347 145.491 68.2755 148.403 68.2755 148.403L67.6219 148.851Z" fill="#ED1C24"/>
<path d="M67.6219 148.851C66.8244 148.325 69.9531 145.189 70.241 143.023C70.5734 144.106 71.9356 147.531 79.6987 148.03C79.3114 148.392 78.3919 150.122 70.3905 146.011C68.9347 145.491 68.2755 148.403 68.2755 148.403L67.6219 148.851Z" stroke="#ED1C24" stroke-width="0.362898" stroke-miterlimit="3.864" stroke-linejoin="round"/>
<path d="M97.6876 148.805C98.6343 146.264 96.7301 147.204 96.436 145.039C93.4512 148.622 86.4688 148.547 86.4688 148.547C86.4688 148.547 87.194 150.862 95.4891 146.906C97.505 146.078 97.6876 148.805 97.6876 148.805Z" fill="#ED1C24"/>
<path d="M97.6876 148.805C98.6343 146.264 96.7301 147.204 96.436 145.039C93.4512 148.622 86.4688 148.547 86.4688 148.547C86.4688 148.547 87.194 150.862 95.4891 146.906C97.505 146.078 97.6876 148.805 97.6876 148.805Z" stroke="#ED1C24" stroke-width="0.362898" stroke-miterlimit="3.864" stroke-linejoin="round"/>
<path d="M80.5727 148.102C77.5218 157.661 79.9415 159.534 79.9415 159.534C81.2537 160.802 82.915 160.688 82.915 160.688C85.9995 160.973 86.52 158.517 86.52 158.517C87.4669 155.682 85.7447 148.475 85.7447 148.475H83.9951L83.4131 156.244C83.048 156.839 83.1918 156.911 82.6104 156.39C83.048 149.444 82.677 148.475 82.677 148.475C82.677 148.475 81.8795 148.4 80.5727 148.102Z" fill="#ED1C24"/>
<path d="M80.5727 148.102C77.5218 157.661 79.9415 159.534 79.9415 159.534C81.2537 160.802 82.915 160.688 82.915 160.688C85.9995 160.973 86.52 158.517 86.52 158.517C87.4669 155.682 85.7447 148.475 85.7447 148.475H83.9951L83.4131 156.244C83.048 156.839 83.1918 156.911 82.6104 156.39C83.048 149.444 82.677 148.475 82.677 148.475C82.677 148.475 81.8795 148.4 80.5727 148.102Z" stroke="#ED1C24" stroke-width="0.362898" stroke-miterlimit="3.864"/>
<path d="M78.0589 79.1562C78.0589 79.1562 77.6045 83.9436 75.107 85.5467C70.6662 88.3159 58.4006 91.9369 56.0085 94.4312C47.0767 101.497 51.1857 112.289 51.1857 112.289C53.3835 118.848 58.3122 118.655 58.3122 118.655C60.6878 118.469 63.5172 118.469 63.5172 118.469C62.9916 117.766 62.7694 117.113 62.7694 117.113C62.7694 117.113 62.244 115.958 64.0658 114.908C62.5093 112.187 61.8728 107.032 61.8728 107.032C59.4528 106.254 59.176 104.488 59.176 104.488C59.176 104.488 58.5614 102.693 60.361 101.871C57.3433 99.5479 57.382 97.7424 57.382 97.7424C57.382 97.7424 56.9776 94.7388 59.7464 95.1876C62.2162 95.86 59.586 97.9752 60.2725 98.2078C61.3576 95.3728 62.4262 96.2923 62.5983 96.3419C64.636 97.3135 61.8619 99.4562 62.4873 99.8356C64.4919 95.3728 65.7324 99.0829 65.7324 99.0829C65.7324 99.0829 74.4754 95.1238 78.2246 91.8455C84.9801 85.4717 78.0589 79.1562 78.0589 79.1562Z" fill="white"/>
<path d="M78.0589 79.1562C78.0589 79.1562 77.6045 83.9436 75.107 85.5467C70.6662 88.3159 58.4006 91.9369 56.0085 94.4312C47.0767 101.497 51.1857 112.289 51.1857 112.289C53.3835 118.848 58.3122 118.655 58.3122 118.655C60.6878 118.469 63.5172 118.469 63.5172 118.469C62.9916 117.766 62.7694 117.113 62.7694 117.113C62.7694 117.113 62.244 115.958 64.0658 114.908C62.5093 112.187 61.8728 107.032 61.8728 107.032C59.4528 106.254 59.176 104.488 59.176 104.488C59.176 104.488 58.5614 102.693 60.361 101.871C57.3433 99.5479 57.382 97.7424 57.382 97.7424C57.382 97.7424 56.9776 94.7388 59.7464 95.1876C62.2162 95.86 59.586 97.9752 60.2725 98.2078C61.3576 95.3728 62.4262 96.2923 62.5983 96.3419C64.636 97.3135 61.8619 99.4562 62.4873 99.8356C64.4919 95.3728 65.7324 99.0829 65.7324 99.0829C65.7324 99.0829 74.4754 95.1238 78.2246 91.8455C84.9801 85.4717 78.0589 79.1562 78.0589 79.1562Z" stroke="#231F20" stroke-width="0.481973" stroke-miterlimit="3.864"/>
<path fill-rule="evenodd" clip-rule="evenodd" d="M88.1637 79.1562C88.1637 79.1562 87.6872 82.9859 91.0873 85.5633C96.8407 89.1484 107.821 91.9369 110.219 94.4312C118.962 100.744 115.679 111.744 115.679 111.744C113.336 117.245 108.458 118.281 108.458 118.281C106.265 117.81 102.976 117.663 102.976 117.663C103.408 117.458 103.441 116.966 103.441 116.966C103.441 116.966 103.491 115.452 102.162 114.908C103.718 112.187 104.349 107.032 104.349 107.032C106.387 107.021 106.908 104.407 106.908 104.407C106.908 104.407 107.356 102.563 105.817 101.782C108.818 99.4396 108.812 97.7424 108.812 97.7424C108.812 97.7424 109.233 95.8741 107.805 95.533C106.979 95.392 105.828 94.999 106.187 98.0613C105.712 98.1632 106.099 95.9348 104.853 95.9678C101.603 96.5743 104.017 99.1107 103.568 99.3324C103.568 99.3324 103.497 97.4658 101.825 97.7597C100.318 98.0335 100.518 99.1549 100.518 99.1549C100.518 99.1549 91.7465 95.1238 88.0028 91.8455C81.2418 85.4717 88.1637 79.1562 88.1637 79.1562Z" fill="white"/>
<path d="M88.1637 79.1562C88.1637 79.1562 87.6872 82.9859 91.0873 85.5633C96.8407 89.1484 107.821 91.9369 110.219 94.4312C118.962 100.744 115.679 111.744 115.679 111.744C113.336 117.245 108.458 118.281 108.458 118.281C106.265 117.81 102.976 117.663 102.976 117.663C103.408 117.458 103.441 116.966 103.441 116.966C103.441 116.966 103.491 115.452 102.162 114.908C103.718 112.187 104.349 107.032 104.349 107.032C106.387 107.021 106.908 104.407 106.908 104.407C106.908 104.407 107.356 102.563 105.817 101.782C108.818 99.4396 108.812 97.7424 108.812 97.7424C108.812 97.7424 109.233 95.8741 107.805 95.533C106.979 95.392 105.828 94.999 106.187 98.0613C105.712 98.1632 106.099 95.9348 104.853 95.9678C101.603 96.5743 104.017 99.1107 103.568 99.3324C103.568 99.3324 103.497 97.4658 101.825 97.7597C100.318 98.0335 100.518 99.1549 100.518 99.1549C100.518 99.1549 91.7465 95.1238 88.0028 91.8455C81.2418 85.4717 88.1637 79.1562 88.1637 79.1562Z" stroke="#231F20" stroke-width="0.481973" stroke-miterlimit="3.864"/>
<path d="M91.7255 111.486C91.6811 110.86 91.1552 110.384 90.5401 110.431C89.9253 110.475 89.4661 111.021 89.5101 111.643C89.5548 112.272 90.0861 112.746 90.7006 112.704C91.3045 112.66 91.7693 112.114 91.7255 111.486ZM96.9688 111.087L94.134 110.68C93.3866 110.572 92.7055 111.015 92.617 111.666C92.5224 112.319 93.0651 112.931 93.8127 113.039L96.6479 113.446C97.3951 113.554 98.0769 113.111 98.1653 112.46C98.2535 111.81 97.717 111.195 96.9688 111.087ZM79.6978 111.184C79.742 110.561 80.2735 110.091 80.8826 110.129C81.4922 110.176 81.9575 110.718 81.9075 111.35C81.8684 111.973 81.3372 112.449 80.7276 112.405C80.1186 112.358 79.6596 111.815 79.6978 111.184ZM74.4095 110.165L77.256 109.961C78.0092 109.911 78.6628 110.397 78.707 111.053C78.751 111.713 78.1754 112.286 77.4164 112.341L74.5705 112.541C73.8117 112.596 73.1638 112.103 73.1196 111.45C73.0754 110.794 73.6457 110.215 74.4095 110.165Z" stroke="#231F20" stroke-width="0.340216" stroke-miterlimit="3.864"/>
<path d="M106.858 105.228C107.495 103.946 107.262 102.138 106.077 101.869C105.462 101.734 104.515 102.387 103.879 103.669C103.242 104.948 103.392 106.338 104.216 106.77C105.036 107.199 106.221 106.51 106.858 105.228Z" fill="#FFE013"/>
<path d="M106.858 105.228C107.495 103.946 107.262 102.138 106.077 101.869C105.462 101.734 104.515 102.387 103.879 103.669C103.242 104.948 103.392 106.338 104.216 106.77C105.036 107.199 106.221 106.51 106.858 105.228Z" stroke="#231F20" stroke-width="0.453622" stroke-miterlimit="3.864"/>
<path d="M59.2677 105.283C58.6198 103.985 58.7251 102.597 59.5114 102.187C60.2919 101.78 61.4495 102.506 62.0974 103.804C62.7396 105.103 62.6346 106.485 61.8536 106.894C61.067 107.301 59.9102 106.582 59.2677 105.283Z" fill="#FFE013"/>
<path d="M59.2677 105.104C58.6198 103.805 58.7251 102.418 59.5114 102.008C60.2919 101.601 61.4493 102.326 62.0973 103.625C62.7394 104.923 62.6344 106.305 61.8534 106.715C61.0669 107.121 59.9102 106.402 59.2677 105.104Z" stroke="#231F20" stroke-width="0.451612" stroke-miterlimit="3.864"/>
<path d="M105.562 139.75C109.073 143.571 111.626 144.781 111.626 144.781C109.937 148.704 108.109 151.005 108.109 151.005C108.109 151.005 106.592 150.88 108.109 147.948C108.647 148.056 110.23 145.193 110.23 145.193C110.23 145.193 106.465 143.668 105.562 139.75Z" fill="white"/>
<path d="M37.3906 30.4023V152.571C37.3906 202.172 82.1009 225.424 127.257 225.591C172.467 225.752 217.677 202.172 217.692 153.052V30.4023H37.3906Z" stroke="#231F20" stroke-width="2.05734" stroke-miterlimit="3.864"/>
</svg>
