<svg width="256" height="256" viewBox="0 0 256 256" fill="none" xmlns="http://www.w3.org/2000/svg">
<path fill-rule="evenodd" clip-rule="evenodd" d="M127.551 231C76.989 231 36 190.029 36 139.444V25H219.111V139.444C219.111 190.029 178.117 231 127.556 231" fill="black"/>
<path fill-rule="evenodd" clip-rule="evenodd" d="M96.8119 45.6055H216.832V65.061H103.88C104.42 63.6419 104.173 61.9939 102.928 60.529C101.097 58.4232 98.4553 58.3775 96.6242 59.9797C96.2488 60.3001 95.9055 60.7579 95.6675 61.353C94.0698 60.1628 91.7077 59.3846 89.7713 61.0784C88.43 62.2228 88.0363 63.6419 88.3934 64.9237C88.2698 64.9237 88.1416 65.1068 88.018 65.1068H83.692C82.3507 64.6948 81.1033 63.9166 80.1264 62.8179C77.4667 59.7508 77.6571 54.8526 80.6903 52.1975C81.085 51.877 81.6805 51.9228 82.0211 52.3348C82.2088 52.5637 82.2912 52.8384 82.2546 53.113C82.0074 54.6695 81.5217 55.4019 80.483 56.5006L81.0666 57.1415C82.8405 59.2015 86.1365 59.8881 88.4895 58.4232C90.5541 59.5219 92.9345 59.6135 94.8114 57.9655C96.6883 56.3175 96.9355 53.9828 96.1435 51.7855C97.5306 50.0917 97.6817 47.6655 96.8119 45.697M131.626 85.7526H216.832V105.208H138.68C139.23 103.789 138.982 102.095 137.733 100.676C135.906 98.5704 133.26 98.5246 131.434 100.127C131.054 100.447 130.715 100.859 130.477 101.5C128.879 100.264 126.513 99.4859 124.576 101.18C123.235 102.324 122.846 103.789 123.198 105.071C123.047 105.117 122.919 105.162 122.777 105.162H118.547C117.183 104.796 115.92 104.018 114.935 102.919C112.271 99.8521 112.459 94.9081 115.498 92.2988C115.892 91.9326 116.487 91.9784 116.831 92.3904C117.014 92.5735 117.091 92.8939 117.064 93.1228C116.817 94.725 116.327 95.4575 115.288 96.5104L115.874 97.197C117.641 99.257 120.946 99.8979 123.294 98.4788C125.359 99.5775 127.739 99.6232 129.616 98.021C131.493 96.373 131.745 93.9926 130.948 91.7952C132.335 90.1472 132.487 87.6752 131.626 85.7526ZM166.44 125.808H216.832V139.496C216.832 141.464 216.832 143.341 216.649 145.264H173.485C174.034 143.799 173.792 142.151 172.547 140.686C170.716 138.58 168.079 138.534 166.234 140.137C165.868 140.457 165.524 140.915 165.282 141.51C163.684 140.32 161.327 139.541 159.386 141.189C158.044 142.38 157.651 143.799 158.008 145.081C157.843 145.126 157.692 145.172 157.536 145.264H153.398C152.02 144.852 150.738 144.119 149.74 142.975C147.08 139.908 147.268 134.964 150.303 132.354C150.697 131.988 151.297 132.034 151.635 132.446C151.818 132.629 151.901 132.949 151.869 133.178C151.622 134.735 151.136 135.467 150.097 136.566L150.679 137.253C152.45 139.267 155.751 139.953 158.104 138.489C160.168 139.587 162.549 139.679 164.426 138.077C166.307 136.429 166.55 134.048 165.758 131.851C167.136 130.203 167.296 127.731 166.44 125.808ZM201.245 165.864H212.877C211.316 170.899 209.338 175.752 206.972 180.329C205.177 178.636 202.76 178.727 201.048 180.192C200.673 180.513 200.329 180.97 200.087 181.565C198.484 180.375 196.118 179.597 194.2 181.245C192.858 182.435 192.455 183.854 192.808 185.136C192.639 185.182 192.478 185.273 192.295 185.319H188.258C186.852 184.907 185.557 184.175 184.545 182.985C181.885 179.917 182.078 175.019 185.117 172.364C185.511 172.044 186.097 172.089 186.449 172.456C186.632 172.685 186.706 172.959 186.683 173.234C186.426 174.79 185.937 175.523 184.898 176.576L185.483 177.262C187.255 179.322 190.565 180.009 192.918 178.544C194.982 179.643 197.363 179.734 199.231 178.086C201.112 176.484 201.355 174.104 200.563 171.906C201.954 170.213 202.101 167.786 201.245 165.864ZM38.2969 65.061V47.5739L53.4924 65.061H38.2969ZM38.2969 105.117V85.661H71.4007L88.311 105.117H38.2969ZM38.476 145.172C38.363 143.295 38.2969 141.373 38.2969 139.45V125.717H106.219L123.13 145.172H38.476ZM175.852 205.828L180.576 211.275C165.758 222.216 147.415 228.717 127.561 228.717C104.612 228.717 83.6874 220.065 67.8717 205.828H175.852ZM50.9092 185.228C47.2854 179.185 44.3574 172.639 42.2388 165.772H141.038L157.948 185.228H50.9092Z" fill="#FFDD00"/>
<path fill-rule="evenodd" clip-rule="evenodd" d="M106.97 100.163C106.356 97.1878 106.649 93.9834 107.959 91.3283C105.116 92.2438 101.934 92.0607 99.0365 91.0536L106.97 100.163ZM72.1635 60.1536C71.5506 57.1323 71.8399 53.9736 73.1496 51.2727C70.3114 52.1883 67.128 52.0509 64.2284 50.998L72.1635 60.1536ZM89.5651 80.1585C88.9562 77.1372 89.2446 73.9785 90.5539 71.2776C87.7156 72.2389 84.5341 72.0558 81.6341 71.0487L89.5651 80.1585ZM124.374 120.214C123.761 117.193 124.049 114.034 125.359 111.333C122.52 112.249 119.334 112.111 116.441 111.058L124.374 120.214ZM141.775 140.219C141.161 137.198 141.454 134.039 142.763 131.338C139.925 132.299 136.744 132.116 133.841 131.109L141.775 140.219ZM159.179 160.224C158.566 157.248 158.859 154.044 160.168 151.389C157.325 152.304 154.144 152.121 151.246 151.114L159.179 160.224ZM176.584 180.275C175.975 177.253 176.268 174.094 177.573 171.394C174.73 172.309 171.544 172.172 168.651 171.165L176.584 180.275ZM193.458 199.638L193.824 199.272C193.458 196.571 193.824 193.779 194.982 191.398C192.139 192.314 188.953 192.177 186.06 191.17L193.458 199.684V199.638ZM54.7607 40.1029C54.1491 37.1274 54.4393 33.9229 55.7444 31.2678C52.9062 32.1834 49.7237 32.0003 46.8283 30.9932L54.7607 40.1029ZM183.899 208.702L38.2969 41.2016V44.5892L182.151 210.076C182.737 209.618 183.323 209.16 183.899 208.702ZM38.2969 38.226L185.401 207.421C186.669 206.368 187.914 205.223 189.136 204.079L38.2969 30.5354V38.226ZM145.034 146.948L41.0145 27.2852H38.2969V27.5598L190.537 202.706C191.077 202.156 191.59 201.653 192.112 201.103L145.034 146.948ZM205.992 182.106C205.992 182.06 205.845 182.014 205.845 181.968C204.957 180.915 203.309 180.686 202.284 181.602C201.757 182.06 201.428 182.609 201.368 183.25L199.647 183.754C198.365 182.289 196.534 181.694 195.435 182.655C194.007 183.891 194.703 184.761 195.435 185.997C191.16 188.057 186.399 188.148 182.984 184.211C179.674 180.366 179.834 174.232 183.739 170.844C184.948 169.791 186.779 169.929 187.827 171.119C188.39 171.76 188.633 172.63 188.523 173.408C188.367 174.461 188.01 175.559 187.452 176.475C189.246 177.802 191.114 177.436 192.689 176.109C194.273 177.116 196.168 178.031 197.862 176.566C199.56 175.056 198.924 173.087 198.132 171.394C199.656 169.974 200.306 168.189 199.217 166.221C197.12 167.182 193.883 167.136 192.359 165.855C190.954 164.71 191.077 162.925 192.638 162.055C194.337 161.002 197.523 161.414 199.473 162.65C200.819 160.865 200.425 158.942 199.107 157.386C200.132 155.783 201.039 153.906 199.56 152.213C198.095 150.519 196.095 151.16 194.382 151.938C193.005 150.427 191.196 149.786 189.246 150.839C190.171 152.945 190.125 156.15 188.88 157.706C187.754 159.125 185.987 158.988 185.057 157.477C184.018 155.783 184.421 152.579 185.643 150.61C183.863 149.237 181.967 149.649 180.393 150.931C178.809 149.924 176.927 149.054 175.22 150.519C173.521 151.984 174.158 153.998 174.936 155.692C173.425 157.065 172.775 158.896 173.865 160.819C174.826 160.407 175.975 160.224 177.037 160.178C177.829 160.224 178.649 160.544 179.212 161.185C180.26 162.421 180.136 164.252 178.928 165.305C175.009 168.693 168.893 168.006 165.574 164.161C162.155 160.224 162.887 155.554 165.529 151.618C166.614 152.533 167.369 153.357 168.811 152.121C169.896 151.16 169.594 149.283 168.312 147.772L169.044 146.17C169.676 146.17 170.276 145.941 170.825 145.483C171.837 144.614 171.837 142.92 170.949 141.913C170.07 140.906 168.422 140.677 167.406 141.546C166.856 142.004 166.54 142.599 166.481 143.24L164.746 143.698C163.464 142.233 161.633 141.684 160.548 142.599C159.106 143.881 159.816 144.751 160.594 145.941C156.314 148.047 151.553 148.093 148.138 144.156C144.819 140.356 144.979 134.176 148.893 130.789C150.097 129.736 151.928 129.873 152.981 131.063C153.54 131.704 153.773 132.574 153.672 133.352C153.512 134.405 153.16 135.55 152.596 136.419C154.382 137.747 156.272 137.381 157.847 136.053C159.422 137.106 161.317 137.976 163.011 136.511C164.709 135.046 164.073 133.032 163.295 131.338C164.805 129.965 165.455 128.134 164.366 126.165C162.269 127.126 159.033 127.081 157.495 125.799C156.103 124.654 156.217 122.915 157.788 121.999C159.486 120.946 162.672 121.358 164.622 122.594C165.968 120.809 165.574 118.932 164.27 117.33C165.281 115.774 166.188 113.897 164.709 112.157C163.231 110.463 161.244 111.104 159.532 111.882C158.168 110.372 156.341 109.731 154.386 110.83C155.32 112.89 155.279 116.14 154.025 117.65C152.912 119.115 151.136 118.978 150.207 117.422C149.168 115.728 149.571 112.523 150.788 110.555C149.008 109.227 147.112 109.594 145.542 110.921C143.958 109.914 142.077 108.998 140.374 110.463C138.675 111.974 139.307 113.942 140.095 115.636C138.584 117.01 137.929 118.841 139.01 120.809C139.98 120.351 141.129 120.168 142.182 120.168C142.979 120.168 143.803 120.534 144.361 121.175C145.414 122.366 145.286 124.197 144.077 125.25C140.163 128.637 134.047 127.95 130.728 124.151C127.313 120.214 128.037 115.499 130.683 111.562C131.768 112.478 132.523 113.302 133.96 112.066C135.05 111.104 134.743 109.227 133.461 107.762L134.194 106.114C134.835 106.114 135.434 105.886 135.975 105.428C136.991 104.558 136.991 102.864 136.112 101.857C135.228 100.85 133.585 100.621 132.569 101.491C132.024 101.994 131.713 102.544 131.639 103.185L129.918 103.688C128.636 102.223 126.801 101.628 125.711 102.59C124.278 103.826 124.979 104.695 125.757 105.886C121.5 107.991 116.743 108.037 113.324 104.1C110.009 100.301 110.17 94.1665 114.079 90.7332C115.288 89.6803 117.119 89.8176 118.172 91.0078C118.73 91.6945 118.968 92.5185 118.863 93.3425C118.707 94.3496 118.35 95.494 117.787 96.3638C119.572 97.7372 121.463 97.3252 123.038 96.0434C124.617 97.0505 126.503 97.9203 128.201 96.4554C129.9 94.9905 129.268 92.9763 128.481 91.2825C129.996 89.9092 130.646 88.0781 129.566 86.1554C127.455 87.0709 124.223 87.0252 122.69 85.7434C121.294 84.6447 121.408 82.8594 122.978 81.9438C124.681 80.9367 127.867 81.3487 129.817 82.5389C131.159 80.7536 130.77 78.8767 129.46 77.3203C130.481 75.718 131.378 73.8412 129.9 72.1474C128.426 70.4536 126.434 71.0487 124.727 71.8727C123.349 70.3163 121.532 69.6754 119.577 70.774C120.511 72.8798 120.47 76.0843 119.22 77.6407C118.103 79.0598 116.327 78.9225 115.397 77.366C114.358 75.6723 114.761 72.4678 115.983 70.5452C114.198 69.1718 112.303 69.5838 110.733 70.8656C109.149 69.8585 107.267 68.9429 105.564 70.4536C103.866 71.9185 104.498 73.8869 105.285 75.6265C103.77 76.9998 103.12 78.7852 104.2 80.7536C105.166 80.3416 106.32 80.1127 107.373 80.1127C108.174 80.1127 108.993 80.4789 109.552 81.1198C110.6 82.31 110.476 84.1412 109.268 85.194C105.358 88.5816 99.2333 87.8949 95.919 84.0954C92.4994 80.1585 93.2273 75.4434 95.8732 71.5065C96.9673 72.4678 97.7181 73.2918 99.1555 72.0558C100.245 71.0945 99.9383 69.1718 98.6565 67.7069L99.389 66.0589C100.03 66.0589 100.63 65.8758 101.174 65.3723C102.191 64.5025 102.191 62.8545 101.312 61.8474C100.428 60.8403 98.7801 60.5656 97.7639 61.4812C97.2237 61.9389 96.9124 62.4883 96.8437 63.1292L95.1133 63.6327C93.8361 62.1678 92.0004 61.6185 90.9109 62.534C89.4735 63.77 90.1785 64.6398 90.9704 65.8758C86.6902 67.9358 81.9339 68.0274 78.5148 64.0905C75.1982 60.2452 75.3607 54.1109 79.2719 50.7234C80.4805 49.6705 82.3093 49.8078 83.3576 50.998C83.9207 51.6389 84.1541 52.5087 84.058 53.2869C83.8932 54.3398 83.5361 55.4385 82.9776 56.354C84.7584 57.6816 86.649 57.3154 88.2238 55.9878C89.8031 56.9949 91.6891 57.9105 93.3875 56.4456C95.0904 54.9349 94.4587 52.9665 93.6713 51.2727C95.1866 49.8994 95.832 48.0683 94.7563 46.0998C92.6459 47.0612 89.4094 47.0154 87.8804 45.7336C86.4842 44.5892 86.5941 42.8038 88.1643 41.934C89.8672 40.8812 93.0533 41.2932 95.0035 42.5292C96.3493 40.7438 95.9602 38.8212 94.651 37.2647C95.6672 35.6625 96.5736 33.7856 95.0904 32.0918C93.6118 30.398 91.6205 31.0389 89.9175 31.8172C88.5396 30.3065 86.7177 29.6656 84.763 30.7185C85.6968 32.8243 85.6602 36.0287 84.4059 37.5852C83.2935 39.0043 81.5132 38.8669 80.5867 37.3563C79.5466 35.6625 79.9503 32.458 81.1699 30.4896C79.3877 29.1163 77.4921 29.5283 75.9219 30.8558C74.3375 29.8029 72.4552 28.9332 70.7545 30.398C69.0552 31.8629 69.6851 33.8772 70.4725 35.5709C68.96 36.9443 68.3109 38.7754 69.3876 40.698C70.3567 40.286 71.5089 40.1029 72.5614 40.0572C73.3611 40.0572 74.1787 40.4234 74.7427 41.0643C75.7901 42.3003 75.6619 44.1314 74.4534 45.1843C70.5435 48.5718 64.4239 47.8852 61.1096 44.0398C57.6904 40.1487 58.4165 35.4336 61.0775 31.4967C62.168 32.4123 62.921 33.2363 64.3589 32.0003C65.4466 31.0389 65.2539 28.9332 63.4534 27.2852H43.8038C47.6006 30.2149 52.7826 30.7185 57.1333 28.4754L57.8612 29.2994L58.5886 30.1692C55.2473 34.8385 55.5393 41.2016 59.3563 45.5963C63.1723 49.9909 69.4311 51.1354 74.5362 48.4803L75.2641 49.35L75.9938 50.174C72.6502 54.8434 72.9445 61.2065 76.7592 65.6012C80.5729 69.9958 86.8321 71.186 91.9409 68.5309L92.6734 69.3549L93.4012 70.1789C90.0549 74.894 90.3479 81.2114 94.1611 85.606C97.979 90.0007 104.237 91.1909 109.346 88.5358L110.074 89.3598L110.801 90.1838C107.542 94.8989 107.83 101.262 111.648 105.611C115.466 110.006 121.724 111.196 126.828 108.541L127.556 109.365L128.288 110.234C124.947 114.904 125.235 121.267 129.053 125.662C132.871 130.056 139.129 131.201 144.233 128.546L144.965 129.415L145.693 130.239C142.347 134.909 142.64 141.272 146.458 145.666C150.271 150.061 156.529 151.251 161.638 148.596L162.37 149.42L163.089 150.244C159.747 154.959 160.049 161.322 163.858 165.671C167.68 170.066 173.929 171.256 179.047 168.601L179.766 169.425L180.498 170.295C177.152 174.964 177.445 181.327 181.267 185.722C185.076 190.117 191.338 191.261 196.452 188.606L197.184 189.476L197.894 190.3C196.429 192.36 195.66 194.786 195.6 197.166C199.528 192.543 203.007 187.462 205.937 182.106M176.653 153.403L177.912 152.258L182.856 157.981L181.597 159.079L176.653 153.403ZM195.243 174.781L196.516 173.682L191.572 167.96L190.299 169.059L195.243 174.781ZM185.566 162.375C186.211 161.826 187.177 161.872 187.735 162.513C188.285 163.154 188.225 164.115 187.58 164.664C186.944 165.214 185.968 165.168 185.419 164.527C184.87 163.886 184.929 162.925 185.575 162.375M184.513 161.139C185.831 159.995 187.809 160.178 188.958 161.46C190.079 162.787 189.947 164.756 188.642 165.9C187.333 167.045 185.346 166.907 184.211 165.58C183.075 164.252 183.208 162.284 184.513 161.139ZM163.015 114.812L161.917 113.53L156.227 118.474L157.325 119.756L163.015 114.812ZM160.443 134.726L161.697 133.627L156.753 127.95L155.49 129.049L160.443 134.726ZM141.843 113.347L143.107 112.249L148.051 117.925L146.787 119.024L141.843 113.347ZM152.78 124.654C153.416 124.105 153.485 123.098 152.917 122.457C152.358 121.816 151.393 121.77 150.752 122.32C150.111 122.869 150.042 123.876 150.614 124.517C151.168 125.158 152.139 125.204 152.78 124.654ZM153.832 125.845C155.142 124.746 155.279 122.732 154.139 121.45C153.004 120.122 151.017 119.985 149.708 121.13C148.403 122.274 148.261 124.242 149.397 125.57C150.536 126.852 152.519 126.989 153.832 125.845ZM127.107 73.5207L128.211 74.8025L122.516 79.7465L121.417 78.4647L127.107 73.5207ZM107.034 73.2918L108.297 72.1932L113.246 77.9154L111.982 79.014L107.034 73.2918ZM125.629 94.7158L126.892 93.6172L121.944 87.8949L120.685 88.9936L125.629 94.7158ZM115.956 82.31C116.592 81.7607 117.567 81.8065 118.121 82.4474C118.675 83.0883 118.611 84.0496 117.97 84.5989C117.329 85.194 116.363 85.1025 115.805 84.4616C115.246 83.8207 115.315 82.8594 115.956 82.31ZM114.903 81.074C116.212 79.9296 118.194 80.0669 119.334 81.3945C120.474 82.722 120.332 84.6905 119.023 85.8349C117.718 86.9794 115.732 86.842 114.592 85.5145C113.456 84.1869 113.594 82.2185 114.903 81.074ZM93.4012 34.7469L92.3026 33.4652L86.6124 38.4092L87.7111 39.6909L93.4012 34.7469ZM90.8194 54.6603L92.0874 53.5616L87.1388 47.8852L85.8754 48.9838L90.8194 54.6603ZM72.2281 33.282L73.4916 32.1834L78.4365 37.8598L77.1721 38.9585L72.2281 33.282ZM83.1653 44.5892C83.8062 43.994 83.8749 43.0327 83.3027 42.3918C82.7442 41.7509 81.7769 41.7052 81.1355 42.2545C80.4974 42.8038 80.4264 43.7652 80.9831 44.406C81.5384 45.0469 82.5107 45.1385 83.1516 44.5892M84.1999 45.7794C85.5137 44.6349 85.6556 42.6665 84.5158 41.3389C83.3759 40.0572 81.391 39.9198 80.0836 41.0643C78.7734 42.1629 78.6356 44.1772 79.7709 45.4589C80.9085 46.7865 82.8952 46.9238 84.1999 45.7794ZM196.708 153.632L197.807 154.868L192.121 159.812L191.022 158.576L196.708 153.632Z" fill="#008444"/>
</svg>
