<svg width="256" height="256" viewBox="0 0 256 256" fill="none" xmlns="http://www.w3.org/2000/svg">
<mask id="mask0_2729_3180" style="mask-type:alpha" maskUnits="userSpaceOnUse" x="38" y="21" width="180" height="214">
<rect x="38" y="21" width="179.627" height="214" fill="#D9D9D9"/>
</mask>
<g mask="url(#mask0_2729_3180)">
<mask id="mask1_2729_3180" style="mask-type:luminance" maskUnits="userSpaceOnUse" x="-263" y="-57" width="852" height="650">
<path d="M-262.508 592.645H588.411V-56.6117H-262.508V592.645Z" fill="white"/>
</mask>
<g mask="url(#mask1_2729_3180)">
<path d="M41.375 24.1915H215.162V140.355H41.375V24.1915Z" fill="#EBBD00"/>
<path d="M41.375 37.4553H215.162V48.8906H41.375V37.4553Z" fill="black"/>
<path d="M41.375 60.3225H215.162V71.7578H41.375V60.3225Z" fill="black"/>
<path d="M41.375 83.1896H215.162V94.625H41.375V83.1896Z" fill="black"/>
<path d="M41.375 106.057H215.162V117.492H41.375V106.057Z" fill="black"/>
<path d="M41.375 128.92H215.162V140.355H41.375V128.92Z" fill="black"/>
</g>
<mask id="mask2_2729_3180" style="mask-type:luminance" maskUnits="userSpaceOnUse" x="41" y="24" width="175" height="211">
<path d="M41.375 147.665C41.375 195.651 80.2892 234.559 128.281 234.559C176.261 234.559 215.168 195.651 215.168 147.665V24.2085L41.375 24.1834V147.665Z" fill="white"/>
</mask>
<g mask="url(#mask2_2729_3180)">
<path d="M41.3828 239.129H215.17V140.347H41.3828V239.129Z" fill="white"/>
</g>
<mask id="mask3_2729_3180" style="mask-type:luminance" maskUnits="userSpaceOnUse" x="-263" y="-57" width="852" height="650">
<path d="M-262.508 592.645H588.411V-56.6117H-262.508V592.645Z" fill="white"/>
</mask>
<g mask="url(#mask3_2729_3180)">
<path d="M161.195 83.1914H215.16V24.1979H161.195V83.1914Z" fill="black"/>
<path d="M161.648 83.1914H215.154V24.1979H161.648V83.1914Z" fill="white"/>
<path d="M193.85 44.9052C190.776 44.9429 191.254 42.422 191.637 40.5611C192.027 38.6752 192.587 37.6127 192.813 36.0474C192.958 35.0604 192.555 34.6832 191.933 34.4506C191.072 34.1362 190.707 34.1362 189.934 33.9225C188.878 33.627 188.255 33.0109 187.249 33.1304C186.885 33.1744 186.753 33.4573 186.545 33.7653C186.231 33.7339 185.659 33.6836 184.98 33.7087C184.112 33.7402 183.289 33.9791 182.899 34.5009C182.503 35.0415 182.396 35.5947 182.314 36.1731C182.239 36.7515 182.088 37.0909 182.006 37.6882C182.503 37.3487 183.345 36.8206 183.924 36.8206C184.389 36.8206 184.665 36.8772 185.08 37.0846C184.659 37.399 183.465 37.9019 182.346 38.0591C181.572 38.1659 181.145 38.1534 180.34 38.0591C180.032 38.0214 179.712 38.0779 179.605 38.3734C179.385 38.9895 181.422 39.7565 182.748 39.6747C183.282 39.6433 183.59 39.5679 184.081 39.3478C183.987 39.5741 183.767 39.8068 183.559 40.0959C183.452 40.2468 183.383 40.3348 183.27 40.4857C183.873 40.3474 184.552 40.58 185.816 39.5113C186.3 39.1027 186.602 38.8575 186.966 38.3357C186.885 39.4107 186.759 40.0205 186.413 41.0389C186.042 42.1265 185.703 42.9878 185.099 43.6793C184.433 44.4526 183.006 44.9303 181.981 44.9052C179.988 44.8612 178.109 42.7929 178.153 40.7435C178.203 38.606 179.573 36.1605 180.108 34.8152C180.372 34.1614 180.636 32.8098 180.076 32.4766C178.951 31.7913 176.606 31.7662 175.047 31.7662C172.048 31.7662 171.193 31.8793 168.295 31.9296C166.623 31.9611 165.636 31.9925 163.939 32.0302C164.039 34.4757 165.34 35.9468 167.591 36.368C169.1 36.6509 171.451 36.6194 173.13 36.6949C173.406 36.7075 175.229 36.6446 175.248 36.9589C175.254 37.1789 174.613 37.2041 174.406 37.2167C172.652 37.3298 171.508 37.3424 169.446 37.3675C167.409 37.3864 166.353 37.3675 164.058 37.3864C164.121 38.4237 164.259 39.1907 164.995 40.0708C166.101 41.3973 168.289 41.6047 169.565 41.6424C170.942 41.6802 171.929 41.5921 172.979 41.655C173.677 41.6864 174.752 41.8248 174.745 42.0134C174.726 42.3025 173.978 42.2334 173.356 42.246C170.275 42.3025 166.472 42.2082 163.693 42.1768C163.706 43.2141 163.901 44.2828 164.75 45.2007C165.743 46.282 167.597 46.6214 168.949 46.6717C170.936 46.7472 172.444 46.5774 174.538 46.6969C174.701 46.7032 174.959 46.6466 174.972 46.7472C174.984 46.8352 174.726 46.8792 174.55 46.9043C172.501 47.1935 171.074 47.4136 168.842 47.6902C166.83 47.9416 165.699 48.0674 163.681 48.2748C164.071 49.771 164.718 50.7517 166.07 51.4496C167.126 51.9902 168.358 52.1348 169.923 52.0594C172.262 51.9462 174.186 51.525 176.694 51.2295C176.939 51.1981 177.316 51.1038 177.335 51.173C177.36 51.2547 177.084 51.3175 176.914 51.3678C174.972 51.9525 173.054 52.5497 170.571 53.2412C167.824 54.0082 166.265 54.4106 163.492 55.0706C165.799 57.4721 166.849 58.1511 168.056 58.2454C169.615 58.3648 171.715 57.315 173.89 56.3028C175.311 55.6427 176.568 55.0266 177.882 54.4294C178.008 54.3665 178.203 54.266 178.222 54.3037C178.259 54.3728 178.008 54.5049 177.882 54.5803C175.783 55.8565 173.985 56.7743 171.564 58.2768C169.967 59.2701 169.075 59.8485 167.516 60.8983C169.068 61.4893 170.426 62.1368 172.199 62.1682C173.28 62.1934 174.148 61.9671 174.984 61.307C175.852 60.6217 176.637 59.8296 177.681 58.8615C178.7 57.9122 179.127 57.4156 180.271 56.3908C180.409 56.2714 180.655 55.9948 180.711 56.0639C180.78 56.1457 180.516 56.3405 180.384 56.504C178.781 58.522 177.713 59.7479 175.776 62.0551C177.813 62.0928 178.863 62.0802 180.554 61.3824C182.629 60.5337 183.521 59.5279 184.728 57.9814C184.848 57.8053 184.867 58.2328 184.804 58.4403C184.609 59.0752 183.226 60.3388 182.283 61.0555C180.919 62.0928 179.429 62.9541 177.939 63.8153C178.228 63.8719 178.398 63.9285 178.655 64.0668C178.882 64.1925 179.008 64.2805 179.19 64.4691C178.454 65.0727 177.907 65.7705 177.159 66.2608C176.43 66.7323 175.713 66.9209 174.865 66.9964C174.198 67.0592 173.878 67.0592 173.236 66.9712C172.972 66.9398 172.715 66.8895 172.425 66.858C172.275 66.8329 172.212 67.0152 172.136 67.1661C171.91 67.1787 171.772 67.2101 171.558 67.3044C171.005 67.5496 170.634 67.9016 170.583 68.4989C170.533 69.0395 170.728 69.4544 171.174 69.7562C171.206 69.4104 171.344 69.1904 171.627 68.9955C171.797 68.8823 171.916 68.8383 172.117 68.8195C172.13 68.9829 172.356 69.0081 172.532 68.9955C172.721 68.9829 172.922 68.8886 173.174 68.8383C173.444 68.788 173.576 68.7818 173.865 68.7315C173.255 69.1149 172.746 69.423 172.256 69.7688C172.061 69.9071 171.916 69.9762 171.853 70.2088C171.816 70.3408 171.853 70.4477 171.954 70.6615C171.703 71.1141 171.589 71.5604 171.759 72.1262C171.929 72.6732 172.532 73.1132 173.28 73.3018C173.161 72.9372 173.123 72.736 173.155 72.3714C173.167 72.1891 173.186 72.0885 173.243 71.9125C173.456 71.9439 173.576 71.9313 173.733 71.7427C173.966 71.4536 174.104 71.2901 174.343 71.0072C174.613 70.6803 174.77 70.498 175.047 70.1711C174.896 70.7117 174.808 71.0135 174.651 71.5541C174.519 72.0005 174.412 72.1011 174.305 72.6983C174.274 72.8618 174.399 72.9435 174.569 73.0189C174.544 73.8991 174.814 74.3454 175.456 74.6912C175.984 74.9804 177.002 75.0621 177.562 74.9552C177.065 74.754 176.795 74.5151 176.531 74.0499C176.399 73.8173 176.336 73.6665 176.292 73.3961C176.499 73.3647 176.637 73.2767 176.682 72.9686C176.776 72.3023 176.839 71.9565 176.933 71.3027C176.996 70.8941 177.147 70.2591 177.235 70.2843C177.467 70.5672 177.656 70.85 177.933 71.2901C178.065 71.5039 178.228 71.6484 178.454 71.5919C178.586 71.5541 178.668 71.4913 178.731 71.3781C178.869 71.5227 178.932 71.6296 178.982 71.8245C179.052 72.1262 178.989 72.2583 178.85 72.5977C179.529 72.7046 180.183 72.4217 180.397 71.7679C180.636 71.0324 180.24 70.2591 179.907 69.9511C180.039 69.6493 179.932 69.4356 179.731 69.2344C179.209 68.7252 178.769 68.5743 178.649 68.4234C178.41 68.1279 178.479 67.9519 178.637 67.7319C178.989 67.2352 179.133 67.0655 179.517 66.7009C179.9 66.33 180.139 66.1414 180.592 65.8522C180.831 66.0848 180.956 66.2294 181.158 66.4934C181.396 66.7952 181.51 66.9775 181.692 67.3107C182.006 66.7952 182.195 66.5123 182.547 66.0219C182.981 65.4373 183.232 65.1041 183.729 64.5697C184.207 64.0605 184.823 63.5324 184.961 63.4067C185.106 63.193 185.338 63.853 185.502 64.2365C185.627 64.5571 185.571 64.8275 185.476 65.211C185.099 66.7449 183.987 69.2155 183 70.9003C181.585 73.2955 179.875 75.2318 177.977 77.3881C178.681 77.671 179.668 77.7779 180.755 77.715C181.824 77.6522 183 77.5139 184.169 77.2498C184.735 77.9099 185.087 78.262 185.734 78.8403C186.539 79.5507 187.023 79.9216 187.916 80.5C188.815 79.9216 189.299 79.5507 190.097 78.8403C190.745 78.262 191.097 77.9099 191.669 77.2498C192.838 77.5139 194.007 77.6522 195.076 77.715C196.17 77.7779 197.151 77.671 197.855 77.3881C195.963 75.2318 194.253 73.2955 192.838 70.9003C191.845 69.2155 190.738 66.7449 190.361 65.211C190.261 64.8275 190.204 64.5571 190.336 64.2365C190.493 63.853 190.726 63.193 190.87 63.4067C191.015 63.5324 191.631 64.0605 192.109 64.5697C192.605 65.1041 192.857 65.4373 193.284 66.0219C193.636 66.5123 193.831 66.7952 194.146 67.3107C194.322 66.9775 194.441 66.7952 194.674 66.4934C194.881 66.2294 195.007 66.0848 195.246 65.8522C195.692 66.1414 195.937 66.33 196.321 66.7009C196.698 67.0655 196.843 67.2352 197.201 67.7319C197.352 67.9519 197.427 68.1279 197.188 68.4234C197.069 68.5743 196.629 68.7252 196.107 69.2344C195.9 69.4356 195.793 69.6493 195.931 69.9511C195.592 70.2591 195.202 71.0324 195.441 71.7679C195.648 72.4217 196.308 72.7046 196.987 72.5977C196.843 72.2583 196.78 72.1262 196.855 71.8245C196.906 71.6296 196.962 71.5227 197.107 71.3781C197.17 71.4913 197.245 71.5541 197.377 71.5919C197.603 71.6484 197.767 71.5039 197.899 71.2901C198.175 70.85 198.364 70.5672 198.603 70.2843C198.685 70.2591 198.836 70.8941 198.898 71.3027C198.999 71.9565 199.056 72.3023 199.15 72.9686C199.194 73.2767 199.345 73.3647 199.54 73.3961C199.496 73.6665 199.439 73.8173 199.301 74.0499C199.037 74.5151 198.766 74.754 198.27 74.9552C198.829 75.0621 199.854 74.9804 200.376 74.6912C201.017 74.3454 201.287 73.8991 201.262 73.0189C201.438 72.9435 201.558 72.8618 201.532 72.6983C201.419 72.1011 201.319 72.0005 201.18 71.5541C201.03 71.0135 200.942 70.7117 200.791 70.1711C201.061 70.498 201.224 70.6803 201.488 71.0072C201.734 71.2901 201.866 71.4536 202.098 71.7427C202.255 71.9313 202.369 71.9439 202.589 71.9125C202.645 72.0885 202.664 72.1891 202.683 72.3714C202.714 72.736 202.67 72.9372 202.551 73.3018C203.299 73.1132 203.909 72.6732 204.072 72.1262C204.248 71.5604 204.135 71.1141 203.89 70.6615C203.978 70.4477 204.016 70.3408 203.978 70.2088C203.915 69.9762 203.771 69.9071 203.576 69.7688C203.085 69.423 202.576 69.1149 201.973 68.7315C202.255 68.7818 202.387 68.788 202.664 68.8383C202.909 68.8886 203.11 68.9829 203.299 68.9955C203.481 69.0081 203.701 68.9829 203.714 68.8195C203.921 68.8383 204.041 68.8823 204.204 68.9955C204.493 69.1904 204.625 69.4104 204.657 69.7562C205.11 69.4544 205.304 69.0395 205.248 68.4989C205.198 67.9016 204.82 67.5496 204.28 67.3044C204.066 67.2101 203.928 67.1787 203.695 67.1661C203.626 67.0152 203.557 66.8329 203.406 66.858C203.123 66.8895 202.859 66.9398 202.595 66.9712C201.96 67.0592 201.633 67.0592 200.973 66.9964C200.124 66.9209 199.401 66.7323 198.678 66.2608C197.924 65.7705 197.377 65.0727 196.641 64.4691C196.83 64.2805 196.95 64.1925 197.176 64.0668C197.434 63.9285 197.603 63.8719 197.893 63.8153C196.409 62.9541 194.919 62.0928 193.555 61.0555C192.612 60.3388 191.222 59.0752 191.028 58.4403C190.965 58.2328 190.99 57.8053 191.109 57.9814C192.31 59.5279 193.203 60.5337 195.284 61.3824C196.968 62.0802 198.018 62.0928 200.055 62.0551C198.119 59.7479 197.056 58.522 195.447 56.504C195.315 56.3405 195.051 56.1457 195.12 56.0639C195.177 55.9948 195.422 56.2714 195.566 56.3908C196.711 57.4156 197.138 57.9122 198.163 58.8615C199.2 59.8296 199.992 60.6217 200.847 61.307C201.683 61.9671 202.551 62.1934 203.632 62.1682C205.411 62.1368 206.769 61.4893 208.328 60.8983C206.757 59.8485 205.87 59.2701 204.273 58.2768C201.847 56.7743 200.055 55.8565 197.955 54.5803C197.823 54.5049 197.566 54.3728 197.61 54.3037C197.628 54.266 197.823 54.3665 197.955 54.4294C199.269 55.0266 200.52 55.6427 201.941 56.3028C204.116 57.315 206.222 58.3648 207.775 58.2454C208.982 58.1511 210.038 57.4721 212.352 55.0706C209.573 54.4106 208.014 54.0082 205.267 53.2412C202.777 52.5497 200.866 51.9525 198.917 51.3678C198.748 51.3175 198.471 51.2547 198.496 51.173C198.521 51.1038 198.892 51.1981 199.144 51.2295C201.646 51.525 203.569 51.9462 205.914 52.0594C207.48 52.1348 208.706 51.9902 209.762 51.4496C211.113 50.7517 211.761 49.771 212.151 48.2748C210.133 48.0674 209.001 47.9416 206.989 47.6902C204.764 47.4136 203.33 47.1935 201.287 46.9043C201.111 46.8792 200.854 46.8352 200.866 46.7472C200.872 46.6466 201.13 46.7032 201.3 46.6969C203.387 46.5774 204.896 46.7472 206.889 46.6717C208.24 46.6214 210.095 46.282 211.088 45.2007C211.931 44.2828 212.132 43.2141 212.144 42.1768C209.359 42.2082 205.562 42.3025 202.475 42.246C201.853 42.2334 201.111 42.3025 201.092 42.0134C201.08 41.8248 202.155 41.6864 202.853 41.655C203.903 41.5921 204.896 41.6802 206.266 41.6424C207.549 41.6047 209.73 41.3973 210.837 40.0708C211.572 39.1907 211.711 38.4237 211.78 37.3864C209.479 37.3675 208.429 37.3864 206.392 37.3675C204.324 37.3424 203.186 37.3298 201.438 37.2167C201.218 37.2041 200.577 37.1789 200.589 36.9589C200.602 36.6446 202.425 36.7075 202.702 36.6949C204.38 36.6194 206.732 36.6509 208.247 36.368C210.491 35.9468 211.792 34.4757 211.899 32.0302C210.195 31.9925 209.208 31.9611 207.536 31.9296C204.638 31.8793 203.789 31.7662 200.784 31.7662C199.225 31.7662 196.88 31.7913 195.755 32.4766C195.196 32.8098 195.466 34.1614 195.724 34.8152C196.264 36.1605 197.628 38.606 197.679 40.7435C197.723 42.7929 195.849 44.8612 193.85 44.9052Z" fill="black"/>
<path d="M178.945 71.0615C179.033 70.8918 179.09 70.7975 179.209 70.6466C179.348 70.4643 179.436 70.37 179.612 70.2191C179.945 70.4894 180.045 70.8289 180.039 71.2375C180.027 71.9165 179.807 71.9668 179.423 72.168C179.473 71.9291 179.461 71.7719 179.36 71.5519C179.266 71.3193 179.159 71.1935 178.945 71.0615Z" fill="white"/>
<path d="M175.872 73.3917C175.684 73.3917 175.564 73.3791 175.376 73.3414C175.206 73.3099 175.112 73.2848 174.961 73.2282C174.961 73.5237 174.992 73.7249 175.181 73.9512C175.47 74.2969 175.784 74.4038 176.363 74.5547C176.206 74.3912 176.124 74.2781 176.03 74.0706C175.917 73.8254 175.885 73.662 175.872 73.3917Z" fill="white"/>
<path d="M172.863 71.6553C172.737 71.5421 172.668 71.5107 172.548 71.4038C172.416 71.2781 172.347 71.1964 172.228 71.0455C172.127 71.2844 172.096 71.4415 172.115 71.7056C172.152 72.1896 172.347 72.5165 172.768 72.7617C172.718 72.5605 172.706 72.4348 172.718 72.2274C172.737 71.9948 172.781 71.8502 172.863 71.6553Z" fill="white"/>
<path d="M172.056 67.5529C171.722 67.5906 171.515 67.6975 171.307 67.9552C171.025 68.301 170.968 68.6656 171.125 69.0742C171.207 68.8479 171.307 68.7222 171.509 68.5901C171.685 68.4707 171.81 68.433 172.024 68.433C172.012 68.2632 172.012 68.1627 172.024 67.9929C172.024 67.8232 172.037 67.7226 172.056 67.5529Z" fill="white"/>
<path d="M179.478 64.7551C179.654 64.8745 179.748 64.9499 179.906 65.1008C180.069 65.2517 180.151 65.346 180.289 65.5283C179.767 65.8741 179.478 66.1067 179.051 66.5656C178.686 66.9428 178.472 67.1314 178.221 67.6092C178.038 67.9361 178.038 68.395 178.252 68.6465C178.523 68.9608 178.743 68.9922 179.038 69.2248C179.245 69.3946 179.365 69.4889 179.566 69.6712C179.315 69.9101 179.176 70.0547 178.963 70.3187C178.724 70.6205 178.598 70.8028 178.409 71.1297C177.969 70.545 177.762 70.2873 177.529 69.9541C177.347 69.7089 176.995 69.6209 176.794 70.1678C176.649 70.5387 176.567 70.8845 176.492 71.356C176.372 72.0601 176.335 72.4373 176.24 72.9528C175.958 72.9968 175.788 72.9968 175.499 72.9402C175.197 72.8774 175.021 72.8019 174.763 72.6322C174.92 72.1921 174.996 71.9469 175.121 71.5006C175.266 70.9914 175.341 70.8091 175.442 70.1804C175.48 69.9667 175.505 69.734 175.348 69.646C175.096 69.5014 174.92 69.6335 174.675 69.9541C174.386 70.3187 174.216 70.5199 173.921 70.8782C173.726 71.1234 173.613 71.2617 173.411 71.5006C173.135 71.3497 172.99 71.2428 172.77 71.0228C172.525 70.7839 172.406 70.6205 172.242 70.3124C172.651 70.0232 172.883 69.8661 173.292 69.5832C173.745 69.2751 174.053 69.0865 174.461 68.7973C174.587 68.703 174.669 68.5773 174.625 68.4201C174.562 68.2064 174.26 68.2441 174.072 68.2756C173.732 68.3384 173.493 68.3636 173.129 68.4201C172.846 68.4579 172.695 68.4767 172.424 68.5144C172.431 68.3007 172.443 68.1813 172.456 67.9675C172.487 67.6909 172.5 67.54 172.544 67.2634C173.047 67.3703 173.336 67.408 173.852 67.4331C174.656 67.4646 175.134 67.4583 175.907 67.2383C176.555 67.0622 176.919 66.9051 177.479 66.5404C177.95 66.2261 178.152 65.9684 178.573 65.5912C178.931 65.2706 179.126 65.082 179.478 64.7551Z" fill="#EBBD00"/>
<path d="M196.891 71.0615C196.803 70.8918 196.746 70.7975 196.627 70.6466C196.489 70.4643 196.401 70.37 196.225 70.2191C195.891 70.4894 195.791 70.8289 195.797 71.2375C195.81 71.9165 196.03 71.9668 196.42 72.168C196.363 71.9291 196.382 71.7719 196.476 71.5519C196.57 71.3193 196.677 71.1935 196.891 71.0615Z" fill="white"/>
<path d="M199.959 73.3917C200.154 73.3917 200.267 73.3791 200.462 73.3414C200.625 73.3099 200.72 73.2848 200.877 73.2282C200.871 73.5237 200.839 73.7249 200.651 73.9512C200.361 74.2969 200.06 74.4038 199.469 74.5547C199.632 74.3912 199.714 74.2781 199.808 74.0706C199.915 73.8254 199.959 73.662 199.959 73.3917Z" fill="white"/>
<path d="M202.969 71.6553C203.101 71.5421 203.164 71.5107 203.283 71.4038C203.415 71.2781 203.484 71.1964 203.597 71.0455C203.704 71.2844 203.736 71.4415 203.717 71.7056C203.685 72.1896 203.478 72.5165 203.063 72.7617C203.113 72.5605 203.126 72.4348 203.113 72.2274C203.094 71.9948 203.057 71.8502 202.969 71.6553Z" fill="white"/>
<path d="M203.773 67.5529C204.1 67.5906 204.314 67.6975 204.522 67.9552C204.804 68.301 204.855 68.6656 204.704 69.0742C204.622 68.8479 204.522 68.7222 204.32 68.5901C204.144 68.4707 204.019 68.433 203.805 68.433C203.817 68.2632 203.817 68.1627 203.805 67.9929C203.799 67.8232 203.799 67.7226 203.773 67.5529Z" fill="white"/>
<path d="M196.35 64.7551C196.174 64.8745 196.08 64.9499 195.929 65.1008C195.759 65.2517 195.677 65.346 195.539 65.5283C196.067 65.8741 196.344 66.1067 196.778 66.5656C197.142 66.9428 197.35 67.1314 197.614 67.6092C197.79 67.9361 197.79 68.395 197.576 68.6465C197.312 68.9608 197.086 68.9922 196.79 69.2248C196.583 69.3946 196.469 69.4889 196.268 69.6712C196.513 69.9101 196.646 70.0547 196.859 70.3187C197.104 70.6205 197.23 70.8028 197.419 71.1297C197.865 70.545 198.066 70.2873 198.299 69.9541C198.475 69.7089 198.833 69.6209 199.041 70.1678C199.179 70.5387 199.261 70.8845 199.336 71.356C199.456 72.0601 199.493 72.4373 199.588 72.9528C199.871 72.9968 200.04 72.9968 200.323 72.9402C200.631 72.8774 200.801 72.8019 201.059 72.6322C200.908 72.1921 200.832 71.9469 200.7 71.5006C200.556 70.9914 200.493 70.8091 200.386 70.1804C200.348 69.9667 200.317 69.734 200.474 69.646C200.732 69.5014 200.908 69.6335 201.159 69.9541C201.442 70.3187 201.612 70.5199 201.907 70.8782C202.109 71.1234 202.215 71.2617 202.417 71.5006C202.693 71.3497 202.838 71.2428 203.058 71.0228C203.303 70.7839 203.429 70.6205 203.586 70.3124C203.184 70.0232 202.945 69.8661 202.536 69.5832C202.077 69.2751 201.775 69.0865 201.367 68.7973C201.241 68.703 201.159 68.5773 201.203 68.4201C201.26 68.2064 201.568 68.2441 201.75 68.2756C202.096 68.3384 202.335 68.3636 202.7 68.4201C202.976 68.4579 203.133 68.4767 203.404 68.5144C203.391 68.3007 203.385 68.1813 203.372 67.9675C203.347 67.6909 203.328 67.54 203.284 67.2634C202.781 67.3703 202.492 67.408 201.977 67.4331C201.172 67.4646 200.7 67.4583 199.915 67.2383C199.28 67.0622 198.915 66.9051 198.349 66.5404C197.878 66.2261 197.677 65.9684 197.255 65.5912C196.897 65.2706 196.696 65.082 196.35 64.7551Z" fill="#EBBD00"/>
<path d="M180.156 38.508C180.885 38.596 181.615 38.596 182.256 38.5268C183.601 38.376 184.375 38.0239 185.462 37.2318L185.676 37.3198C185.016 38.4765 184.148 39.0549 182.828 39.2058C181.759 39.3315 180.351 38.86 180.156 38.508Z" fill="#E30613"/>
<path d="M184.286 39.8633C184.657 39.4044 184.858 39.1466 185.217 38.6814C185.682 38.0842 185.94 37.7384 186.392 37.1223C186.229 37.0595 186.141 37.0217 185.977 36.9652C185.248 36.6885 184.852 36.3113 184.073 36.3491C183.469 36.3805 183.098 36.5062 182.602 36.8583C182.727 36.3365 182.715 36.1102 182.828 35.6387C182.922 35.2363 182.985 35.054 183.243 34.6957C183.538 34.2996 184.173 34.1362 184.789 34.1173C185.424 34.0985 185.845 34.0859 186.38 34.155C186.323 34.4254 186.304 34.5825 186.298 34.8591C186.292 35.5507 186.512 35.9216 186.726 36.5754C186.845 36.9274 186.952 37.2921 186.952 37.6944C186.612 38.1407 186.399 38.3796 185.977 38.7568C185.393 39.2786 184.884 39.6684 184.286 39.8633Z" fill="#EBBD00"/>
<path d="M188.521 34.8616C188.433 34.9434 188.396 35.0188 188.389 35.132C188.364 35.3394 188.465 35.5469 188.672 35.5909C188.823 35.6223 188.968 35.5783 189.043 35.44C189.094 35.3457 189.1 35.2577 189.056 35.1634C189.232 35.1508 189.339 35.1634 189.515 35.2137C189.76 35.2828 189.873 35.2891 190.087 35.5343C190.213 35.6852 190.062 35.9178 189.879 35.9869C189.672 36.075 189.458 35.8424 189.276 35.8989C189.037 35.9618 189.087 36.2573 188.578 36.1944C188.157 36.1504 187.685 35.8675 187.761 35.4023C187.798 35.1634 187.465 35.1068 187.566 34.8113C187.629 34.6353 187.836 34.5787 188.019 34.6102C188.151 34.6416 188.389 34.6856 188.521 34.8616Z" fill="white"/>
</g>
<mask id="mask4_2729_3180" style="mask-type:luminance" maskUnits="userSpaceOnUse" x="41" y="147" width="175" height="88">
<path d="M41.375 147.665C41.375 195.651 80.2892 234.559 128.281 234.559C176.261 234.559 215.168 195.651 215.168 147.665H41.375Z" fill="white"/>
</mask>
<g mask="url(#mask4_2729_3180)">
<path d="M41.3906 196.141H64.9466V189.741H77.2935V196.141H87.811V189.741H100.158V196.141H110.675V189.741H123.022V196.141H133.546V189.741H145.893V196.141H156.411V189.741H168.757V196.141H179.275V189.741H191.628V196.141H215.178V239.129H41.3906V196.141Z" fill="black"/>
<path d="M117.305 197.055H127.822V202.543H117.305V197.055Z" fill="#E30613"/>
<path d="M105.875 197.055H116.392V202.543H105.875V197.055Z" fill="#E30613"/>
<path d="M94.4375 197.055H104.955V202.543H94.4375V197.055Z" fill="#E30613"/>
<path d="M83 197.055H93.5175V202.543H83V197.055Z" fill="#E30613"/>
<path d="M71.5781 197.055H82.0957V202.543H71.5781V197.055Z" fill="#E30613"/>
<path d="M60.1406 197.055H70.6582V202.543H60.1406V197.055Z" fill="#E30613"/>
<path d="M48.7109 197.055H59.2285V202.543H48.7109V197.055Z" fill="#E30613"/>
<path d="M128.742 197.055H139.26V202.543H128.742V197.055Z" fill="#E30613"/>
<path d="M140.164 197.055H150.682V202.543H140.164V197.055Z" fill="#E30613"/>
<path d="M151.602 197.055H162.119V202.543H151.602V197.055Z" fill="#E30613"/>
<path d="M163.047 197.055H173.564V202.543H163.047V197.055Z" fill="#E30613"/>
<path d="M174.469 197.055H184.986V202.543H174.469V197.055Z" fill="#E30613"/>
<path d="M185.906 197.055H196.424V202.543H185.906V197.055Z" fill="#E30613"/>
<path d="M197.336 197.055H207.853V202.543H197.336V197.055Z" fill="#E30613"/>
<path d="M111.586 203.461H122.103V208.949H111.586V203.461Z" fill="#E30613"/>
<path d="M100.156 203.461H110.674V208.949H100.156V203.461Z" fill="#E30613"/>
<path d="M88.7188 203.461H99.2362V208.949H88.7188V203.461Z" fill="#E30613"/>
<path d="M77.2969 203.461H87.8144V208.949H77.2969V203.461Z" fill="#E30613"/>
<path d="M65.8594 203.461H76.3769V208.949H65.8594V203.461Z" fill="#E30613"/>
<path d="M54.4219 203.461H64.9393V208.949H54.4219V203.461Z" fill="#E30613"/>
<path d="M134.461 203.461H144.978V208.949H134.461V203.461Z" fill="#E30613"/>
<path d="M145.891 203.461H156.408V208.949H145.891V203.461Z" fill="#E30613"/>
<path d="M157.32 203.461H167.838V208.949H157.32V203.461Z" fill="#E30613"/>
<path d="M168.75 203.461H179.268V208.949H168.75V203.461Z" fill="#E30613"/>
<path d="M180.188 203.461H190.711V208.949H180.188V203.461Z" fill="#E30613"/>
<path d="M191.625 203.461H202.143V208.949H191.625V203.461Z" fill="#E30613"/>
<path d="M105.875 209.863H116.392V215.352H105.875V209.863Z" fill="#E30613"/>
<path d="M94.4375 209.863H104.955V215.352H94.4375V209.863Z" fill="#E30613"/>
<path d="M83 209.863H93.5175V215.352H83V209.863Z" fill="#E30613"/>
<path d="M71.5781 209.863H82.0957V215.352H71.5781V209.863Z" fill="#E30613"/>
<path d="M60.1406 209.863H70.6582V215.352H60.1406V209.863Z" fill="#E30613"/>
<path d="M140.164 209.863H150.682V215.352H140.164V209.863Z" fill="#E30613"/>
<path d="M151.602 209.863H162.119V215.352H151.602V209.863Z" fill="#E30613"/>
<path d="M163.047 209.863H173.564V215.352H163.047V209.863Z" fill="#E30613"/>
<path d="M174.469 209.863H184.986V215.352H174.469V209.863Z" fill="#E30613"/>
<path d="M185.906 209.863H196.424V215.352H185.906V209.863Z" fill="#E30613"/>
<path d="M111.586 216.266H122.103V221.754H111.586V216.266Z" fill="#E30613"/>
<path d="M100.156 216.266H110.674V221.754H100.156V216.266Z" fill="#E30613"/>
<path d="M88.7188 216.266H99.2362V221.754H88.7188V216.266Z" fill="#E30613"/>
<path d="M77.2969 216.266H87.8144V221.754H77.2969V216.266Z" fill="#E30613"/>
<path d="M65.8594 216.266H76.3769V221.754H65.8594V216.266Z" fill="#E30613"/>
<path d="M134.461 216.266H144.978V221.754H134.461V216.266Z" fill="#E30613"/>
<path d="M145.891 216.266H156.408V221.754H145.891V216.266Z" fill="#E30613"/>
<path d="M157.32 216.266H167.838V221.754H157.32V216.266Z" fill="#E30613"/>
<path d="M168.75 216.266H179.268V221.754H168.75V216.266Z" fill="#E30613"/>
<path d="M180.188 216.266H190.711V221.754H180.188V216.266Z" fill="#E30613"/>
<path d="M105.875 222.664H116.392V228.152H105.875V222.664Z" fill="#E30613"/>
<path d="M94.4375 222.664H104.955V228.152H94.4375V222.664Z" fill="#E30613"/>
<path d="M83 222.664H93.5175V228.152H83V222.664Z" fill="#E30613"/>
<path d="M140.164 222.664H150.682V228.152H140.164V222.664Z" fill="#E30613"/>
<path d="M151.602 222.664H162.119V228.152H151.602V222.664Z" fill="#E30613"/>
<path d="M163.047 222.664H173.564V228.152H163.047V222.664Z" fill="#E30613"/>
<path d="M111.586 229.07H122.103V234.559H111.586V229.07Z" fill="#E30613"/>
<path d="M100.156 229.07H110.674V234.559H100.156V229.07Z" fill="#E30613"/>
<path d="M134.461 229.07H144.978V234.559H134.461V229.07Z" fill="#E30613"/>
<path d="M145.891 229.07H156.408V234.559H145.891V229.07Z" fill="#E30613"/>
<path d="M111.586 190.656H122.103V196.145H111.586V190.656Z" fill="#E30613"/>
<path d="M88.7188 190.656H99.2362V196.145H88.7188V190.656Z" fill="#E30613"/>
<path d="M65.8594 190.656H76.3769V196.145H65.8594V190.656Z" fill="#E30613"/>
<path d="M134.461 190.656H144.978V196.145H134.461V190.656Z" fill="#E30613"/>
<path d="M157.32 190.656H167.838V196.145H157.32V190.656Z" fill="#E30613"/>
<path d="M180.188 190.656H190.711V196.145H180.188V190.656Z" fill="#E30613"/>
<path d="M123.023 203.461H133.541V208.949H123.023V203.461Z" fill="#E30613"/>
<path d="M128.284 202.545C135.105 202.545 140.631 208.071 140.631 214.892V239.133H115.938V214.892C115.938 208.071 121.463 202.545 128.284 202.545Z" fill="black"/>
<path d="M116.844 216.297H120.503V221.754H116.844V216.297Z" fill="#E30613"/>
<path d="M116.844 222.664H120.503V228.152H116.844V222.664Z" fill="#E30613"/>
<path d="M116.844 229.062H120.503V239.133H116.844V229.062Z" fill="#E30613"/>
<path d="M118.406 209.123C119.469 207.312 121.015 205.816 122.87 204.817L124.58 208.513C123.454 209.129 122.511 210.009 121.807 211.078L118.406 209.123Z" fill="#E30613"/>
<path d="M121.34 211.875L117.971 209.951C117.248 211.448 116.852 213.126 116.852 214.893V215.352H120.504C120.504 214.101 120.806 212.919 121.34 211.875Z" fill="#E30613"/>
<path d="M136.062 216.297H139.715V221.754H136.062V216.297Z" fill="#E30613"/>
<path d="M136.062 222.664H139.715V228.152H136.062V222.664Z" fill="#E30613"/>
<path d="M136.062 229.062H139.715V239.133H136.062V229.062Z" fill="#E30613"/>
<path d="M138.158 209.123C137.102 207.312 135.549 205.816 133.701 204.817L131.984 208.513C133.11 209.129 134.053 210.009 134.757 211.078L138.158 209.123Z" fill="#E30613"/>
<path d="M135.219 211.875L138.588 209.951C139.305 211.448 139.707 213.126 139.707 214.893V215.352H136.055C136.055 214.101 135.753 212.919 135.219 211.875Z" fill="#E30613"/>
<path d="M128.287 208.492C132.078 208.492 135.146 211.566 135.146 215.351V239.133H121.422V215.351C121.422 211.566 124.496 208.492 128.287 208.492Z" fill="white"/>
<path d="M128.291 203.458C126.65 203.458 125.104 203.804 123.695 204.426L125.393 208.129C126.292 207.771 127.266 207.576 128.291 207.576C129.316 207.576 130.284 207.771 131.183 208.129L132.886 204.426C131.478 203.804 129.925 203.458 128.291 203.458Z" fill="#E30613"/>
</g>
<mask id="mask5_2729_3180" style="mask-type:luminance" maskUnits="userSpaceOnUse" x="41" y="24" width="175" height="117">
<path d="M41.375 140.352H215.162V24.1876H41.375V140.352Z" fill="white"/>
</mask>
<g mask="url(#mask5_2729_3180)">
<path d="M252.854 138.515C250.76 137.101 247.919 137.654 246.511 139.748C245.417 141.369 245.499 143.419 246.58 144.934C246.303 145.424 246.027 145.877 245.737 146.304C246.467 144.349 245.781 142.124 243.983 140.911C241.896 139.502 239.055 140.056 237.64 142.149C236.226 144.236 236.779 147.078 238.866 148.492C240.356 149.492 242.211 149.504 243.669 148.687C240.054 152.05 235.911 151.654 233.108 149.762C230.329 147.889 228.751 145.255 229.04 141.652C230.939 142.281 233.089 141.602 234.258 139.867C235.673 137.774 235.119 134.932 233.026 133.524C230.939 132.109 228.091 132.663 226.683 134.756C225.52 136.479 225.689 138.704 226.959 140.232C223.728 141.854 220.685 141.382 217.913 139.515C215.109 137.623 213.198 133.819 214.983 129.192C214.732 130.953 215.436 132.681 216.926 133.694C219.019 135.102 221.867 134.549 223.275 132.461C224.69 130.368 224.137 127.526 222.043 126.112C220.233 124.892 217.831 125.15 216.322 126.609C216.63 126.15 216.97 125.697 217.347 125.225C219.151 125.666 221.075 124.968 222.175 123.339C223.59 121.246 223.03 118.404 220.943 116.99C218.85 115.582 216.008 116.135 214.594 118.222C213.506 119.844 213.594 121.894 214.669 123.409C214.392 123.899 214.116 124.352 213.827 124.779C214.556 122.824 213.871 120.599 212.073 119.385C209.979 117.977 207.138 118.53 205.729 120.624C204.315 122.717 204.868 125.552 206.962 126.967C208.445 127.966 210.306 127.979 211.765 127.162C208.143 130.525 203.994 130.129 201.19 128.237C198.424 126.363 196.84 123.729 197.129 120.127C199.028 120.756 201.178 120.077 202.347 118.342C203.762 116.248 203.208 113.407 201.121 111.998C199.028 110.584 196.18 111.137 194.772 113.231C193.609 114.953 193.779 117.179 195.048 118.713C191.817 120.328 188.781 119.863 186.002 117.99C183.192 116.097 181.287 112.294 183.066 107.667C182.815 109.427 183.525 111.156 185.015 112.168C187.115 113.583 189.956 113.029 191.364 110.936C192.773 108.843 192.226 106.001 190.132 104.587C188.322 103.367 185.92 103.631 184.418 105.083C184.72 104.624 185.059 104.172 185.436 103.706C187.24 104.14 189.164 103.442 190.264 101.814C191.673 99.7207 191.126 96.8791 189.032 95.4646C186.939 94.0564 184.097 94.6097 182.689 96.6968C181.595 98.3188 181.683 100.368 182.758 101.883C182.488 102.374 182.205 102.826 181.916 103.254C182.645 101.299 181.96 99.0794 180.162 97.8661C178.068 96.4516 175.227 97.0049 173.819 99.0983C172.404 101.192 172.957 104.033 175.051 105.441C176.534 106.441 178.389 106.454 179.854 105.636C176.233 109.006 172.083 108.604 169.28 106.711C166.514 104.838 164.929 102.204 165.218 98.6017C167.117 99.2303 169.273 98.5514 170.436 96.8163C171.851 94.7228 171.298 91.8813 169.204 90.4731C167.117 89.0586 164.269 89.6118 162.855 91.7053C161.698 93.4278 161.868 95.6532 163.144 97.1872C159.906 98.8028 156.87 98.3376 154.091 96.4642C151.281 94.5719 149.376 90.7685 151.162 86.1416C150.904 87.9018 151.614 89.6307 153.11 90.6428C155.198 92.0573 158.045 91.5041 159.454 89.4106C160.868 87.3172 160.315 84.4756 158.221 83.0612C156.411 81.8416 154.009 82.1056 152.507 83.5578C152.809 83.0989 153.142 82.6462 153.525 82.181C155.33 82.6148 157.253 81.917 158.353 80.2888C159.768 78.1953 159.215 75.3538 157.121 73.9393C155.028 72.5311 152.186 73.0843 150.778 75.1777C149.684 76.7934 149.766 78.8428 150.847 80.3642C150.577 80.8483 150.294 81.3072 150.005 81.7284C150.734 79.7733 150.049 77.5541 148.251 76.3408C146.157 74.9263 143.316 75.4795 141.908 77.5729C140.493 79.6664 141.046 82.5079 143.14 83.9161C144.624 84.9157 146.478 84.9346 147.943 84.111C144.322 87.4806 140.173 87.0783 137.375 85.186C134.603 83.3126 133.018 80.6848 133.308 77.0826C135.2 77.705 137.356 77.0323 138.526 75.2909C139.94 73.2037 139.387 70.3622 137.3 68.9477C135.2 67.5332 132.358 68.0864 130.95 70.1799C129.787 71.9024 129.951 74.1342 131.227 75.6618C128.002 77.2775 124.953 76.8123 122.18 74.9389C119.377 73.0466 117.465 69.2432 119.244 64.6162C118.993 66.3765 119.703 68.1116 121.2 69.1174C123.293 70.5319 126.128 69.9787 127.543 67.8853C128.957 65.7918 128.404 62.9503 126.311 61.5421C124.5 60.3162 122.099 60.5802 120.59 62.0324C120.892 61.5735 121.237 61.1209 121.615 60.6557C123.413 61.0894 125.349 60.3916 126.443 58.7634C127.857 56.67 127.304 53.8284 125.21 52.4139C123.117 51.0057 120.275 51.5589 118.867 53.6524C117.773 55.268 117.861 57.3175 118.936 58.8388C118.666 59.3229 118.383 59.7818 118.094 60.203C118.823 58.2479 118.138 56.0287 116.34 54.8154C114.247 53.4009 111.405 53.9541 109.997 56.0476C108.582 58.141 109.136 60.9826 111.229 62.3971C112.713 63.3966 114.567 63.4092 116.026 62.5857C112.411 65.9553 108.268 65.5529 105.464 63.6607C102.686 61.7935 101.108 59.1595 101.397 55.5572C103.289 56.1796 105.445 55.5069 106.615 53.7718C108.029 51.6784 107.476 48.8368 105.382 47.4223C103.289 46.0141 100.448 46.5611 99.0393 48.6608C97.8763 50.3771 98.046 52.6088 99.3159 54.1365C96.0846 55.7521 93.0419 55.2869 90.2695 53.4135C87.4594 51.5212 85.5545 47.7178 87.3399 43.0909C87.0822 44.8574 87.7926 46.5862 89.2888 47.5921C91.3822 49.0066 94.2175 48.4533 95.632 46.3599C97.0464 44.2665 96.4932 41.4249 94.3998 40.0167C92.5892 38.7971 90.1878 39.0549 88.679 40.5071C88.9807 40.0481 89.3202 39.6018 89.6974 39.1303C91.508 39.5641 93.4316 38.8663 94.5318 37.238C95.94 35.1446 95.3931 32.303 93.2996 30.8948C91.2062 29.4804 88.3646 30.0336 86.9502 32.127C85.8626 33.7427 85.9443 35.7921 87.0256 37.3135C86.749 37.8038 86.4661 38.2565 86.1769 38.6777C86.9124 36.7288 86.2272 34.5033 84.4292 33.29C82.3358 31.8755 79.4942 32.4288 78.086 34.5222C76.6715 36.6157 77.2248 39.4572 79.3182 40.8717C80.8018 41.8713 82.6564 41.8838 84.1149 41.0603C80.5001 44.4299 76.3509 44.0276 73.5534 42.1416C70.7747 40.2682 69.1968 37.6341 69.4859 34.0319C71.3782 34.6542 73.5345 33.9816 74.7038 32.2465C76.112 30.153 75.5651 27.3115 73.4717 25.897C71.3782 24.4888 68.5367 25.042 67.1222 27.1355C65.9654 28.8517 66.1289 31.0834 67.4051 32.6111C64.1738 34.2267 61.131 33.7615 58.3586 31.8881C55.5548 29.9959 53.6437 26.1987 55.4228 21.5655C55.1713 23.332 55.8817 25.0609 57.3779 26.073C59.4651 27.4812 62.3066 26.928 63.7211 24.8345C65.1356 22.7411 64.5824 19.8996 62.4889 18.4914C60.6784 17.2718 58.2706 17.5295 56.7681 18.988C57.0699 18.5228 57.4156 18.0764 57.7928 17.6049C59.5908 18.0387 61.5208 17.3409 62.621 15.7127C64.0354 13.6192 63.4759 10.784 61.3888 9.36948C59.2953 7.95499 56.4538 8.50821 55.0393 10.6017C53.9454 12.2173 54.0397 14.273 55.1147 15.7881C54.8381 16.2785 54.5552 16.7311 54.266 17.1586C54.9953 15.2034 54.3163 12.978 52.5184 11.7647C50.4249 10.3565 47.5834 10.9097 46.1752 12.9969C44.7607 15.0903 45.3139 17.9318 47.4074 19.3463C48.891 20.3459 50.7456 20.3585 52.204 19.5412C48.5892 22.9046 44.4401 22.5022 41.6425 20.6162C38.8639 18.7428 37.2859 16.1087 37.5751 12.5065C39.4674 13.1352 41.6237 12.4562 42.793 10.7211C44.2075 8.62766 43.6542 5.78611 41.5608 4.37791C39.4674 2.96342 36.6258 3.51663 35.2113 5.61008C34.0546 7.33261 34.2243 9.55807 35.4942 11.0857C32.2629 12.7014 29.2202 12.2362 26.4478 10.3628C23.6377 8.47049 21.7328 4.67338 23.512 0.046435C23.2605 1.80669 23.9709 3.5355 25.4608 4.54765C27.5605 5.95585 30.3958 5.40262 31.8103 3.30918C33.2185 1.22203 32.6715 -1.61953 30.5781 -3.03402C28.7676 -4.25362 26.3598 -3.99586 24.8573 -2.53737C25.159 -2.99629 25.4985 -3.44893 25.8757 -3.92042C27.68 -3.48036 29.61 -4.17818 30.7101 -5.8127C32.1183 -7.89985 31.5714 -10.7414 29.4716 -12.1559L4.02344 25.5764L227.418 176.254L252.854 138.515Z" fill="black"/>
<path d="M244.238 151.721L227.843 176.031L4.49219 25.3789L20.8877 1.07481C20.083 5.43143 21.6609 9.80691 25.2066 12.2021C28.5133 14.4464 31.9081 14.9682 35.4915 13.7612C35.9001 17.3446 37.1826 20.2741 40.4076 22.4619C44.4185 25.1777 48.7437 25.228 52.8174 22.6065C52.0127 26.9694 53.5718 31.3323 57.1111 33.7275C60.4305 35.9718 63.819 36.4936 67.4086 35.2866C67.811 38.8699 69.0997 41.7995 72.3247 43.9872C76.323 46.703 80.6608 46.747 84.7282 44.1318C83.9236 48.4884 85.4826 52.8576 89.0283 55.2528C92.3413 57.4972 95.7298 58.0189 99.3132 56.8119C99.7218 60.3953 101.011 63.3249 104.229 65.5126C108.24 68.2284 112.572 68.2724 116.639 65.6572C115.834 70.0138 117.393 74.383 120.939 76.7782C124.252 79.0162 127.647 79.538 131.23 78.3373C131.633 81.9206 132.921 84.8502 136.146 87.038C140.151 89.7475 144.482 89.7978 148.55 87.1826C147.745 91.5392 149.311 95.9021 152.844 98.3036C156.163 100.542 159.558 101.063 163.141 99.8627C163.544 103.446 164.826 106.376 168.057 108.557C172.056 111.267 176.381 111.311 180.448 108.695C179.644 113.058 181.221 117.427 184.761 119.829C188.068 122.067 191.469 122.589 195.046 121.388C195.454 124.965 196.737 127.901 199.962 130.082C203.973 132.792 208.292 132.836 212.359 130.221C211.554 134.577 213.132 138.953 216.665 141.348C219.985 143.592 223.379 144.114 226.957 142.913C227.365 146.49 228.648 149.426 231.879 151.608C235.871 154.305 240.165 154.336 244.238 151.721Z" fill="#159A34"/>
</g>
<mask id="mask6_2729_3180" style="mask-type:luminance" maskUnits="userSpaceOnUse" x="-263" y="-57" width="852" height="650">
<path d="M-262.508 592.645H588.411V-56.6117H-262.508V592.645Z" fill="white"/>
</mask>
<g mask="url(#mask6_2729_3180)">
<path d="M127.142 67.6163C128.406 65.7428 127.909 63.1968 126.036 61.9332C124.169 60.6695 121.623 61.1662 120.353 63.0396C119.095 64.913 119.586 67.4591 121.459 68.7227C123.333 69.9863 125.879 69.4897 127.142 67.6163Z" fill="#159A34"/>
<path d="M138.125 75.0264C139.388 73.153 138.898 70.6069 137.025 69.3433C135.151 68.0797 132.605 68.5763 131.341 70.4498C130.078 72.3232 130.568 74.863 132.448 76.1329C134.321 77.3965 136.867 76.8998 138.125 75.0264Z" fill="#159A34"/>
<path d="M142.298 77.8365C143.562 75.9631 146.108 75.4664 147.981 76.73C149.854 77.9999 150.351 80.5397 149.088 82.4131C147.824 84.2865 145.272 84.7832 143.404 83.5196C141.531 82.256 141.041 79.7099 142.298 77.8365Z" fill="#159A34"/>
<path d="M159.051 89.1397C160.315 87.2663 159.818 84.7202 157.945 83.4566C156.071 82.193 153.525 82.6896 152.262 84.563C150.998 86.4364 151.495 88.9825 153.368 90.2461C155.242 91.5097 157.788 91.0131 159.051 89.1397Z" fill="#159A34"/>
<path d="M170.031 96.5459C171.294 94.6725 170.798 92.1265 168.931 90.8628C167.051 89.5992 164.511 90.0959 163.241 91.9693C161.984 93.8427 162.481 96.3888 164.354 97.6524C166.221 98.916 168.767 98.4193 170.031 96.5459Z" fill="#159A34"/>
<path d="M174.212 99.3638C175.476 97.4904 178.022 96.9938 179.895 98.2574C181.769 99.521 182.265 102.067 181.002 103.94C179.738 105.814 177.192 106.311 175.318 105.047C173.445 103.783 172.955 101.237 174.212 99.3638Z" fill="#159A34"/>
<path d="M190.97 110.659C192.234 108.786 191.737 106.24 189.864 104.976C187.99 103.713 185.444 104.209 184.181 106.083C182.923 107.956 183.414 110.502 185.287 111.766C187.161 113.029 189.707 112.533 190.97 110.659Z" fill="#159A34"/>
<path d="M201.943 118.073C203.207 116.2 202.717 113.654 200.843 112.39C198.97 111.127 196.424 111.623 195.16 113.497C193.897 115.37 194.393 117.916 196.267 119.18C198.14 120.443 200.68 119.947 201.943 118.073Z" fill="#159A34"/>
<path d="M206.11 120.883C207.374 119.01 209.926 118.513 211.794 119.777C213.667 121.041 214.17 123.587 212.9 125.46C211.636 127.333 209.09 127.83 207.217 126.566C205.344 125.303 204.853 122.757 206.11 120.883Z" fill="#159A34"/>
<path d="M95.2266 46.0889C96.4902 44.2155 95.9999 41.6694 94.1202 40.4058C92.253 39.1422 89.707 39.6388 88.4434 41.5123C87.1797 43.3857 87.6701 45.9255 89.5435 47.1954C91.4232 48.459 93.9693 47.9623 95.2266 46.0889Z" fill="#159A34"/>
<path d="M106.213 53.4952C107.476 51.6217 106.979 49.0757 105.106 47.8121C103.233 46.5485 100.693 47.0451 99.423 48.9185C98.1657 50.7919 98.656 53.338 100.529 54.6016C102.403 55.8652 104.949 55.3686 106.213 53.4952Z" fill="#159A34"/>
</g>
<mask id="mask7_2729_3180" style="mask-type:luminance" maskUnits="userSpaceOnUse" x="41" y="24" width="175" height="117">
<path d="M41.375 140.352H215.162V24.1876H41.375V140.352Z" fill="white"/>
</mask>
<g mask="url(#mask7_2729_3180)">
<path d="M110.387 56.3169C111.65 54.4435 114.196 53.9469 116.07 55.2105C117.943 56.4804 118.434 59.0202 117.17 60.8936C115.913 62.767 113.367 63.2636 111.493 62C109.62 60.7364 109.123 58.1904 110.387 56.3169Z" fill="#159A34"/>
<path d="M63.3168 24.5694C64.5805 22.696 64.0838 20.1499 62.2104 18.8863C60.3433 17.6227 57.7972 18.1193 56.5273 19.9927C55.2637 21.8661 55.7603 24.4122 57.6337 25.6758C59.5072 26.9394 62.0532 26.4428 63.3168 24.5694Z" fill="#159A34"/>
</g>
<mask id="mask8_2729_3180" style="mask-type:luminance" maskUnits="userSpaceOnUse" x="-263" y="-57" width="852" height="650">
<path d="M-262.508 592.645H588.411V-56.6117H-262.508V592.645Z" fill="white"/>
</mask>
<g mask="url(#mask8_2729_3180)">
<path d="M74.2969 31.9795C75.5605 30.1061 75.0639 27.56 73.1968 26.2964C71.3171 25.0328 68.7773 25.5295 67.5137 27.4029C66.2501 29.2763 66.7404 31.8161 68.6138 33.086C70.4872 34.3496 73.0333 33.8529 74.2969 31.9795Z" fill="#159A34"/>
<path d="M78.4648 34.7935C79.7284 32.9201 82.2745 32.4235 84.1479 33.6871C86.0213 34.9507 86.5117 37.4967 85.2543 39.3702C83.9907 41.2436 81.4447 41.7402 79.5712 40.4766C77.6978 39.213 77.2012 36.6669 78.4648 34.7935Z" fill="#159A34"/>
<path d="M93.0229 31.2886C94.8963 32.5522 95.393 35.0983 94.1293 36.9717C92.8595 38.8451 90.3197 39.3418 88.4462 38.0782C86.5728 36.8083 86.0762 34.2685 87.3398 32.3951C88.6034 30.5217 91.1495 30.025 93.0229 31.2886Z" fill="#159A34"/>
<path d="M124.929 52.8125C126.803 54.0761 127.299 56.6221 126.036 58.4956C124.772 60.369 122.226 60.8593 120.352 59.5957C118.479 58.3321 117.982 55.7923 119.246 53.9189C120.516 52.0455 123.056 51.5488 124.929 52.8125Z" fill="#159A34"/>
<path d="M156.847 74.3398C154.973 73.0762 152.434 73.5728 151.17 75.4462C149.906 77.3197 150.397 79.8594 152.27 81.1231C154.15 82.3867 156.69 81.8963 157.953 80.0229C159.217 78.1495 158.726 75.6034 156.847 74.3398Z" fill="#159A34"/>
</g>
<mask id="mask9_2729_3180" style="mask-type:luminance" maskUnits="userSpaceOnUse" x="41" y="24" width="175" height="117">
<path d="M41.375 140.352H215.162V24.1876H41.375V140.352Z" fill="white"/>
</mask>
<g mask="url(#mask9_2729_3180)">
<path d="M188.77 95.855C186.897 94.5914 184.357 95.0881 183.087 96.9615C181.83 98.8349 182.32 101.375 184.193 102.645C186.067 103.908 188.613 103.412 189.877 101.538C191.14 99.6647 190.644 97.1186 188.77 95.855Z" fill="#159A34"/>
<path d="M220.678 117.385C218.804 116.122 216.264 116.618 215.001 118.492C213.731 120.365 214.228 122.905 216.101 124.175C217.981 125.432 220.52 124.942 221.784 123.068C223.048 121.195 222.557 118.649 220.678 117.385Z" fill="#159A34"/>
<path d="M247.749 146.089C247.416 145.863 247.12 145.599 246.862 145.31C242.877 152.451 236.779 152.759 232.868 150.125C229.958 148.164 228.248 145.322 228.606 141.475C228.367 141.374 228.135 141.242 227.921 141.098C227.688 140.941 227.487 140.777 227.299 140.588C223.866 142.355 220.578 141.84 217.674 139.872C213.757 137.238 211.764 131.467 216.888 125.092C216.536 124.966 216.165 124.784 215.832 124.564C215.499 124.338 215.203 124.074 214.952 123.784C210.96 130.926 204.862 131.24 200.951 128.6C198.041 126.638 196.337 123.797 196.695 119.956C196.456 119.849 196.23 119.723 196.01 119.572C195.771 119.415 195.576 119.252 195.388 119.063C191.955 120.836 188.667 120.314 185.763 118.353C181.846 115.712 179.853 109.941 184.977 103.567C184.619 103.441 184.254 103.265 183.921 103.039C183.588 102.812 183.292 102.554 183.041 102.265C179.055 109.401 172.957 109.715 169.047 107.075C166.13 105.113 164.426 102.278 164.784 98.4305C164.546 98.3236 164.319 98.1979 164.099 98.047C163.867 97.8898 163.665 97.7264 163.477 97.5378C160.044 99.3106 156.756 98.7888 153.852 96.8274C149.935 94.187 147.936 88.4159 153.066 82.0475C152.708 81.9155 152.343 81.7395 152.016 81.5195C151.683 81.2931 151.381 81.0291 151.13 80.7399C147.138 87.8752 141.046 88.1896 137.13 85.5492C134.219 83.5878 132.515 80.7525 132.874 76.9051C132.635 76.7982 132.408 76.6725 132.188 76.5216C131.956 76.3644 131.755 76.201 131.566 76.0124C128.127 77.7852 124.846 77.2634 121.935 75.302C118.025 72.6616 116.032 66.8905 121.155 60.5222C120.797 60.3902 120.432 60.2141 120.099 59.9941C119.766 59.7678 119.471 59.5037 119.219 59.2146C115.233 66.3499 109.129 66.6642 105.219 64.0238C102.308 62.0624 100.604 59.2271 100.963 55.3797C100.73 55.2729 100.498 55.1471 100.278 54.9962C100.039 54.8391 99.8438 54.6756 99.6489 54.487C96.2164 56.2599 92.9348 55.7381 90.0241 53.7766C86.1138 51.1363 84.1209 45.3652 89.2445 38.9968C88.8862 38.8711 88.5216 38.6888 88.1884 38.4687C87.8552 38.2424 87.5597 37.9784 87.3083 37.6892C83.3163 44.8245 77.2182 45.1388 73.308 42.5047C70.3973 40.537 68.6936 37.7018 69.0519 33.8544C68.813 33.7475 68.5867 33.6218 68.3604 33.4709C68.1341 33.32 67.9329 33.1503 67.738 32.968C64.3055 34.7345 61.0239 34.2127 58.1132 32.2513C54.2029 29.6172 52.2101 23.8398 57.3337 17.4715C56.9754 17.3457 56.6107 17.1634 56.2775 16.9434C55.9443 16.7171 55.6489 16.453 55.3974 16.1638C51.4054 23.3054 45.3074 23.6135 41.3971 20.9794C38.4864 19.0117 36.7828 16.1764 37.1411 12.329C36.9022 12.2284 36.6759 12.0964 36.4496 11.9518C36.217 11.7946 36.0221 11.6312 35.8272 11.4426C32.3947 13.2091 29.1131 12.6936 26.2024 10.7322C22.2858 8.09182 20.2992 2.32071 25.4228 -4.05391C25.0645 -4.17964 24.6999 -4.36195 24.3667 -4.58199L21.8395 -0.828889C19.8718 3.93008 21.5251 9.2297 25.4354 11.8638C28.7485 14.0955 32.0489 14.4853 35.6952 13.0457C35.8901 16.8302 37.3297 19.8918 40.6427 22.1235C44.553 24.7639 50.0978 24.3176 53.7566 20.7091C51.7952 25.4617 53.436 30.7488 57.3463 33.3892C60.6593 35.6209 63.9598 36.0107 67.606 34.571C67.8072 38.3493 69.2468 41.4172 72.5536 43.6489C76.4701 46.283 82.0086 45.8429 85.6737 42.2281C83.706 46.9871 85.3468 52.2741 89.2571 54.9145C92.5702 57.1463 95.8706 57.536 99.5169 56.0901C99.718 59.8747 101.158 62.9425 104.464 65.1743C108.381 67.8084 113.919 67.3683 117.585 63.7535C115.623 68.5125 117.258 73.7995 121.168 76.4399C124.481 78.6716 127.788 79.0614 131.428 77.6155C131.629 81.4 133.069 84.4616 136.382 86.6933C140.286 89.3337 145.83 88.8937 149.495 85.2789C147.528 90.0378 149.162 95.3249 153.079 97.9652C156.392 100.197 159.699 100.587 163.339 99.1408C163.54 102.925 164.979 105.987 168.286 108.219C172.203 110.859 177.729 110.406 181.394 106.792C179.432 111.551 181.079 116.85 184.99 119.484C188.303 121.722 191.609 122.112 195.249 120.666C195.451 124.451 196.884 127.512 200.197 129.744C204.107 132.384 209.633 131.932 213.305 128.317C211.343 133.076 212.99 138.376 216.9 141.01C220.214 143.248 223.52 143.631 227.167 142.192C227.361 145.976 228.801 149.038 232.108 151.269C236.024 153.91 241.569 153.463 245.228 149.849C245.228 149.849 247.824 146.146 247.749 146.089Z" fill="#159A34"/>
</g>
<mask id="mask10_2729_3180" style="mask-type:luminance" maskUnits="userSpaceOnUse" x="-263" y="-57" width="852" height="650">
<path d="M-262.508 592.645H588.411V-56.6117H-262.508V592.645Z" fill="white"/>
</mask>
<g mask="url(#mask10_2729_3180)">
<path d="M41.375 138.977H214.504L214.499 140.348H41.375V138.977Z" fill="black"/>
<path fill-rule="evenodd" clip-rule="evenodd" d="M128.269 234.562C80.2766 234.562 41.375 195.661 41.375 147.669V24.1936H215.156V147.669C215.156 195.661 176.254 234.562 128.269 234.562ZM128.269 233.192C81.0372 233.192 42.7455 194.9 42.7455 147.669V25.5641H213.792V147.669C213.792 194.9 175.5 233.192 128.269 233.192Z" fill="black"/>
<path d="M110.501 146.966C112.286 146.142 113.204 145.727 114.983 145.073C115.279 144.966 115.492 144.834 115.737 144.809C117.762 144.583 118.818 144.526 120.792 144.457C122.118 144.407 122.816 144.419 124.193 144.419C124.633 144.419 124.941 144.407 125.293 144.671C126.469 145.557 127.305 146.28 128.587 147.324C129.87 148.361 130.593 148.952 131.863 150.002C131.749 150.769 131.617 151.196 131.297 151.894C130.932 152.674 130.656 153.095 130.071 153.73C130.901 153.101 131.372 152.378 131.957 151.341C132.29 150.744 132.416 150.398 132.667 149.725C132.774 149.449 132.95 149.298 133.378 149.442C136.112 150.354 138.646 151.247 142.154 151.542C142.757 151.592 143.028 151.649 143.7 151.63C144.021 151.618 144.323 151.674 144.612 151.806C146.19 152.523 147.108 152.957 148.598 153.868C150.308 154.924 151.904 155.773 153.438 157.452C154.79 158.929 155.67 159.595 157.411 160.438C158.631 161.022 159.191 160.991 160.706 161.506C160.963 161.594 161.039 161.682 161.133 162.06C161.611 163.927 161.793 165.046 162.214 166.957C162.636 168.843 162.868 169.912 163.289 171.798C164.383 173.055 165.119 173.69 166.521 174.595C167.652 175.318 168.344 175.664 169.601 176.123C170.136 179.115 170.318 180.832 170.425 183.868C170.494 185.76 170.488 186.835 170.393 188.728C170.192 189.488 169.934 189.847 169.193 190.349C168.721 190.67 168.004 190.739 167.633 190.739H157.141C156.399 190.123 156.135 189.312 156.387 188.382C156.607 187.546 157.041 187.036 157.908 186.779C158.794 186.508 159.618 186.483 160.618 186.483C160.618 185.666 160.46 184.509 160.115 183.849C159.882 183.396 159.593 183.233 159.172 182.944C156.877 181.372 155.701 180.467 153.866 178.99C152.747 178.091 152.3 177.588 151.357 176.626C151.288 176.305 151.251 176.123 151.175 175.802C151.131 175.614 151.112 175.513 151.075 175.324C151.301 174.991 151.414 174.79 151.571 174.413C151.791 173.897 151.879 173.583 151.942 173.03C151.76 173.684 151.609 174.042 151.269 174.627C151.131 174.859 151.056 174.985 150.899 175.199C151.307 176.865 151.483 177.82 151.697 179.524C151.867 180.894 151.923 181.674 151.961 183.051C151.075 184.742 150.364 185.773 149.182 187.608C148.598 188.526 147.743 189.526 146.976 190.349C146.554 190.802 145.907 190.739 145.303 190.739H134.66C134.082 190.268 133.78 189.765 133.78 189.042C133.78 187.879 134.44 186.829 135.886 186.439C136.515 186.263 137.363 186.225 138.042 186.307C138.149 185.735 138.193 185.408 138.231 184.83C138.281 184.226 138.231 183.994 138.275 183.283C138.288 182.975 138.218 182.774 138.03 182.535C137.313 181.605 136.515 180.718 135.905 179.36C135.635 178.757 135.503 178.405 135.32 177.764C133.579 177.556 132.598 177.424 130.863 177.154C129.373 176.928 128.531 176.789 127.041 176.513C125.79 175.538 124.514 174.771 123.426 174.469C123.231 174.413 123.036 174.413 122.785 174.4C122.571 174.011 122.458 173.784 122.307 173.363C122.169 172.954 122.037 172.42 121.823 171.068C121.861 172.709 122.181 173.86 122.64 175.167C123.131 176.563 123.212 176.928 123.728 178.631C123.841 179.015 123.809 179.26 123.728 179.65C123.281 181.768 123.03 182.705 122.452 184.616C121.835 186.647 121.377 188.181 120.628 189.74C120.421 190.18 120.075 190.739 119.616 190.739H108.332C107.955 190.186 107.684 189.388 107.741 188.709C107.785 188.162 108.011 187.602 108.401 187.212C108.778 186.842 110.036 185.955 111.928 185.666C111.909 183.598 111.846 182.636 111.821 180.699C111.796 178.688 111.796 177.55 111.821 175.538C111.23 174.727 111.136 174.432 110.84 173.665C110.532 172.866 110.406 172.382 110.287 171.527C110.249 172.269 110.287 172.697 110.444 173.413C110.639 174.268 110.947 174.84 111.287 175.488C109.734 176.921 108.791 177.676 107.049 178.883C105.566 179.907 104.692 180.442 103.095 181.284C102.988 182.026 102.969 182.246 102.705 182.692C102.334 183.308 101.649 183.742 101.19 183.742H91.9552C91.314 183.742 90.5282 181.429 91.2323 180.674C92.697 179.096 93.4954 178.185 94.7905 176.475C95.8152 175.123 96.469 174.13 97.2611 172.904C97.9464 171.842 99.4552 171.395 100.964 170.622C102.297 169.937 103.076 169.604 104.497 169.113C104.497 169.113 104.692 167.919 104.359 167.919C104.007 167.944 103.026 167.988 102.221 167.831C101.071 167.611 100.235 167.359 99.0088 166.919C97.7829 166.479 97.104 166.184 95.9472 165.58C94.9665 165.561 94.407 165.53 93.4326 165.442C92.5273 165.354 92.0118 165.291 91.1191 165.14C91.1191 165.14 90.6853 163.694 91.1694 163.631C91.49 163.594 91.666 163.568 91.9867 163.506C92.345 163.436 92.9171 163.594 92.8982 163.298C92.1564 163.336 91.7792 163.355 90.9934 163.374C90.547 163.386 90.0504 163.386 89.5097 163.405C89.3023 163.405 88.7491 162.82 88.1581 162.223C87.5295 161.569 86.8254 161.029 86.8065 160.721C86.7813 160.387 86.8316 159.155 86.8316 159.155C86.599 158.835 86.8128 158.407 87.1648 158.451C87.7998 158.294 88.8434 158.068 88.8434 158.068C89.6355 157.338 90.2453 156.823 91.0688 156.157C92.0055 155.408 92.5336 155.038 93.5143 154.39C93.8664 152.831 93.9229 151.649 94.8974 151.442C96.2553 151.146 97.6509 150.907 99.8261 150.857C100.096 150.021 100.386 149.48 101.134 149.021C102.089 148.437 103.573 148.424 104.535 148.455C105.396 149.468 106.125 150.649 106.345 152.315C106.49 153.372 106.264 154.107 105.974 155.019C106.201 154.679 106.352 154.484 106.458 154.095C106.943 152.303 106.257 150.033 105.805 148.675C105.748 148.512 108.118 148.066 110.501 146.966Z" fill="black"/>
<path d="M157.587 188.459C157.568 188.937 157.751 189.471 158.266 189.484C158.467 189.49 158.493 189.415 158.587 189.308C158.731 189.157 158.65 188.987 158.725 188.792C158.857 188.434 159.046 188.359 159.228 187.95C159.303 187.793 159.159 187.579 158.983 187.573C158.738 187.56 158.637 187.554 158.335 187.504C157.92 187.435 157.612 187.988 157.587 188.459Z" fill="white"/>
<path d="M159.26 188.459C159.235 188.937 159.417 189.471 159.939 189.484C160.14 189.49 160.165 189.415 160.26 189.308C160.398 189.157 160.316 188.987 160.398 188.792C160.53 188.434 160.719 188.359 160.901 187.95C160.976 187.793 160.832 187.579 160.656 187.573C160.404 187.56 160.31 187.554 160.014 187.504C159.593 187.435 159.279 187.988 159.26 188.459Z" fill="white"/>
<path d="M135.15 188.459C135.131 188.937 135.313 189.471 135.829 189.484C136.03 189.49 136.055 189.415 136.156 189.308C136.294 189.157 136.212 188.987 136.288 188.792C136.42 188.434 136.608 188.359 136.791 187.95C136.866 187.793 136.721 187.579 136.545 187.573C136.3 187.56 136.2 187.554 135.904 187.504C135.483 187.435 135.175 187.988 135.15 188.459Z" fill="white"/>
<path d="M136.823 188.459C136.797 188.937 136.986 189.471 137.501 189.484C137.703 189.49 137.728 189.415 137.816 189.308C137.96 189.157 137.885 188.987 137.96 188.792C138.092 188.434 138.281 188.359 138.463 187.95C138.539 187.793 138.394 187.579 138.218 187.573C137.967 187.56 137.872 187.554 137.577 187.504C137.156 187.435 136.848 187.988 136.823 188.459Z" fill="white"/>
<path d="M108.916 188.459C108.891 188.937 109.08 189.471 109.595 189.484C109.796 189.49 109.822 189.415 109.916 189.308C110.06 189.157 109.979 188.987 110.054 188.792C110.186 188.434 110.375 188.359 110.557 187.95C110.633 187.793 110.488 187.579 110.312 187.573C110.067 187.56 109.966 187.554 109.671 187.504C109.249 187.435 108.941 187.988 108.916 188.459Z" fill="white"/>
<path d="M110.588 188.459C110.563 188.937 110.745 189.471 111.267 189.484C111.468 189.49 111.493 189.415 111.588 189.308C111.732 189.157 111.644 188.987 111.726 188.792C111.858 188.434 112.047 188.359 112.229 187.95C112.304 187.793 112.16 187.579 111.984 187.573C111.739 187.56 111.638 187.554 111.336 187.504C110.921 187.435 110.613 187.988 110.588 188.459Z" fill="white"/>
<path d="M92.2288 181.83C92.2037 182.308 92.386 182.843 92.9078 182.855C93.1089 182.861 93.1341 182.786 93.2284 182.679C93.3667 182.528 93.285 182.358 93.3667 182.164C93.4987 181.805 93.681 181.73 93.8696 181.321C93.9451 181.164 93.8005 180.95 93.6244 180.944C93.373 180.931 93.2787 180.925 92.9769 180.875C92.5557 180.806 92.2477 181.359 92.2288 181.83Z" fill="white"/>
<path d="M93.9006 181.83C93.8755 182.308 94.0641 182.843 94.5796 182.855C94.7808 182.861 94.8059 182.786 94.9002 182.679C95.0385 182.528 94.9631 182.358 95.0385 182.164C95.1705 181.805 95.3591 181.73 95.5414 181.321C95.6169 181.164 95.4723 180.95 95.2963 180.944C95.0511 180.931 94.9505 180.925 94.655 180.875C94.2338 180.806 93.9258 181.359 93.9006 181.83Z" fill="white"/>
<path fill-rule="evenodd" clip-rule="evenodd" d="M92.8742 182.512C92.9245 182.254 92.9685 182.109 93.0879 181.87C93.2074 181.619 93.2954 181.487 93.4777 181.28C93.4777 181.28 93.0691 181.292 92.8239 181.217C92.6353 181.368 92.5536 181.525 92.5284 181.77C92.5033 182.091 92.5662 182.411 92.8742 182.512Z" fill="white"/>
<path fill-rule="evenodd" clip-rule="evenodd" d="M94.548 182.512C94.592 182.254 94.6423 182.109 94.7554 181.87C94.8812 181.619 94.9692 181.487 95.1515 181.28C95.1515 181.28 94.7429 181.292 94.4977 181.217C94.3091 181.368 94.2274 181.525 94.2022 181.77C94.1708 182.091 94.2399 182.411 94.548 182.512Z" fill="white"/>
<path fill-rule="evenodd" clip-rule="evenodd" d="M109.579 189.137C109.623 188.879 109.674 188.734 109.793 188.495C109.912 188.244 110 188.112 110.183 187.905C110.183 187.905 109.78 187.917 109.529 187.842C109.34 187.999 109.259 188.15 109.233 188.395C109.202 188.716 109.271 189.036 109.579 189.137Z" fill="white"/>
<path fill-rule="evenodd" clip-rule="evenodd" d="M111.243 189.137C111.294 188.879 111.344 188.734 111.451 188.495C111.576 188.244 111.665 188.112 111.847 187.905C111.847 187.905 111.444 187.917 111.193 187.842C111.004 187.999 110.923 188.15 110.898 188.395C110.866 188.716 110.935 189.036 111.243 189.137Z" fill="white"/>
<path fill-rule="evenodd" clip-rule="evenodd" d="M135.812 189.137C135.862 188.879 135.906 188.734 136.025 188.495C136.145 188.244 136.233 188.112 136.415 187.905C136.415 187.905 136.013 187.917 135.761 187.842C135.573 187.999 135.491 188.15 135.466 188.395C135.441 188.716 135.504 189.036 135.812 189.137Z" fill="white"/>
<path fill-rule="evenodd" clip-rule="evenodd" d="M137.478 189.137C137.522 188.879 137.572 188.734 137.691 188.495C137.805 188.244 137.899 188.112 138.081 187.905C138.081 187.905 137.679 187.917 137.427 187.842C137.239 187.999 137.157 188.15 137.132 188.395C137.1 188.716 137.17 189.036 137.478 189.137Z" fill="white"/>
<path fill-rule="evenodd" clip-rule="evenodd" d="M158.234 189.137C158.284 188.879 158.328 188.734 158.448 188.495C158.567 188.244 158.649 188.112 158.837 187.905C158.837 187.905 158.435 187.917 158.184 187.842C157.995 187.999 157.913 188.15 157.888 188.395C157.863 188.716 157.92 189.036 158.234 189.137Z" fill="white"/>
<path fill-rule="evenodd" clip-rule="evenodd" d="M159.905 189.137C159.956 188.879 160 188.734 160.119 188.495C160.239 188.244 160.327 188.112 160.509 187.905C160.509 187.905 160.1 187.917 159.861 187.842C159.667 187.999 159.585 188.15 159.56 188.395C159.535 188.716 159.597 189.036 159.905 189.137Z" fill="white"/>
<path d="M96.6962 154.183C96.407 154.674 96.319 155.051 96.3756 155.617C96.451 156.384 96.7402 156.874 97.3626 157.32L97.3563 156.717C97.526 156.729 97.6266 156.729 97.7964 156.717C98.0793 156.692 98.2364 156.654 98.5005 156.553C98.0667 156.314 97.8404 156.126 97.5135 155.755C97.0608 155.233 96.8596 154.856 96.6962 154.183Z" fill="white"/>
<path d="M96.737 155.122C96.825 155.392 96.9067 155.537 97.0702 155.763C97.2776 156.046 97.4411 156.191 97.7365 156.373C97.5731 156.404 97.4788 156.411 97.3153 156.392C97.1707 156.385 97.089 156.367 96.9507 156.323C96.8816 156.191 96.8501 156.115 96.8124 155.977C96.7181 155.656 96.6992 155.455 96.737 155.122Z" fill="white"/>
</g>
<path d="M42.7578 26.2461V26.9976L205.906 137.406L208.226 138.974H209.339L206.257 136.891L42.7578 26.2461Z" fill="white"/>
<path d="M42.2452 25.3828L42.0078 25.7348L210.547 139.786L210.776 139.434L42.2452 25.3828Z" fill="black"/>
<path d="M42.7578 29.8594V30.6217L196.886 134.917L202.874 138.973H203.996L197.237 134.401L42.7578 29.8594Z" fill="white"/>
<path d="M42.1953 30.4922L195.73 134.393L203.484 139.64" stroke="black" stroke-width="0.419077"/>
<path opacity="0.988976" d="M42.7578 33.2031V35.399L44.8238 40.4407L56.1501 40.5383L60.4489 51.0156L71.7752 51.1133L76.074 61.5907L87.3938 61.6795L91.6991 72.1655L103.019 72.2564L107.316 82.7317L118.644 82.8314L122.941 93.3066L134.269 93.4063L138.566 103.884L149.894 103.981L154.193 114.459L165.519 114.548L169.818 125.025L181.138 125.123L185.435 135.6L196.763 135.697L198.108 138.97H199.015L197.328 134.863L186 134.766L181.703 124.288L170.381 124.198L166.076 113.714L154.756 113.623L150.459 103.145L139.131 103.048L134.834 92.5704L123.506 92.4727L119.209 81.9954L107.881 81.9065L103.584 71.4205L92.2644 71.3296L87.9591 60.8544L76.6393 60.7546L72.3405 50.2772L61.012 50.1796L56.7154 39.7022L45.3869 39.6134L42.7578 33.2031Z" fill="white"/>
<path opacity="0.988976" d="M48.1484 42.0898L50.8015 48.4431L57.6857 48.5441L55.0326 42.1908L48.1484 42.0898Z" stroke="black" stroke-width="0.838154"/>
<path opacity="0.988976" d="M42.0938 39.9375L45.1034 40.0318L49.4015 50.5106L60.7271 50.6049L65.0252 61.0837L76.3509 61.178L80.649 71.6568L91.9746 71.7511L96.2727 82.2299L107.598 82.3242L111.896 92.803L123.222 92.8973L127.52 103.376L138.846 103.47L143.144 113.949L154.47 114.043L158.768 124.522L170.093 124.617L174.391 135.095L185.717 135.19L186.491 137.078L187.541 139.638" stroke="black" stroke-width="0.838154"/>
<path opacity="0.988976" d="M48.1484 42.0898L48.1519 42.0922L49.4128 42.9454L54.48 43.0196L56.4256 47.6912L57.6882 48.5456L57.6953 48.5499L55.0413 42.1934L48.1484 42.0898Z" fill="#F6F5F4"/>
<path d="M42.7578 46.2617V47.0241L178.626 138.968H179.752L42.7578 46.2617Z" fill="white"/>
<path opacity="0.988976" d="M63.7734 52.6602L66.4265 59.0134L73.3107 59.1144L70.6576 52.7611L63.7734 52.6602Z" stroke="black" stroke-width="0.838154"/>
<path opacity="0.988976" d="M79.3906 63.2383L82.0437 69.5915L88.9279 69.6925L86.2748 63.3392L79.3906 63.2383Z" stroke="black" stroke-width="0.838154"/>
<path opacity="0.988976" d="M95.0156 73.8086L97.6687 80.1618L104.553 80.2628L101.9 73.9096L95.0156 73.8086Z" stroke="black" stroke-width="0.838154"/>
<path opacity="0.988976" d="M110.648 84.3828L113.302 90.736L120.186 90.837L117.533 84.4838L110.648 84.3828Z" stroke="black" stroke-width="0.838154"/>
<path opacity="0.988976" d="M126.266 94.957L128.919 101.31L135.803 101.411L133.15 95.058L126.266 94.957Z" stroke="black" stroke-width="0.838154"/>
<path opacity="0.988976" d="M141.891 105.527L144.544 111.881L151.428 111.982L148.775 105.628L141.891 105.527Z" stroke="black" stroke-width="0.838154"/>
<path opacity="0.988976" d="M157.508 116.102L160.161 122.455L167.045 122.556L164.392 116.202L157.508 116.102Z" stroke="black" stroke-width="0.838154"/>
<path opacity="0.988976" d="M173.141 126.672L175.794 133.025L182.678 133.126L180.025 126.773L173.141 126.672Z" stroke="black" stroke-width="0.838154"/>
<path opacity="0.988976" d="M188.766 137.246L189.779 139.673L196.683 139.821L196.587 139.59L195.65 137.347L188.766 137.246Z" stroke="black" stroke-width="0.838154"/>
<path opacity="0.988976" d="M188.758 137.242L188.762 137.244L190.022 138.098L195.09 138.171L195.424 138.971H196.329L195.651 137.346L188.758 137.242Z" fill="#F6F5F4"/>
<path opacity="0.988976" d="M173.133 126.668L173.136 126.67L174.397 127.524L179.464 127.598L181.41 132.269L182.673 133.124L182.68 133.128L180.026 126.771L173.133 126.668Z" fill="#F6F5F4"/>
<path opacity="0.988976" d="M157.508 116.098L157.511 116.1L158.772 116.953L163.839 117.027L165.785 121.699L167.048 122.553L167.055 122.558L164.4 116.202L157.508 116.098Z" fill="#F6F5F4"/>
<path opacity="0.988976" d="M141.883 105.523L141.886 105.526L143.147 106.379L148.214 106.453L150.16 111.125L151.423 111.979L151.43 111.983L148.776 105.627L141.883 105.523Z" fill="#F6F5F4"/>
<path opacity="0.988976" d="M126.266 94.9531L126.269 94.9555L127.53 95.8087L132.597 95.8829L134.543 100.554L135.805 101.409L135.813 101.413L133.158 95.0567L126.266 94.9531Z" fill="#F6F5F4"/>
<path opacity="0.988976" d="M110.641 84.3789L110.644 84.3813L111.905 85.2345L116.972 85.3087L118.918 89.9802L120.18 90.8347L120.188 90.8389L117.533 84.4824L110.641 84.3789Z" fill="#F6F5F4"/>
<path opacity="0.988976" d="M95.0078 73.8047L96.2721 74.6603L101.339 74.7345L103.285 79.406L104.548 80.2605L104.555 80.2646L101.901 73.9082L95.0078 73.8047Z" fill="#F6F5F4"/>
<path opacity="0.988976" d="M79.3906 63.2344L79.3941 63.2367L80.6549 64.09L85.7222 64.1642L87.6677 68.8357L88.9304 69.6902L88.9375 69.6943L86.2834 63.3378L79.3906 63.2344Z" fill="#F6F5F4"/>
<path opacity="0.988976" d="M63.7656 52.6602L65.03 53.5157L70.0972 53.5899L72.0428 58.2615L73.3054 59.1159L73.3125 59.1201L70.6584 52.7636L63.7656 52.6602Z" fill="#F6F5F4"/>
<path d="M41.9688 45.4844L180.938 139.528" stroke="black" stroke-width="0.419077"/>
<path opacity="0.988976" d="M52.6328 25.5547C52.7282 27.1732 53.1533 28.7277 53.8846 30.1091L54.2072 29.923C53.4845 28.5976 53.0487 27.1035 52.949 25.555L52.6328 25.5547ZM67.5996 34.5681L67.409 35.2806C67.4083 35.2808 67.4097 35.2804 67.409 35.2806C67.6173 37.1354 68.0679 38.8146 68.8968 40.3071L69.1718 40.1533L69.1697 40.1407C68.2034 38.5141 67.7137 36.6543 67.6017 34.5772L67.5996 34.5681ZM85.6653 42.2302L84.7298 44.1251C84.2412 46.7701 84.6297 49.4166 85.7996 51.6269L86.1136 51.445L86.1115 51.4199C84.6522 48.733 84.3689 45.3695 85.6653 42.2302ZM99.5103 56.0946L99.3175 56.8049L99.3154 56.8133C99.5273 58.6666 99.9788 60.344 100.808 61.8354L101.08 61.6816L101.074 61.6606C100.112 60.0378 99.627 58.1812 99.5144 56.1079L99.5103 56.0946ZM117.576 63.7567C117.574 63.7588 117.572 63.7608 117.569 63.765L116.636 65.6491L116.632 65.6617C116.635 65.6594 116.639 65.6575 116.643 65.6533C116.154 68.2967 116.541 70.942 117.708 73.1507L118.022 72.9688L118.02 72.9437C116.565 70.2594 116.288 66.8993 117.576 63.7636V63.7567ZM131.419 77.6189L131.228 78.3314C131.227 78.3318 131.23 78.3309 131.228 78.3314C131.437 80.1863 131.889 81.8654 132.718 83.3579L132.991 83.204L132.982 83.1705C132.025 81.554 131.538 79.7057 131.425 77.6394L131.419 77.6189ZM149.482 85.2831C149.478 85.2873 149.474 85.2914 149.469 85.2956L148.545 87.169L148.541 87.1857C148.545 87.1829 148.549 87.1816 148.554 87.1774C148.065 89.8196 148.454 92.462 149.619 94.6704L149.929 94.4907V94.4697C148.474 91.7877 148.196 88.4319 149.485 85.2982L149.482 85.2831ZM163.327 99.1453L163.137 99.8557H163.143C163.352 101.712 163.8 103.39 164.629 104.882L164.9 104.73L164.889 104.697C163.935 103.084 163.451 101.241 163.336 99.181L163.327 99.1453ZM181.389 106.799L180.451 108.689C180.451 108.69 180.451 108.693 180.451 108.694C179.964 111.338 180.355 113.982 181.525 116.191L181.837 116.011L181.835 115.978C180.381 113.292 180.1 109.932 181.389 106.799ZM195.238 120.67L195.048 121.382C195.259 123.235 195.709 124.913 196.537 126.406L196.808 126.255L196.799 126.221C195.848 124.61 195.366 122.769 195.251 120.712L195.238 120.67ZM213.297 128.319L212.36 130.214C212.359 130.214 212.36 130.213 212.36 130.214C211.871 132.857 212.269 135.501 213.44 137.711L213.746 137.533L213.743 137.49C212.291 134.807 212.009 131.449 213.297 128.319Z" fill="white"/>
</g>
</svg>
