<svg width="256" height="256" viewBox="0 0 256 256" fill="none" xmlns="http://www.w3.org/2000/svg">
<path fill-rule="evenodd" clip-rule="evenodd" d="M128.086 27.1163C108.787 27.1163 65.5937 27.1163 34 19.8789L38.8249 171.865C39.3663 188.916 40.7178 207.926 65.3621 217.701C78.486 222.906 99.1367 222.526 106.374 222.526C113.612 222.526 123.134 229.764 128.086 237.001" fill="#FCDD09"/>
<path fill-rule="evenodd" clip-rule="evenodd" d="M128.102 27.1124C147.401 27.1124 190.594 27.1124 222.188 19.875L217.363 171.861C216.822 188.912 215.47 207.922 190.826 217.698C177.702 222.902 157.051 222.523 149.814 222.523C142.576 222.523 133.054 229.76 128.102 236.997" fill="#DA121A"/>
<path fill-rule="evenodd" clip-rule="evenodd" d="M222.173 19L217.348 170.986C216.806 188.037 215.455 207.047 190.811 216.823C177.687 222.027 157.036 221.648 149.799 221.648C140.631 221.648 133.039 228.885 128.086 236.122C123.134 228.885 115.542 221.648 106.374 221.648C99.1367 221.648 78.4864 222.027 65.3621 216.823C40.7163 207.05 39.3663 188.036 38.8249 170.986L34 19C65.5937 26.2374 108.787 26.2374 128.086 26.2374C147.386 26.2374 190.579 26.2374 222.173 19Z" stroke="black" stroke-width="2.89496" stroke-linecap="round" stroke-linejoin="round"/>
<path fill-rule="evenodd" clip-rule="evenodd" d="M163.069 37.5777L160.657 74.971L154.264 40.9358L135.327 33.957V55.6693L152.214 84.6189L132.914 82.2064L152.214 101.506L132.914 111.156L152.214 120.806L132.914 149.756L157.039 140.106L132.914 190.768L166.689 156.993L157.039 195.593L171.514 210.067L185.988 195.593L176.339 156.993L210.113 190.768L185.988 140.106L210.113 149.756L190.813 120.806L210.113 111.156L190.813 101.506L210.113 82.2064L190.813 84.6189L207.701 55.6693V33.957L188.763 40.9358L182.37 74.971L179.958 37.5777L171.514 70.146L163.069 37.5777Z" fill="white" stroke="white" stroke-width="0.964988" stroke-linecap="round" stroke-linejoin="round"/>
<path fill-rule="evenodd" clip-rule="evenodd" d="M106.869 123.938C98.7984 126.625 95.1681 121.139 89.6247 121.202C84.9156 121.254 84.2787 124.111 82.3246 127.971C80.4906 124.846 80.4448 121.718 75.8191 120.804C72.5546 120.159 69.3619 121.697 66.2599 122.662C64.123 123.457 60.6331 122.087 57.8959 119.609C58.0961 124.336 60.6842 126.001 64.6653 126.91C68.3573 127.751 71.3339 124.992 74.2245 125.051C80.4496 125.181 80.6571 133.692 79.9333 141.642C79.4026 147.475 68.3959 145.863 63.2048 145.358C66.2585 142.966 64.6667 140.303 66.9224 138.457C61.4056 138.952 64.702 141.316 61.2135 144.827C60.2741 145.773 55.552 144.892 53.5134 144.695C56.0595 141.244 53.6157 141.244 55.5047 137.925C50.9678 139.04 52.6599 144.289 50.1924 144.562C47.1276 144.9 44.9187 148.426 44.7489 151.331C44.5453 154.816 46.5023 157.021 49.2631 159.427C50.618 160.608 52.1523 162.276 55.6359 163.409C50.4848 164.027 51.9376 165.313 50.7236 167.656C53.9727 166.915 53.1289 164.575 57.7603 164.737C61.544 164.867 62.3257 165.48 62.1414 167.391C61.629 172.708 58.7224 176.115 56.034 177.61C52.5576 179.545 50.8168 178.918 50.4578 183.583C50.2768 185.932 49.8088 187.487 49.9931 190.949C50.0462 191.944 45.656 190.44 47.006 192.874C46.0975 194.918 48.468 193.517 49.4624 193.604C50.9933 193.737 48.7531 197.497 51.3875 196.523C53.7146 197.122 51.9723 193.752 52.6488 194.001C53.9264 194.472 53.387 197.048 55.0386 195.196C57.7294 194.735 53.5057 192.531 54.5739 192.608C56.4397 192.741 57.81 192.918 56.7645 191.28C58.7195 189.071 54.4022 191.187 54.3081 189.887C54.036 186.116 56.1556 184.514 58.8884 183.317C63.1966 181.43 66.5605 178.231 69.91 175.196C69.2495 179.17 74.4324 179.598 74.223 181.459C73.6846 186.25 72.0383 184.77 72.3645 186.697C72.8397 189.506 75.6657 189.141 77.764 190.541C80.2875 191.56 76.7793 193.016 79.5884 193.183C81.0358 195.345 81.5125 191.117 82.4544 192.077C83.3904 193.031 81.6158 195.986 83.6104 195.104C85.854 196.3 84.6521 191.676 85.3754 192.608C86.3534 193.868 86.8504 196.055 87.6393 193.825C90.3128 192.796 85.1877 191.207 86.3438 191.077C87.5891 190.936 89.0863 190.685 87.5775 189.625C87.5481 187.41 85.6263 188.934 84.297 189.373C82.8134 189.862 81.2501 188.524 80.0646 187.032C78.3141 184.831 79.4122 182.725 80.8612 180.131C83.1086 176.106 75.6353 171.784 76.7455 171.105C77.7597 170.486 78.9389 171.283 80.1973 172.433C83.7436 175.673 85.2577 176.521 87.7647 178.538C90.8097 181.222 91.2194 178.612 91.615 175.751C91.7419 174.835 93.1363 175.963 93.7496 178.27C94.3343 180.469 94.9384 183.044 98.3863 184.051C101.916 185.082 105.408 188.91 111.462 191.611C112.612 192.289 109.305 192.802 111.915 193.34C113.042 195.697 114.529 192.555 115.272 193.811C115.924 194.913 114.877 197.515 117.022 196.025C119.183 196.522 117.261 193.433 117.77 193.603C118.365 193.805 119.459 196.219 119.519 193.806C122.35 192.36 117.994 191.709 118.519 191.168C119.184 190.481 121.338 191.415 119.69 189.496C119.827 186.99 117.338 189.668 116.176 189.287C111.974 187.907 107.993 183.649 106.352 181.191C104.865 178.962 102.839 178.182 103.033 176.678C105.334 176.817 108.746 174.626 110.733 172.962C113.519 170.628 115.212 168.525 117.371 164.135C118.517 161.805 119.339 157.15 119.96 157.433C120.841 157.834 122.018 159.912 121.553 157.168C124.043 156.027 120.399 155.259 121.237 154.958C122.437 154.527 124.824 155.726 123.677 153.783C124.228 150.449 120.811 154.017 120.955 153.053C121.093 152.139 123.765 150.695 121.292 150.184C120.058 148.635 119.34 152.623 118.832 151.726C118.203 150.619 119.609 147.475 116.926 149.235C114.051 148.287 118.65 153.868 116.309 157.3C112.63 162.694 109.052 165.762 105.82 167.785C104.363 168.698 101.885 161.716 103.298 161.547C106.734 161.138 110.249 158.146 107.413 158.026C105.654 157.951 104.308 159.797 101.041 158.362C98.4042 157.204 97.4604 153.947 99.8459 152.256C101.224 151.28 103.766 151.517 107.413 151.261C109.046 151.146 110.626 150.477 109.272 148.275C111.333 147.479 111.108 146.459 109.471 146.085C107.701 145.68 107.155 145.282 104.227 144.824C101.91 144.462 101.943 143.122 98.7834 142.833C95.9391 142.573 94.591 144.5 93.6058 143.231C92.3783 141.651 90.789 140.012 89.7555 141.769C87.6364 145.378 91.9687 146.949 92.0126 148.936C89.1596 148.033 85.7783 148.91 86.1696 152.653C83.3856 154.068 84.1006 156.678 83.1159 159.422C84.5277 159.52 86.5126 158.283 86.9662 160.617C85.2475 161.753 78.3131 162.282 73.9552 162.342C67.4498 162.431 61.186 161.933 56.0306 159.953C53.4965 158.978 48.2817 155.909 48.3305 151.99C48.4188 144.862 57.1625 148.732 62.0053 149.07C68.5923 149.529 71.4781 149.256 76.0797 148.938C82.0505 148.524 83.8927 144.347 83.913 141.24C83.9434 136.489 83.9424 131.684 84.8422 129.163C85.9911 125.944 88.4339 123.657 95.5961 127.305C101.488 130.306 105.199 128.111 106.865 123.936L106.869 123.938Z" fill="#0F47AF" stroke="#0F47AF" stroke-width="0.482494" stroke-linecap="round" stroke-linejoin="round"/>
<path d="M68.8359 177.527C73.3043 173.175 75.8215 169.468 79.3866 173.087M107.223 168.161C107.935 170.998 108.188 173.149 107.489 173.87M102.717 168.278C104.461 171.452 103.105 173.298 102.529 175.478M98.877 168.3C98.5426 170.722 98.6116 172.554 97.045 173.487M94.7367 167.339C94.1452 169.325 93.7312 171.519 91.0847 171.109M85.6007 160.184C89.7323 160.942 85.4704 164.862 87.0385 166.307C88.1574 167.338 89.3487 167.416 90.7938 165.649M97.5535 144.719C98.1798 147.19 99.8526 147.568 102.247 146.502" stroke="#FCDD09" stroke-width="1.44748" stroke-linecap="round" stroke-linejoin="round"/>
<path d="M45.3369 194.876C44.6349 193.166 45.6766 192.061 46.8365 192.063C48.0621 192.064 48.1238 193.72 47.1617 193.48C46.1808 193.235 45.6761 193.91 45.3369 194.876Z" fill="#DA121A" stroke="#DA121A" stroke-width="0.482494" stroke-linecap="round" stroke-linejoin="round"/>
<path d="M50.4141 198.846C52.2528 198.65 52.73 197.208 52.1766 196.188C51.5923 195.112 50.1053 195.844 50.7745 196.577C51.4562 197.323 51.1026 198.088 50.4141 198.846Z" fill="#DA121A" stroke="#DA121A" stroke-width="0.482494" stroke-linecap="round" stroke-linejoin="round"/>
<path d="M54.6189 197.693C56.3154 196.958 56.3414 195.44 55.5091 194.632C54.6305 193.778 53.4296 194.921 54.2865 195.42C55.1598 195.929 55.0508 196.764 54.6189 197.693Z" fill="#DA121A" stroke="#DA121A" stroke-width="0.482494" stroke-linecap="round" stroke-linejoin="round"/>
<path d="M58.7155 193.477C59.4176 191.768 58.3759 190.662 57.216 190.664C55.9904 190.666 55.9287 192.322 56.8908 192.082C57.8717 191.837 58.3764 192.512 58.7155 193.477Z" fill="#DA121A" stroke="#DA121A" stroke-width="0.482494" stroke-linecap="round" stroke-linejoin="round"/>
<path d="M124.374 157C123.673 158.711 122.156 158.768 121.33 157.953C120.458 157.092 121.576 155.869 122.093 156.715C122.62 157.577 123.453 157.451 124.374 157Z" fill="#DA121A" stroke="#DA121A" stroke-width="0.482494" stroke-linecap="round" stroke-linejoin="round"/>
<path d="M125.86 155.123C126.092 153.29 124.799 152.494 123.679 152.797C122.496 153.118 122.867 154.732 123.734 154.25C124.618 153.758 125.281 154.278 125.86 155.123V155.123Z" fill="#DA121A" stroke="#DA121A" stroke-width="0.482494" stroke-linecap="round" stroke-linejoin="round"/>
<path d="M124.197 149.551C123.036 148.113 121.565 148.493 121.008 149.511C120.42 150.585 121.843 151.437 122.095 150.476C122.352 149.498 123.187 149.381 124.197 149.548V149.551Z" fill="#DA121A" stroke="#DA121A" stroke-width="0.482494" stroke-linecap="round" stroke-linejoin="round"/>
<path d="M118.302 146.703C116.455 146.793 115.896 148.205 116.389 149.254C116.91 150.363 118.437 149.716 117.811 148.947C117.173 148.163 117.571 147.42 118.302 146.703Z" fill="#DA121A" stroke="#DA121A" stroke-width="0.482494" stroke-linecap="round" stroke-linejoin="round"/>
<path d="M90.0968 190.591C89.9077 188.752 88.4674 188.27 87.4455 188.819C86.3662 189.399 87.0943 190.889 87.8286 190.222C88.5774 189.543 89.3412 189.899 90.0968 190.591Z" fill="#DA121A" stroke="#DA121A" stroke-width="0.482494" stroke-linecap="round" stroke-linejoin="round"/>
<path d="M87.1573 196.555C88.9362 196.05 89.1621 194.549 88.4441 193.636C87.6856 192.674 86.3448 193.648 87.1283 194.256C87.9269 194.875 87.7078 195.689 87.1578 196.553L87.1573 196.555Z" fill="#DA121A" stroke="#DA121A" stroke-width="0.482494" stroke-linecap="round" stroke-linejoin="round"/>
<path d="M82.0703 197.141C83.8884 197.478 84.7578 196.234 84.519 195.098C84.2666 193.899 82.6324 194.177 83.0667 195.07C83.5072 195.98 82.9494 196.611 82.0727 197.141H82.0703Z" fill="#DA121A" stroke="#DA121A" stroke-width="0.482494" stroke-linecap="round" stroke-linejoin="round"/>
<path d="M79.2963 195.997C77.7113 195.045 77.8854 193.537 78.8167 192.845C79.8 192.114 80.8402 193.405 79.9249 193.788C78.9923 194.177 78.9908 195.02 79.2963 195.997Z" fill="#DA121A" stroke="#DA121A" stroke-width="0.482494" stroke-linecap="round" stroke-linejoin="round"/>
<path d="M111.228 196.273C109.838 195.053 110.279 193.6 111.319 193.086C112.417 192.542 113.21 193.998 112.241 194.21C111.254 194.427 111.102 195.256 111.228 196.273Z" fill="#DA121A" stroke="#DA121A" stroke-width="0.482494" stroke-linecap="round" stroke-linejoin="round"/>
<path d="M116.062 198.516C117.898 198.291 118.352 196.841 117.783 195.831C117.181 194.764 115.706 195.52 116.387 196.242C117.081 196.977 116.739 197.747 116.062 198.516Z" fill="#DA121A" stroke="#DA121A" stroke-width="0.482494" stroke-linecap="round" stroke-linejoin="round"/>
<path d="M120.829 196.187C121.991 194.749 121.309 193.392 120.197 193.062C119.022 192.713 118.489 194.283 119.48 194.328C120.49 194.374 120.781 195.164 120.829 196.187V196.187Z" fill="#DA121A" stroke="#DA121A" stroke-width="0.482494" stroke-linecap="round" stroke-linejoin="round"/>
<path d="M122.192 190.689C122.075 188.845 120.655 188.306 119.612 188.814C118.511 189.351 119.179 190.868 119.94 190.232C120.715 189.583 121.464 189.969 122.192 190.689Z" fill="#DA121A" stroke="#DA121A" stroke-width="0.482494" stroke-linecap="round" stroke-linejoin="round"/>
<path d="M100.618 154.099C103.442 153.584 108.714 155.419 110.459 153.053C112.38 150.446 114.568 151.728 112.981 153.451C111.321 155.253 110.597 155.576 108.932 155.817C106.341 156.193 104.019 156.252 101.774 156.243C98.4908 156.23 99.8177 154.244 100.618 154.099Z" fill="#DA121A" stroke="#DA121A" stroke-width="0.482494" stroke-linecap="round" stroke-linejoin="round"/>
<path fill-rule="evenodd" clip-rule="evenodd" d="M106.861 35.8563C98.7906 38.5433 95.1603 33.0573 89.6169 33.1196C84.9078 33.1722 84.2709 36.029 82.3168 39.889C80.4828 36.7643 80.437 33.6358 75.8113 32.722C72.5467 32.0769 69.3541 33.6146 66.2521 34.5801C64.1152 35.3748 60.6253 34.005 57.8881 31.5273C58.0883 36.2543 60.6764 37.9194 64.6575 38.8275C68.3495 39.6689 71.326 36.9096 74.2167 36.9694C80.4418 37.0987 80.6493 45.6104 79.9255 53.56C79.3948 59.3933 68.3881 57.7813 63.197 57.2761C66.2507 54.8844 64.6589 52.2206 66.9146 50.3745C61.3978 50.8696 64.6942 53.2343 61.2057 56.7454C60.2663 57.6906 55.5441 56.81 53.5056 56.6127C56.0517 53.1619 53.6079 53.1619 55.4969 49.8433C50.96 50.9579 52.6521 56.2069 50.1846 56.4795C47.1198 56.8182 44.9109 60.3443 44.7411 63.2489C44.5375 66.7335 46.4945 68.939 49.2553 71.3452C50.6102 72.5263 52.1445 74.1938 55.6281 75.3267C50.477 75.9453 51.9298 77.2306 50.7158 79.5736C53.9649 78.833 53.1211 76.4934 57.7525 76.6545C61.5362 76.7853 62.3179 77.3981 62.1336 79.3092C61.6212 84.6263 58.7146 88.0327 56.0262 89.5284C52.5498 91.4632 50.8089 90.8355 50.45 95.5008C50.269 97.85 49.801 99.4051 49.9853 102.867C50.0384 103.862 45.6482 102.358 46.9982 104.792C46.0897 106.836 48.4602 105.435 49.4546 105.522C50.9855 105.655 48.7453 109.415 51.3797 108.441C53.7068 109.04 51.9645 105.67 52.641 105.919C53.9186 106.39 53.3792 108.966 55.0308 107.114C57.7216 106.653 53.4979 104.449 54.5661 104.526C56.4319 104.659 57.8022 104.836 56.7566 103.198C58.7117 100.99 54.3944 103.105 54.3003 101.805C54.0281 98.0338 56.1477 96.4325 58.8806 95.2354C63.1888 93.3484 66.5527 90.1489 69.9022 87.1136C69.2417 91.0883 74.4246 91.5158 74.2152 93.3773C73.6768 98.1685 72.0305 96.6877 72.3566 98.6153C72.8319 101.424 75.6579 101.059 77.7562 102.459C80.2797 103.478 76.7715 104.934 79.5806 105.101C81.028 107.263 81.5047 103.035 82.4466 103.995C83.3826 104.949 81.608 107.904 83.6026 107.022C85.8462 108.218 84.6443 103.594 85.3676 104.526C86.3456 105.786 86.8426 107.973 87.6314 105.743C90.3049 104.714 85.1799 103.125 86.3359 102.995C87.5813 102.854 89.0784 102.603 87.5697 101.543C87.5403 99.3284 85.6185 100.852 84.2892 101.29C82.8055 101.779 81.2423 100.441 80.0568 98.9496C78.3063 96.748 79.4044 94.6429 80.8534 92.048C83.1008 88.0235 75.6275 83.7014 76.7377 83.023C77.7519 82.4035 78.9311 83.2001 80.1895 84.3503C83.7358 87.5907 85.2499 88.439 87.7569 90.4558C90.8019 93.1394 91.2116 90.5296 91.6072 87.6684C91.7341 86.7522 93.1285 87.8807 93.7418 90.1875C94.3265 92.3867 94.9306 94.9618 98.3785 95.9688C101.908 96.9994 105.4 100.827 111.454 103.528C112.604 104.206 109.297 104.72 111.907 105.258C113.034 107.615 114.521 104.473 115.264 105.728C115.916 106.831 114.87 109.433 117.014 107.943C119.175 108.44 117.253 105.35 117.762 105.521C118.358 105.723 119.451 108.137 119.511 105.723C122.343 104.277 117.987 103.627 118.512 103.085C119.176 102.399 121.33 103.333 119.682 101.413C119.82 98.9076 117.33 101.585 116.169 101.204C111.966 99.8249 107.985 95.5669 106.344 93.1081C104.857 90.8799 102.831 90.0997 103.025 88.5953C105.326 88.7343 108.739 86.5428 110.725 84.8791C113.511 82.5458 115.204 80.4426 117.363 76.0529C118.51 73.7224 119.331 69.0673 119.952 69.3505C120.833 69.752 122.011 71.8291 121.545 69.0852C124.036 67.9446 120.391 67.1769 121.229 66.8758C122.429 66.445 124.816 67.643 123.669 65.701C124.22 62.3664 120.803 65.934 120.948 64.9709C121.085 64.0561 123.757 62.6125 121.284 62.1011C120.05 60.5523 119.332 64.5406 118.824 63.6436C118.196 62.5368 119.601 59.3928 116.918 61.1525C114.043 60.2049 118.642 65.7859 116.301 69.2179C112.622 74.6117 109.044 77.6794 105.812 79.7029C104.355 80.6153 101.877 73.6336 103.29 73.4648C106.726 73.0551 110.241 70.0632 107.406 69.943C105.646 69.8683 104.301 71.7143 101.033 70.2793C98.3964 69.1218 97.4526 65.8645 99.8381 64.1739C101.216 63.1973 103.758 63.4347 107.406 63.1785C109.038 63.0636 110.618 62.3949 109.264 60.1923C111.325 59.3962 111.1 58.3762 109.463 58.0023C107.694 57.5979 107.147 57.1994 104.219 56.7415C101.902 56.3792 101.935 55.0393 98.7756 54.7508C95.9313 54.4907 94.5832 56.4178 93.598 55.1488C92.3705 53.5682 90.7812 51.9296 89.7477 53.6869C87.6286 57.2954 91.9609 58.8669 92.0048 60.8538C89.1518 59.9501 85.7705 60.8278 86.1618 64.57C83.3778 65.9856 84.0928 68.5959 83.1081 71.3394C84.5198 71.4378 86.5048 70.2007 86.9584 72.534C85.2397 73.6703 78.3053 74.1996 73.9474 74.2594C67.442 74.3487 61.1782 73.8503 56.0228 71.8706C53.4887 70.896 48.2739 67.8268 48.3227 63.907C48.4109 56.7792 57.1547 60.6497 61.9975 60.988C68.5845 61.4468 71.4703 61.1737 76.0719 60.8553C82.0427 60.4418 83.8849 56.2643 83.9051 53.1576C83.9355 48.4064 83.9346 43.6013 84.8344 41.0807C85.9832 37.8615 88.4261 35.574 95.5883 39.2226C101.48 42.2238 105.191 40.0289 106.857 35.8539L106.861 35.8563Z" fill="#0F47AF" stroke="#0F47AF" stroke-width="0.482494" stroke-linecap="round" stroke-linejoin="round"/>
<path d="M69.2031 89.2596C73.6715 84.9075 75.2502 81.5759 79.2844 84.9124M107.214 80.0826C107.926 82.9202 108.179 85.0711 107.48 85.7915M102.708 80.1994C104.452 83.3737 103.096 85.2202 102.52 87.4001M98.8683 80.222C98.5339 82.6442 98.6029 84.4762 97.0363 85.4093M94.728 79.2609C94.1365 81.2473 93.7225 83.4408 91.076 83.0311M85.6861 72.1055C89.9118 72.5817 85.4622 76.7838 87.0298 78.2284C88.1487 79.2595 89.34 79.3376 90.7851 77.5712M97.5448 56.6406C98.1711 59.1115 99.8439 59.4898 102.239 58.4239" stroke="#FCDD09" stroke-width="1.44748" stroke-linecap="round" stroke-linejoin="round"/>
<path d="M45.3369 106.794C44.6349 105.084 45.6766 103.979 46.8365 103.98C48.0621 103.982 48.1238 105.638 47.1617 105.398C46.1808 105.153 45.6761 105.828 45.3369 106.794Z" fill="#DA121A" stroke="#DA121A" stroke-width="0.482494" stroke-linecap="round" stroke-linejoin="round"/>
<path d="M50.4141 110.767C52.2528 110.572 52.73 109.13 52.1766 108.11C51.5923 107.033 50.1053 107.766 50.7745 108.499C51.4562 109.245 51.1026 110.009 50.4141 110.767Z" fill="#DA121A" stroke="#DA121A" stroke-width="0.482494" stroke-linecap="round" stroke-linejoin="round"/>
<path d="M54.6189 109.615C56.3154 108.88 56.3414 107.362 55.5091 106.554C54.6305 105.7 53.4296 106.843 54.2865 107.342C55.1598 107.851 55.0508 108.686 54.6189 109.615Z" fill="#DA121A" stroke="#DA121A" stroke-width="0.482494" stroke-linecap="round" stroke-linejoin="round"/>
<path d="M58.7155 105.399C59.4176 103.689 58.3759 102.584 57.216 102.586C55.9904 102.587 55.9287 104.244 56.8908 104.004C57.8717 103.758 58.3764 104.433 58.7155 105.399Z" fill="#DA121A" stroke="#DA121A" stroke-width="0.482494" stroke-linecap="round" stroke-linejoin="round"/>
<path d="M124.374 68.922C123.673 70.633 122.156 70.6899 121.33 69.875C120.458 69.0142 121.576 67.7906 122.093 68.6369C122.62 69.4991 123.453 69.3727 124.374 68.922Z" fill="#DA121A" stroke="#DA121A" stroke-width="0.482494" stroke-linecap="round" stroke-linejoin="round"/>
<path d="M125.86 67.0454C126.092 65.2114 124.799 64.4158 123.679 64.7193C122.496 65.0396 122.867 66.6541 123.734 66.1716C124.618 65.6799 125.281 66.2 125.86 67.0444V67.0454Z" fill="#DA121A" stroke="#DA121A" stroke-width="0.482494" stroke-linecap="round" stroke-linejoin="round"/>
<path d="M124.197 61.4727C123.036 60.0344 121.565 60.4151 121.008 61.4327C120.42 62.5072 121.843 63.3588 122.095 62.3977C122.352 61.4201 123.187 61.3029 124.197 61.4703V61.4727Z" fill="#DA121A" stroke="#DA121A" stroke-width="0.482494" stroke-linecap="round" stroke-linejoin="round"/>
<path d="M118.302 58.6211C116.455 58.7108 115.896 60.1226 116.389 61.172C116.91 62.2808 118.437 61.6343 117.811 60.8652C117.173 60.0811 117.571 59.3381 118.302 58.6211Z" fill="#DA121A" stroke="#DA121A" stroke-width="0.482494" stroke-linecap="round" stroke-linejoin="round"/>
<path d="M90.0968 102.513C89.9077 100.674 88.4674 100.191 87.4455 100.741C86.3662 101.321 87.0943 102.81 87.8286 102.144C88.5774 101.465 89.3412 101.821 90.0968 102.513Z" fill="#DA121A" stroke="#DA121A" stroke-width="0.482494" stroke-linecap="round" stroke-linejoin="round"/>
<path d="M87.1573 108.473C88.9362 107.968 89.1621 106.467 88.4441 105.554C87.6856 104.592 86.3448 105.566 87.1283 106.174C87.9269 106.793 87.7078 107.607 87.1578 108.471L87.1573 108.473Z" fill="#DA121A" stroke="#DA121A" stroke-width="0.482494" stroke-linecap="round" stroke-linejoin="round"/>
<path d="M82.0703 109.059C83.8884 109.396 84.7578 108.152 84.519 107.016C84.2666 105.817 82.6324 106.095 83.0667 106.988C83.5072 107.898 82.9494 108.529 82.0727 109.059H82.0703Z" fill="#DA121A" stroke="#DA121A" stroke-width="0.482494" stroke-linecap="round" stroke-linejoin="round"/>
<path d="M79.2963 107.915C77.7113 106.963 77.8854 105.455 78.8167 104.763C79.8 104.032 80.8402 105.323 79.9249 105.705C78.9923 106.095 78.9908 106.938 79.2963 107.915Z" fill="#DA121A" stroke="#DA121A" stroke-width="0.482494" stroke-linecap="round" stroke-linejoin="round"/>
<path d="M111.228 108.191C109.838 106.971 110.279 105.518 111.319 105.004C112.417 104.46 113.21 105.916 112.241 106.128C111.254 106.345 111.102 107.174 111.228 108.191Z" fill="#DA121A" stroke="#DA121A" stroke-width="0.482494" stroke-linecap="round" stroke-linejoin="round"/>
<path d="M116.062 110.438C117.898 110.213 118.352 108.763 117.783 107.753C117.181 106.686 115.706 107.442 116.387 108.164C117.081 108.899 116.739 109.669 116.062 110.438Z" fill="#DA121A" stroke="#DA121A" stroke-width="0.482494" stroke-linecap="round" stroke-linejoin="round"/>
<path d="M120.829 108.109C121.991 106.671 121.309 105.314 120.197 104.984C119.022 104.635 118.489 106.205 119.48 106.25C120.49 106.296 120.781 107.086 120.829 108.109Z" fill="#DA121A" stroke="#DA121A" stroke-width="0.482494" stroke-linecap="round" stroke-linejoin="round"/>
<path d="M122.192 102.611C122.075 100.767 120.655 100.228 119.612 100.736C118.511 101.273 119.179 102.79 119.94 102.153C120.715 101.504 121.464 101.89 122.192 102.611Z" fill="#DA121A" stroke="#DA121A" stroke-width="0.482494" stroke-linecap="round" stroke-linejoin="round"/>
<path d="M100.618 66.0189C103.442 65.5046 108.938 67.4891 110.459 64.9733C112.115 62.2337 114.568 63.6489 112.981 65.3714C111.321 67.1735 110.597 67.4963 108.932 67.7376C106.341 68.1129 104.019 68.1723 101.774 68.1631C98.4908 68.1496 99.8177 66.1646 100.618 66.0189Z" fill="#DA121A" stroke="#DA121A" stroke-width="0.482494" stroke-linecap="round" stroke-linejoin="round"/>
</svg>
