<svg width="256" height="256" viewBox="0 0 256 256" fill="none" xmlns="http://www.w3.org/2000/svg">
<path d="M127.975 237.951C89.2773 238.45 56.7757 219.789 40.5376 182.936C35.0367 170.452 34.4468 159.216 34.0006 145.982L34 19H222.007V145.982C221.56 159.214 220.97 170.452 215.469 182.936C199.234 219.779 166.66 238.438 127.975 237.951H127.975Z" fill="black"/>
<path d="M219.383 145.916L219.382 21.6289H36.6328V145.941C37.0553 158.786 37.6051 169.763 42.9432 181.877C58.7229 217.687 90.2263 235.809 127.96 235.322C165.695 235.809 197.286 217.687 213.066 181.877C218.413 169.741 218.947 158.779 219.383 145.916Z" fill="#0094CB"/>
<path d="M46.658 62.7603C46.658 62.7603 46.2305 62.2703 46.1486 61.9647C45.6642 60.1545 47.0245 58.9901 49.2086 59.865C51.452 59.6239 52.7772 57.6822 51.1509 56.5972C50.1935 56.2316 47.8498 55.7715 47.6283 54.7756C47.508 52.8475 49.3656 53.5613 50.7913 52.7268C52.3579 51.8088 51.7553 50.664 53.7574 50.423C55.4447 50.2422 55.519 52.1438 55.2637 53.9335C55.1035 56.8648 57.7482 55.9358 58.383 54.7209C58.833 51.69 56.7841 50.3041 59.3145 49.6431C60.3686 49.367 61.3169 52.1741 62.9581 52.9707C64.8207 53.876 65.9848 52.4885 66.9485 53.8144C68.0791 55.5652 66.9485 56.2382 65.0125 57.8102C64.9708 58.3793 64.1954 59.8988 68.3723 62.4415C68.7433 62.5847 69.5086 62.7625 69.5086 62.7625H46.6602L46.658 62.7603ZM93.8841 105.256C86.8448 106.668 77.7983 106.658 72.1827 102.854C74.1807 102.036 76.7493 100.7 77.8135 98.8568C79.175 96.4968 81.5363 92.9546 84.9874 91.4108C82.8713 88.8384 81.7044 86.7099 81.2358 84.6618H153.412C153.035 87.966 153.394 91.0319 156.007 97.0418C154.553 96.5881 153.084 95.982 151.558 94.2268C152.446 96.7881 153.924 100.425 153.32 105.257H93.8845L93.8841 105.256ZM172.478 62.7635C178.603 57.8232 188.311 54.6928 193.97 50.2713C197.016 47.8923 197.034 45.7841 196.422 44.3682C192.881 42.0979 194.969 39.1008 196.695 38.3744C199.95 37.004 204.142 36.6488 207.956 39.1008C211.102 41.1231 213.95 46.1844 208.501 52.6323C204.844 56.9599 195.886 60.1333 191.972 61.8968C191.362 62.1717 190.723 62.4602 190.066 62.7648L172.478 62.7635ZM177.115 84.6608C177.721 85.581 178.44 86.4726 179.26 87.3223C186.068 94.3762 192.154 98.0277 197.451 105.255H186.422C183.074 102.675 178.595 99.5835 172.264 92.8624C170.616 91.1134 168.717 87.2092 166.845 84.6608H177.115ZM81.2377 84.6608C81.7063 86.709 82.8732 88.8368 84.9893 91.4095C81.5382 92.9534 79.1766 96.4968 77.8154 98.8555C77.6675 99.1121 77.4905 99.3586 77.2896 99.5952C74.3535 97.9322 78.3522 93.973 76.5432 90.6846C75.0976 93.1442 73.6742 94.8082 72.275 95.6796C73.0567 93.2513 72.451 91.2841 71.5486 89.0498C70.4054 90.1446 69.1869 92.5009 69.3689 95.2253C66.3719 92.5913 65.756 91.1694 66.1902 86.1437C63.6336 87.9584 61.7412 88.1416 58.7432 86.5074C59.8175 86.1162 60.6106 85.4672 61.1576 84.6611L81.2377 84.6608ZM48.0568 129.198H102.784C101.077 131.017 98.8513 134.138 98.7322 136.449C97.3463 135.365 97.4885 133.866 96.7298 130.697C95.5247 134.943 92.9956 137.819 89.833 139.851C90.3152 137.308 90.1341 134.943 89.4112 133.181C88.0714 139.054 84.5631 142.02 81.7771 143.962C82.8726 141.635 83.4151 136.944 82.3193 133.918C81.4757 137.97 77.5901 141.76 76.3258 142.2C76.4064 140.756 77.4849 137.306 74.338 134.52C69.7911 131.433 67.8323 135.072 70.2145 136.764C72.7581 138.572 72.5129 140.326 69.9108 140.151C69.0681 139.726 68.0687 139.79 67.5473 140.634C66.1772 142.996 63.9591 143.462 64.0368 138.39C63.4203 135.786 59.2061 137.274 59.9259 139.67L60.7689 140.574C62.8317 142.261 61.9178 144.661 59.4434 144.084C58.5018 143.496 56.2647 143.569 55.4991 144.506C53.1349 145.108 53.2556 143.12 54.1735 140.695C54.4146 139.355 50.1685 137.91 50.9663 141.959C51.5699 145.254 47.1493 146.897 47.7592 142.516C48.1636 141.692 46.8412 139.234 44.9738 138.571C43.6843 137.524 44.5378 135.183 46.2636 135.436C47.9017 135.677 49.2657 135.725 50.8463 135.243C52.7611 134.659 52.3535 130.988 49.9887 132.218C47.4451 133.542 45.2746 131.674 46.9623 130.154C47.2931 129.93 47.7004 129.601 48.0546 129.196L48.0568 129.198ZM72.2165 196.236C73.2305 195.119 75.2256 195.973 75.5432 193.909C76.3265 188.819 78.8707 188.097 81.8368 190.883C85.8788 193.156 88.3321 191.793 89.7679 189.257C90.5272 187.919 93.9499 179.55 94.9964 173.648H118.23C118.46 173.768 118.696 173.867 118.938 173.941C123.133 175.217 127.067 175.928 128.753 175.085C128.933 178.232 125.425 181.199 123.182 181.862C125.124 182.404 126.403 182.524 127.488 185.972C125.485 185.37 123.377 186.469 122.156 187.37C120.513 188.584 118.468 189.495 116.164 188.276C117.249 190.941 117.805 193.124 115.562 196.633C114.521 192.399 111.106 192.071 109.026 191.664C110.15 193.001 110.634 194.685 110.66 196.234H72.2118M180.324 173.648C184.399 174.01 189.115 173.91 191.242 171.691C191.424 174.597 191.132 177.117 187.156 179.411C190.862 183.106 191.242 185.677 190.788 189.037C187.791 186.494 185.155 186.756 181.706 188.311C183.928 191.873 184.34 193.306 183.977 197.665C181.655 195.561 179.418 195.312 178.091 196.235H159.745C159.889 195.333 159.936 194.323 159.82 193.215C159.98 186.596 157.953 183.059 156.006 182.042C154.097 181.045 148.741 179.774 147.832 175.505C146.924 181.408 139.114 183.588 134.119 176.686C134.821 175.694 135.351 174.697 135.67 173.648L180.324 173.648ZM158.041 129.196C163.942 135.794 171.379 139.946 179.417 138.438C184.862 137.417 189.428 133.784 192.129 129.196H200.926C199.005 134.243 195.747 138.088 190.97 142.265C185.41 146.315 177.53 148.531 171.082 146.625C171.375 148.876 171.071 150.764 170.453 152.366H79.2714C79.1753 151.805 79.1008 151.222 79.0489 150.618C88.1289 153.945 92.3896 147.62 98.9682 141.476C105.109 135.741 111.08 133.695 117.18 133.829C121.313 133.919 128.034 135.32 129.854 136.629C127.528 134.021 124.16 131.389 120.738 129.197L158.041 129.196ZM126.156 62.7616C126.253 62.5597 126.348 62.3455 126.442 62.1208C126.967 60.86 127.032 59.6688 126.804 58.0778C126.475 55.7756 125.56 54.5 122.49 54.3553C118.63 54.1736 115.817 57.1258 112.284 56.2806C108.535 55.3832 109.013 51.5314 109.221 50.0706C109.333 49.2883 109.663 48.6917 110.073 48.121C110.073 48.121 109.795 47.9646 109.69 47.9122C109.117 47.582 109.186 46.8688 109.395 46.0318C109.916 44.6756 111.218 44.4055 112.605 43.6528C113.711 43.0524 115.829 42.6985 117.972 40.7963L147.917 40.7941C147.917 40.7941 154.82 39.2812 155.817 41.1885C156.343 42.9162 156.998 47.0006 152.515 52.9113C154.707 55.0565 155.061 57.9891 154.93 62.7635" fill="#F0432A"/>
<path d="M72.2165 196.236C73.2305 195.119 75.2256 195.973 75.5432 193.909C76.3265 188.819 78.8707 188.097 81.8368 190.883C85.8788 193.156 88.3321 191.793 89.7679 189.257C90.5272 187.919 93.9499 179.55 94.9964 173.648H118.23C118.46 173.768 118.696 173.867 118.938 173.941C123.133 175.217 127.067 175.928 128.753 175.085C128.933 178.232 125.425 181.199 123.182 181.862C125.124 182.404 126.403 182.524 127.488 185.972C125.485 185.37 123.377 186.469 122.156 187.37C120.513 188.584 118.468 189.495 116.164 188.276C117.249 190.941 117.805 193.124 115.562 196.633C114.521 192.399 111.106 192.071 109.026 191.664C110.15 193.001 110.634 194.685 110.66 196.234H72.2118M126.156 62.7616C126.253 62.5597 126.348 62.3455 126.442 62.1208C126.967 60.86 127.032 59.6688 126.804 58.0778C126.475 55.7756 125.56 54.5 122.49 54.3553C118.63 54.1736 115.817 57.1258 112.284 56.2806C108.535 55.3832 109.013 51.5314 109.221 50.0706C109.333 49.2883 109.663 48.6917 110.073 48.121C110.073 48.121 109.795 47.9646 109.69 47.9122C109.117 47.582 109.186 46.8688 109.395 46.0318C109.916 44.6756 111.218 44.4055 112.605 43.6528C113.711 43.0524 115.829 42.6985 117.972 40.7963L147.917 40.7941C147.917 40.7941 154.82 39.2812 155.817 41.1885C156.343 42.9162 156.998 47.0006 152.515 52.9113C154.707 55.0565 155.061 57.9891 154.93 62.7635M46.658 62.7603C46.658 62.7603 46.2305 62.2703 46.1486 61.9647C45.6642 60.1545 47.0245 58.9901 49.2086 59.865C51.452 59.6239 52.7772 57.6822 51.1509 56.5972C50.1935 56.2316 47.8498 55.7715 47.6283 54.7756C47.508 52.8475 49.3656 53.5613 50.7913 52.7268C52.3579 51.8088 51.7553 50.664 53.7574 50.423C55.4447 50.2422 55.519 52.1438 55.2637 53.9335C55.1035 56.8648 57.7482 55.9358 58.383 54.7209C58.833 51.69 56.7841 50.3041 59.3145 49.6431C60.3686 49.367 61.3169 52.1741 62.9581 52.9707C64.8207 53.876 65.9848 52.4885 66.9485 53.8144C68.0791 55.5652 66.9485 56.2382 65.0125 57.8102C64.9708 58.3793 64.1954 59.8988 68.3723 62.4415C68.7433 62.5847 69.5086 62.7625 69.5086 62.7625H46.6602L46.658 62.7603ZM93.8841 105.256C86.8448 106.668 77.7983 106.658 72.1827 102.854C74.1807 102.036 76.7493 100.7 77.8135 98.8568C79.175 96.4968 81.5363 92.9546 84.9874 91.4108C82.8713 88.8384 81.7044 86.7099 81.2358 84.6618H153.412C153.035 87.966 153.394 91.0319 156.007 97.0418C154.553 96.5881 153.084 95.982 151.558 94.2268C152.446 96.7881 153.924 100.425 153.32 105.257H93.8845L93.8841 105.256ZM172.478 62.7635C178.603 57.8232 188.311 54.6928 193.97 50.2713C197.016 47.8923 197.034 45.7841 196.422 44.3682C192.881 42.0979 194.969 39.1008 196.695 38.3744C199.95 37.004 204.142 36.6488 207.956 39.1008C211.102 41.1231 213.95 46.1844 208.501 52.6323C204.844 56.9599 195.886 60.1333 191.972 61.8968C191.362 62.1717 190.723 62.4602 190.066 62.7648L172.478 62.7635ZM177.115 84.6608C177.721 85.581 178.44 86.4726 179.26 87.3223C186.068 94.3762 192.154 98.0277 197.451 105.255H186.422C183.074 102.675 178.595 99.5835 172.264 92.8624C170.616 91.1134 168.717 87.2092 166.845 84.6608H177.115ZM81.2377 84.6608C81.7063 86.709 82.8732 88.8368 84.9893 91.4095C81.5382 92.9534 79.1766 96.4968 77.8154 98.8555C77.6675 99.1121 77.4905 99.3586 77.2896 99.5952C74.3535 97.9322 78.3522 93.973 76.5432 90.6846C75.0976 93.1442 73.6742 94.8082 72.275 95.6796C73.0567 93.2513 72.451 91.2841 71.5486 89.0498C70.4054 90.1446 69.1869 92.5009 69.3689 95.2253C66.3719 92.5913 65.756 91.1694 66.1902 86.1437C63.6336 87.9584 61.7412 88.1416 58.7432 86.5074C59.8175 86.1162 60.6106 85.4672 61.1576 84.6611L81.2377 84.6608ZM48.0568 129.198H102.784C101.077 131.017 98.8513 134.138 98.7322 136.449C97.3463 135.365 97.4885 133.866 96.7298 130.697C95.5247 134.943 92.9956 137.819 89.833 139.851C90.3152 137.308 90.1341 134.943 89.4112 133.181C88.0714 139.054 84.5631 142.02 81.7771 143.962C82.8726 141.635 83.4151 136.944 82.3193 133.918C81.4757 137.97 77.5901 141.76 76.3258 142.2C76.4064 140.756 77.4849 137.306 74.338 134.52C69.7911 131.433 67.8323 135.072 70.2145 136.764C72.7581 138.572 72.5129 140.326 69.9108 140.151C69.0681 139.726 68.0687 139.79 67.5473 140.634C66.1772 142.996 63.9591 143.462 64.0368 138.39C63.4203 135.786 59.2061 137.274 59.9259 139.67L60.7689 140.574C62.8317 142.261 61.9178 144.661 59.4434 144.084C58.5018 143.496 56.2647 143.569 55.4991 144.506C53.1349 145.108 53.2556 143.12 54.1735 140.695C54.4146 139.355 50.1685 137.91 50.9663 141.959C51.5699 145.254 47.1493 146.897 47.7592 142.516C48.1636 141.692 46.8412 139.234 44.9738 138.571C43.6843 137.524 44.5378 135.183 46.2636 135.436C47.9017 135.677 49.2657 135.725 50.8463 135.243C52.7611 134.659 52.3535 130.988 49.9887 132.218C47.4451 133.542 45.2746 131.674 46.9623 130.154C47.2931 129.93 47.7004 129.601 48.0546 129.196L48.0568 129.198ZM180.324 173.648C184.399 174.01 189.115 173.91 191.242 171.691C191.424 174.597 191.132 177.117 187.156 179.411C190.862 183.106 191.242 185.677 190.788 189.037C187.791 186.494 185.155 186.756 181.706 188.311C183.928 191.873 184.34 193.306 183.977 197.665C181.655 195.561 179.418 195.312 178.091 196.235H159.745C159.889 195.333 159.936 194.323 159.82 193.215C159.98 186.596 157.953 183.059 156.006 182.042C154.097 181.045 148.741 179.774 147.832 175.505C146.924 181.408 139.114 183.588 134.119 176.686C134.821 175.694 135.351 174.697 135.67 173.648L180.324 173.648ZM158.041 129.196C163.942 135.794 171.379 139.946 179.417 138.438C184.862 137.417 189.428 133.784 192.129 129.196H200.926C199.005 134.243 195.747 138.088 190.97 142.265C185.41 146.315 177.53 148.531 171.082 146.625C171.375 148.876 171.071 150.764 170.453 152.366H79.2714C79.1753 151.805 79.1008 151.222 79.0489 150.618C88.1289 153.945 92.3896 147.62 98.9682 141.476C105.109 135.741 111.08 133.695 117.18 133.829C121.313 133.919 128.034 135.32 129.854 136.629C127.528 134.021 124.16 131.389 120.738 129.197L158.041 129.196Z" stroke="black" stroke-width="0.821545"/>
<path d="M93.8906 105.304C92.8918 109.209 89.9855 110.208 88.0785 116.382C91.711 114.565 95.4345 114.202 100.337 115.747C108.612 118.352 112.251 116.906 114.506 115.293C115.414 119.016 118.955 118.381 119.59 123.192C121.86 120.559 124.224 119.743 127.583 119.196C132.499 118.395 135.179 116.739 135.665 113.021C138.571 116.381 141.84 117.199 146.2 116.652C147.262 116.518 148.952 116.479 150.833 116.708C150.932 117.114 151.047 117.517 151.164 117.919C151.544 119.189 152.108 120.716 152.921 122.21C153.118 122.572 153.328 122.93 153.556 123.283C154.792 125.192 156.139 127.003 157.58 128.668L158.043 129.193H120.738L119.904 128.667C115.58 125.994 111.293 124.081 109.03 123.856C109.633 122.349 108.174 121.312 108.174 121.312C107.877 125.078 105.144 126.99 103.583 128.409L103.581 128.408L103.301 128.671C103.137 128.83 102.965 129.006 102.785 129.197H48.0579C48.2017 129.033 48.3363 128.856 48.4539 128.671C48.6387 128.379 48.7803 128.063 48.8466 127.729C48.6156 124.478 50.2944 122.326 53.8754 124.462C53.8754 124.462 54.8998 126.322 57.324 126.404C60.5827 125.961 63.3146 124.218 67.9162 120.834C75.0134 115.931 79.8643 110.522 82.7625 107.606C83.3774 106.988 83.9026 106.482 84.3456 106.117C87.5401 106.208 90.776 105.894 93.6685 105.346M166.846 84.6625C166.035 83.5566 165.229 82.7063 164.452 82.3976C162.456 81.6038 160.444 81.3514 157.279 83.9652C157.461 77.699 159.684 74.7797 165.635 74.8833C167.088 68.5258 169.222 65.5205 171.989 63.1668C172.148 63.0312 172.311 62.897 172.476 62.7639H190.064C185.965 64.663 181.101 67.2129 177.57 71.2347C173.942 75.3677 174.26 80.3276 177.113 84.6622H166.845L166.846 84.6625ZM193.788 114.573C191.983 109.905 189.767 107.838 186.421 105.259H197.45C198.089 106.128 198.713 107.049 199.327 108.033C200.766 106.594 202.63 105.649 204.587 105.259C205.749 105.075 207.01 104.989 208.643 105.259C210.744 105.694 212.685 106.836 214.037 108.76C216.681 112.52 216.49 119.295 209.679 121.292C214.034 112.974 203.685 110.939 202.868 120.111C202.566 123.612 201.928 126.57 200.926 129.201L192.13 129.2C194.768 124.72 195.628 119.329 193.789 114.574L193.788 114.573ZM61.1562 84.6625C62.1367 83.2201 62.3263 81.2771 61.9199 79.4211C61.2848 76.5175 63.2167 72.5523 63.1933 71.3428C63.1023 66.9816 57.6972 66.9355 58.3797 70.6141C59.9236 74.7007 58.0637 77.9448 56.0181 75.246L55.2009 73.0664C52.2383 71.1642 51.5309 69.4848 53.6334 68.1634C56.5391 65.9199 54.0552 64.0525 51.5707 65.4377C49.8059 68.2803 47.8924 68.51 47.3245 67.2594C46.9966 66.5361 47.8206 65.6795 47.2645 63.9185C47.1214 63.4664 46.6562 62.762 46.6562 62.762H69.4983C77.3195 65.8874 88.6119 71.6189 95.1369 77.5454C92.5386 79.0833 88.8606 81.3966 81.5371 78.8788C80.969 80.9324 80.8025 82.7635 81.2366 84.6628H61.1562V84.6625ZM110.664 196.238C110.69 197.846 110.22 199.308 109.452 200.085C108.473 198.881 107.602 198.096 104.783 198.099C102.728 198.101 100.03 199.487 99.8759 199.965C100.673 200.266 101.007 200.989 100.975 201.847C100.131 207.719 96.1875 205.115 94.861 205.9C93.5908 206.652 93.2198 208.563 91.0971 209.542C88.6264 210.084 87.8292 209.046 87.8292 209.046C85.6679 211.267 81.1716 212.86 80.5112 208.021C79.27 208.316 77.7173 206.941 76.5668 205.537C75.9642 206.139 74.9954 206.944 73.9758 205.175C73.8968 203.772 74.8005 201.576 73.6023 200.823C71.8527 199.724 71.0229 198.608 71.9134 196.7C71.9993 196.516 72.1011 196.365 72.2155 196.239H110.664V196.238ZM178.094 196.238C177.759 196.47 177.482 196.777 177.277 197.147C176.077 199.303 178.258 199.939 175.806 202.482C173.346 203.05 171.101 206.314 172.535 208.566C173.808 210.564 172.718 212.108 169.994 210.382C170.902 213.016 170.176 216.467 167.269 218.374C162.729 220.644 164.272 217.648 162.82 215.74C161.367 213.378 159.369 214.196 159.369 214.196C158.966 214.524 158.398 216.819 158.243 217.484C156.834 221.524 153.293 222.21 152.105 219.1C151.757 217.424 150.04 216.031 149.017 215.83C146.869 213.925 149.789 211.907 150.833 210.926C149.713 210.61 149.925 209.291 150.106 207.747C149.823 206.409 148.558 205.207 148.744 204.659C149.252 201.966 150.78 201.815 154.102 203.115C155.646 202.843 156.464 202.661 157.734 201.027C158.152 200.49 159.341 198.805 159.749 196.236H178.095L178.094 196.238ZM168.361 155.89C163.274 164.428 169.632 171.512 176.261 173.146C177.424 173.322 178.833 173.517 180.328 173.65H135.674C136.481 170.994 135.934 168.01 133.396 163.973C131.297 160.638 131.579 155.891 131.579 155.891C129.114 155.168 125.071 154.367 121.045 156.618C112.258 161.528 114.012 171.421 118.235 173.65H94.9978C95.2825 172.046 95.3915 170.625 95.2241 169.576C94.9425 167.812 91.7603 166.103 90.437 162.123C85.2132 163.198 80.5039 159.567 79.2766 152.367L170.459 152.367C169.93 153.736 169.172 154.895 168.362 155.89L168.361 155.89ZM93.6672 105.35L93.8846 105.257L153.32 105.257C153.285 105.541 153.241 105.829 153.191 106.121H153.19C152.599 109.552 153.191 113.479 155.189 117.747C151.829 116.477 148.056 116.422 146.198 116.655C141.839 117.202 138.571 116.385 135.664 113.024C135.177 116.743 132.498 118.399 127.581 119.2C124.222 119.747 121.859 120.561 119.589 123.195C118.954 118.383 115.412 119.018 114.505 115.296C112.25 116.909 108.612 118.356 100.336 115.75C95.4336 114.206 91.7101 114.57 88.0773 116.385C89.9858 110.209 92.8903 109.21 93.8894 105.307M81.2344 84.6606C80.8003 82.7616 80.9668 80.9302 81.5349 78.8766C90.2534 81.8737 93.8047 78.0251 96.5186 76.788C100.106 75.1535 105.215 75.8192 108.324 77.0604C117.769 80.8294 121.718 78.2412 122.445 75.4258C122.998 73.2857 121.991 69.8406 113.592 70.6577C112.502 70.6577 111.957 70.567 111.41 69.8836C110.884 69.2247 110.413 66.8887 110.504 65.39C110.705 64.7224 110.958 64.6946 111.276 64.3005C115.636 62.8929 118.068 63.3731 121.492 64.8434C123.764 65.8185 125.079 65.0067 126.157 62.7617H154.936L154.914 63.4379C154.308 69.2775 157.276 72.7024 157.276 72.7024C155.823 72.7931 154.461 72.5207 153.189 71.2492C154.28 76.5166 154.46 80.0587 153.462 84.2359L153.409 84.6616H81.2335L81.2344 84.6606Z" fill="white"/>
<path d="M93.8906 105.304C92.8918 109.209 89.9855 110.208 88.0785 116.382C91.711 114.565 95.4345 114.202 100.337 115.747C108.612 118.352 112.251 116.906 114.506 115.293C115.414 119.016 118.955 118.381 119.59 123.192C121.86 120.559 124.224 119.743 127.583 119.196C132.499 118.395 135.179 116.739 135.665 113.021C138.571 116.381 141.84 117.199 146.2 116.652C147.262 116.518 148.952 116.479 150.833 116.708C150.932 117.114 151.047 117.517 151.164 117.919C151.544 119.189 152.108 120.716 152.921 122.21C153.118 122.572 153.328 122.93 153.556 123.283C154.792 125.192 156.139 127.003 157.58 128.668L158.043 129.193H120.738L119.904 128.667C115.58 125.994 111.293 124.081 109.03 123.856C109.633 122.349 108.174 121.312 108.174 121.312C107.877 125.078 105.144 126.99 103.583 128.409L103.581 128.408L103.301 128.671C103.137 128.83 102.965 129.006 102.785 129.197H48.0579C48.2017 129.033 48.3363 128.856 48.4539 128.671C48.6387 128.379 48.7803 128.063 48.8466 127.729C48.6156 124.478 50.2944 122.326 53.8754 124.462C53.8754 124.462 54.8998 126.322 57.324 126.404C60.5827 125.961 63.3146 124.218 67.9162 120.834C75.0134 115.931 79.8643 110.522 82.7625 107.606C83.3774 106.988 83.9026 106.482 84.3456 106.117C87.5401 106.208 90.776 105.894 93.6685 105.346M93.6672 105.35L93.8846 105.257L153.32 105.257C153.285 105.541 153.241 105.829 153.191 106.121H153.19C152.599 109.552 153.191 113.479 155.189 117.747C151.829 116.477 148.056 116.422 146.198 116.655C141.839 117.202 138.571 116.385 135.664 113.024C135.177 116.743 132.498 118.399 127.581 119.2C124.222 119.747 121.859 120.561 119.589 123.195C118.954 118.383 115.412 119.018 114.505 115.296C112.25 116.909 108.612 118.356 100.336 115.75C95.4336 114.206 91.7101 114.57 88.0773 116.385C89.9858 110.209 92.8903 109.21 93.8894 105.307M166.846 84.6625C166.035 83.5566 165.229 82.7063 164.452 82.3976C162.456 81.6038 160.444 81.3514 157.279 83.9652C157.461 77.699 159.684 74.7797 165.635 74.8833C167.088 68.5258 169.222 65.5205 171.989 63.1668C172.148 63.0312 172.311 62.897 172.476 62.7639H190.064C185.965 64.663 181.101 67.2129 177.57 71.2347C173.942 75.3677 174.26 80.3276 177.113 84.6622H166.845L166.846 84.6625ZM193.788 114.573C191.983 109.905 189.767 107.838 186.421 105.259H197.45C198.089 106.128 198.713 107.049 199.327 108.033C200.766 106.594 202.63 105.649 204.587 105.259C205.749 105.075 207.01 104.989 208.643 105.259C210.744 105.694 212.685 106.836 214.037 108.76C216.681 112.52 216.49 119.295 209.679 121.292C214.034 112.974 203.685 110.939 202.868 120.111C202.566 123.612 201.928 126.57 200.926 129.201L192.13 129.2C194.768 124.72 195.628 119.329 193.789 114.574L193.788 114.573ZM61.1562 84.6625C62.1367 83.2201 62.3263 81.2771 61.9199 79.4211C61.2848 76.5175 63.2167 72.5523 63.1933 71.3428C63.1023 66.9816 57.6972 66.9355 58.3797 70.6141C59.9236 74.7007 58.0637 77.9448 56.0181 75.246L55.2009 73.0664C52.2383 71.1642 51.5309 69.4848 53.6334 68.1634C56.5391 65.9199 54.0552 64.0525 51.5707 65.4377C49.8059 68.2803 47.8924 68.51 47.3245 67.2594C46.9966 66.5361 47.8206 65.6795 47.2645 63.9185C47.1214 63.4664 46.6562 62.762 46.6562 62.762H69.4983C77.3195 65.8874 88.6119 71.6189 95.1369 77.5454C92.5386 79.0833 88.8606 81.3966 81.5371 78.8788C80.969 80.9324 80.8025 82.7635 81.2366 84.6628H61.1562V84.6625ZM110.664 196.238C110.69 197.846 110.22 199.308 109.452 200.085C108.473 198.881 107.602 198.096 104.783 198.099C102.728 198.101 100.03 199.487 99.8759 199.965C100.673 200.266 101.007 200.989 100.975 201.847C100.131 207.719 96.1875 205.115 94.861 205.9C93.5908 206.652 93.2198 208.563 91.0971 209.542C88.6264 210.084 87.8292 209.046 87.8292 209.046C85.6679 211.267 81.1716 212.86 80.5112 208.021C79.27 208.316 77.7173 206.941 76.5668 205.537C75.9642 206.139 74.9954 206.944 73.9758 205.175C73.8968 203.772 74.8005 201.576 73.6023 200.823C71.8527 199.724 71.0229 198.608 71.9134 196.7C71.9993 196.516 72.1011 196.365 72.2155 196.239H110.664V196.238ZM178.094 196.238C177.759 196.47 177.482 196.777 177.277 197.147C176.077 199.303 178.258 199.939 175.806 202.482C173.346 203.05 171.101 206.314 172.535 208.566C173.808 210.564 172.718 212.108 169.994 210.382C170.902 213.016 170.176 216.467 167.269 218.374C162.729 220.644 164.272 217.648 162.82 215.74C161.367 213.378 159.369 214.196 159.369 214.196C158.966 214.524 158.398 216.819 158.243 217.484C156.834 221.524 153.293 222.21 152.105 219.1C151.757 217.424 150.04 216.031 149.017 215.83C146.869 213.925 149.789 211.907 150.833 210.926C149.713 210.61 149.925 209.291 150.106 207.747C149.823 206.409 148.558 205.207 148.744 204.659C149.252 201.966 150.78 201.815 154.102 203.115C155.646 202.843 156.464 202.661 157.734 201.027C158.152 200.49 159.341 198.805 159.749 196.236H178.095L178.094 196.238ZM168.361 155.89C163.274 164.428 169.632 171.512 176.261 173.146C177.424 173.322 178.833 173.517 180.328 173.65H135.674C136.481 170.994 135.934 168.01 133.396 163.973C131.297 160.638 131.579 155.891 131.579 155.891C129.114 155.168 125.071 154.367 121.045 156.618C112.258 161.528 114.012 171.421 118.235 173.65H94.9978C95.2825 172.046 95.3915 170.625 95.2241 169.576C94.9425 167.812 91.7603 166.103 90.437 162.123C85.2132 163.198 80.5039 159.567 79.2766 152.367L170.459 152.367C169.93 153.736 169.172 154.895 168.362 155.89L168.361 155.89ZM81.2344 84.6606C80.8003 82.7616 80.9668 80.9302 81.5349 78.8766C90.2534 81.8737 93.8047 78.0251 96.5186 76.788C100.106 75.1535 105.215 75.8192 108.324 77.0604C117.769 80.8294 121.718 78.2412 122.445 75.4258C122.998 73.2857 121.991 69.8406 113.592 70.6577C112.502 70.6577 111.957 70.567 111.41 69.8836C110.884 69.2247 110.413 66.8887 110.504 65.39C110.705 64.7224 110.958 64.6946 111.276 64.3005C115.636 62.8929 118.068 63.3731 121.492 64.8434C123.764 65.8185 125.079 65.0067 126.157 62.7617H154.936L154.914 63.4379C154.308 69.2775 157.276 72.7024 157.276 72.7024C155.823 72.7931 154.461 72.5207 153.189 71.2492C154.28 76.5166 154.46 80.0587 153.462 84.2359L153.409 84.6616H81.2335L81.2344 84.6606Z" stroke="black" stroke-width="0.821545"/>
<path d="M172.182 208.817C172.027 208.128 171.616 205.834 172.453 204.526C173.202 203.361 174.389 202.428 175.592 202.107C177.716 199.844 175.672 199.184 176.919 196.943C178.389 194.301 181.684 195.321 183.631 196.831C183.868 193.18 183.396 191.791 181.362 188.53C181.362 188.53 181.188 188.157 181.542 187.934C184.85 186.443 187.54 186.081 190.469 188.253C190.749 185.366 190.203 183.03 186.869 179.703C186.869 179.703 186.52 179.346 186.954 179.052C190.362 177.087 190.92 175.002 190.872 172.562C187.449 175.047 180.344 174.177 176.182 173.548C169.409 171.878 162.719 164.553 168.007 155.677C170.192 152.983 171.125 150.116 170.677 146.678C170.677 146.678 170.655 146.157 171.204 146.229C177.49 148.088 185.23 145.933 190.719 141.942C198.203 135.39 201.623 129.818 202.461 120.07C203.33 110.308 213.801 112.63 210.474 120.578C217.962 117.611 216.054 107.247 208.604 105.667C207.334 105.451 206.019 105.413 204.632 105.667C202.764 106.047 200.991 106.952 199.623 108.32C199.24 108.562 198.98 108.246 198.98 108.246C193.525 99.5006 185.921 94.8124 178.966 87.6094C174.552 83.0362 172.423 76.4743 177.264 70.9595C183.296 64.0892 192.273 61.6982 200.154 57.8524C203.336 56.3003 206.419 54.456 208.188 52.3636C216.393 42.6542 205.973 34.9152 196.857 38.7543C195.245 39.4331 193.548 42.0323 196.648 44.0195L196.804 44.2034C198.713 48.6205 192.355 52.0653 189.287 53.7554C183.643 56.8647 177.182 59.2961 172.26 63.4813C169.57 65.7686 167.476 68.6914 166.04 74.9734C166.04 74.9734 166.051 75.2764 165.63 75.2944C160.252 75.2 158.091 77.6052 157.736 83.0849C160.631 80.9678 162.639 81.2285 164.607 82.0118C167.36 83.1067 170.277 90.1483 172.567 92.5797C175.719 95.9253 178.409 98.3675 180.728 100.294C183.053 102.226 185.005 103.641 186.676 104.928C190.054 107.531 192.333 109.654 194.176 114.42C196.06 119.291 195.188 124.78 192.534 129.331C189.787 134.042 185.106 137.794 179.497 138.845C168.165 140.971 158.794 132.128 153.21 123.511C151.767 121.266 150.943 118.784 150.504 117.089C148.776 116.901 147.235 116.942 146.253 117.065C142.071 117.59 138.803 116.884 135.924 113.918C135.115 117.327 132.257 118.858 127.652 119.609C124.341 120.148 122.088 120.936 119.907 123.466C119.381 123.801 119.184 123.25 119.184 123.25C118.604 118.867 115.426 119.263 114.271 115.954C111.859 117.505 108.047 118.608 100.214 116.142C95.4043 114.628 91.7927 114.989 88.2645 116.753C87.617 116.877 87.6846 116.262 87.6846 116.262C88.6566 113.114 89.8876 111.279 90.991 109.751C91.9042 108.487 92.7978 107.332 93.3037 105.834C90.5585 106.326 87.5156 106.608 84.4926 106.534C83.8989 107.042 83.1481 107.798 82.2201 108.752C77.8283 113.263 73.3746 117.566 68.1628 121.167C63.5717 124.544 60.7591 126.356 57.3816 126.814C55.8267 126.768 54.3811 126.016 53.5773 124.766C50.4696 122.959 49.0436 124.654 49.2597 127.701L49.2528 127.811C49.0335 128.915 48.1197 129.866 47.222 130.48C45.8781 131.719 47.8486 132.868 49.8013 131.852C52.6982 130.346 53.4597 134.88 50.9704 135.639C49.3068 136.147 47.8745 136.091 46.2055 135.846C44.9994 135.669 44.2319 137.358 45.1874 138.21C47.064 138.926 48.6369 141.443 48.1636 142.63C47.6817 146.304 51.0418 144.65 50.5628 142.038C49.656 137.43 54.9587 138.68 54.583 140.767C54.2067 141.782 53.0632 144.632 55.2794 144.133C56.2583 143.119 58.541 143.09 59.6001 143.693C61.3867 144.07 62.3738 142.417 60.4893 140.875L59.626 139.953L59.5322 139.789C58.6525 136.859 63.6949 135.141 64.4419 138.296L64.4529 138.398C64.3787 143.109 66.0704 142.358 67.1937 140.422C67.8513 139.359 69.0744 139.304 70.0183 139.745C71.6967 139.828 72.5404 138.924 69.9766 137.103C67.1779 135.115 69.5298 130.758 74.5709 134.179C76.96 136.289 77.1995 138.641 76.827 141.444C78.3396 140.355 81.2162 137.193 81.9142 133.835C81.9493 133.639 82.4792 133.407 82.7076 133.779C83.6651 136.422 83.4214 140.238 82.6457 142.819C85.1445 140.905 87.8717 138.07 89.0064 133.091C89.0063 132.812 89.6326 132.613 89.7919 133.026C90.4586 134.65 90.6776 136.732 90.3891 138.975C93.1116 137.028 95.2577 134.365 96.3298 130.586C96.3892 130.361 97.0183 130.129 97.1295 130.602C97.4152 131.794 97.7132 134.531 98.4412 135.561C99.0024 133.074 101.398 129.833 103.299 128.105C105.491 126.113 107.493 124.613 107.76 121.284C107.784 121.02 108.182 120.689 108.676 121.203C109.273 121.825 109.711 122.627 109.556 123.518C112.147 123.968 116.562 126.046 120.843 128.775C124.326 130.993 127.777 133.678 130.164 136.356L129.614 136.967C127.904 135.736 121.297 134.334 117.174 134.244C111.19 134.113 105.322 136.111 99.2526 141.78C93.5492 147.108 88.636 154.201 79.5261 151.222C80.158 156.677 83.6088 163.106 90.3483 161.719C90.3483 161.719 90.7237 161.628 90.8239 161.993C91.7099 164.656 93.2983 165.918 94.8681 167.978C96.1494 169.659 95.7478 171.768 95.4008 173.722C94.3458 179.67 90.9073 188.083 90.1262 189.461C88.5798 192.189 85.8775 193.632 81.6314 191.244C78.8856 188.682 76.6936 189.131 75.9482 193.974C75.5435 196.604 73.0166 195.306 72.2851 196.872C71.5283 198.495 72.1372 199.416 73.8195 200.472C75.2635 201.379 74.3522 203.684 74.3816 205.053C75.0758 206.2 75.6048 205.884 76.1321 205.38C75.9795 203.337 77.4485 200.672 81.3395 199.98L81.4848 200.794C77.931 201.426 76.8181 203.787 76.9609 205.368C78.137 206.778 79.4834 207.839 80.413 207.618C80.413 207.618 80.8535 207.537 80.9179 207.964C81.4336 211.747 84.8557 211.28 87.3576 208.987C86.9396 207.794 87.3731 206.207 88.079 205.076L88.7808 205.514C88.1024 206.601 87.8199 207.972 88.1772 208.815C88.8092 209.44 90.2564 209.298 90.9623 209.146C93.0063 208.181 93.6222 205.446 95.441 205.329C96.308 205.273 97.1675 205.498 98.0377 205.373C99.0611 205.226 100.154 204.602 100.56 201.811C100.582 201.083 100.304 200.571 99.7275 200.353C99.5345 200.351 99.4356 200.052 99.4804 199.838C99.7307 199.067 102.722 197.689 104.78 197.687C107.431 197.687 108.497 198.367 109.446 199.44C110.887 197.334 110.275 193.796 108.711 191.935C108.544 191.771 108.643 191.241 109.107 191.263C112.037 191.837 114.475 192.367 115.685 195.624C117.271 192.728 116.753 190.821 115.782 188.437C115.599 187.995 115.963 187.664 116.358 187.916C120.515 190.115 122.447 184.886 126.862 185.426C125.977 183.056 125.197 182.858 123.07 182.266C122.785 182.313 122.685 181.671 123.064 181.471C125.08 180.875 128.073 178.352 128.328 175.686C126.036 176.295 119.964 175.037 118.035 174.019C109.611 169.573 115.953 150.88 131.689 155.496L131.985 155.917C131.985 155.917 131.918 157.073 132.104 158.634C132.293 160.211 132.736 162.162 133.739 163.756C136.537 168.205 137.631 172.257 134.624 176.682C139.471 183.094 146.596 180.803 147.42 175.446C147.428 175.209 148.056 174.945 148.233 175.423C148.651 177.389 150.098 178.694 151.748 179.646C153.433 180.619 155.242 181.183 156.194 181.679C158.356 182.809 160.386 186.555 160.23 193.202C160.52 196.019 159.808 199.025 158.053 201.283C156.696 203.028 155.767 203.243 154.167 203.525L153.944 203.503C150.63 202.205 149.566 202.496 149.136 204.817C149.268 205.486 150.266 206.54 150.504 207.664L150.51 207.798C150.437 208.418 150.086 210.058 150.789 210.467C151.489 210.051 152.308 209.698 153.007 209.698V210.522H153.012C152.508 210.522 151.79 210.82 151.085 211.256C150.052 212.215 147.591 213.91 149.215 215.451C150.389 215.754 152.118 217.213 152.502 218.981C153.445 221.385 156.446 221.349 157.845 217.368C157.946 216.937 158.272 215.513 158.662 214.6C156.644 214.133 158.329 209.641 161.053 208.717L161.319 209.501C160.193 209.882 159.195 211.132 158.781 212.275C158.578 212.836 158.284 213.933 159.265 213.793C159.331 213.77 159.456 213.73 159.629 213.698C161.124 213.415 162.373 214.231 163.163 215.505C164.706 217.557 163.046 220.017 167.065 218.014C169.776 216.222 170.458 212.989 169.606 210.515C169.528 210.317 169.826 209.986 170.218 210.032C170.955 210.473 171.807 211.239 172.436 210.608C172.707 210.337 172.339 209.51 172.18 208.816L172.182 208.817ZM77.2049 99.0396C77.2978 98.9123 77.3825 98.783 77.4586 98.6506C78.7601 96.3952 81.0216 92.9662 84.34 91.265C80.492 86.4428 79.952 83.0681 81.141 78.768C81.141 78.768 81.2225 78.2915 81.6738 78.4877C86.2877 80.0739 89.9429 80.0607 94.057 77.7006L94.4422 77.4769C87.5867 71.4512 75.8765 65.7762 68.2213 62.825C66.7773 61.9532 64.4169 60.3648 64.5168 58.3918C64.53 58.1257 64.5866 57.9207 64.5973 57.7759L64.749 57.4856C65.3257 57.0176 66.3769 56.2656 66.782 55.6488C67.0487 55.2424 67.1021 54.8215 66.6114 54.0531C66.0622 53.2979 65.0024 53.7437 64.2096 53.7065C61.3001 53.5712 60.198 49.8335 59.4165 50.0379C57.8335 50.4525 58.5571 51.3369 58.7678 52.6738C58.8623 53.2701 58.9094 53.9684 58.789 54.7783L58.7467 54.9091C57.8436 56.6368 54.6696 57.1895 54.85 53.8894C54.9682 53.0612 55.317 50.6693 53.8013 50.832C51.834 51.069 52.5649 52.9244 49.7634 53.5301C48.9807 53.6992 47.9829 53.6053 48.0369 54.71C48.2568 55.4058 50.7376 55.9957 51.2965 56.2096C53.6108 57.7402 51.4665 60.0361 49.2509 60.2744L49.0528 60.2469C47.5086 59.6285 45.5138 60.3095 46.699 62.1766C47.5942 63.5868 48.139 64.1135 47.787 66.0486C47.7402 66.3039 47.5882 66.8366 47.701 67.0856C47.9686 67.6759 49.3713 68.1922 51.2188 65.2169L51.3689 65.0738C54.3419 63.4155 57.174 65.9478 53.8692 68.499C52.2799 69.4978 52.3987 70.7737 55.4235 72.7161L55.5872 72.9186L56.3832 75.0404C57.2692 76.183 57.8468 75.8967 58.1792 75.2767C58.6301 74.4356 58.74 72.7363 57.9921 70.7576C57.1829 66.4322 63.5015 66.3649 63.6055 71.3311C63.6219 72.1182 62.9441 74.0324 62.7267 74.8502C62.327 76.3514 62.0294 77.9837 62.3239 79.3298C62.9242 82.0728 62.2799 85.1068 59.6962 86.5262C62.1191 87.6565 63.7436 87.3699 65.9491 85.8045C66.1488 85.6427 66.6455 85.742 66.6003 86.1771C66.2123 90.67 66.6645 92.1307 68.9449 94.2816C69.0561 91.846 70.1744 89.789 71.2607 88.7488C71.4816 88.5905 71.813 88.557 71.9299 88.8926C72.7006 90.8011 73.2899 92.5908 72.9458 94.6608C73.9898 93.753 75.0714 92.3665 76.1849 90.4725C76.3508 90.3123 76.6488 90.0475 76.9034 90.4832C78.6808 93.7122 75.2938 97.4727 77.2024 99.0368L77.2049 99.0396ZM127.354 59.6655C127.32 60.7291 127.198 61.2697 126.881 62.1586L126.832 62.2793L126.754 62.4638C125.59 65.1522 124.066 66.3946 121.338 65.2229C118.016 63.7969 115.699 63.3309 111.524 64.6586C111.251 64.9638 111.064 65.0242 110.923 65.4647C110.847 66.9333 111.319 69.0965 111.743 69.6258C112.162 70.1503 112.533 70.2438 113.581 70.2448C122.08 69.4239 123.517 72.9666 122.856 75.5295C122.023 78.7576 117.653 81.2266 108.182 77.4444C105.128 76.2259 100.146 75.5937 96.6992 77.1641C94.797 78.0305 93.5776 79.1203 91.4122 79.8139C89.0794 80.5618 86.0444 80.7786 81.8286 79.4085C80.8402 83.3238 81.4418 86.4415 85.3107 91.1471C85.3107 91.1471 85.5628 91.5721 85.1603 91.7866C81.8406 93.2717 79.5359 96.7045 78.174 99.0636C77.166 100.811 74.945 102.09 73.0678 102.926C78.5927 106.23 87.113 106.205 93.8118 104.901C94.4058 104.757 94.2914 105.409 94.2914 105.409C93.7874 107.379 92.8177 108.634 91.6606 110.237C90.6959 111.573 89.6516 113.12 88.7719 115.606C92.2373 114.103 95.8571 113.906 100.461 115.355C108.646 117.933 112.141 116.48 114.266 114.96C114.676 114.693 114.875 114.958 114.908 115.198C115.71 118.487 118.918 118.225 119.852 122.301C122.044 120.056 124.386 119.302 127.518 118.794C132.385 118.001 134.807 116.407 135.257 112.973C135.257 112.973 135.445 112.442 135.98 112.756C138.774 115.987 141.893 116.781 146.151 116.247C147.891 116.029 151.242 116.055 154.427 117.049C152.716 113.055 152.219 109.344 152.787 106.053C153.551 101.629 152.585 98.4411 151.17 94.3638C151.038 94.0193 151.503 93.6256 151.873 93.9568C153.032 95.2889 154.148 95.925 155.266 96.3522C152.86 90.6017 152.613 87.586 153.058 84.1848C154.046 80.0455 153.874 76.5697 152.79 71.3355C152.702 70.9737 153.232 70.7418 153.487 70.9598C154.428 71.9005 155.413 72.2471 156.478 72.3002C155.634 71.0041 154.042 67.8936 154.509 63.3991C154.681 58.4774 154.411 55.6039 152.544 53.5279C151.839 54.2809 151.075 54.6531 150.501 54.7776L150.325 53.97C150.786 53.8698 151.531 53.5115 152.201 52.6584C156.563 46.9072 155.933 42.985 155.445 41.3523C154.599 39.9092 148.718 41.0556 148.066 41.1902C146.874 41.8013 146.209 42.493 145.957 43.2318L145.175 42.9651C145.402 42.2999 145.851 41.7179 146.492 41.2104L118.136 41.212C116.805 42.3616 115.371 43.0002 113.764 43.61C112.796 43.9778 111.781 44.4537 110.892 44.975C110.384 45.2733 110.014 45.6101 109.797 46.1599C109.713 46.5006 109.489 47.3174 109.904 47.5562C110.417 47.0241 110.848 46.56 111.154 46.237L111.754 46.8052C111.411 47.1676 110.922 47.748 110.4 48.3851C109.449 49.7194 109.277 51.7322 109.676 53.2865C109.968 54.4218 110.687 55.4737 112.388 55.8813C115.579 56.6451 118.946 53.7769 122.515 53.9447C125.801 54.098 126.865 55.5404 127.219 58.0205C127.303 58.6095 127.352 59.1533 127.35 59.6677M61.1086 50.4285C62.5179 48.792 61.9077 45.7981 61.4742 43.9247C65.7813 46.9167 67.006 47.8523 66.673 52.9955C66.8882 53.1146 67.0958 53.2982 67.2977 53.576C68.7073 55.7594 66.8705 56.8438 65.4056 58.0249C65.0754 59.9126 67.2383 61.253 68.5648 62.0638C76.3198 65.057 88.2692 70.8458 95.2018 77.0317C99.0678 74.7715 104.457 75.0635 108.495 76.675C117.912 80.4329 121.443 77.7237 122.063 75.321C122.506 73.6062 121.914 70.2622 113.629 71.0685C112.512 71.0685 111.775 70.9791 111.105 70.1405C110.48 69.3594 110.015 66.8923 110.108 65.3629L110.125 65.2691C110.347 64.5309 110.584 64.518 110.971 64.0386L111.166 63.905C115.637 62.461 118.175 62.9596 121.673 64.4608C124.18 65.5377 125.183 64.0775 126.037 62.059C122.396 60.1474 120.071 60.5657 115.875 61.0173C114.377 61.1784 112.807 61.8963 111.376 62.3422C109.461 62.9387 107.2 63.5075 104.836 63.462C101.704 63.4019 98.5862 61.9917 97.4781 58.4702C96.557 55.5442 97.8538 53.1927 100.154 51.5663C100.559 54.339 101.699 56.028 104.174 57.3958C109.429 60.3016 114.039 56.6972 119.325 56.823C121.875 56.8833 124.361 57.7567 126.517 59.1002C126.498 58.7956 126.462 58.4755 126.414 58.1336C126.11 56.0099 125.344 54.8999 122.489 54.7656C118.87 54.5956 115.838 57.5494 112.208 56.6804C108.817 55.8684 108.422 52.8792 108.832 50.0101C108.93 49.3191 109.183 48.762 109.496 48.2634C108.646 47.7569 108.815 46.724 109.014 45.9299C109.619 44.3469 111.133 43.9898 112.428 43.2877C113.159 42.8908 113.992 42.6592 114.757 42.3303C115.647 41.9486 116.646 41.4209 117.652 40.5415C117.197 34.5158 115.21 29.9948 110.802 25.7186C114.276 23.8101 116.661 24.9252 118.7 28.0755C121.286 26.0059 124.091 28.4041 124.539 30.8843C120.159 32.5292 121.686 35.9589 125.078 35.9589C128.962 35.9589 129.635 32.0259 125.877 30.9983C125.694 28.5972 127.138 27.0236 129.613 26.8922C129.795 25.0883 131.008 22.9301 132.789 22.2227C134.73 22.9952 135.678 24.742 136.143 26.6495C138.626 26.7497 140.227 28.7915 140.33 31.0451C135.823 32.3043 137.362 35.8957 140.976 35.897C143.955 35.8979 145.965 32.2502 141.56 30.9857C141.615 28.4086 144.378 25.8953 147.038 27.5886C149.314 24.2664 151.972 24.3059 155.046 26.1547C150.864 30.2302 148.265 34.6779 147.931 40.3687C149.571 40.0243 155.169 39.0119 156.207 40.9918C156.79 42.8823 157.414 47.0017 153.081 52.871C155.186 55.1296 155.494 58.1817 155.367 62.7706L155.345 63.4626C155.058 66.2306 155.671 70.1769 157.607 72.4276C157.981 72.9214 157.32 73.1107 157.32 73.1107C156.121 73.1859 154.949 73.0244 153.838 72.2945C154.729 76.9827 154.826 80.3675 153.888 84.3049L153.839 84.7056C153.473 87.9165 153.808 90.9057 156.402 96.872C156.488 97.1608 156.417 97.5011 155.9 97.4316C154.808 97.0903 153.688 96.6584 152.539 95.7342C153.73 99.2384 154.258 102.458 153.614 106.187C153.039 109.517 153.61 113.358 155.58 117.568C155.58 117.568 155.695 118.2 155.059 118.13C153.862 117.677 152.607 117.381 151.404 117.2C151.848 118.829 152.628 121.051 153.919 123.059C159.313 131.382 168.405 140.084 179.358 138.03C184.699 137.029 189.188 133.446 191.833 128.912C194.39 124.531 195.194 119.306 193.42 114.716C191.652 110.146 189.501 108.136 186.186 105.58C184.508 104.288 182.548 102.867 180.214 100.927C177.874 98.9834 175.159 96.519 171.98 93.1438C169.877 90.913 166.635 83.6998 164.314 82.7768C162.45 82.0355 160.599 81.7673 157.557 84.2787C157.186 84.5807 156.922 84.4812 156.881 83.9475C157.064 77.6409 159.332 74.4707 165.322 74.4618C166.516 69.4119 168.208 65.6821 172.232 62.4357C177.212 58.419 183.339 56.0908 188.901 53.0258C191.481 51.6049 197.579 48.3838 196.104 44.6388C192.278 42.092 194.728 38.754 196.549 37.9875C206.465 33.8124 217.603 42.5129 208.832 52.8922C204.943 57.4944 195.855 60.5357 190.254 63.1315C182.14 66.89 170.446 73.7477 177.475 84.4284C178.066 85.3252 178.769 86.1976 179.573 87.0305C186.421 94.1261 193.968 98.8386 199.424 107.376C200.867 106.074 202.655 105.216 204.521 104.842C205.845 104.619 207.217 104.586 208.66 104.834C217.353 106.626 219.192 118.927 209.814 121.679C209.256 121.807 209.157 121.376 209.331 121.091C213.507 113.116 204.031 111.915 203.299 120.137C202.441 130.12 198.911 135.877 191.248 142.584C185.783 146.564 178.065 148.833 171.578 147.18C171.873 150.594 170.845 153.495 168.715 156.122C163.864 164.301 169.884 171.128 176.356 172.735C180.277 173.326 188.154 174.33 190.96 171.401C191.168 171.194 191.67 171.203 191.671 171.662C191.851 174.549 191.561 177.162 187.834 179.491C191.292 183.086 191.669 185.723 191.214 189.089C191.169 189.345 190.87 189.644 190.537 189.349C187.83 187.052 185.471 187.152 182.324 188.495C184.372 191.843 184.761 193.414 184.404 197.696C184.404 197.696 184.212 198.223 183.715 197.968C182.312 196.698 179.023 194.874 177.651 197.34C176.558 199.306 178.687 200.056 176.168 202.708C179.489 205.903 180.072 209.848 178.383 213.889C176.958 211.074 175.152 210.038 173.136 209.632C173.379 211.317 173.292 212.34 170.651 211.19C171.162 213.814 170.254 216.912 167.509 218.713C166.231 219.354 164.801 220.009 163.922 219.264C162.438 220.86 161.556 223.428 162.252 226.377C159.9 224.654 158.262 221.583 158.011 218.973C156.543 221.452 154.015 222.289 152.488 220.55C150.504 222.16 150.504 224.386 150.113 227.429C147.496 223.446 145.848 219.992 148.433 215.814C146.874 214.054 148.682 212.272 150.038 211.084C147.557 211.184 145.875 211.66 144.355 213.541L143.526 214.454L143.623 213.237C143.714 212.389 143.784 211.529 143.929 210.681C144.443 207.673 145.902 205.891 148.341 204.614C148.947 201.466 150.9 201.426 154.157 202.683C155.568 202.432 156.267 202.252 157.42 200.769C159.051 198.671 159.7 195.87 159.425 193.255C159.582 186.628 157.561 183.31 155.83 182.404C154.873 181.904 153.051 181.334 151.354 180.355C149.99 179.567 148.654 178.492 147.909 176.947C146.022 182.212 138.548 183.486 133.8 176.924C133.8 176.924 133.602 176.626 133.798 176.443C136.778 172.236 135.772 168.502 133.058 164.187C131.656 161.957 131.121 158.82 131.168 156.194C115.967 151.946 110.737 171.005 119.076 173.541C123.326 174.834 127.078 175.466 128.587 174.711C128.587 174.711 129.163 174.572 129.184 175.057C129.351 177.963 126.689 180.622 124.457 181.781L124.675 181.853C126.583 182.512 127.307 183.959 127.9 185.845C127.9 185.845 127.971 186.364 127.387 186.364C123.431 185.174 121.316 190.429 116.919 189.031C117.774 191.397 118.005 193.603 115.928 196.852C115.582 197.261 115.185 196.996 115.178 196.728C114.456 193.789 112.617 192.778 109.979 192.257C111.3 194.432 111.693 198.41 109.76 200.368C109.421 200.739 109.145 200.338 109.145 200.338C108.238 199.22 107.48 198.501 104.797 198.505C103.145 198.507 101.266 199.409 100.566 199.857C101.187 200.321 101.432 201.071 101.402 201.855C101.071 204.169 100.368 205.337 99.2084 205.854C99.8015 210.945 97.5507 212.927 93.0231 215.472C94.086 211.958 94.5044 210.975 92.9286 208.733C92.5068 209.17 91.9842 209.586 91.2843 209.908C90.1471 210.168 88.806 210.241 87.8606 209.595C86.2681 211.048 83.3368 212.387 81.5452 211.036C79.6585 212.357 79.8784 214.476 80.358 216.678C75.9249 215.272 74.9832 210.393 76.0124 206.478C75.3627 206.804 74.5311 206.81 73.7335 205.543C72.0487 205.973 70.9517 207.748 70.7674 209.979C67.7202 206.071 67.5887 202.693 71.2215 198.714C71.0698 198.086 71.1548 197.368 71.5527 196.516C71.7836 196.021 72.1028 195.723 72.4548 195.528C70.406 194.534 67.5878 194.777 65.5203 196.899C66.1301 192.425 70.7807 188.081 76.8466 189.665C78.1753 188.332 80.0613 188.647 82.0962 190.54C85.9069 192.664 88.0998 191.382 89.4238 189.047C90.1587 187.75 93.5663 179.426 94.6036 173.571C94.8861 171.979 94.9847 170.614 94.8283 169.635C94.6959 168.802 93.4595 167.563 92.9229 166.946C91.9718 165.854 90.8763 164.48 90.1771 162.588C82.7841 163.828 79.1681 156.616 78.6543 150.648C78.586 149.962 79.2082 150.225 79.2082 150.225C85.7575 152.625 89.6924 149.874 94.0876 145.661C95.555 144.255 97.0566 142.707 98.7019 141.169C104.915 135.367 110.987 133.275 117.206 133.411C120.375 133.48 125.118 134.315 128.034 135.326C125.873 133.253 123.162 131.219 120.413 129.466C115.853 126.561 111.286 124.494 109.003 124.267C108.56 124.161 108.66 123.702 108.66 123.702C108.9 123.103 108.72 122.588 108.481 122.224C107.791 125.907 105.418 127.032 103.168 129.402C101.452 131.21 99.2703 134.287 99.1578 136.465C99.021 136.979 98.4902 136.77 98.4902 136.77C97.1058 135.687 96.9744 133.843 96.6597 132.256C95.2962 135.831 93.1713 138.187 90.3085 140.026C89.7872 140.354 89.3811 140.158 89.4383 139.769C89.7938 137.892 89.7764 136.134 89.4516 134.666C87.8764 139.769 84.9204 142.256 82.3256 144.066C81.9638 144.267 81.3183 144.266 81.4147 143.781C82.3136 141.872 82.8274 138.272 82.3108 135.45C80.9701 139.041 77.7281 142.148 76.4737 142.586C75.7672 142.586 75.9245 142.172 75.9245 142.172C75.9865 141.06 76.2339 140.022 76.1419 138.892C76.0361 137.593 75.5596 136.148 74.0953 134.842C70.1067 132.148 68.4731 135.007 70.4663 136.422C72.3202 137.738 73.0235 139.522 71.8209 140.245C72.5809 144.212 70.2183 146.616 65.9181 147.737C67.182 145.313 67.6494 144.093 66.4736 142.442C65.0533 143.326 63.5875 142.385 63.6361 138.431C63.1182 136.477 59.8861 137.659 60.3111 139.456L61.0656 140.264C62.7356 141.649 62.6793 143.792 61.1816 144.413C60.9775 147.793 61.2998 149.766 63.6772 152.714C58.9312 152.178 55.6434 149.475 54.4253 145.013C52.5323 144.788 53.2313 142.053 53.7814 140.586C53.7937 139.975 50.7066 138.431 51.3844 141.874C51.9964 145.216 48.2025 146.896 47.4331 144.312C45.195 145.634 44.5409 147.788 44.0467 150.867L43.4754 150.301C41.1091 147.957 40.8389 141.235 44.2714 138.366C43.4182 136.968 44.3769 134.732 46.335 135.02C47.6795 135.218 52.119 135.724 51.6274 133.121C51.2425 131.084 48.8388 134.232 46.6504 132.576C45.9565 132.051 45.752 131.215 46.2052 130.434C44.2651 130.035 41.8023 130.49 40.2578 131.81C40.2578 128.1 42.2096 124.983 49.0038 124.578C49.8288 123.096 51.53 122.571 54.0942 124.102L54.2446 124.257C54.2446 124.257 54.2986 124.352 54.4095 124.498C55.1015 125.406 56.1579 125.936 57.3105 125.985C60.4346 125.551 63.0889 123.871 67.6835 120.492C72.8561 116.919 77.2753 112.646 81.634 108.17C82.2637 107.523 82.8265 106.951 83.3213 106.482C79.1406 106.247 75.0553 105.284 71.9584 103.186C71.6553 102.981 71.6563 102.627 72.0364 102.464C73.6062 101.822 75.4679 100.881 76.6702 99.6624C74.4227 97.8541 77.2523 94.2844 76.4826 91.5885C75.1646 93.6967 73.8397 95.1891 72.4987 96.0217C72.1372 96.2457 71.7482 95.8321 71.8898 95.5461C72.5549 93.4787 72.1622 91.7661 71.4155 89.8111C70.4954 90.9597 69.6397 92.9406 69.7895 95.1891C69.7857 95.821 69.2059 95.6226 69.1041 95.5272C66.1712 92.9501 65.4261 91.4163 65.7213 86.9484C63.3694 88.3978 61.4041 88.417 58.5536 86.8615C58.1928 86.6469 58.3587 86.2659 58.6102 86.1101C61.3876 85.0999 62.1175 82.1995 61.526 79.5011C61.0394 77.2797 61.9144 74.7266 62.5267 72.5849C62.6996 71.9814 62.7934 71.5706 62.7887 71.3428C62.7106 67.6102 58.2506 67.4275 58.7884 70.4954C59.5707 72.5887 59.5186 74.5399 58.9176 75.6619C58.3713 76.681 57.4508 76.9173 56.5418 76.3122C52.8698 78.4368 50.9322 78.4034 47.3215 75.4998C50.1066 74.6552 51.6172 73.5044 52.6843 71.4594C51.6684 70.18 51.6918 68.9009 53.4041 67.8159C55.8615 65.9073 53.8237 64.7186 51.871 65.7411C50.2415 68.3003 47.9541 69.2517 47.0368 67.5827C45.0983 68.0247 44.3892 68.7862 43.7835 71.4572C41.6339 69.895 41.1463 64.2014 45.6655 61.6145C45.4117 59.6807 47.0858 58.6117 49.2683 59.4342C50.3969 59.2838 52.4707 58.0123 50.9651 56.9588C49.9868 56.5973 47.5139 56.1322 47.2308 54.8576C47.1894 54.2168 47.3269 53.7971 47.5768 53.5093C45.916 51.8175 44.3918 51.9332 41.4383 52.2422C44.4193 47.6624 48.3516 47.5705 52.5513 50.3369C52.8214 50.1795 53.1779 50.0692 53.7157 50.0045C56.0233 49.7574 55.8858 52.5111 55.6807 53.9643C55.572 56.0845 57.3374 55.6687 57.9893 54.5776C58.1593 53.3232 57.8705 52.5373 57.666 51.354C57.35 49.5273 59.2522 48.5999 60.3793 49.6161C60.6479 49.855 60.884 50.1324 61.107 50.4206L61.1086 50.4285Z" fill="black"/>
<path d="M137.537 142.629C139.607 142.629 140.734 138.849 140.836 138.487C140.922 137.999 141.686 138.065 141.654 138.595C141.566 140.029 140.903 141.295 139.961 142.542C139.384 143.325 138.701 144.096 137.977 144.852C135.398 147.665 132.352 150.826 131.992 155.918C131.954 156.467 131.129 156.409 131.167 155.859C131.507 151.059 133.935 148.102 136.799 144.925C137.048 144.106 133.978 141.135 133.572 140.711C132.376 139.464 131.106 137.918 129.637 136.977C129.146 136.662 129.601 135.956 130.103 136.294C131.938 137.526 134.346 139.86 135.475 140.987C135.841 141.351 137.019 142.629 137.536 142.629M146.823 46.2527C147.319 45.6176 148.1 44.1945 150.753 42.668C148.134 43.0136 146.216 45.1528 145.952 45.6205C145.274 46.8247 146.136 47.1353 146.823 46.2527ZM123.314 47.498C121.498 47.498 119.727 45.5456 118.002 47.1343C117.609 45.8894 119.726 45.3639 119.772 43.7293C120.68 44.4558 121.089 46.2265 123.314 47.498" fill="black"/>
<path d="M187.42 47.9934H178.835L174.542 55.5576L170.249 47.9934H161.664L165.957 40.4292L161.664 32.865H170.249L174.542 25.3008L178.835 32.865H187.42L183.127 40.4292L187.42 47.9934Z" fill="black"/>
<path d="M163.07 47.1687L166.894 40.4289L163.07 33.689H170.72L174.547 26.9492L178.37 33.689H186.02L182.197 40.4289L186.02 47.1687H178.37L174.547 53.9085L170.72 47.1687H163.07Z" fill="white"/>
<path d="M213.428 86.8919H204.843L200.55 94.4561L196.257 86.8919H187.672L191.965 79.3276L187.672 71.7634H196.257L200.55 64.1992L204.843 71.7634H213.428L209.135 79.3276L213.428 86.8919Z" fill="black"/>
<path d="M189.078 86.0671L192.901 79.3273L189.078 72.5875H196.728L200.554 65.8477L204.378 72.5875H212.028L208.204 79.3273L212.028 86.0671H204.378L200.554 92.807L196.728 86.0671H189.078Z" fill="white"/>
<path d="M66.5998 113.654H58.0147L53.7218 121.218L49.4289 113.654H40.8438L45.1366 106.089L40.8438 98.5252H49.4289L53.7218 90.9609L58.0147 98.5252H66.5998L62.3069 106.089L66.5998 113.654Z" fill="black"/>
<path d="M42.25 112.829L46.0733 106.089L42.25 99.3492H49.8998L53.7263 92.6094L57.5497 99.3492H65.1995L61.3762 106.089L65.1995 112.829H57.5497L53.7263 119.569L49.8998 112.829H42.25Z" fill="white"/>
<path d="M74.5998 178.962H66.0147L61.7218 186.526L57.4289 178.962H48.8438L53.1366 171.398L48.8438 163.834H57.4289L61.7218 156.27L66.0147 163.834H74.5998L70.3069 171.398L74.5998 178.962Z" fill="black"/>
<path d="M50.25 178.137L54.0733 171.398L50.25 164.658H57.8998L61.7263 157.918L65.5497 164.658H73.1995L69.3762 171.398L73.1995 178.137H65.5497L61.7263 184.877L57.8998 178.137H50.25Z" fill="white"/>
<path d="M138.717 222.587H130.132L125.839 230.151L121.546 222.587H112.961L117.254 215.023L112.961 207.459H121.546L125.839 199.895L130.132 207.459H138.717L134.424 215.023L138.717 222.587Z" fill="black"/>
<path d="M114.367 221.762L118.191 215.023L114.367 208.283H122.017L125.844 201.543L129.667 208.283H137.317L133.493 215.023L137.317 221.762H129.667L125.844 228.502L122.017 221.762H114.367Z" fill="white"/>
<path d="M212.483 165.732H203.897L199.605 173.296L195.312 165.732H186.727L191.019 158.167L186.727 150.603H195.312L199.605 143.039L203.897 150.603H212.483L208.19 158.167L212.483 165.732Z" fill="black"/>
<path d="M188.133 164.907L191.956 158.167L188.133 151.427H195.783L199.609 144.688L203.433 151.427H211.082L207.259 158.167L211.082 164.907H203.433L199.609 171.647L195.783 164.907H188.133Z" fill="white"/>
<path d="M185.639 125.169H177.054L172.761 132.733L168.468 125.169H159.883L164.176 117.605L159.883 110.041H168.468L172.761 102.477L177.054 110.041H185.639L181.346 117.605L185.639 125.169Z" fill="black"/>
<path d="M161.289 124.344L165.112 117.605L161.289 110.865H168.939L172.765 104.125L176.589 110.865H184.239L180.415 117.605L184.239 124.344H176.589L172.765 131.084L168.939 124.344H161.289Z" fill="white"/>
<path d="M96.7561 47.3255H88.1709L83.878 54.8897L79.5851 47.3255H71L75.2929 39.7612L71 32.197H79.5851L83.878 24.6328L88.1709 32.197H96.7561L92.4632 39.7612L96.7561 47.3255Z" fill="black"/>
<path d="M72.4062 46.5007L76.2296 39.7609L72.4062 33.0211H80.0561L83.8826 26.2812L87.7059 33.0211H95.3558L91.5324 39.7609L95.3558 46.5007H87.7059L83.8826 53.2406L80.0561 46.5007H72.4062Z" fill="white"/>
<path d="M172.987 208.74C174.805 209.038 177.033 210.246 178.208 211.965C178.844 208.874 178.298 205.752 175.307 203.051C172.384 204.038 172.659 206.647 172.987 208.742M149.121 216.285C147.092 219.661 148.064 222.549 149.577 225.088C149.892 222.901 150.343 221.148 151.989 219.842C151.891 219.66 151.801 219.463 151.72 219.248C151.412 217.783 150.011 216.578 149.121 216.285M148.521 205.45C146.416 206.603 145.183 208.198 144.733 210.828C144.66 211.254 144.607 211.683 144.56 212.113C146.011 210.796 147.649 210.393 149.667 210.281C149.428 209.5 149.607 208.473 149.69 207.771C149.554 207.201 148.867 206.232 148.522 205.45M159.631 214.548C157.898 218.167 159.045 221.692 161.236 224.295C161.228 221.749 162.167 219.868 163.424 218.57C163.367 218.435 163.316 218.285 163.272 218.117C163.078 217.379 162.96 216.603 162.483 215.975C161.855 214.957 160.827 214.218 159.633 214.548M93.4825 208.089C94.9287 210.069 95.0564 211.271 94.3935 213.74C97.0581 212.118 98.797 210.285 98.3903 206.113C97.7722 206.23 97.0575 206.236 96.2353 206.175C94.6491 206.058 94.5644 206.642 93.6396 207.885L93.4822 208.091M76.8611 206.493C75.8291 210.12 76.8586 214.076 79.2575 215.397C79.0328 213.719 79.2325 211.66 80.9337 210.417C80.5925 209.941 80.3296 209.305 80.1738 208.474C79.024 208.478 77.8122 207.512 76.8611 206.492M71.5694 199.537C68.4643 202.71 68.9626 205.479 70.368 208.398C70.8546 206.31 72.0554 205.078 73.5907 204.697C73.6956 203.559 74.119 201.629 73.3913 201.172C72.6055 200.678 71.9625 200.152 71.5694 199.537M76.2791 190.387C71.5299 189.311 68.4504 191.88 66.9703 194.963C69.2195 193.745 71.1002 193.784 73.5221 195.168C74.2928 194.983 74.9905 194.835 75.1428 193.848C75.3719 192.358 75.7634 191.206 76.2791 190.387ZM67.122 141.916C67.9578 143.059 68.3132 144.403 67.4797 146.444C70.5339 145.322 71.4098 143.014 71.0092 140.534C70.6938 140.585 70.3222 140.6 69.89 140.571L69.7317 140.528C69.0005 140.158 68.2728 140.265 67.9053 140.858C67.6652 141.271 67.3991 141.627 67.122 141.916ZM55.2778 144.985C56.2874 148.334 58.722 150.876 61.7883 151.62C60.4602 149.552 60.2084 147.323 60.3411 144.596C60.0447 144.607 59.7173 144.574 59.3581 144.49L59.233 144.438C58.413 143.926 56.4242 144.041 55.8273 144.771L55.6096 144.91C55.494 144.939 55.3834 144.963 55.2778 144.983M44.8603 138.973C42.1018 141.236 41.9249 146.523 43.5222 149.056C44.0856 146.443 45.2032 144.547 47.2975 143.423C47.2902 143.136 47.3085 142.817 47.3575 142.465L47.3961 142.339C47.6286 141.865 46.6384 139.617 44.8588 138.973M48.648 125.441C43.2113 125.836 41.9274 127.587 40.9688 130.554C42.7591 129.553 44.77 129.178 46.857 129.736C47.556 129.227 48.2508 128.507 48.4331 127.706C48.3807 126.883 48.4527 126.108 48.6477 125.44M53.2761 72.1159C52.4514 73.5732 51.1708 74.985 49.0477 75.8205C51.1395 77.3315 52.7759 77.4613 55.8858 75.7389C55.8207 75.6644 55.7566 75.5854 55.6927 75.501L55.6349 75.3967L54.8655 73.3448C54.2528 72.9435 53.7144 72.5311 53.2761 72.1162M45.9012 62.4473C42.713 64.3779 42.4267 67.6012 43.482 70.445C43.7503 68.4714 44.8487 67.2874 46.8352 66.8068C46.857 65.8494 47.574 64.7653 46.3353 63.089C46.1827 62.8833 46.0222 62.6745 45.9012 62.4473ZM65.8489 52.8005C66.0831 48.6738 65.1813 47.5751 62.7046 45.8047C62.9865 47.7729 62.7852 49.8928 61.6334 51.1488C62.2869 52.0266 62.9786 52.8289 64.2529 52.8883C64.8166 52.9148 65.3494 52.7903 65.8486 52.8014M51.9266 50.9362C47.962 48.4185 44.9498 49.1379 43.1323 51.2673C45.4775 51.1343 46.9066 51.582 48.2893 53.0602C49.2196 52.705 50.5369 52.7164 51.3142 51.7587C51.5708 51.4433 51.7503 51.1687 51.9266 50.9362Z" fill="#FBC707"/>
<path d="M147.478 40.7146H118.06C117.703 34.6509 115.447 29.6755 111.469 25.813C114.378 24.2173 116.752 25.6367 118.593 28.7203C120.435 26.7695 123.578 28.011 124.051 30.6228C119.776 32.228 121.14 36.3778 125.058 36.3778C129.564 36.3778 129.923 31.6871 126.247 30.6807C126.121 29.0161 127.282 27.2766 129.982 27.3016C130.04 25.1049 131.577 23.1452 132.77 22.6719C134.426 23.331 135.38 25.1049 135.794 27.0652C138.574 26.9872 139.824 29.4389 139.883 30.7401C135.44 31.9819 136.798 36.3143 140.958 36.3152C144.513 36.3162 146.286 31.9228 141.962 30.6813C142.021 27.8931 145.4 26.6516 147.123 28.1889C149.311 24.691 151.981 24.8098 154.355 26.2377C148.877 31.5771 147.562 37.1007 147.478 40.7146" fill="#FBC707"/>
<path d="M147.478 40.7146H118.06C117.703 34.6509 115.447 29.6755 111.469 25.813C114.378 24.2173 116.752 25.6367 118.593 28.7203C120.435 26.7695 123.578 28.011 124.051 30.6228C119.776 32.228 121.14 36.3778 125.058 36.3778C129.564 36.3778 129.923 31.6871 126.247 30.6807C126.121 29.0161 127.282 27.2766 129.982 27.3016C130.04 25.1049 131.577 23.1452 132.77 22.6719C134.426 23.331 135.38 25.1049 135.794 27.0652C138.574 26.9872 139.824 29.4389 139.883 30.7401C135.44 31.9819 136.798 36.3143 140.958 36.3152C144.513 36.3162 146.286 31.9228 141.962 30.6813C142.021 27.8931 145.4 26.6516 147.123 28.1889C149.311 24.691 151.981 24.8098 154.355 26.2377C148.877 31.5771 147.562 37.1007 147.478 40.7146" stroke="black" stroke-width="0.821545"/>
<path d="M99.8277 52.2972C100.184 54.7397 101.787 56.5607 103.958 57.762C109.422 60.7844 113.973 57.1146 119.299 57.2407C121.32 57.2884 124.212 57.9519 126.927 59.8772C126.905 60.5752 126.785 61.217 126.543 61.8694C122.86 59.7236 120.092 60.1502 115.813 60.6109C113.661 60.8431 109.421 63.1419 104.826 63.0534C101.804 62.9956 98.8918 61.6464 97.8557 58.351C97.055 55.8042 98.1976 53.4496 99.8261 52.2969L99.8277 52.2972Z" fill="#F0432A" stroke="black" stroke-width="0.821545"/>
</svg>
